<svg width="88.000000" height="33.000000" viewBox="0 0 88 33" fill="none" xmlns="http://www.w3.org/2000/svg" xmlns:xlink="http://www.w3.org/1999/xlink">
	<desc>
			Created with Pixso.
	</desc>
	<defs/>
	<path id="Vector" d="M1.27 18.53L1.27 0.25L9.88 0.25C11.39 0.25 12.66 0.43 13.69 0.81C14.72 1.18 15.5 1.71 16.02 2.4C16.55 3.08 16.82 3.89 16.82 4.82C16.82 5.49 16.66 6.1 16.33 6.66C16.02 7.21 15.57 7.68 15 8.05C14.42 8.42 13.75 8.68 12.98 8.82L12.98 9C13.83 9.03 14.61 9.23 15.31 9.6C16 9.96 16.56 10.46 16.97 11.1C17.39 11.74 17.59 12.49 17.59 13.36C17.59 14.36 17.31 15.25 16.74 16.03C16.18 16.81 15.38 17.42 14.34 17.86C13.3 18.31 12.06 18.53 10.62 18.53L1.27 18.53ZM6.66 14.57L9.18 14.57C10.09 14.57 10.76 14.41 11.22 14.11C11.67 13.79 11.89 13.33 11.89 12.71C11.89 12.28 11.79 11.92 11.57 11.62C11.36 11.32 11.06 11.1 10.66 10.94C10.28 10.79 9.81 10.71 9.26 10.71L6.66 10.71L6.66 14.57ZM6.66 7.64L8.87 7.64C9.34 7.64 9.76 7.57 10.12 7.43C10.48 7.3 10.76 7.1 10.96 6.84C11.17 6.58 11.27 6.26 11.27 5.89C11.27 5.32 11.05 4.89 10.62 4.59C10.18 4.29 9.62 4.14 8.95 4.14L6.66 4.14L6.66 7.64Z" fill="#FFFFFF" fill-opacity="1.000000" fill-rule="nonzero"/>
	<path id="Vector" d="M27.41 33L27.41 11.05L35.96 11.05L35.96 33L27.41 33ZM31.68 8.76C30.53 8.76 29.54 8.41 28.71 7.7C27.88 7 27.47 6.15 27.47 5.16C27.47 4.17 27.88 3.32 28.71 2.62C29.54 1.91 30.53 1.56 31.68 1.56C32.85 1.56 33.85 1.91 34.66 2.62C35.49 3.32 35.9 4.17 35.9 5.16C35.9 6.15 35.49 7 34.66 7.7C33.85 8.41 32.85 8.76 31.68 8.76Z" fill="#FFFFFF" fill-opacity="1.000000" fill-rule="nonzero"/>
	<path id="Vector" d="M51.72 10.82L51.72 18.53L46.37 18.53L46.37 4.82L51.45 4.82L51.45 7.43L51.61 7.43C51.93 6.56 52.5 5.87 53.31 5.38C54.13 4.89 55.09 4.64 56.18 4.64C57.23 4.64 58.15 4.86 58.92 5.31C59.71 5.75 60.31 6.36 60.74 7.13C61.17 7.9 61.38 8.79 61.37 9.78L61.37 18.53L56.03 18.53L56.03 10.82C56.03 10.14 55.85 9.61 55.46 9.22C55.09 8.83 54.57 8.64 53.89 8.64C53.46 8.64 53.07 8.73 52.74 8.91C52.42 9.08 52.17 9.33 52 9.66C51.82 9.98 51.73 10.37 51.72 10.82Z" fill="#FFFFFF" fill-opacity="1.000000" fill-rule="nonzero"/>
	<path id="Vector" d="M81.55 5.96C81.5 5.37 81.26 4.9 80.83 4.57C80.4 4.23 79.75 4.07 78.88 4.07C78.32 4.07 77.87 4.13 77.51 4.25C77.16 4.37 76.91 4.54 76.74 4.75C76.57 4.95 76.48 5.19 76.48 5.46C76.46 5.68 76.5 5.88 76.6 6.06C76.71 6.23 76.87 6.39 77.09 6.53C77.31 6.67 77.59 6.79 77.93 6.91C78.27 7.02 78.68 7.12 79.15 7.21L80.78 7.53C81.88 7.75 82.82 8.03 83.6 8.38C84.38 8.73 85.02 9.15 85.52 9.62C86.01 10.09 86.38 10.62 86.61 11.21C86.85 11.8 86.97 12.44 86.98 13.14C86.97 14.34 86.65 15.36 86 16.19C85.35 17.03 84.43 17.66 83.23 18.1C82.03 18.53 80.6 18.75 78.92 18.75C77.19 18.75 75.69 18.51 74.4 18.04C73.12 17.57 72.13 16.85 71.42 15.87C70.71 14.89 70.36 13.63 70.35 12.1L75.47 12.1C75.5 12.66 75.65 13.13 75.92 13.52C76.19 13.9 76.58 14.19 77.07 14.38C77.56 14.58 78.16 14.68 78.84 14.68C79.41 14.68 79.9 14.61 80.28 14.48C80.67 14.35 80.97 14.17 81.17 13.94C81.37 13.7 81.47 13.44 81.48 13.14C81.47 12.86 81.37 12.62 81.18 12.41C80.99 12.19 80.68 12 80.25 11.84C79.81 11.66 79.23 11.5 78.49 11.35L76.51 10.96C74.76 10.61 73.37 10.02 72.36 9.2C71.35 8.37 70.85 7.25 70.86 5.82C70.85 4.66 71.18 3.64 71.86 2.77C72.55 1.9 73.49 1.22 74.7 0.73C75.92 0.24 77.31 0 78.88 0C80.48 0 81.87 0.24 83.04 0.74C84.21 1.23 85.11 1.93 85.74 2.83C86.38 3.72 86.7 4.76 86.71 5.96L81.55 5.96Z" fill="#FFFFFF" fill-opacity="1.000000" fill-rule="nonzero"/>
	<path id="Vector" d="M0 22.94L88 22.94L88 25.45L0 25.45L0 22.94Z" fill="#FFFFFF" fill-opacity="1.000000" fill-rule="nonzero"/>
</svg>
