<svg width="16.000000" height="19.237263" viewBox="0 0 16 19.2373" fill="none" xmlns="http://www.w3.org/2000/svg" xmlns:xlink="http://www.w3.org/1999/xlink">
	<desc>
			Created with Pixso.
	</desc>
	<defs/>
	<path id="Vector" d="M8 18C8 18 1 12.9 1 7.8C1 5.99 1.73 4.26 3.05 2.99C4.36 1.71 6.14 1 8 1C9.85 1 11.63 1.71 12.94 2.99C14.26 4.26 15 5.99 15 7.8C15 12.9 8 18 8 18ZM8 10.35C6.55 10.35 5.37 9.2 5.37 7.8C5.37 6.39 6.55 5.25 8 5.25C9.44 5.25 10.62 6.39 10.62 7.8C10.62 9.2 9.44 10.35 8 10.35Z" stroke="#1919D3" stroke-opacity="1.000000" stroke-width="2.000000"/>
</svg>
