<svg width="16" height="20" viewBox="0 0 16 20" fill="none" xmlns="http://www.w3.org/2000/svg">
<path d="M15 7.8C15 12.9 8 18 8 18C8 18 1 12.9 1 7.8C1 5.99653 1.7375 4.26692 3.05025 2.99167C4.36301 1.71643 6.14348 1 8 1C9.85652 1 11.637 1.71643 12.9497 2.99167C14.2625 4.26692 15 5.99653 15 7.8Z" stroke="#1919D3" stroke-width="2" stroke-linecap="round"/>
<path d="M8 10.35C9.44975 10.35 10.625 9.20833 10.625 7.8C10.625 6.39167 9.44975 5.25 8 5.25C6.55025 5.25 5.375 6.39167 5.375 7.8C5.375 9.20833 6.55025 10.35 8 10.35Z" stroke="#1919D3" stroke-width="2" stroke-linecap="round"/>
</svg>
