<svg width="20.000000" height="18.000000" viewBox="0 0 20 18" fill="none" xmlns="http://www.w3.org/2000/svg" xmlns:xlink="http://www.w3.org/1999/xlink">
    <rect id="truck" width="19.999994" height="18.000000" transform="translate(-0.999939 0.000000)" fill="#FFFFFF" fill-opacity="0"/>
    <g clip-path="url(#clip5_110)">
        <path id="Vector" d="M10.11 13L10.11 4.42C10.11 4.04 9.95 3.68 9.67 3.41C9.39 3.15 9.02 3 8.62 3L2.7 3C2.31 3 1.93 3.15 1.65 3.41C1.37 3.68 1.22 4.04 1.22 4.42L1.22 12.28C1.22 12.47 1.3 12.65 1.43 12.79C1.57 12.92 1.76 13 1.96 13.44 " stroke="#000000" stroke-opacity="1.000000" stroke-width="1.000000" stroke-linejoin="round" stroke-linecap="round"/>
        <path id="Vector" d="M11.22 13.77 " stroke="#000000" stroke-opacity="1.000000" stroke-width="1.000000" stroke-linejoin="round" stroke-linecap="round"/>
        <path id="Vector" d="M14.27 13L15.94 13C16.16 13 16.37 12.92 16.53 12.79C16.69 12.66 16.77 12.48 16.77 12.3L16.77 9.74C16.77 9.58 16.71 9.43 16.59 9.3L13.69 6.26C13.61 6.18 13.51 6.11 13.4 6.06C13.29 6.02 13.16 6 13.04 6.11 " stroke="#000000" stroke-opacity="1.000000" stroke-width="1.000000" stroke-linejoin="round" stroke-linecap="round"/>
        <path id="Vector" d="M12.88 15C11.96 15 11.22 14.32 11.22 13.5C11.22 12.67 11.96 12 12.88 12C13.8 12 14.55 12.67 14.55 13.5C14.55 14.32 13.8 15 12.88 15Z" stroke="#000000" stroke-opacity="1.000000" stroke-width="1.000000" stroke-linejoin="round"/>
        <path id="Vector" d="M5.11 15C4.19 15 3.44 14.32 3.44 13.5C3.44 12.67 4.19 12 5.11 12C6.03 12 6.77 12.67 6.77 13.5C6.77 14.32 6.03 15 5.11 15Z" stroke="#000000" stroke-opacity="1.000000" stroke-width="1.000000" stroke-linejoin="round"/>
    </g>
</svg>
