<svg width="22.000000" height="23.000000" viewBox="0 0 22 23" fill="none" xmlns="http://www.w3.org/2000/svg" xmlns:xlink="http://www.w3.org/1999/xlink">
	<desc>
			Created with Pixso.
	</desc>
	<defs/>
	<path id="Vector" d="M21 23L21 20.55C21 19.25 20.39 18.01 19.32 17.09C18.25 16.18 16.8 15.66 15.28 15.66L6.71 15.66C5.19 15.66 3.74 16.18 2.67 17.09C1.6 18.01 1 19.25 1 20.55L1 23M11 10.77C8.23 10.77 6 8.58 6 5.88C6 3.18 8.23 1 11 1C13.76 1 16 3.18 16 5.88C16 8.58 13.76 10.77 11 10.77Z" stroke="#FFFFFF" stroke-opacity="1.000000" stroke-width="2.000000"/>
</svg>
