<svg width="25" height="24" viewBox="0 0 25 24" fill="none" xmlns="http://www.w3.org/2000/svg">
<path d="M20.5 13C20.5 18 17 20.5 12.84 21.95C12.6222 22.0238 12.3855 22.0203 12.17 21.94C8 20.5 4.5 18 4.5 13V6.00001C4.5 5.73479 4.60536 5.48044 4.79289 5.2929C4.98043 5.10536 5.23478 5.00001 5.5 5.00001C7.5 5.00001 10 3.80001 11.74 2.28001C11.9519 2.09901 12.2214 1.99956 12.5 1.99956C12.7786 1.99956 13.0481 2.09901 13.26 2.28001C15.01 3.81001 17.5 5.00001 19.5 5.00001C19.7652 5.00001 20.0196 5.10536 20.2071 5.2929C20.3946 5.48044 20.5 5.73479 20.5 6.00001V13Z" stroke="#34A853" stroke-width="2" stroke-linecap="round" stroke-linejoin="round"/>
<path d="M9.5 12L11.5 14L15.5 10" stroke="#34A853" stroke-width="2" stroke-linecap="round" stroke-linejoin="round"/>
</svg>
