<svg width="161" height="24" viewBox="0 0 161 24" fill="none" xmlns="http://www.w3.org/2000/svg">
<g clip-path="url(#clip0_323_10314)">
<path d="M12.5 2L15.59 8.58254L22.5 9.64458L17.5 14.7655L18.68 22L12.5 18.5825L6.32 22L7.5 14.7655L2.5 9.64458L9.41 8.58254L12.5 2Z" fill="#407BFF" stroke="#407BFF" stroke-width="2" stroke-linecap="round"/>
</g>
<g clip-path="url(#clip1_323_10314)">
<path d="M46.5 2L49.59 8.58254L56.5 9.64458L51.5 14.7655L52.68 22L46.5 18.5825L40.32 22L41.5 14.7655L36.5 9.64458L43.41 8.58254L46.5 2Z" fill="#407BFF" stroke="#407BFF" stroke-width="2" stroke-linecap="round"/>
</g>
<g clip-path="url(#clip2_323_10314)">
<path d="M80.5 2L83.59 8.58254L90.5 9.64458L85.5 14.7655L86.68 22L80.5 18.5825L74.32 22L75.5 14.7655L70.5 9.64458L77.41 8.58254L80.5 2Z" fill="#407BFF" stroke="#407BFF" stroke-width="2" stroke-linecap="round"/>
</g>
<g clip-path="url(#clip3_323_10314)">
<path d="M114.5 2L117.59 8.58254L124.5 9.64458L119.5 14.7655L120.68 22L114.5 18.5825L108.32 22L109.5 14.7655L104.5 9.64458L111.41 8.58254L114.5 2Z" fill="#407BFF" stroke="#407BFF" stroke-width="2" stroke-linecap="round"/>
</g>
<g clip-path="url(#clip4_323_10314)">
<path d="M148.5 2L151.59 8.58254L158.5 9.64458L153.5 14.7655L154.68 22L148.5 18.5825L142.32 22L143.5 14.7655L138.5 9.64458L145.41 8.58254L148.5 2Z" fill="#CCE5F7" stroke="#CCE5F7" stroke-width="2" stroke-linecap="round"/>
</g>
<defs>
<clipPath id="clip0_323_10314">
<rect width="24" height="24" fill="white" transform="translate(0.5)"/>
</clipPath>
<clipPath id="clip1_323_10314">
<rect width="24" height="24" fill="white" transform="translate(34.5)"/>
</clipPath>
<clipPath id="clip2_323_10314">
<rect width="24" height="24" fill="white" transform="translate(68.5)"/>
</clipPath>
<clipPath id="clip3_323_10314">
<rect width="24" height="24" fill="white" transform="translate(102.5)"/>
</clipPath>
<clipPath id="clip4_323_10314">
<rect width="24" height="24" fill="white" transform="translate(136.5)"/>
</clipPath>
</defs>
</svg>
