<svg width="41" height="41" viewBox="0 0 41 41" fill="none" xmlns="http://www.w3.org/2000/svg">
<rect width="40" height="40" transform="translate(0.5 0.5)" fill="#CCE5F7"/>
<path d="M33.9664 30.8817C33.7067 30.0207 33.2559 29.2294 32.6478 28.5668C32.0396 27.9042 31.2897 27.3875 30.454 27.055C28.6162 26.3208 26.7229 25.7336 24.7922 25.2989C21.9567 24.7961 19.095 24.4548 16.2208 24.2767C14.2396 24.1458 12.2519 24.1458 10.2706 24.2767C9.97415 24.2506 9.67594 24.2506 9.37944 24.2767C7.84849 24.5301 6.46607 25.3427 5.5 26.557C7.23406 29.6567 9.76342 32.238 12.8274 34.0348C15.8914 35.8316 19.3791 36.7789 22.9311 36.779C25.7619 36.8052 28.5635 36.2055 31.1356 35.0229C32.3736 34.4746 33.5508 33.7982 34.648 33.0047C34.4645 32.3233 34.2286 31.5894 33.9664 30.8817Z" fill="#00308E"/>
<path d="M18.239 14.71C18.4487 17.5407 18.3701 22.5731 16.2207 24.2767C18.7593 25.7634 21.0353 27.6585 22.9573 29.8857C23.9515 28.5391 24.5832 26.9597 24.7921 25.2989C21.8039 24.1981 22.1709 21.9178 22.9573 19.8472L18.239 14.71Z" fill="#F2F7FF"/>
<path d="M27.8904 8.21785C30.5116 9.76425 28.6506 16.0809 27.3137 16.5527C24.7974 17.4439 24.5615 6.3045 27.8904 8.21785Z" fill="#00308E"/>
<path d="M18.0873 12.5425C17.8514 16.2906 17.5369 18.4923 19.1882 20.6153C19.7494 21.3164 20.4888 21.8536 21.3289 22.1708C22.1691 22.4879 23.0792 22.5732 23.9637 22.4177C24.8482 22.2623 25.6745 21.8718 26.3562 21.2872C27.0379 20.7027 27.5498 19.9455 27.8382 19.0951C29.044 15.8188 29.2013 10.236 25.7151 8.29647C24.9471 7.9007 24.0931 7.70086 23.2293 7.71473C22.3654 7.72859 21.5184 7.95572 20.7635 8.37594C20.0086 8.79616 19.3692 9.39644 18.9023 10.1234C18.4355 10.8503 18.1554 11.6813 18.0873 12.5425Z" fill="#F2F7FF"/>
<path d="M15.4135 9.24003C15.0466 11.4155 16.8289 17.5749 18.4017 17.6273C19.9744 17.6797 20.8656 14.3248 20.4462 11.1534C21.9403 10.8913 31.1409 12.0707 29.9875 8.16542C29.7392 7.49354 29.3036 6.90687 28.7322 6.47487C28.1608 6.04287 27.4775 5.78364 26.7634 5.72787C25.5038 4.54045 23.9134 3.76354 22.2025 3.5C23.4345 4.86293 23.4082 5.17746 22.5956 4.99398C21.6234 4.76916 20.694 4.38856 19.8434 3.86694C19.7141 4.40977 19.7141 4.97535 19.8434 5.51818C19.3716 5.3085 19.057 4.5222 15.9116 4.88914C17.1435 5.83271 16.6717 6.38313 16.3047 6.48797C15.403 6.84028 14.4017 6.84028 13.5 6.48797C13.608 7.05527 13.8342 7.59349 14.1639 8.06764C14.4935 8.54179 14.9193 8.94124 15.4135 9.24003Z" fill="#00308E"/>
<path d="M15.8857 16.4479C16.3017 17.3028 17.0355 17.9612 17.9303 18.2826C19.1098 18.7019 19.7652 17.6535 19.503 16.5003C19.2409 15.347 18.3759 13.8793 17.1701 14.0627C16.903 14.0872 16.646 14.1775 16.4223 14.3254C16.1985 14.4733 16.0148 14.6744 15.8877 14.9105C15.7605 15.1467 15.6937 15.4107 15.6934 15.679C15.693 15.9472 15.7591 16.2114 15.8857 16.4479Z" fill="#F2F7FF"/>
</svg>
