<svg width="16" height="18" viewBox="0 0 16 18" fill="none" xmlns="http://www.w3.org/2000/svg">
<path d="M12.7379 9.26571C12.716 7.06721 14.5307 6.01275 14.6118 5.95949C13.592 4.4683 12.003 4.26368 11.4375 4.2404C10.0864 4.10317 8.79983 5.03627 8.11438 5.03627C7.43034 5.03627 6.37131 4.26051 5.25089 4.28027C3.77698 4.30214 2.41844 5.13751 1.65997 6.4569C0.129267 9.11226 1.26838 13.0475 2.75993 15.2026C3.48912 16.256 4.35871 17.4413 5.4996 17.3979C6.5992 17.3545 7.01407 16.6867 8.34333 16.6867C9.6726 16.6867 10.0458 17.3979 11.2089 17.3757C12.3915 17.3542 13.1411 16.3022 13.8643 15.2446C14.7014 14.0208 15.0461 12.8358 15.0666 12.7758C15.0408 12.7639 12.7615 11.8907 12.7379 9.26571Z" fill="black"/>
<path d="M10.5524 2.81413C11.1574 2.07964 11.5674 1.05906 11.4559 0.0430603C10.5828 0.078338 9.52584 0.623379 8.89896 1.35716C8.33734 2.00838 7.84627 3.04519 7.97786 4.04285C8.95187 4.11834 9.9453 3.5472 10.5524 2.81413Z" fill="black"/>
</svg>
