<svg width="21" height="21" viewBox="0 0 21 21" fill="none" xmlns="http://www.w3.org/2000/svg">
<g clip-path="url(#clip0_414_15479)">
<path fill-rule="evenodd" clip-rule="evenodd" d="M18.0565 0.5C19.4051 0.5 20.5 1.59492 20.5 2.94352V18.0565C20.5 19.4051 19.4051 20.5 18.0565 20.5H13.8976V12.9643H16.4991L16.9941 9.73688H13.8976V7.64246C13.8976 6.75953 14.3301 5.89887 15.7171 5.89887H17.125V3.15121C17.125 3.15121 15.8473 2.93316 14.6257 2.93316C12.0754 2.93316 10.4085 4.47883 10.4085 7.27707V9.73688H7.57363V12.9643H10.4085V20.5H2.94352C1.59492 20.5 0.5 19.4051 0.5 18.0565V2.94352C0.5 1.59492 1.59488 0.5 2.94352 0.5L18.0565 0.5Z" fill="#407BFF"/>
</g>
<defs>
<clipPath id="clip0_414_15479">
<rect width="20" height="20" fill="white" transform="translate(0.5 0.5)"/>
</clipPath>
</defs>
</svg>
