<svg width="90" height="80" viewBox="0 0 90 80" fill="none" xmlns="http://www.w3.org/2000/svg">
    <path d="M77.956 65.3989H74.494C74.2295 65.3989 74.0151 65.6105 74.0151 65.8716V65.9806C74.0151 66.2417 74.2295 66.4533 74.494 66.4533H77.956C78.2205 66.4533 78.4349 66.2417 78.4349 65.9806V65.8716C78.4349 65.6105 78.2205 65.3989 77.956 65.3989Z" fill="#00308E"/>
    <path d="M76.6118 65.7625C76.6118 66.0861 76.709 66.4024 76.8911 66.6715C77.0732 66.9406 77.3321 67.1503 77.635 67.2741C77.9378 67.3979 78.271 67.4303 78.5925 67.3672C78.914 67.3041 79.2094 67.1482 79.4412 66.9194C79.6729 66.6906 79.8308 66.3991 79.8948 66.0817C79.9587 65.7643 79.9259 65.4354 79.8004 65.1364C79.675 64.8375 79.4626 64.5819 79.19 64.4022C78.9174 64.2224 78.597 64.1264 78.2692 64.1264C77.8297 64.1264 77.4081 64.2988 77.0973 64.6056C76.7864 64.9125 76.6118 65.3286 76.6118 65.7625Z" fill="#00308E"/>
    <path d="M70.7923 25.7326H80.4972C81.432 25.7379 82.339 26.0471 83.078 26.6122C83.8169 27.1774 84.3467 27.9671 84.5855 28.8593L88.9315 45.9112C89.0033 46.1444 89.0188 46.391 88.9769 46.6312C88.935 46.8714 88.8367 47.0985 88.69 47.2946C88.5433 47.4906 88.3522 47.6501 88.1319 47.7603C87.9117 47.8704 87.6683 47.9282 87.4214 47.929C86.6995 47.9203 85.9973 47.6947 85.4084 47.2822C84.8196 46.8698 84.3719 46.2901 84.1251 45.6203L80.442 33.1678C80.1506 32.3542 79.6125 31.649 78.9008 31.1481C78.1891 30.6472 77.3383 30.3749 76.4642 30.3682H70.7002V25.7326H70.7923Z" fill="#00308E"/>
    <path d="M42.893 41.7117L37 29.241H43.7401L42.893 41.7117Z" fill="#407BFF"/>
    <path opacity="0.5" d="M42.893 41.7117L37 29.241H43.7401L42.893 41.7117Z" fill="white"/>
    <path d="M76.0407 66.4533H40.683L43.077 31.5498C43.2612 29.3464 44.2416 27.2818 45.8393 25.7325C49.2019 22.5853 53.6929 20.8853 58.325 21.006C62.0475 20.9557 65.699 22.0136 68.8034 24.0419C69.5191 24.5421 70.185 25.1082 70.7923 25.7325C72.3955 27.28 73.3823 29.3444 73.573 31.5498L76.0407 66.4533Z" fill="#1919D3"/>
    <path d="M70.6451 72.9977H46.0052C45.416 73.0202 44.8321 72.8809 44.3184 72.5952C43.8047 72.3096 43.3814 71.8888 43.0955 71.3798L40.6831 66.4533H76.0408L73.5547 71.3616C73.2714 71.874 72.8491 72.2985 72.3352 72.5874C71.8213 72.8764 71.2361 73.0185 70.6451 72.9977Z" fill="#407BFF"/>
    <path opacity="0.4" d="M70.6451 72.9977H46.0052C45.416 73.0202 44.8321 72.8809 44.3184 72.5952C43.8047 72.3096 43.3814 71.8888 43.0955 71.3798L40.6831 66.4533H76.0408L73.5547 71.3616C73.2714 71.874 72.8491 72.2985 72.3352 72.5874C71.8213 72.8764 71.2361 73.0185 70.6451 72.9977Z" fill="#1919D3"/>
    <path opacity="0.5" d="M70.7924 25.7325H45.8395C49.202 22.5853 53.6931 20.8853 58.3252 21.006C62.0476 20.9557 65.6991 22.0136 68.8036 24.0419C69.5192 24.5421 70.1851 25.1082 70.7924 25.7325Z" fill="white"/>
    <path d="M58.2512 63.4356C58.6072 63.4356 58.8958 63.1508 58.8958 62.7994C58.8958 62.448 58.6072 62.1631 58.2512 62.1631C57.8952 62.1631 57.6067 62.448 57.6067 62.7994C57.6067 63.1508 57.8952 63.4356 58.2512 63.4356Z" fill="white"/>
    <path d="M51.6956 63.4356C52.0515 63.4356 52.3401 63.1508 52.3401 62.7994C52.3401 62.448 52.0515 62.1631 51.6956 62.1631C51.3396 62.1631 51.051 62.448 51.051 62.7994C51.051 63.1508 51.3396 63.4356 51.6956 63.4356Z" fill="white"/>
    <path d="M54.9734 63.4356C55.3294 63.4356 55.6179 63.1508 55.6179 62.7994C55.6179 62.448 55.3294 62.1631 54.9734 62.1631C54.6174 62.1631 54.3289 62.448 54.3289 62.7994C54.3289 63.1508 54.6174 63.4356 54.9734 63.4356Z" fill="white"/>
    <path d="M61.5295 63.4356C61.8855 63.4356 62.1741 63.1508 62.1741 62.7994C62.1741 62.448 61.8855 62.1631 61.5295 62.1631C61.1736 62.1631 60.885 62.448 60.885 62.7994C60.885 63.1508 61.1736 63.4356 61.5295 63.4356Z" fill="white"/>
    <path d="M64.8257 63.4356C65.1817 63.4356 65.4702 63.1508 65.4702 62.7994C65.4702 62.448 65.1817 62.1631 64.8257 62.1631C64.4697 62.1631 64.1812 62.448 64.1812 62.7994C64.1812 63.1508 64.4697 63.4356 64.8257 63.4356Z" fill="white"/>
    <path d="M31.0603 32.4709H27.2587C26.7912 32.4709 26.3428 32.289 26.0122 31.9653C25.6816 31.6416 25.4958 31.2026 25.4958 30.7448C25.4958 30.287 25.6816 29.848 26.0122 29.5243C26.3428 29.2006 26.7912 29.0187 27.2587 29.0187H31.0143C31.1792 28.835 31.3049 28.6209 31.3839 28.3889C31.4628 28.1569 31.4936 27.9117 31.4742 27.6679V14.4746C31.4936 14.2308 31.4628 13.9857 31.3839 13.7536C31.3049 13.5216 31.1792 13.3075 31.0143 13.1238H27.6266C27.1591 13.1238 26.7107 12.9419 26.3801 12.6182C26.0495 12.2945 25.8638 11.8555 25.8638 11.3977C25.8638 10.9399 26.0495 10.5009 26.3801 10.1772C26.7107 9.85349 27.1591 9.67165 27.6266 9.67165H31.0603C33.2677 9.67165 34.9999 11.788 34.9999 14.4746V27.6679C34.9999 30.3696 33.2677 32.4709 31.0603 32.4709Z" fill="#407BFF"/>
    <g opacity="0.4">
        <path d="M31.0603 32.4709H27.2587C26.7912 32.4709 26.3428 32.289 26.0122 31.9653C25.6816 31.6416 25.4958 31.2026 25.4958 30.7448C25.4958 30.287 25.6816 29.848 26.0122 29.5243C26.3428 29.2006 26.7912 29.0187 27.2587 29.0187H31.0143C31.1792 28.835 31.3049 28.6209 31.3839 28.3889C31.4628 28.1569 31.4936 27.9117 31.4742 27.6679V14.4746C31.4936 14.2308 31.4628 13.9857 31.3839 13.7536C31.3049 13.5216 31.1792 13.3075 31.0143 13.1238H27.6266C27.1591 13.1238 26.7107 12.9419 26.3801 12.6182C26.0495 12.2945 25.8638 11.8555 25.8638 11.3977C25.8638 10.9399 26.0495 10.5009 26.3801 10.1772C26.7107 9.85349 27.1591 9.67165 27.6266 9.67165H31.0603C33.2677 9.67165 34.9999 11.788 34.9999 14.4746V27.6679C34.9999 30.3696 33.2677 32.4709 31.0603 32.4709Z" fill="white"/>
    </g>
    <path d="M23.6411 46.7449H7.39222C6.7946 46.7478 6.21114 46.5669 5.72428 46.2275C5.23741 45.8881 4.87176 45.4076 4.67899 44.8537L4.20376 43.5178C4.10715 43.2423 4.05543 42.9536 4.05049 42.6623L3.3147 13.379H27.7033L26.9675 42.8274C26.9537 43.1351 26.8917 43.4388 26.7835 43.728L26.339 44.8987C26.1374 45.4405 25.7703 45.9084 25.2876 46.2387C24.8049 46.569 24.23 46.7458 23.6411 46.7449Z" fill="#407BFF"/>
    <path d="M13.8918 43.743V38.2645H15.2101L17.3716 43.743H13.8918Z" fill="#00308E"/>
    <path d="M17.3409 43.7429H13.8918V46.7448H17.3409V43.7429Z" fill="#00308E"/>
    <path opacity="0.1" d="M17.3409 43.7429H13.8918V46.7448H17.3409V43.7429Z" fill="white"/>
    <path d="M12.9108 43.743L6.67188 44.6885L13.9839 42.3771L16.3446 38.2645H17.3716V42.7824L23.7485 44.6885L17.3716 43.743H12.9108Z" fill="#00308E"/>
    <path opacity="0.2" d="M12.9108 43.743L6.67188 44.6885L13.9839 42.3771L16.3446 38.2645H17.3716V42.7824L23.7485 44.6885L17.3716 43.743H12.9108Z" fill="white"/>
    <path opacity="0.5" d="M23.6411 46.7449H7.39222C6.7946 46.7478 6.21114 46.5669 5.72428 46.2275C5.23741 45.8881 4.87176 45.4076 4.67899 44.8537L4.20376 43.5178C4.10715 43.2423 4.05543 42.9536 4.05049 42.6623L3.3147 13.379H27.7033L26.9675 42.8274C26.9537 43.1351 26.8917 43.4388 26.7835 43.728L26.339 44.8987C26.1374 45.4405 25.7703 45.9084 25.2876 46.2387C24.8049 46.569 24.23 46.7458 23.6411 46.7449Z" fill="white"/>
    <path d="M7.36151 46.7448H23.6103C24.1325 46.7098 24.6558 46.7931 25.1397 46.9883C25.6236 47.1836 26.0549 47.4855 26.4002 47.8705L26.9367 48.681C27.0426 48.8393 27.1107 49.0188 27.136 49.2064L29.3741 69.3489H1.62842L3.8818 49.1313C3.89977 48.9304 3.97403 48.7382 4.0964 48.576L4.58692 47.8555C4.93283 47.4761 5.36248 47.179 5.84324 46.9865C6.324 46.7941 6.84325 46.7114 7.36151 46.7448Z" fill="#407BFF"/>
    <path opacity="0.3" d="M7.36151 46.7448H23.6103C24.1325 46.7098 24.6558 46.7931 25.1397 46.9883C25.6236 47.1836 26.0549 47.4855 26.4002 47.8705L26.9367 48.681C27.0426 48.8393 27.1107 49.0188 27.136 49.2064L29.3741 69.3489H1.62842L3.8818 49.1313C3.89977 48.9304 3.97403 48.7382 4.0964 48.576L4.58692 47.8555C4.93283 47.4761 5.36248 47.179 5.84324 46.9865C6.324 46.7941 6.84325 46.7114 7.36151 46.7448Z" fill="#CCE5F7"/>
    <path d="M23.641 72.9962H7.39215C6.45859 73.0165 5.52502 72.9562 4.60227 72.8161L4.06574 72.681C3.99305 72.6666 3.92479 72.6358 3.86645 72.5909L1.62842 69.3489H29.3741L27.136 72.6059C27.0671 72.6522 26.9886 72.6829 26.9061 72.696L26.4156 72.8161C25.4979 72.9557 24.5695 73.016 23.641 72.9962Z" fill="#407BFF"/>
    <path opacity="0.4" d="M23.641 72.9962H7.39215C6.45859 73.0165 5.52502 72.9562 4.60227 72.8161L4.06574 72.681C3.99305 72.6666 3.92479 72.6358 3.86645 72.5909L1.62842 69.3489H29.3741L27.136 72.6059C27.0671 72.6522 26.9886 72.6829 26.9061 72.696L26.4156 72.8161C25.4979 72.9557 24.5695 73.016 23.641 72.9962Z" fill="#1919D3"/>
    <path d="M21.6943 8.68107H7.10101L7.08569 7H21.679L21.6943 8.68107Z" fill="#407BFF"/>
    <path opacity="0.4" d="M21.6943 8.68107H7.10101L7.08569 7H21.679L21.6943 8.68107Z" fill="#1919D3"/>
    <path d="M27.7953 8.75617V10.4522H1.52118L1 9.59669V8.75617L7.77546 8.33591L14.3976 7.93065L22.3688 8.42596L27.7953 8.75617Z" fill="#407BFF"/>
    <path opacity="0.7" d="M27.7953 8.75617V10.4522H1.52118L1 9.59669V8.75617L7.77546 8.33591L14.3976 7.93065L22.3688 8.42596L27.7953 8.75617Z" fill="white"/>
    <path d="M27.7953 9.59666L27.7799 10.4522L27.7033 13.394H3.31471L1.52118 10.4522L1 9.59666H27.7953Z" fill="#407BFF"/>
    <path opacity="0.5" d="M27.7953 9.59666L27.7799 10.4522L27.7033 13.394H3.31471L1.52118 10.4522L1 9.59666H27.7953Z" fill="white"/>
    <path d="M27.7952 13.379H3.3147V15.9756H27.7952V13.379Z" fill="#407BFF"/>
    <path opacity="0.4" d="M27.7952 13.379H3.3147V15.9756H27.7952V13.379Z" fill="#1919D3"/>
    <path d="M15.6086 50.7523C14.4474 50.7523 13.3123 51.0894 12.3468 51.7211C11.3813 52.3527 10.6288 53.2505 10.1845 54.301C9.7401 55.3514 9.62382 56.5072 9.85036 57.6223C10.0769 58.7375 10.6361 59.7618 11.4571 60.5657C12.2782 61.3697 13.3243 61.9172 14.4632 62.139C15.6021 62.3608 16.7826 62.2469 17.8554 61.8119C18.9281 61.3768 19.8451 60.6399 20.4902 59.6946C21.1353 58.7492 21.4796 57.6378 21.4796 56.5009C21.4756 54.9775 20.8557 53.5176 19.7556 52.4404C18.6554 51.3631 17.1644 50.7562 15.6086 50.7523ZM15.6086 60.1331C14.8749 60.1331 14.1577 59.9201 13.5476 59.521C12.9376 59.1218 12.4621 58.5546 12.1813 57.8909C11.9006 57.2271 11.8271 56.4968 11.9702 55.7922C12.1134 55.0876 12.4667 54.4404 12.9855 53.9325C13.5043 53.4245 14.1653 53.0785 14.8849 52.9384C15.6045 52.7982 16.3504 52.8701 17.0282 53.1451C17.7061 53.42 18.2854 53.8855 18.6931 54.4829C19.1007 55.0802 19.3182 55.7825 19.3182 56.5009C19.3182 57.4642 18.9274 58.3881 18.2317 59.0693C17.536 59.7504 16.5925 60.1331 15.6086 60.1331Z" fill="white"/>
    <path opacity="0.6" d="M19.3184 56.501C19.3184 57.2194 19.1009 57.9216 18.6933 58.519C18.2856 59.1163 17.7063 59.5818 17.0284 59.8567C16.3506 60.1316 15.6047 60.2036 14.8851 60.0634C14.1655 59.9233 13.5045 59.5773 12.9857 59.0694C12.4669 58.5614 12.1136 57.9142 11.9705 57.2096C11.8273 56.505 11.9008 55.7747 12.1815 55.1109C12.4623 54.4472 12.9378 53.88 13.5478 53.4808C14.1579 53.0817 14.8751 52.8687 15.6088 52.8687C16.5927 52.8687 17.5362 53.2514 18.2319 53.9326C18.9276 54.6137 19.3184 55.5376 19.3184 56.501Z" fill="white"/>
    <path d="M15.6087 59.3076C15.0418 59.3076 14.4876 59.143 14.0162 58.8346C13.5448 58.5262 13.1774 58.0879 12.9604 57.575C12.7434 57.0621 12.6867 56.4978 12.7973 55.9533C12.9079 55.4089 13.1809 54.9087 13.5818 54.5162C13.9827 54.1237 14.4934 53.8564 15.0495 53.7481C15.6055 53.6398 16.1819 53.6953 16.7057 53.9078C17.2295 54.1202 17.6772 54.48 17.9922 54.9415C18.3071 55.4031 18.4753 55.9458 18.4753 56.5009C18.4753 57.2453 18.1733 57.9592 17.6357 58.4856C17.0981 59.0119 16.369 59.3076 15.6087 59.3076ZM15.6087 54.0844C15.1206 54.0844 14.6434 54.2261 14.2376 54.4916C13.8317 54.7572 13.5154 55.1346 13.3286 55.5761C13.1418 56.0177 13.0929 56.5036 13.1882 56.9723C13.2834 57.4411 13.5184 57.8717 13.8636 58.2096C14.2087 58.5476 14.6485 58.7777 15.1273 58.871C15.606 58.9642 16.1022 58.9163 16.5532 58.7334C17.0041 58.5505 17.3896 58.2408 17.6608 57.8434C17.932 57.446 18.0767 56.9788 18.0767 56.5009C18.0727 55.8612 17.8114 55.2488 17.3494 54.7965C16.8874 54.3442 16.262 54.0883 15.6087 54.0844Z" fill="#407BFF"/>
    <path opacity="0.2" d="M17.8312 66.2871C17.8343 66.6594 17.7241 67.0242 17.5147 67.335C17.3053 67.6458 17.0062 67.8886 16.6555 68.0325C16.3048 68.1764 15.9182 68.2148 15.5451 68.1429C15.172 68.0709 14.8292 67.8919 14.5603 67.6287C14.2914 67.3654 14.1085 67.0297 14.0351 66.6644C13.9617 66.299 14.0009 65.9206 14.1478 65.5771C14.2947 65.2337 14.5427 64.9408 14.8602 64.7358C15.1776 64.5308 15.5502 64.4229 15.9304 64.4259C16.4346 64.4259 16.9181 64.622 17.2745 64.971C17.631 65.3201 17.8312 65.7934 17.8312 66.2871Z" fill="#1919D3"/>
    <path d="M15.9304 67.788C16.777 67.788 17.4633 67.116 17.4633 66.287C17.4633 65.4581 16.777 64.7861 15.9304 64.7861C15.0838 64.7861 14.3975 65.4581 14.3975 66.287C14.3975 67.116 15.0838 67.788 15.9304 67.788Z" fill="#00308E"/>
</svg>
