<svg width="130.000000" height="120.000000" viewBox="0 0 130 120" fill="none" xmlns="http://www.w3.org/2000/svg" xmlns:xlink="http://www.w3.org/1999/xlink">
	<desc>
			Created with Pixso.
	</desc>
	<defs/>
	<rect id="bg" rx="6.000000" width="130.000000" height="120.000000" fill="#F2F7FF" fill-opacity="1.000000"/>
	<path id="Vector" d="M114.78 72.47C114.82 72.47 114.86 72.45 114.9 72.42C114.93 72.4 114.96 72.36 114.97 72.32C115 72.26 115 72.19 114.99 72.12C114.97 72.06 114.93 72 114.88 71.96C91.78 57.16 81.57 14.61 81.47 14.19C81.47 14.15 81.46 14.12 81.44 14.1C81.42 14.07 81.4 14.05 81.38 14.03C81.35 14.01 81.32 14 81.29 14C81.26 13.99 81.23 14 81.2 14C81.15 14.03 81.1 14.08 81.07 14.14C81.05 14.21 81.04 14.28 81.06 14.34C81.16 14.78 91.43 57.53 114.68 72.44C114.71 72.46 114.75 72.47 114.78 72.47Z" fill="#4285F4" fill-opacity="1.000000" fill-rule="nonzero"/>
	<path id="Vector" d="M90.86 73.86L71.66 73.86L81.26 14.26L90.86 73.86Z" fill="#00308E" fill-opacity="1.000000" fill-rule="nonzero"/>
	<path id="Vector" d="M63.29 73.86L81.26 14.26L31.55 14.26L9 73.86L63.29 73.86Z" fill="#4285F4" fill-opacity="1.000000" fill-rule="nonzero"/>
	<g opacity="0.200000">
		<path id="Vector" d="M63.29 73.86L81.26 14.26L31.55 14.26L9 73.86L63.29 73.86Z" fill="#00308E" fill-opacity="1.000000" fill-rule="nonzero"/>
	</g>
	<path id="Vector" d="M78.23 73.86L81.26 14.26L63.29 73.86L78.23 73.86Z" fill="#4285F4" fill-opacity="1.000000" fill-rule="nonzero"/>
	<path id="Vector" d="M84.29 73.86L81.26 14.26L99.23 73.86L84.29 73.86Z" fill="#4285F4" fill-opacity="1.000000" fill-rule="nonzero"/>
	<path id="Vector" d="M32.88 74.13C49.3 74.13 61.64 57.86 69.1 44.21C74.19 34.73 78.33 24.72 81.46 14.35C81.48 14.29 81.48 14.22 81.46 14.16C81.43 14.09 81.39 14.04 81.33 14.01C81.3 14 81.27 13.99 81.24 14C81.21 14 81.18 14.01 81.16 14.02C81.13 14.04 81.11 14.06 81.09 14.09C81.08 14.11 81.06 14.14 81.06 14.17C77.94 24.5 73.82 34.46 68.75 43.91C61.35 57.45 49.12 73.59 32.88 73.59C32.82 73.59 32.76 73.63 32.72 73.68C32.68 73.73 32.66 73.79 32.67 73.86C32.66 73.92 32.68 73.99 32.72 74.04C32.76 74.09 32.82 74.12 32.88 74.13Z" fill="#00308E" fill-opacity="1.000000" fill-rule="nonzero"/>
	<path id="Vector" d="M106.88 63.18L69.44 63.18L69.44 61.01L106.88 61.01L106.88 63.18Z" fill="#00308E" fill-opacity="1.000000" fill-rule="evenodd"/>
	<g opacity="0.200000">
		<path id="Vector" d="M82.9 63.18L69.44 63.18L69.44 61.01L82.9 61.01L82.9 63.18Z" fill="#00308E" fill-opacity="1.000000" fill-rule="evenodd"/>
	</g>
	<path id="Vector" d="M94.64 83.83L96.48 83.83L81.69 63.18L79.84 63.18L94.64 83.83Z" fill="#00308E" fill-opacity="1.000000" fill-rule="nonzero"/>
	<path id="Vector" d="M81.69 83.83L79.84 83.83L94.64 63.18L96.48 63.18L81.69 83.83Z" fill="#00308E" fill-opacity="1.000000" fill-rule="nonzero"/>
	<path id="Vector" d="M101.02 54.81C101.02 58.23 97.68 61 93.55 61C89.43 61 86.09 58.22 86.09 54.81L101.02 54.81Z" fill="#00308E" fill-opacity="1.000000" fill-rule="nonzero"/>
	<path id="Vector" d="M36.35 58.08L36.35 61.55L61.67 61.55L61.67 58.08C61.67 56.92 60.76 55.98 59.65 55.98L38.37 55.98C37.25 55.98 36.35 56.92 36.35 58.08ZM32.32 61.97L32.32 64.48C32.32 68.33 34.8 71.57 38.19 72.57L32.72 90.56C32.28 92.02 33.12 93.56 34.54 93.92C35.84 94.25 37.17 93.47 37.57 92.14L40.06 83.92L39.98 84.85L58.14 84.85L60.35 92.14C60.75 93.47 62.07 94.25 63.37 93.92C64.8 93.56 65.63 92.02 65.19 90.56L59.75 72.62C63.23 71.69 65.8 68.4 65.8 64.48L65.8 61.97L32.32 61.97ZM59.71 72.63C59.72 72.63 59.74 72.62 59.75 72.62C59.75 72.62 59.74 72.62 59.71 72.63ZM54.5 72.88L43.41 72.88L40.13 83.7L57.78 83.7L54.5 72.88ZM38.47 72.64C38.29 72.6 38.19 72.57 38.19 72.57C38.28 72.6 38.37 72.62 38.47 72.64Z" fill="#00308E" fill-opacity="1.000000" fill-rule="evenodd"/>
	<path id="Union" d="M42.53 42.34C42.7 42.35 42.82 42.51 42.8 42.68L42.8 42.69L42.8 42.71C42.8 42.72 42.8 42.74 42.79 42.77C42.79 42.82 42.78 42.9 42.77 42.98C42.75 43.15 42.73 43.37 42.7 43.54C42.6 44.2 42.18 44.53 41.85 44.79L41.84 44.79C41.5 45.06 41.26 45.26 41.18 45.65C41.14 45.87 41.12 46 41.12 46.12C41.12 46.23 41.14 46.36 41.18 46.57C41.27 46.97 41.55 47.25 41.93 47.61L41.93 47.62C42.28 47.95 42.71 48.37 42.8 49.01C42.82 49.15 42.83 49.26 42.83 49.37C42.83 49.47 42.82 49.57 42.81 49.7L42.8 49.72C42.72 50.45 42.25 50.78 41.89 51.03L41.87 51.05C41.5 51.31 41.24 51.5 41.19 51.93C41.17 52.06 41.17 52.25 41.18 52.42C41.18 52.5 41.18 52.57 41.18 52.62C41.19 52.65 41.19 52.67 41.19 52.68L41.19 52.7L41.19 52.7L41.19 52.7C41.2 52.87 41.08 53.03 40.91 53.04C40.75 53.06 40.6 52.93 40.59 52.75L40.59 52.75L40.59 52.75L40.59 52.73C40.58 52.71 40.58 52.69 40.58 52.66C40.58 52.61 40.57 52.53 40.57 52.44C40.56 52.27 40.56 52.04 40.59 51.85C40.68 51.13 41.15 50.79 41.51 50.54L41.53 50.53C41.91 50.26 42.15 50.07 42.2 49.65L42.2 49.63C42.22 49.49 42.23 49.43 42.23 49.36C42.23 49.3 42.22 49.24 42.2 49.1C42.15 48.71 41.88 48.43 41.51 48.07L41.47 48.03C41.13 47.71 40.72 47.3 40.59 46.71C40.55 46.48 40.52 46.3 40.52 46.11C40.52 45.93 40.55 45.75 40.59 45.53C40.72 44.89 41.13 44.56 41.45 44.31L41.48 44.29C41.81 44.03 42.04 43.83 42.1 43.44C42.13 43.28 42.15 43.08 42.17 42.91C42.18 42.83 42.19 42.75 42.19 42.7C42.2 42.67 42.2 42.65 42.2 42.64L42.2 42.62L42.53 42.34ZM49.96 42.34C50.13 42.35 50.25 42.51 50.23 42.68L50.23 42.68L50.23 42.69L50.23 42.71C50.23 42.72 50.23 42.74 50.22 42.77C50.22 42.82 50.21 42.9 50.2 42.98C50.18 43.15 50.16 43.37 50.13 43.54C50.03 44.2 49.61 44.53 49.28 44.79L49.27 44.79C48.93 45.06 48.69 45.26 48.62 45.65C48.57 45.87 48.55 46 48.55 46.12C48.55 46.23 48.57 46.36 48.61 46.57C48.7 46.97 48.98 47.25 49.36 47.61L49.36 47.62C49.71 47.95 50.14 48.37 50.23 49.01C50.25 49.15 50.26 49.26 50.26 49.37C50.26 49.47 50.25 49.57 50.24 49.7L50.23 49.72C50.15 50.45 49.68 50.78 49.32 51.03L49.3 51.05C48.93 51.31 48.67 51.5 48.62 51.93C48.6 52.06 48.6 52.25 48.61 52.42C48.61 52.5 48.61 52.57 48.61 52.62C48.62 52.65 48.62 52.67 48.62 52.68L48.62 52.7L48.62 52.7C48.63 52.87 48.51 53.03 48.34 53.04C48.18 53.06 48.03 52.93 48.02 52.75L48.02 52.75L48.02 52.75L48.02 52.75L48.02 52.73C48.01 52.71 48.01 52.69 48.01 52.66C48.01 52.61 48 52.53 48 52.44C47.99 52.27 47.99 52.04 48.02 51.85C48.11 51.13 48.58 50.79 48.94 50.54L48.96 50.53C49.34 50.26 49.58 50.07 49.63 49.65L49.63 49.63C49.65 49.49 49.66 49.43 49.66 49.36C49.66 49.3 49.65 49.24 49.63 49.1C49.58 48.71 49.31 48.43 48.94 48.07L48.9 48.03C48.56 47.71 48.15 47.3 48.02 46.71C47.98 46.48 47.95 46.3 47.95 46.11C47.95 45.93 47.98 45.75 48.02 45.53C48.15 44.89 48.56 44.56 48.88 44.31L48.91 44.29C49.24 44.03 49.47 43.83 49.53 43.44C49.56 43.28 49.58 43.08 49.6 42.91C49.61 42.83 49.62 42.75 49.62 42.7C49.63 42.67 49.63 42.65 49.63 42.64L49.63 42.62L49.63 42.62L49.63 42.62L49.96 42.34ZM57.39 42.34C57.56 42.35 57.68 42.51 57.66 42.68L57.66 42.69L57.66 42.71C57.66 42.72 57.66 42.74 57.65 42.77C57.65 42.82 57.64 42.9 57.63 42.98C57.61 43.15 57.59 43.37 57.56 43.54C57.46 44.2 57.04 44.53 56.71 44.79L56.7 44.79C56.36 45.06 56.12 45.26 56.05 45.65C56 45.87 55.98 46 55.98 46.12C55.98 46.23 56 46.36 56.04 46.57C56.13 46.97 56.41 47.25 56.79 47.61L56.79 47.62C57.14 47.95 57.57 48.37 57.66 49.01C57.68 49.15 57.69 49.26 57.69 49.37C57.69 49.47 57.68 49.57 57.67 49.7L57.66 49.72C57.58 50.45 57.11 50.78 56.75 51.03L56.73 51.05C56.36 51.31 56.1 51.5 56.05 51.93C56.03 52.06 56.03 52.25 56.04 52.42C56.04 52.5 56.04 52.57 56.04 52.62C56.05 52.65 56.05 52.67 56.05 52.68L56.05 52.7L56.05 52.7L56.05 52.7C56.06 52.87 55.94 53.03 55.77 53.04C55.61 53.06 55.46 52.93 55.45 52.75L55.45 52.75L55.45 52.75L55.45 52.75L55.45 52.75L55.45 52.73C55.44 52.71 55.44 52.69 55.44 52.66C55.44 52.61 55.43 52.53 55.43 52.44C55.43 52.27 55.42 52.04 55.45 51.85C55.54 51.13 56.01 50.79 56.37 50.54L56.39 50.53C56.77 50.26 57.01 50.07 57.06 49.65L57.06 49.63C57.08 49.49 57.09 49.43 57.09 49.36C57.09 49.3 57.08 49.24 57.06 49.1C57.01 48.71 56.74 48.43 56.37 48.07L56.33 48.03C55.99 47.71 55.58 47.3 55.45 46.71C55.41 46.48 55.38 46.3 55.38 46.11C55.38 45.93 55.41 45.75 55.45 45.53C55.58 44.89 55.99 44.56 56.31 44.31L56.34 44.29C56.68 44.03 56.9 43.83 56.96 43.44C56.99 43.28 57.01 43.08 57.03 42.91C57.04 42.83 57.05 42.75 57.05 42.7C57.06 42.67 57.06 42.65 57.06 42.64L57.06 42.62L57.06 42.62L57.06 42.62L57.39 42.34Z" fill="#72ADFF" fill-opacity="1.000000" fill-rule="evenodd"/>
	<path id="Vector" d="M49.55 90.38C53.51 90.38 55.06 86.56 53.64 83.37C52.21 80.19 52.8 79.32 52.8 79.32C52.8 79.32 51.04 81.04 51.04 82.32C49.65 80.85 53.1 77.69 51.67 74.53C50.61 76.64 49.9 77.7 46.7 80.79C43.69 83.69 41.83 90.38 49.55 90.38Z" fill="#68A3FF" fill-opacity="1.000000" fill-rule="nonzero"/>
	<g opacity="0.500000">
		<path id="Vector" d="M48.77 89.88C46.61 89.88 45.61 87.64 46.63 85.9C47.65 84.16 47.15 83.61 47.15 83.61C47.15 83.61 48.22 84.63 48.13 85.32C49 84.52 47.78 82.56 48.79 80.84C49.21 81.99 49.11 82.8 50.61 84.49C52.18 86.28 52.98 89.88 48.77 89.88Z" fill="#F2F7FF" fill-opacity="1.000000" fill-rule="nonzero"/>
	</g>
	<g opacity="0.500000">
		<path id="Vector" d="M49.18 89.21C50.14 89.21 50.59 88.21 50.13 87.44C49.68 86.66 49.9 86.42 49.9 86.42C49.9 86.42 49.42 86.87 49.46 87.18C49.08 86.82 49.62 85.95 49.17 85.18C48.98 85.69 49.03 86.05 48.36 86.81C47.66 87.61 47.3 89.21 49.18 89.21Z" fill="#F2F7FF" fill-opacity="1.000000" fill-rule="nonzero"/>
	</g>
	<path id="Vector" d="M44.21 91.3C44.21 90.91 44.39 90.53 44.71 90.25C45.03 89.97 45.46 89.81 45.92 89.81L52.19 89.81L52.19 91.3L44.21 91.3Z" fill="#68A3FF" fill-opacity="1.000000" fill-rule="nonzero"/>
	<g opacity="0.200000">
		<path id="Vector" d="M44.21 91.3C44.21 90.91 44.39 90.53 44.71 90.25C45.03 89.97 45.46 89.81 45.92 89.81L52.19 89.81L52.19 91.3L44.21 91.3Z" fill="#00308E" fill-opacity="1.000000" fill-rule="nonzero"/>
	</g>
	<path id="Vector" d="M52.19 89.81C52.64 89.81 53.08 89.97 53.4 90.25C53.72 90.53 53.9 90.9 53.9 91.3L50.48 91.3C50.48 90.9 50.66 90.53 50.98 90.25C51.3 89.97 51.74 89.81 52.19 89.81Z" fill="#68A3FF" fill-opacity="1.000000" fill-rule="nonzero"/>
</svg>
