<svg width="130.000000" height="120.000000" viewBox="0 0 130 120" fill="none" xmlns="http://www.w3.org/2000/svg" xmlns:xlink="http://www.w3.org/1999/xlink">
	<desc>
			Created with Pixso.
	</desc>
	<defs/>
	<rect id="bg" rx="6.000000" width="130.000000" height="120.000000" fill="#F2F7FF" fill-opacity="1.000000"/>
	<path id="Vector" d="M108.72 84.66L103.03 77.27L26.89 73.1L14.51 77.27L9.53 88.53C9.98 89.35 10.68 90.01 11.53 90.39L13.1 91.09C13.7 91.37 14.34 91.52 15 91.53L107.21 93.73L108.72 84.66Z" fill="#00308E" fill-opacity="1.000000" fill-rule="nonzero"/>
	<g opacity="0.200000">
		<path id="Vector" d="M108.72 84.66L103.03 77.27L26.89 73.1L14.51 77.27L9.53 88.53C9.98 89.35 10.68 90.01 11.53 90.39L13.1 91.09C13.7 91.37 14.34 91.52 15 91.53L107.21 93.73L108.72 84.66Z" fill="#FFFFFF" fill-opacity="1.000000" fill-rule="nonzero"/>
	</g>
	<path id="Vector" d="M112.83 79.5L111.5 75.53C111.28 74.88 110.93 74.29 110.47 73.79C110.01 73.29 109.46 72.89 108.83 72.61C104.94 70.91 95.88 67.52 86.18 67.88C86.18 67.88 73.55 56.39 60.37 54.77C48.94 53.37 27.2 56.23 21.61 57.01C21.54 57.02 21.47 57.05 21.41 57.11C21.36 57.16 21.33 57.23 21.32 57.31C21.31 57.39 21.33 57.46 21.37 57.53C21.41 57.59 21.47 57.64 21.55 57.66L22.99 58.18C23.1 58.22 23.2 58.3 23.27 58.39C23.34 58.49 23.38 58.6 23.39 58.72C23.4 58.84 23.37 58.96 23.31 59.07C23.26 59.17 23.17 59.26 23.06 59.32L11.3 65.53C10.61 65.9 10.02 66.45 9.62 67.12C9.21 67.8 9 68.57 9 69.36L9 86.45C9 87.28 9.24 88.1 9.69 88.8C10.14 89.5 10.78 90.05 11.53 90.39L13.1 91.09C13.16 91.12 13.22 91.15 13.28 91.17C13.28 90.95 13.26 90.73 13.26 90.51C13.26 88.94 13.57 87.38 14.19 85.94C14.81 84.5 15.72 83.2 16.86 82.12C18 81.04 19.35 80.22 20.82 79.69C22.29 79.16 23.86 78.94 25.42 79.04C26.98 79.15 28.5 79.57 29.89 80.29C31.28 81.02 32.51 82.02 33.49 83.24C34.48 84.45 35.21 85.86 35.63 87.38C36.05 88.89 36.16 90.47 35.94 92.03L81.71 93.12C81.31 91.42 81.31 89.65 81.7 87.95C82.09 86.24 82.86 84.65 83.96 83.29C85.05 81.94 86.44 80.85 88.03 80.12C89.61 79.38 91.33 79.02 93.07 79.07C94.81 79.11 96.52 79.55 98.06 80.36C99.61 81.16 100.95 82.32 101.98 83.72C103.01 85.13 103.71 86.76 104.02 88.48C104.32 90.2 104.24 91.97 103.76 93.65L108.25 93.76C108.69 93.77 109.13 93.71 109.55 93.58L110.23 93.37C111.06 93.11 111.79 92.59 112.31 91.89C112.83 91.18 113.11 90.33 113.11 89.45L113.11 81.06C113.1 80.53 113.01 80 112.83 79.5Z" fill="#407BFF" fill-opacity="1.000000" fill-rule="nonzero"/>
	<path id="Vector" d="M81.69 93.12C81.55 92.49 81.45 91.84 81.42 91.19L75.95 88.36C75.53 88.14 75.07 88.02 74.6 87.99L45.81 86.09C45.29 86.06 44.77 86.14 44.28 86.34L36.01 89.74C36.02 90 36.03 90.25 36.03 90.51C36.03 91.02 36 91.53 35.93 92.03L81.69 93.12Z" fill="#00308E" fill-opacity="1.000000" fill-rule="nonzero"/>
	<path id="Vector" d="M11.53 90.39L13.1 91.09C13.16 91.12 13.22 91.15 13.28 91.17C13.28 90.95 13.26 90.73 13.26 90.51C13.26 89.48 13.4 88.45 13.68 87.45L9 86.01L9 86.45C9 87.28 9.23 88.1 9.68 88.8C10.13 89.5 10.78 90.05 11.53 90.39Z" fill="#00308E" fill-opacity="1.000000" fill-rule="nonzero"/>
	<path id="Vector" d="M104.09 91.91C104.02 92.5 103.91 93.08 103.74 93.65L108.24 93.76C108.68 93.77 109.12 93.71 109.54 93.58L110.22 93.37C110.8 93.19 111.33 92.88 111.78 92.46L104.09 91.91Z" fill="#00308E" fill-opacity="1.000000" fill-rule="nonzero"/>
	<path id="Vector" d="M24.64 77.99C21.34 77.99 18.17 79.31 15.83 81.66C13.49 84.01 12.18 87.19 12.17 90.51C12.17 90.57 12.17 90.62 12.17 90.69L13.07 91.09C13.13 91.12 13.2 91.15 13.26 91.17C13.26 90.95 13.24 90.73 13.24 90.51C13.23 88.94 13.55 87.38 14.16 85.94C14.78 84.5 15.69 83.2 16.83 82.12C17.97 81.04 19.32 80.22 20.79 79.69C22.26 79.16 23.83 78.94 25.39 79.04C26.95 79.15 28.47 79.57 29.86 80.29C31.25 81.02 32.48 82.02 33.47 83.24C34.46 84.45 35.18 85.86 35.6 87.38C36.03 88.89 36.13 90.47 35.92 92.03L37 92.06C37.22 90.3 37.06 88.51 36.54 86.81C36.02 85.12 35.14 83.55 33.97 82.22C32.8 80.89 31.36 79.83 29.75 79.1C28.14 78.37 26.4 77.99 24.63 77.99L24.64 77.99Z" fill="#00308E" fill-opacity="1.000000" fill-rule="nonzero"/>
	<path id="Vector" d="M92.79 77.99C90.93 77.99 89.1 78.41 87.42 79.21C85.75 80.01 84.27 81.18 83.1 82.62C81.93 84.07 81.1 85.76 80.67 87.58C80.23 89.39 80.21 91.27 80.59 93.1L81.69 93.12C81.3 91.42 81.29 89.65 81.68 87.95C82.07 86.24 82.84 84.65 83.94 83.29C85.04 81.94 86.43 80.85 88.01 80.12C89.59 79.38 91.32 79.02 93.06 79.07C94.8 79.11 96.51 79.55 98.05 80.36C99.59 81.16 100.93 82.32 101.96 83.72C103 85.13 103.69 86.76 104 88.48C104.31 90.2 104.22 91.97 103.74 93.65L104.85 93.68C105.33 91.82 105.38 89.89 105 88.01C104.62 86.13 103.82 84.37 102.65 82.86C101.49 81.34 99.99 80.12 98.28 79.27C96.57 78.43 94.69 77.99 92.79 77.99Z" fill="#00308E" fill-opacity="1.000000" fill-rule="nonzero"/>
	<path id="Vector" d="M60.05 57.34C53.32 56.51 42.63 57.25 34.16 58.11C33.98 58.12 33.81 58.19 33.66 58.3C33.52 58.42 33.4 58.57 33.34 58.74C33.28 58.92 33.26 59.1 33.3 59.28C33.34 59.46 33.42 59.63 33.55 59.76L38.08 64.58C38.68 65.21 39.47 65.62 40.33 65.72L75.52 70.11C75.95 70.16 76.39 70.14 76.81 70.04L81.59 68.94C81.72 68.91 81.84 68.84 81.94 68.75C82.03 68.65 82.1 68.53 82.13 68.4C82.16 68.27 82.15 68.13 82.1 68C82.05 67.87 81.97 67.76 81.87 67.68C77.65 64.41 68.87 58.42 60.05 57.34Z" fill="#00308E" fill-opacity="1.000000" fill-rule="nonzero"/>
	<g opacity="0.300000">
		<path id="Vector" d="M106.37 89.91L106.04 89.91L108.51 81.09L109.7 81.09L106.37 89.91Z" fill="#1919D3" fill-opacity="1.000000" fill-rule="nonzero"/>
	</g>
	<g opacity="0.300000">
		<path id="Vector" d="M113.09 89.46L113.09 81.06C113.09 80.89 113.08 80.72 113.06 80.55L110.15 90.94L110.55 90.94L111.27 89.03L113 90.29C113.05 90.02 113.08 89.74 113.09 89.46Z" fill="#1919D3" fill-opacity="1.000000" fill-rule="nonzero"/>
	</g>
	<g opacity="0.300000">
		<path id="Vector" d="M58.57 71.76L54.37 71.59C54.23 71.58 54.09 71.54 53.97 71.45C53.85 71.36 53.76 71.24 53.71 71.11C53.69 71.04 53.68 70.97 53.69 70.89C53.7 70.82 53.73 70.76 53.77 70.7C53.82 70.64 53.87 70.59 53.94 70.56C54 70.53 54.07 70.52 54.15 70.52L58.34 70.7C58.49 70.7 58.63 70.75 58.75 70.84C58.86 70.92 58.95 71.04 59 71.18C59.02 71.25 59.03 71.32 59.02 71.39C59.01 71.46 58.98 71.53 58.94 71.59C58.9 71.65 58.84 71.69 58.78 71.72C58.71 71.75 58.64 71.77 58.57 71.76Z" fill="#1919D3" fill-opacity="1.000000" fill-rule="nonzero"/>
	</g>
	<path id="Vector" d="M27.16 59.46L23.34 58.5C23.37 58.57 23.39 58.65 23.4 58.73C23.4 58.81 23.39 58.89 23.37 58.96C23.34 59.04 23.3 59.11 23.25 59.17C23.2 59.23 23.13 59.27 23.06 59.31L11.3 65.53C11.17 65.6 11.04 65.68 10.91 65.76L13.33 65.76C13.55 65.76 13.77 65.73 13.98 65.68L26.18 62.28C26.34 62.23 26.48 62.15 26.6 62.02L27.59 60.94C27.7 60.82 27.77 60.68 27.8 60.53C27.83 60.38 27.83 60.22 27.78 60.08C27.74 59.93 27.66 59.8 27.55 59.69C27.44 59.58 27.3 59.5 27.16 59.46Z" fill="#00308E" fill-opacity="1.000000" fill-rule="nonzero"/>
	<g opacity="0.700000">
		<path id="Vector" d="M93.55 71.37L95.21 70.8C95.48 70.71 95.78 70.69 96.06 70.76L109.7 74.07L110 75.28C110.09 75.63 110.04 76 109.86 76.31L109.82 76.39C109.67 76.64 109.45 76.85 109.19 76.98C108.93 77.11 108.63 77.16 108.34 77.12L105.64 76.74C105.38 76.71 105.13 76.6 104.91 76.44L101.8 74.06L93.57 71.99C93.5 71.97 93.45 71.93 93.41 71.88C93.37 71.82 93.35 71.76 93.34 71.69C93.34 71.62 93.36 71.55 93.4 71.5C93.44 71.44 93.49 71.4 93.55 71.37Z" fill="#FFFFFF" fill-opacity="1.000000" fill-rule="nonzero"/>
	</g>
	<path id="Vector" d="M94.74 71.31C94.69 71.34 94.64 71.38 94.61 71.43C94.58 71.48 94.56 71.54 94.56 71.6C94.56 71.67 94.59 71.72 94.62 71.77C94.66 71.82 94.71 71.86 94.77 71.88L102.08 73.71L104.84 75.82C105.03 75.96 105.25 76.05 105.49 76.09L107.89 76.42C108.14 76.45 108.41 76.41 108.64 76.3C108.87 76.18 109.07 76 109.2 75.77L109.24 75.7C109.4 75.43 109.44 75.1 109.36 74.8L109.15 73.96L96.21 70.82L94.74 71.31Z" fill="#407BFF" fill-opacity="1.000000" fill-rule="nonzero"/>
	<g opacity="0.300000">
		<path id="Vector" d="M94.74 71.31C94.69 71.34 94.64 71.38 94.61 71.43C94.58 71.48 94.56 71.54 94.56 71.6C94.56 71.67 94.59 71.72 94.62 71.77C94.66 71.82 94.71 71.86 94.77 71.88L102.08 73.71L104.84 75.82C105.03 75.96 105.25 76.05 105.49 76.09L107.89 76.42C108.14 76.45 108.41 76.41 108.64 76.3C108.87 76.18 109.07 76 109.2 75.77L109.24 75.7C109.4 75.43 109.44 75.1 109.36 74.8L109.15 73.96L96.21 70.82L94.74 71.31Z" fill="#FFFFFF" fill-opacity="1.000000" fill-rule="nonzero"/>
	</g>
	<path id="Vector" d="M109.14 73.94L103.43 72.55L105.84 74.9C106.01 75.06 106.22 75.17 106.44 75.21L108.66 75.61C108.89 75.65 109.13 75.6 109.33 75.48C109.41 75.25 109.42 75.01 109.36 74.78L109.14 73.94Z" fill="#407BFF" fill-opacity="1.000000" fill-rule="nonzero"/>
	<g opacity="0.600000">
		<path id="Vector" d="M109.14 73.94L103.43 72.55L105.84 74.9C106.01 75.06 106.22 75.17 106.44 75.21L108.66 75.61C108.89 75.65 109.13 75.6 109.33 75.48C109.41 75.25 109.42 75.01 109.36 74.78L109.14 73.94Z" fill="#FFFFFF" fill-opacity="1.000000" fill-rule="nonzero"/>
	</g>
	<path id="Vector" d="M67.11 56.39L66.21 56.86C66.19 56.87 66.17 56.89 66.16 56.91C66.15 56.93 66.14 56.96 66.14 56.99C66.15 57.01 66.16 57.04 66.17 57.06C66.19 57.08 66.21 57.09 66.23 57.1C73.47 59.45 80.17 64.47 84.03 67.75C84.23 67.92 84.47 68.04 84.73 68.09C84.99 68.15 85.26 68.14 85.51 68.07L86.17 67.88C86.17 67.88 77.55 60.03 67.11 56.39Z" fill="#00308E" fill-opacity="1.000000" fill-rule="nonzero"/>
	<g opacity="0.200000">
		<path id="Vector" d="M32.59 72.3L46.74 83.22L76.17 87.22L85.09 74.94L46.63 72.3L32.59 72.3Z" fill="#FFFFFF" fill-opacity="1.000000" fill-rule="nonzero"/>
	</g>
	<path id="Vector" d="M31.35 83.77C35.06 87.49 35.06 93.53 31.35 97.25C27.65 100.98 21.63 100.98 17.93 97.25C14.22 93.53 14.22 87.49 17.93 83.77C21.63 80.04 27.65 80.04 31.35 83.77Z" fill="#00308E" fill-opacity="1.000000" fill-rule="evenodd"/>
	<g opacity="0.600000">
		<path id="Vector" d="M26.92 97.86C26.87 97.72 26.88 97.57 26.95 97.44C27.01 97.3 27.12 97.2 27.26 97.14C28.5 96.66 29.58 95.82 30.37 94.75C31.16 93.67 31.63 92.39 31.72 91.05C31.73 90.9 31.8 90.77 31.91 90.67C32.01 90.57 32.16 90.51 32.3 90.51C32.38 90.51 32.46 90.53 32.54 90.56C32.61 90.59 32.68 90.64 32.73 90.7C32.79 90.76 32.83 90.83 32.85 90.9C32.88 90.98 32.89 91.06 32.88 91.14C32.77 92.7 32.22 94.19 31.31 95.44C30.39 96.69 29.13 97.66 27.69 98.23C27.62 98.26 27.54 98.27 27.46 98.27C27.38 98.26 27.3 98.24 27.23 98.21C27.15 98.18 27.09 98.13 27.04 98.07C26.98 98.01 26.94 97.94 26.92 97.86Z" fill="#1919D3" fill-opacity="1.000000" fill-rule="nonzero"/>
	</g>
	<g opacity="0.600000">
		<path id="Vector" d="M31.45 88.48C31.03 87.1 30.21 85.88 29.09 84.97C27.97 84.07 26.6 83.52 25.17 83.41C25.03 83.39 24.89 83.33 24.79 83.22C24.69 83.11 24.64 82.97 24.64 82.82C24.64 82.74 24.66 82.66 24.69 82.59C24.72 82.52 24.77 82.45 24.83 82.39C24.89 82.34 24.95 82.3 25.03 82.27C25.1 82.25 25.18 82.23 25.26 82.24C26.93 82.37 28.52 83.01 29.82 84.06C31.12 85.11 32.08 86.53 32.56 88.14C32.58 88.22 32.59 88.3 32.58 88.38C32.57 88.46 32.54 88.53 32.5 88.6C32.46 88.67 32.4 88.73 32.34 88.78C32.28 88.82 32.2 88.86 32.13 88.88C31.99 88.91 31.84 88.88 31.71 88.81C31.59 88.73 31.49 88.62 31.45 88.48Z" fill="#1919D3" fill-opacity="1.000000" fill-rule="nonzero"/>
	</g>
	<g opacity="0.600000">
		<path id="Vector" d="M20.81 97.18C20.77 97.25 20.71 97.3 20.65 97.35C20.58 97.4 20.51 97.43 20.43 97.45C20.35 97.47 20.27 97.47 20.2 97.45C20.12 97.44 20.04 97.41 19.98 97.37C18.82 96.57 17.88 95.5 17.25 94.24C16.62 92.98 16.32 91.58 16.38 90.18C16.44 88.77 16.85 87.4 17.58 86.2C18.3 84.99 19.32 84 20.54 83.3C20.61 83.26 20.69 83.23 20.77 83.22C20.85 83.21 20.93 83.22 21.01 83.24C21.08 83.27 21.16 83.31 21.22 83.36C21.28 83.42 21.33 83.48 21.36 83.55C21.42 83.69 21.43 83.84 21.39 83.98C21.35 84.12 21.25 84.24 21.12 84.31C20.08 84.91 19.2 85.77 18.57 86.8C17.95 87.83 17.59 89.01 17.54 90.22C17.49 91.43 17.75 92.63 18.29 93.71C18.83 94.8 19.64 95.72 20.63 96.4C20.76 96.49 20.84 96.61 20.87 96.76C20.9 96.9 20.88 97.05 20.81 97.18L20.81 97.18Z" fill="#1919D3" fill-opacity="1.000000" fill-rule="nonzero"/>
	</g>
	<g opacity="0.600000">
		<path id="Vector" d="M24.01 98.79C23.7 98.77 23.38 98.72 23.07 98.66C22.99 98.65 22.92 98.62 22.85 98.57C22.79 98.53 22.73 98.47 22.69 98.4C22.65 98.33 22.62 98.25 22.61 98.17C22.6 98.1 22.6 98.01 22.62 97.94C22.66 97.79 22.75 97.67 22.88 97.59C23 97.51 23.15 97.49 23.29 97.52C23.56 97.57 23.84 97.6 24.11 97.62C24.26 97.64 24.39 97.71 24.49 97.81C24.59 97.92 24.64 98.06 24.65 98.21C24.64 98.29 24.63 98.37 24.59 98.44C24.56 98.51 24.51 98.58 24.45 98.63C24.39 98.69 24.33 98.73 24.25 98.76C24.17 98.78 24.09 98.8 24.01 98.79Z" fill="#1919D3" fill-opacity="1.000000" fill-rule="nonzero"/>
	</g>
	<g opacity="0.400000">
		<path id="Vector" d="M28.76 86.38C31.03 88.66 31.03 92.36 28.76 94.64C26.48 96.93 22.8 96.93 20.52 94.64C18.25 92.36 18.25 88.66 20.52 86.38C22.8 84.09 26.48 84.09 28.76 86.38Z" fill="#FFFFFF" fill-opacity="1.000000" fill-rule="evenodd"/>
	</g>
	<g opacity="0.300000">
		<path id="Vector" d="M24.64 85.25L24.64 85.25C24.9 85.25 25.11 85.46 25.11 85.72L25.11 88.72C25.11 88.97 24.9 89.18 24.64 89.18L24.64 89.18C24.38 89.18 24.17 88.97 24.17 88.72L24.17 85.72C24.17 85.46 24.38 85.25 24.64 85.25Z" fill="#FFFFFF" fill-opacity="1.000000" fill-rule="evenodd"/>
	</g>
	<path id="Vector" d="M24.64 86.04C24.79 86.04 24.92 86.16 24.92 86.32L24.92 88.12C24.92 88.27 24.79 88.4 24.64 88.4C24.48 88.4 24.36 88.27 24.36 88.12L24.36 86.32C24.36 86.16 24.48 86.04 24.64 86.04Z" fill="#00308E" fill-opacity="1.000000" fill-rule="evenodd"/>
	<g opacity="0.300000">
		<path id="Vector" d="M24.64 91.84L24.64 91.84C24.9 91.84 25.11 92.05 25.11 92.31L25.11 95.3C25.11 95.56 24.9 95.77 24.64 95.77L24.64 95.77C24.38 95.77 24.17 95.56 24.17 95.3L24.17 92.31C24.17 92.05 24.38 91.84 24.64 91.84Z" fill="#FFFFFF" fill-opacity="1.000000" fill-rule="evenodd"/>
	</g>
	<path id="Vector" d="M24.64 92.62C24.79 92.62 24.92 92.75 24.92 92.9L24.92 94.7C24.92 94.86 24.79 94.98 24.64 94.98C24.48 94.98 24.36 94.86 24.36 94.7L24.36 92.9C24.36 92.75 24.48 92.62 24.64 92.62Z" fill="#00308E" fill-opacity="1.000000" fill-rule="evenodd"/>
	<g opacity="0.300000">
		<path id="Vector" d="M22.86 90.02L20.28 88.51C20.17 88.45 20.09 88.35 20.06 88.23C20.03 88.11 20.04 87.98 20.1 87.87C20.17 87.76 20.27 87.69 20.39 87.65C20.51 87.62 20.64 87.64 20.74 87.7L23.32 89.21C23.38 89.24 23.42 89.28 23.46 89.33C23.5 89.37 23.53 89.43 23.54 89.49C23.56 89.55 23.56 89.61 23.55 89.67C23.55 89.73 23.53 89.79 23.5 89.84C23.46 89.9 23.42 89.95 23.38 89.98C23.33 90.02 23.27 90.05 23.21 90.06C23.15 90.08 23.09 90.08 23.03 90.08C22.97 90.07 22.91 90.05 22.86 90.02Z" fill="#FFFFFF" fill-opacity="1.000000" fill-rule="nonzero"/>
	</g>
	<path id="Vector" d="M22.43 89.56L20.89 88.65C20.83 88.61 20.78 88.55 20.76 88.48C20.74 88.41 20.75 88.33 20.78 88.27C20.82 88.21 20.88 88.16 20.95 88.14C21.03 88.12 21.1 88.13 21.17 88.16L22.71 89.07C22.74 89.09 22.77 89.11 22.8 89.14C22.82 89.17 22.83 89.2 22.84 89.24C22.85 89.27 22.86 89.31 22.85 89.35C22.85 89.38 22.84 89.42 22.82 89.45C22.78 89.52 22.72 89.56 22.65 89.58C22.58 89.6 22.5 89.59 22.43 89.56Z" fill="#00308E" fill-opacity="1.000000" fill-rule="nonzero"/>
	<g opacity="0.300000">
		<path id="Vector" d="M28.54 93.3L25.95 91.79C25.85 91.73 25.77 91.63 25.74 91.51C25.71 91.39 25.72 91.26 25.79 91.15C25.82 91.1 25.86 91.05 25.91 91.02C25.96 90.98 26.01 90.95 26.07 90.94C26.13 90.92 26.19 90.92 26.25 90.92C26.31 90.93 26.37 90.95 26.42 90.98L29 92.49C29.06 92.52 29.1 92.56 29.14 92.61C29.18 92.66 29.21 92.71 29.22 92.77C29.24 92.83 29.24 92.89 29.23 92.95C29.23 93.02 29.21 93.07 29.17 93.13C29.14 93.18 29.1 93.23 29.06 93.26C29.01 93.3 28.95 93.33 28.89 93.35C28.83 93.36 28.77 93.37 28.71 93.36C28.65 93.35 28.59 93.33 28.54 93.3Z" fill="#FFFFFF" fill-opacity="1.000000" fill-rule="nonzero"/>
	</g>
	<path id="Vector" d="M28.11 92.85L26.57 91.95C26.53 91.93 26.51 91.9 26.48 91.88C26.46 91.85 26.44 91.81 26.43 91.78C26.43 91.74 26.42 91.7 26.43 91.67C26.43 91.63 26.45 91.6 26.46 91.56C26.48 91.53 26.51 91.5 26.54 91.48C26.56 91.46 26.6 91.44 26.63 91.43C26.67 91.42 26.71 91.42 26.74 91.43C26.78 91.43 26.81 91.44 26.84 91.46L28.39 92.37C28.46 92.4 28.51 92.46 28.53 92.54C28.54 92.61 28.53 92.69 28.5 92.75C28.46 92.81 28.39 92.86 28.32 92.87C28.25 92.89 28.18 92.88 28.11 92.85Z" fill="#00308E" fill-opacity="1.000000" fill-rule="nonzero"/>
	<g opacity="0.300000">
		<path id="Vector" d="M20.1 93.14C20.04 93.03 20.03 92.9 20.06 92.78C20.09 92.67 20.17 92.56 20.28 92.5L22.86 91C22.96 90.93 23.09 90.92 23.21 90.95C23.33 90.98 23.43 91.06 23.5 91.16C23.56 91.27 23.57 91.4 23.54 91.52C23.51 91.64 23.43 91.74 23.32 91.81L20.74 93.31C20.64 93.37 20.51 93.39 20.39 93.36C20.27 93.33 20.17 93.25 20.1 93.14Z" fill="#FFFFFF" fill-opacity="1.000000" fill-rule="nonzero"/>
	</g>
	<path id="Vector" d="M20.78 92.75C20.75 92.68 20.74 92.61 20.76 92.54C20.78 92.46 20.83 92.4 20.89 92.36L22.43 91.46C22.47 91.44 22.5 91.43 22.54 91.42C22.57 91.42 22.61 91.42 22.65 91.43C22.68 91.44 22.72 91.46 22.75 91.48C22.77 91.5 22.8 91.53 22.82 91.56C22.84 91.59 22.85 91.63 22.85 91.67C22.86 91.7 22.85 91.74 22.84 91.77C22.83 91.81 22.82 91.84 22.8 91.87C22.77 91.9 22.74 91.93 22.71 91.94L21.17 92.85C21.1 92.88 21.03 92.89 20.96 92.87C20.88 92.85 20.82 92.81 20.78 92.75Z" fill="#00308E" fill-opacity="1.000000" fill-rule="nonzero"/>
	<g opacity="0.300000">
		<path id="Vector" d="M25.79 89.84C25.76 89.79 25.74 89.73 25.73 89.67C25.72 89.61 25.72 89.55 25.74 89.49C25.75 89.43 25.78 89.38 25.82 89.33C25.86 89.28 25.9 89.24 25.95 89.21L28.54 87.7C28.59 87.67 28.65 87.65 28.71 87.64C28.77 87.63 28.83 87.64 28.89 87.65C28.95 87.67 29.01 87.7 29.05 87.73C29.1 87.77 29.14 87.82 29.17 87.87C29.2 87.93 29.22 87.98 29.23 88.04C29.24 88.11 29.24 88.17 29.22 88.23C29.2 88.29 29.18 88.34 29.14 88.39C29.1 88.44 29.06 88.48 29 88.51L26.42 90.02C26.37 90.05 26.31 90.07 26.25 90.08C26.19 90.08 26.13 90.08 26.07 90.06C26.01 90.05 25.95 90.02 25.91 89.98C25.86 89.94 25.82 89.9 25.79 89.84Z" fill="#FFFFFF" fill-opacity="1.000000" fill-rule="nonzero"/>
	</g>
	<path id="Vector" d="M26.46 89.45C26.45 89.42 26.43 89.39 26.43 89.35C26.42 89.31 26.43 89.28 26.43 89.24C26.44 89.2 26.46 89.17 26.48 89.14C26.51 89.11 26.53 89.09 26.57 89.07L28.11 88.17C28.18 88.13 28.25 88.13 28.32 88.15C28.4 88.16 28.46 88.21 28.5 88.27C28.53 88.33 28.54 88.41 28.53 88.48C28.51 88.56 28.46 88.62 28.39 88.66L26.84 89.56C26.81 89.58 26.78 89.59 26.74 89.59C26.7 89.6 26.67 89.6 26.63 89.59C26.6 89.58 26.56 89.56 26.54 89.54C26.51 89.51 26.48 89.49 26.46 89.45Z" fill="#00308E" fill-opacity="1.000000" fill-rule="nonzero"/>
	<path id="Vector" d="M25.42 90.51C25.42 90.67 25.37 90.82 25.29 90.95C25.2 91.08 25.08 91.18 24.94 91.24C24.79 91.3 24.64 91.31 24.48 91.28C24.33 91.25 24.19 91.18 24.08 91.07C23.97 90.95 23.9 90.81 23.87 90.66C23.84 90.51 23.86 90.35 23.92 90.21C23.98 90.06 24.08 89.94 24.21 89.86C24.33 89.77 24.49 89.72 24.64 89.72C24.74 89.72 24.85 89.74 24.94 89.78C25.03 89.82 25.12 89.88 25.19 89.95C25.27 90.03 25.32 90.11 25.36 90.21C25.4 90.31 25.42 90.41 25.42 90.51Z" fill="#00308E" fill-opacity="1.000000" fill-rule="nonzero"/>
	<path id="Vector" d="M99.5 83.77C103.21 87.49 103.21 93.53 99.5 97.25C95.79 100.98 89.78 100.98 86.07 97.25C82.37 93.53 82.37 87.49 86.07 83.77C89.78 80.05 95.79 80.05 99.5 83.77Z" fill="#00308E" fill-opacity="1.000000" fill-rule="evenodd"/>
	<g opacity="0.600000">
		<path id="Vector" d="M95.06 97.86C95.02 97.72 95.03 97.57 95.09 97.44C95.16 97.3 95.27 97.2 95.4 97.14C96.65 96.66 97.72 95.82 98.51 94.75C99.31 93.67 99.78 92.39 99.87 91.05C99.88 90.9 99.95 90.77 100.06 90.67C100.16 90.57 100.3 90.51 100.45 90.51C100.53 90.51 100.61 90.53 100.68 90.56C100.75 90.6 100.82 90.64 100.87 90.7C100.93 90.76 100.97 90.83 101 90.91C101.02 90.98 101.04 91.06 101.03 91.14C100.92 92.7 100.37 94.19 99.45 95.44C98.53 96.69 97.28 97.66 95.84 98.23C95.76 98.26 95.68 98.27 95.6 98.27C95.52 98.26 95.45 98.24 95.37 98.21C95.3 98.18 95.24 98.13 95.18 98.07C95.13 98.01 95.09 97.94 95.06 97.86Z" fill="#1919D3" fill-opacity="1.000000" fill-rule="nonzero"/>
	</g>
	<g opacity="0.600000">
		<path id="Vector" d="M99.6 88.48C99.18 87.1 98.36 85.88 97.24 84.97C96.12 84.07 94.75 83.52 93.32 83.41C93.17 83.39 93.04 83.33 92.94 83.22C92.84 83.11 92.79 82.97 92.79 82.82C92.79 82.74 92.8 82.66 92.83 82.59C92.87 82.51 92.91 82.45 92.97 82.39C93.03 82.34 93.1 82.3 93.18 82.27C93.25 82.24 93.33 82.23 93.41 82.24C95.08 82.37 96.67 83.01 97.97 84.06C99.27 85.11 100.23 86.53 100.71 88.14C100.73 88.22 100.74 88.3 100.72 88.38C100.71 88.46 100.69 88.53 100.65 88.6C100.61 88.67 100.55 88.73 100.49 88.78C100.43 88.82 100.35 88.86 100.28 88.88C100.13 88.91 99.98 88.89 99.86 88.81C99.73 88.74 99.64 88.62 99.6 88.48Z" fill="#1919D3" fill-opacity="1.000000" fill-rule="nonzero"/>
	</g>
	<g opacity="0.600000">
		<path id="Vector" d="M88.96 97.18C88.92 97.25 88.86 97.3 88.8 97.35C88.73 97.4 88.66 97.43 88.58 97.45C88.5 97.47 88.42 97.47 88.35 97.45C88.27 97.44 88.19 97.41 88.13 97.37C86.97 96.57 86.03 95.5 85.4 94.24C84.77 92.98 84.47 91.58 84.53 90.18C84.59 88.77 85 87.4 85.73 86.2C86.45 84.99 87.48 84 88.69 83.3C88.76 83.26 88.84 83.23 88.92 83.22C89 83.21 89.08 83.22 89.16 83.24C89.23 83.27 89.3 83.31 89.37 83.36C89.43 83.42 89.47 83.48 89.51 83.55C89.57 83.69 89.58 83.84 89.54 83.98C89.5 84.12 89.4 84.24 89.27 84.31C88.23 84.91 87.35 85.77 86.72 86.8C86.09 87.83 85.74 89.01 85.69 90.22C85.64 91.43 85.9 92.63 86.44 93.71C86.98 94.8 87.79 95.72 88.79 96.4C88.91 96.49 88.99 96.61 89.02 96.76C89.06 96.9 89.03 97.05 88.96 97.18L88.96 97.18Z" fill="#1919D3" fill-opacity="1.000000" fill-rule="nonzero"/>
	</g>
	<g opacity="0.600000">
		<path id="Vector" d="M92.16 98.79C91.85 98.77 91.53 98.73 91.22 98.66C91.14 98.65 91.07 98.62 91 98.57C90.94 98.53 90.88 98.47 90.84 98.4C90.79 98.33 90.77 98.25 90.76 98.18C90.74 98.1 90.75 98.01 90.77 97.94C90.81 97.8 90.9 97.67 91.02 97.6C91.14 97.52 91.29 97.49 91.44 97.52C91.71 97.57 91.98 97.6 92.25 97.62C92.4 97.64 92.53 97.7 92.63 97.81C92.73 97.92 92.79 98.06 92.79 98.21C92.78 98.29 92.77 98.37 92.73 98.44C92.7 98.51 92.65 98.58 92.6 98.63C92.54 98.68 92.47 98.73 92.39 98.75C92.32 98.78 92.24 98.79 92.16 98.79Z" fill="#1919D3" fill-opacity="1.000000" fill-rule="nonzero"/>
	</g>
	<g opacity="0.400000">
		<path id="Vector" d="M96.9 86.38C99.17 88.66 99.17 92.36 96.9 94.64C94.63 96.93 90.94 96.93 88.67 94.64C86.4 92.36 86.4 88.66 88.67 86.38C90.94 84.09 94.63 84.09 96.9 86.38Z" fill="#FFFFFF" fill-opacity="1.000000" fill-rule="evenodd"/>
	</g>
	<g opacity="0.300000">
		<path id="Vector" d="M92.79 85.25L92.79 85.25C93.05 85.25 93.25 85.46 93.25 85.72L93.25 88.72C93.25 88.97 93.05 89.18 92.79 89.18L92.79 89.18C92.53 89.18 92.32 88.97 92.32 88.72L92.32 85.72C92.32 85.46 92.53 85.25 92.79 85.25Z" fill="#FFFFFF" fill-opacity="1.000000" fill-rule="evenodd"/>
	</g>
	<path id="Vector" d="M92.79 86.04C92.94 86.04 93.06 86.16 93.06 86.32L93.06 88.12C93.06 88.27 92.94 88.4 92.79 88.4C92.63 88.4 92.51 88.27 92.51 88.12L92.51 86.32C92.51 86.16 92.63 86.04 92.79 86.04Z" fill="#00308E" fill-opacity="1.000000" fill-rule="evenodd"/>
	<g opacity="0.300000">
		<path id="Vector" d="M92.79 91.84L92.79 91.84C93.05 91.84 93.25 92.05 93.25 92.31L93.25 95.3C93.25 95.56 93.05 95.77 92.79 95.77L92.79 95.77C92.53 95.77 92.32 95.56 92.32 95.3L92.32 92.31C92.32 92.05 92.53 91.84 92.79 91.84Z" fill="#FFFFFF" fill-opacity="1.000000" fill-rule="evenodd"/>
	</g>
	<path id="Vector" d="M92.79 92.62C92.94 92.62 93.06 92.75 93.06 92.9L93.06 94.7C93.06 94.86 92.94 94.98 92.79 94.98C92.63 94.98 92.51 94.86 92.51 94.7L92.51 92.9C92.51 92.75 92.63 92.62 92.79 92.62Z" fill="#00308E" fill-opacity="1.000000" fill-rule="evenodd"/>
	<g opacity="0.300000">
		<path id="Vector" d="M91 90.02L88.42 88.51C88.37 88.48 88.32 88.44 88.29 88.39C88.25 88.34 88.22 88.29 88.21 88.23C88.19 88.17 88.19 88.11 88.19 88.04C88.2 87.98 88.22 87.93 88.25 87.87C88.28 87.82 88.32 87.77 88.37 87.73C88.42 87.7 88.48 87.67 88.53 87.65C88.59 87.64 88.66 87.63 88.72 87.64C88.78 87.65 88.83 87.67 88.89 87.7L91.47 89.21C91.53 89.24 91.57 89.28 91.61 89.33C91.65 89.38 91.67 89.43 91.69 89.49C91.7 89.55 91.71 89.61 91.7 89.67C91.69 89.73 91.67 89.79 91.64 89.84C91.61 89.9 91.57 89.95 91.52 89.98C91.47 90.02 91.42 90.05 91.36 90.06C91.3 90.08 91.24 90.08 91.18 90.08C91.12 90.07 91.06 90.05 91 90.02Z" fill="#FFFFFF" fill-opacity="1.000000" fill-rule="nonzero"/>
	</g>
	<path id="Vector" d="M90.58 89.56L89.03 88.65C88.97 88.61 88.93 88.55 88.91 88.48C88.89 88.41 88.9 88.33 88.93 88.27C88.97 88.21 89.03 88.16 89.1 88.14C89.17 88.12 89.25 88.13 89.31 88.16L90.86 89.07C90.89 89.09 90.92 89.11 90.94 89.14C90.97 89.17 90.98 89.2 90.99 89.24C91 89.27 91 89.31 91 89.35C90.99 89.38 90.98 89.42 90.96 89.45C90.94 89.48 90.92 89.51 90.89 89.53C90.86 89.56 90.83 89.57 90.79 89.58C90.76 89.59 90.72 89.59 90.69 89.59C90.65 89.59 90.61 89.57 90.58 89.56Z" fill="#00308E" fill-opacity="1.000000" fill-rule="nonzero"/>
	<g opacity="0.300000">
		<path id="Vector" d="M96.68 93.3L94.1 91.79C93.99 91.73 93.92 91.63 93.88 91.51C93.85 91.39 93.87 91.26 93.93 91.15C93.99 91.04 94.1 90.97 94.22 90.93C94.34 90.9 94.46 90.92 94.57 90.98L97.15 92.49C97.2 92.52 97.25 92.56 97.29 92.61C97.33 92.66 97.35 92.71 97.37 92.77C97.38 92.83 97.39 92.89 97.38 92.95C97.37 93.02 97.35 93.07 97.32 93.13C97.26 93.24 97.16 93.31 97.04 93.35C96.92 93.38 96.79 93.36 96.68 93.3Z" fill="#FFFFFF" fill-opacity="1.000000" fill-rule="nonzero"/>
	</g>
	<path id="Vector" d="M96.26 92.85L94.71 91.95C94.68 91.93 94.65 91.9 94.63 91.88C94.61 91.85 94.59 91.81 94.58 91.78C94.57 91.74 94.57 91.7 94.57 91.67C94.58 91.63 94.59 91.6 94.61 91.56C94.63 91.53 94.65 91.5 94.68 91.48C94.71 91.46 94.74 91.44 94.78 91.43C94.81 91.42 94.85 91.42 94.89 91.43C94.93 91.43 94.96 91.44 94.99 91.46L96.54 92.37C96.6 92.41 96.65 92.47 96.66 92.54C96.68 92.61 96.68 92.68 96.64 92.75C96.6 92.81 96.54 92.86 96.47 92.87C96.4 92.89 96.33 92.88 96.26 92.85Z" fill="#00308E" fill-opacity="1.000000" fill-rule="nonzero"/>
	<g opacity="0.300000">
		<path id="Vector" d="M88.25 93.14C88.22 93.09 88.2 93.03 88.19 92.97C88.19 92.91 88.19 92.84 88.21 92.78C88.22 92.73 88.25 92.67 88.29 92.62C88.32 92.57 88.37 92.53 88.42 92.5L91 91C91.06 90.96 91.12 90.94 91.18 90.94C91.24 90.93 91.3 90.93 91.36 90.95C91.42 90.96 91.47 90.99 91.52 91.03C91.57 91.06 91.61 91.11 91.64 91.16C91.7 91.27 91.72 91.4 91.69 91.52C91.66 91.64 91.58 91.74 91.47 91.81L88.89 93.31C88.83 93.34 88.78 93.36 88.72 93.37C88.66 93.38 88.59 93.37 88.53 93.36C88.48 93.34 88.42 93.31 88.37 93.28C88.32 93.24 88.28 93.19 88.25 93.14Z" fill="#FFFFFF" fill-opacity="1.000000" fill-rule="nonzero"/>
	</g>
	<path id="Vector" d="M88.93 92.75C88.9 92.68 88.89 92.61 88.91 92.54C88.93 92.46 88.97 92.4 89.03 92.36L90.58 91.46C90.61 91.44 90.65 91.43 90.68 91.42C90.72 91.42 90.76 91.42 90.79 91.43C90.83 91.44 90.86 91.46 90.89 91.48C90.92 91.5 90.94 91.53 90.96 91.56C90.98 91.59 90.99 91.63 91 91.66C91 91.7 91 91.74 90.99 91.77C90.98 91.81 90.97 91.84 90.94 91.87C90.92 91.9 90.89 91.93 90.86 91.94L89.31 92.85C89.25 92.88 89.17 92.89 89.1 92.87C89.03 92.85 88.97 92.81 88.93 92.75Z" fill="#00308E" fill-opacity="1.000000" fill-rule="nonzero"/>
	<g opacity="0.300000">
		<path id="Vector" d="M93.93 89.84C93.9 89.79 93.88 89.73 93.87 89.67C93.86 89.61 93.87 89.55 93.88 89.49C93.9 89.43 93.93 89.37 93.97 89.33C94 89.28 94.05 89.24 94.1 89.21L96.68 87.7C96.79 87.64 96.92 87.62 97.04 87.65C97.16 87.69 97.26 87.76 97.32 87.87C97.35 87.93 97.37 87.98 97.38 88.04C97.39 88.11 97.38 88.17 97.37 88.23C97.35 88.29 97.33 88.34 97.29 88.39C97.25 88.44 97.2 88.48 97.15 88.51L94.57 90.02C94.52 90.05 94.46 90.07 94.4 90.08C94.34 90.08 94.27 90.08 94.21 90.06C94.16 90.05 94.1 90.02 94.05 89.98C94 89.95 93.96 89.9 93.93 89.84Z" fill="#FFFFFF" fill-opacity="1.000000" fill-rule="nonzero"/>
	</g>
	<path id="Vector" d="M94.61 89.45C94.59 89.42 94.58 89.39 94.57 89.35C94.57 89.31 94.57 89.28 94.58 89.24C94.59 89.2 94.61 89.17 94.63 89.14C94.65 89.11 94.68 89.09 94.71 89.07L96.26 88.17C96.33 88.13 96.4 88.13 96.47 88.15C96.54 88.16 96.6 88.21 96.64 88.27C96.68 88.34 96.68 88.41 96.66 88.48C96.65 88.55 96.6 88.61 96.54 88.66L94.99 89.56C94.93 89.6 94.85 89.61 94.78 89.59C94.71 89.57 94.65 89.52 94.61 89.45Z" fill="#00308E" fill-opacity="1.000000" fill-rule="nonzero"/>
	<path id="Vector" d="M93.57 90.51C93.57 90.67 93.52 90.82 93.44 90.95C93.35 91.08 93.23 91.18 93.09 91.24C92.94 91.3 92.78 91.31 92.63 91.28C92.48 91.25 92.34 91.18 92.23 91.07C92.12 90.96 92.05 90.82 92.02 90.66C91.99 90.51 92 90.35 92.06 90.21C92.12 90.07 92.22 89.94 92.35 89.86C92.48 89.77 92.63 89.72 92.79 89.72C92.99 89.72 93.19 89.81 93.34 89.95C93.49 90.1 93.57 90.3 93.57 90.51Z" fill="#00308E" fill-opacity="1.000000" fill-rule="nonzero"/>
	<g opacity="0.300000">
		<path id="Vector" d="M10.65 72.28L17.58 70.17C17.68 70.14 17.77 70.08 17.84 70L19.91 67.76C19.99 67.68 20.04 67.58 20.06 67.47C20.08 67.36 20.07 67.25 20.03 67.14C19.99 67.04 19.92 66.95 19.83 66.88C19.75 66.81 19.64 66.77 19.53 66.76L12.3 66.07C12.16 66.06 12.02 66.1 11.91 66.17C11.8 66.25 11.72 66.36 11.68 66.5L9.92 71.52C9.88 71.62 9.88 71.73 9.91 71.84C9.93 71.94 9.98 72.04 10.06 72.12C10.13 72.2 10.23 72.25 10.33 72.28C10.44 72.31 10.55 72.31 10.65 72.28Z" fill="#1919D3" fill-opacity="1.000000" fill-rule="nonzero"/>
	</g>
	<g opacity="0.300000">
		<path id="Vector" d="M11.68 66.5L9.92 71.52C9.88 71.63 9.88 71.75 9.91 71.87C9.95 71.98 10.01 72.08 10.1 72.16L12.3 70.31C12.44 70.2 12.54 70.05 12.6 69.88L13.31 68.03C13.41 67.78 13.41 67.51 13.32 67.26C13.22 67.01 13.04 66.81 12.8 66.69L11.86 66.23C11.78 66.3 11.71 66.39 11.68 66.5Z" fill="#1919D3" fill-opacity="1.000000" fill-rule="nonzero"/>
	</g>
	<path id="Vector" d="M81.87 67.68C78.98 65.43 75.91 63.44 72.7 61.7L74.24 69.95L75.52 70.11C75.95 70.16 76.39 70.14 76.81 70.04L81.59 68.94C81.72 68.91 81.84 68.84 81.94 68.75C82.03 68.65 82.1 68.53 82.13 68.4C82.16 68.26 82.15 68.12 82.1 68C82.05 67.87 81.97 67.76 81.87 67.68Z" fill="#1919D3" fill-opacity="1.000000" fill-rule="nonzero"/>
	<path id="Vector" d="M48.64 57.06L50.18 66.94L54.18 67.44L51.35 56.99C50.46 57 49.56 57.03 48.64 57.06Z" fill="#1919D3" fill-opacity="1.000000" fill-rule="nonzero"/>
	<path id="Vector" d="M33.55 59.76L38.08 64.58L38.14 64.64L37.69 57.76C36.49 57.87 35.29 57.98 34.16 58.1C33.98 58.12 33.8 58.19 33.66 58.3C33.51 58.41 33.4 58.56 33.33 58.74C33.27 58.91 33.26 59.1 33.29 59.28C33.33 59.46 33.42 59.63 33.55 59.76Z" fill="#1919D3" fill-opacity="1.000000" fill-rule="nonzero"/>
	<path id="Vector" d="M74.33 68.45L71.91 68.39L72.45 64.52L74.75 65.03C75.13 65.12 75.47 65.33 75.72 65.64C75.96 65.95 76.1 66.33 76.1 66.72C76.1 66.96 76.05 67.18 75.96 67.4C75.87 67.61 75.74 67.8 75.58 67.96C75.42 68.12 75.22 68.25 75.01 68.33C74.79 68.42 74.56 68.46 74.33 68.45Z" fill="#407BFF" fill-opacity="1.000000" fill-rule="nonzero"/>
	<g opacity="0.300000">
		<path id="Vector" d="M73.1 64.67L72.45 64.52L71.91 68.39L72.58 68.41L73.1 64.67Z" fill="#1919D3" fill-opacity="1.000000" fill-rule="nonzero"/>
	</g>
	<g opacity="0.200000">
		<path id="Vector" d="M9 85.34L10.02 84.31C10.3 84.03 10.53 83.69 10.68 83.32C10.84 82.95 10.92 82.55 10.92 82.15L10.92 77.8C10.92 77.37 10.82 76.94 10.65 76.54C10.47 76.15 10.21 75.8 9.88 75.51L9 74.74L9 85.34Z" fill="#FFFFFF" fill-opacity="1.000000" fill-rule="nonzero"/>
	</g>
	<path id="Vector" d="M77.15 27.03C75.7 29.26 74.72 31.71 74.19 34.23L70.19 34.61L70.19 42.4L74.19 42.78C74.72 45.3 75.7 47.75 77.15 49.98L74.6 53.08L80.08 58.59L83.17 56.02C85.39 57.49 87.82 58.47 90.34 58.99L90.72 63.02L98.47 63.02L98.85 58.99C101.36 58.47 103.8 57.49 106.02 56.02L109.11 58.59L114.59 53.08L112.03 49.98C113.49 47.75 114.47 45.3 114.99 42.78L118.99 42.4L119 34.61L114.99 34.23C114.47 31.71 113.49 29.26 112.03 27.03L114.59 23.93L109.11 18.42L106.02 20.99C103.8 19.53 101.36 18.54 98.85 18.02L98.47 14L90.71 14L90.34 18.02C87.82 18.54 85.39 19.53 83.17 20.99L80.08 18.42L74.6 23.93L77.15 27.03L77.15 27.03ZM101.82 31.61C105.81 35.61 105.81 42.11 101.82 46.12C97.83 50.12 91.36 50.12 87.37 46.12C83.38 42.11 83.38 35.61 87.37 31.61C91.36 27.6 97.83 27.6 101.82 31.61L101.82 31.61Z" fill="#407BFF" fill-opacity="1.000000" fill-rule="nonzero"/>
	<path id="Vector" d="M51.69 35.09C51.2 35.85 50.86 36.68 50.69 37.54L49.33 37.66L49.33 40.31L50.69 40.44C50.86 41.29 51.2 42.12 51.69 42.88L50.82 43.93L52.68 45.8L53.73 44.93C54.49 45.43 55.31 45.76 56.17 45.94L56.29 47.31L58.93 47.31L59.05 45.94C59.91 45.76 60.73 45.43 61.49 44.93L62.54 45.8L64.4 43.93L63.53 42.88C64.02 42.12 64.36 41.29 64.53 40.44L65.89 40.31L65.89 37.66L64.53 37.54C64.36 36.68 64.02 35.85 63.53 35.09L64.4 34.04L62.54 32.17L61.49 33.04C60.73 32.54 59.91 32.21 59.05 32.03L58.93 30.67L56.29 30.67L56.17 32.03C55.31 32.21 54.49 32.54 53.73 33.04L52.68 32.17L50.82 34.04L51.69 35.09L51.69 35.09ZM60.06 36.64C61.41 38 61.42 40.21 60.06 41.57C58.71 42.93 56.51 42.93 55.16 41.57C53.8 40.21 53.8 38 55.16 36.64C56.51 35.28 58.71 35.28 60.06 36.64L60.06 36.64Z" fill="#407BFF" fill-opacity="1.000000" fill-rule="nonzero"/>
</svg>
