<svg width="90" height="80" viewBox="0 0 90 80" fill="none" xmlns="http://www.w3.org/2000/svg">
    <path d="M50.4943 60.1358C50.4943 60.1358 50.4516 57.4043 50.4516 53.509C50.4516 49.6138 50.7197 38.4306 50.7197 38.4306L53.7752 23.4586L47.7379 20.2457L29.6258 18.7437L26.5664 19.8494C26.5664 19.8494 20.3853 22.2368 19.6568 23.9457C18.9284 25.6546 23.1048 39.6678 23.1048 39.6678C23.1048 39.6678 22.7163 48.2973 22.5357 50.5475C22.2945 53.3802 22.342 56.23 22.6775 59.0532L22.1433 61.1256C22.1433 61.1256 29.7774 65.2064 38.8217 64.9918C47.5184 64.7985 50.7352 61.8891 50.7352 61.8891L50.4943 60.1358Z" fill="#00308E"/>
    <path d="M12.05 45.8364C11.9781 45.6296 11.8557 42.1905 12.7376 40.0042C13.6195 37.8178 19.6569 23.9457 19.6569 23.9457L25.4845 34.746L23.1049 39.6678L20.667 45.4111L20.3018 57.7561L21.4867 60.8027L17.1996 64.3248L15.4377 59.2852C15.4377 59.2852 14.348 58.943 13.839 57.2341C13.3301 55.5252 12.05 45.8364 12.05 45.8364Z" fill="#00308E"/>
    <path d="M28.3746 47.3095C28.3568 47.4214 28.3308 47.5319 28.2969 47.6401C28.2406 47.8527 28.1473 48.1543 28.0191 48.5235C27.3438 50.4519 26.3113 52.2374 24.9752 53.7874C24.7188 54.0832 24.5032 54.3171 24.3478 54.4698C24.2719 54.5542 24.1887 54.6319 24.0991 54.7018C24.1664 54.6107 24.2397 54.5241 24.3186 54.4427C24.4663 54.2823 24.6722 54.0426 24.9208 53.7429C26.2214 52.176 27.249 50.4033 27.9609 48.4984C28.0968 48.1349 28.1998 47.8372 28.2658 47.6285C28.2929 47.5193 28.3293 47.4125 28.3746 47.3095Z" fill="#00308E"/>
    <path d="M43.8782 47.3134C43.8782 47.3405 40.6555 47.3638 36.6792 47.3638C32.7028 47.3638 29.4763 47.3405 29.4763 47.3134C29.4763 47.2862 32.7009 47.263 36.6792 47.263C40.6575 47.263 43.8782 47.2862 43.8782 47.3134Z" fill="#00308E"/>
    <path d="M48.9691 53.828C48.8945 53.781 48.8248 53.7266 48.7613 53.6656C48.5788 53.5096 48.4044 53.3444 48.2387 53.1707C47.9916 52.9141 47.7595 52.6437 47.5433 52.3607C47.011 51.6669 46.5776 50.9032 46.2554 50.0912C46.1235 49.7609 46.0106 49.4234 45.9174 49.0802C45.8532 48.8491 45.8007 48.6149 45.7601 48.3785C45.7415 48.2926 45.7305 48.2053 45.7271 48.1175C45.7606 48.1989 45.7847 48.2839 45.7989 48.3708C45.8358 48.5351 45.8999 48.7709 45.9932 49.0609C46.0864 49.3509 46.1991 49.6872 46.3487 50.0565C46.5166 50.4533 46.7066 50.8405 46.9178 51.2163C47.1328 51.5908 47.3689 51.9528 47.6249 52.3008C47.8658 52.6198 48.095 52.8962 48.2989 53.1185C48.5029 53.3408 48.6739 53.5168 48.7962 53.6327C48.8596 53.6925 48.9175 53.7579 48.9691 53.828Z" fill="#00308E"/>
    <path d="M46.1194 60.1357C46.1097 60.1183 46.3719 59.9424 46.7371 59.6061C46.9474 59.4037 47.1422 59.1859 47.3199 58.9546C47.5347 58.6678 47.7245 58.3631 47.8871 58.0441C48.0453 57.7227 48.1753 57.3883 48.2756 57.0447C48.3523 56.7625 48.4075 56.4749 48.4407 56.1844C48.4932 55.6876 48.4679 55.3764 48.4893 55.3764C48.5062 55.4474 48.5153 55.5199 48.5165 55.5929C48.5218 55.6785 48.5218 55.7644 48.5165 55.85C48.5183 55.9642 48.5137 56.0784 48.5029 56.1922C48.4807 56.4878 48.432 56.7809 48.3572 57.0679C48.1704 57.7748 47.8398 58.436 47.3859 59.0107C47.2016 59.2441 46.9968 59.4608 46.774 59.6583C46.6827 59.7452 46.5798 59.8129 46.5098 59.8748C46.4429 59.9293 46.3721 59.979 46.2981 60.0236C46.243 60.0676 46.183 60.1052 46.1194 60.1357Z" fill="#00308E"/>
    <path d="M50.4944 60.1357L50.4322 60.1782L50.2379 60.2942L49.9369 60.4876C49.8184 60.5629 49.6785 60.6461 49.5153 60.7292C48.6113 61.2283 47.6601 61.6375 46.6754 61.9509C46.3665 62.0631 46.0324 62.1442 45.6905 62.2409C45.3486 62.3376 44.9815 62.411 44.6066 62.498C43.8035 62.6599 42.9923 62.7792 42.1765 62.8556C41.2759 62.9427 40.3714 62.9827 39.4667 62.9755C38.5246 62.9755 37.5494 62.9291 36.5529 62.8344C33.1606 62.4936 29.8205 61.7565 26.6014 60.6383C25.3659 60.213 24.385 59.8168 23.7148 59.5268C23.3787 59.3857 23.1204 59.2658 22.9378 59.1846L22.7435 59.0918L22.6775 59.057C22.7018 59.0623 22.7253 59.0708 22.7474 59.0822L22.9417 59.1653C23.1184 59.2407 23.3787 59.3586 23.7187 59.492C24.3927 59.7684 25.3756 60.1551 26.613 60.5707C29.8347 61.6647 33.1717 62.3879 36.5587 62.7261C37.5494 62.8208 38.5207 62.8672 39.4589 62.8692C40.361 62.8773 41.2628 62.8392 42.161 62.7551C42.9731 62.6804 43.7809 62.5649 44.5813 62.4091C44.9562 62.324 45.3195 62.2506 45.6633 62.1578C46.0071 62.065 46.3374 61.9838 46.6443 61.8755C47.6283 61.5691 48.5811 61.171 49.4901 60.6867C49.6532 60.6074 49.7931 60.5262 49.9136 60.4528L50.2205 60.2749L50.4147 60.1647C50.4398 60.1514 50.4666 60.1416 50.4944 60.1357Z" fill="#00308E"/>
    <path d="M57.0191 27.6939C56.4169 25.2176 53.7712 23.4662 53.7712 23.4662L50.3174 38.7379L53.3302 46.2771L52.1278 58.3495L51.4382 59.8515L55.6321 62.9059L59.3967 57.7541C59.3967 57.7541 61.9997 48.7534 61.9997 45.9949C61.9997 43.2363 57.6213 30.1722 57.0191 27.6939Z" fill="#00308E"/>
    <path d="M27.2015 19.6175C27.2015 19.6175 26.5196 19.7161 26.5663 18.1C26.6129 16.4839 27.4035 14.8639 27.4035 14.8639L30.6125 13.2903C30.6125 13.2903 40.5194 12.0667 44.0548 14.6435C47.5901 17.2204 48.4701 17.2455 48.103 18.7495L47.7339 20.2515L38.4739 23.9438L27.2015 19.6175Z" fill="#00308E"/>
    <path d="M45.3914 17.1893C45.3887 17.204 45.3841 17.2182 45.3778 17.2318C45.3623 17.2647 45.3467 17.3053 45.3254 17.3555C45.304 17.4058 45.2554 17.4676 45.2069 17.5488C45.1465 17.6279 45.0817 17.7034 45.0126 17.775C44.5529 18.2184 44.0378 18.6011 43.48 18.9136C42.0852 19.7487 40.0281 20.6998 37.6524 21.62L37.631 21.6297L37.6097 21.6161L36.5083 20.9105L30.3272 17.023L28.4604 15.8361L27.9554 15.5094C27.9029 15.4727 27.8602 15.4437 27.8252 15.4224L27.7825 15.3895C27.7825 15.3895 27.8 15.3895 27.831 15.4127L27.967 15.492L28.4818 15.8032L30.3641 16.9631L36.5607 20.8294L37.6582 21.5175H37.6136C39.9931 20.609 42.0542 19.6695 43.4411 18.8537C43.9983 18.5486 44.5162 18.1773 44.9835 17.7479C45.0651 17.6726 45.1233 17.5933 45.1777 17.5295C45.2321 17.4657 45.269 17.4019 45.302 17.3536L45.3623 17.2357C45.3817 17.2009 45.3895 17.1873 45.3914 17.1893Z" fill="#00308E"/>
    <path d="M46.51 20.7425L46.4673 20.7637L46.3391 20.8179L45.8321 21.0209L43.975 21.7496L37.759 24.1487H37.7434H37.7298C37.4987 24.0887 37.25 24.0365 37.0053 23.9553C35.7463 23.5633 34.5248 23.0606 33.3553 22.4533C32.2714 21.9082 31.3156 21.3823 30.5076 20.9513C29.6995 20.5202 29.0448 20.178 28.5825 19.9538C28.3552 19.8378 28.1727 19.7605 28.0522 19.6986L27.9143 19.6309C27.8976 19.6241 27.8819 19.615 27.8677 19.6039C27.8854 19.6069 27.9024 19.6127 27.9182 19.6213L28.06 19.6793C28.1843 19.7334 28.3688 19.8068 28.6 19.919C29.0682 20.1297 29.7305 20.4641 30.5425 20.8855C31.3545 21.307 32.3141 21.827 33.398 22.3663C34.5643 22.9654 35.7803 23.4634 37.0325 23.8548C37.2753 23.9283 37.522 23.9805 37.7512 24.0481H37.7221L43.9478 21.6762L45.8146 20.9783L46.3216 20.785L46.4537 20.7386L46.51 20.7425Z" fill="#00308E"/>
    <path d="M23.0036 41.4598C22.9985 41.4148 22.9985 41.3694 23.0036 41.3245C23.0036 41.2259 23.0153 41.0963 23.025 40.9378C23.0347 40.7793 23.025 40.5647 23.025 40.325C23.025 40.0853 23.0153 39.8147 22.9978 39.5131C22.9687 38.9119 22.889 38.1986 22.7919 37.4079C22.6948 36.6173 22.5549 35.7512 22.4034 34.8465C22.0887 33.0333 21.7604 31.3978 21.5584 30.207C21.4574 29.6116 21.3855 29.1283 21.3447 28.7939C21.3292 28.6335 21.3175 28.5059 21.3078 28.4073C21.3027 28.3617 21.3027 28.3156 21.3078 28.27C21.3205 28.3136 21.3289 28.3583 21.3331 28.4034C21.3486 28.502 21.3661 28.6296 21.3894 28.79C21.4438 29.1225 21.5234 29.6039 21.6341 30.1974C21.8556 31.3824 22.1936 33.0159 22.5102 34.8369C22.6695 35.7435 22.7958 36.6134 22.8987 37.4041C23.0017 38.1947 23.0619 38.9138 23.0833 39.5189C23.0949 39.8205 23.1046 40.0988 23.0949 40.3328C23.0852 40.5667 23.0949 40.7812 23.0716 40.9494C23.0483 41.1176 23.0425 41.2375 23.0328 41.336C23.0269 41.3781 23.0172 41.4195 23.0036 41.4598Z" fill="#00308E"/>
    <path d="M51.8775 27.1952C51.8775 27.1952 51.8775 27.2126 51.8775 27.2436C51.8775 27.2745 51.8775 27.3267 51.8639 27.3827L51.7998 27.9221C51.7435 28.3957 51.6619 29.0684 51.5628 29.8977C51.3685 31.566 51.1238 33.8761 50.9218 36.4317C50.7197 38.9873 50.6013 41.3071 50.5333 42.985C50.5022 43.8182 50.4769 44.4967 50.4594 44.9742C50.4497 45.2023 50.442 45.384 50.4361 45.5155V45.6566C50.4386 45.672 50.4386 45.6876 50.4361 45.703C50.4344 45.6869 50.4344 45.6707 50.4361 45.6547C50.4361 45.6179 50.4361 45.5716 50.4361 45.5155C50.4361 45.3821 50.4361 45.2023 50.4361 44.9742C50.4361 44.5025 50.4536 43.824 50.4789 42.9831C50.5294 41.3032 50.6382 38.9815 50.8382 36.424C51.0383 33.8665 51.2967 31.5564 51.5084 29.8881C51.6152 29.0549 51.7027 28.3802 51.7784 27.9163C51.8134 27.6901 51.8406 27.5103 51.86 27.3808C51.8697 27.3248 51.8775 27.2784 51.8853 27.2416C51.8803 27.2266 51.8777 27.211 51.8775 27.1952Z" fill="#00308E"/>
    <g opacity="0.3">
        <path d="M37.7493 24.1023C41.2303 23.9534 44.7967 22.7085 47.3783 20.381C46.0069 20.93 44.7384 21.4655 43.402 21.9758C41.5216 22.695 39.6296 23.3928 37.7493 24.1023Z" fill="#00308E"/>
    </g>
    <g opacity="0.3">
        <path d="M26.5444 58.5254C32.9411 60.82 40.2314 62.0282 46.6398 59.7587C44.775 61.2666 42.2264 61.9818 39.8235 62.0243C35.177 62.1055 30.4741 60.994 26.5444 58.5254Z" fill="#00308E"/>
    </g>
    <g opacity="0.3">
        <path d="M50.9797 39.3179C52.2657 38.0478 52.8892 36.2114 52.9222 34.4077C52.9553 32.6041 52.3492 30.6227 51.6363 28.966C51.0399 32.6486 50.8593 36.482 50.6204 40.1124" fill="#00308E"/>
    </g>
    <path d="M42.7448 7.35249C42.1431 6.52736 41.2835 5.91879 40.2975 5.61973C37.3098 4.74687 33.1136 4.41514 28.6839 8.71275L28.0382 9C28.0382 9 27.9064 7.53596 28.1323 6.45183C28.2829 5.72907 29.6252 1.5093 34.4107 1.0775C34.4088 1.05897 41.7263 -0.114119 42.7448 7.35249Z" fill="#00308E"/>
    <path d="M42.7448 7.35249C42.1431 6.52736 41.2835 5.91879 40.2975 5.61973C37.3098 4.74687 33.1136 4.41514 28.6839 8.71275L28.0382 9C28.0382 9 27.9064 7.53596 28.1323 6.45183C28.2829 5.72907 29.6252 1.5093 34.4107 1.0775C34.4088 1.05897 41.7263 -0.114119 42.7448 7.35249Z" fill="#407BFF"/>
    <path d="M28.6821 8.70344C30.5082 6.74273 32.8407 5.61968 35.2993 4.71717C37.7579 3.81465 41.6398 3.2346 44.2584 3.07893C45.0453 3.0363 45.8586 3.02333 46.5909 3.30687C47.3232 3.59041 47.9652 4.23348 47.9991 5.01368C48.0424 5.99033 46.0826 7.06705 45.1922 7.4729C44.3017 7.87876 42.4624 8.58483 42.4624 8.58483C42.4624 8.58483 41.9711 6.38136 40.2034 5.75682C36.5324 4.45031 28.5484 8.77015 28.6821 8.70344Z" fill="#00308E"/>
    <path d="M55.5562 8.31723C55.6435 8.19644 55.7211 8.05633 55.857 8.01285C55.9928 7.96936 56.1578 8.04667 56.3179 8.09015L56.7545 16.7045L56.1529 16.8687L55.5562 8.31723Z" fill="#CCE5F7"/>
    <path d="M69.1071 8.66025L69.3254 9.27866L67.9281 16.5595L67.4526 16.4001L68.8014 8.91631L69.1071 8.66025Z" fill="#CCE5F7"/>
    <path d="M43 71.3133C45.7898 75.1253 48.6038 76.4201 51.248 76.6761C54.2318 76.5795 56.5461 74.473 58.8895 71.3133C59.462 70.3471 60.3935 70.1152 60.6361 71.3133L61.1504 72.7627C61.1899 72.8678 61.2617 72.9578 61.3556 73.0197C61.4495 73.0816 61.5607 73.1124 61.6733 73.1076C61.7858 73.1028 61.8939 73.0626 61.9822 72.9928C62.0704 72.9231 62.1342 72.8273 62.1644 72.7192L62.5283 71.3278C62.5746 71.0926 62.7016 70.8807 62.8874 70.7284C63.0733 70.5761 63.3065 70.4929 63.5472 70.4929C63.7879 70.4929 64.0211 70.5761 64.2069 70.7284C64.3928 70.8807 64.5197 71.0926 64.566 71.3278L65.0027 73.6082C65.6819 75.449 67.5935 78.1304 71.7952 77.9951C74.7062 78.0289 76.841 74.5745 79 71.3278L68.6706 30.0342L55.9833 29.6235L43 71.3133Z" fill="#1919D3"/>
    <path opacity="0.2" d="M60.4664 46.5285L60.0831 70.5211C59.9352 70.4768 59.7774 70.478 59.6302 70.5245C59.483 70.5711 59.3534 70.6608 59.2583 70.782L60.4664 46.5285Z" fill="#00308E"/>
    <path opacity="0.2" d="M64.1342 70.7046C64.0013 70.5945 63.8426 70.52 63.6728 70.4879C63.5031 70.4557 63.3279 70.4671 63.1638 70.521V47.0357L64.1342 70.7046Z" fill="#00308E"/>
    <path d="M51.8594 17.6128L55.571 15.8445C56.0188 15.6299 56.5133 15.5298 57.0097 15.5534C57.5062 15.5771 57.9889 15.7236 58.4141 15.9798L62.3489 18.3375L65.5898 16.3228C66.1656 15.9668 66.8259 15.7689 67.5034 15.7494C68.1809 15.7299 68.8515 15.8894 69.447 16.2117L73.11 18.1925L69.1995 31.8701L67.0211 32.7832C66.7428 32.8984 66.4414 32.9475 66.1407 32.9265C65.8401 32.9055 65.5485 32.8151 65.289 32.6625L62.9165 31.0729C62.6699 30.9089 62.3789 30.8237 62.0823 30.8289C61.7858 30.8341 61.4979 30.9293 61.2572 31.1019L59.6998 32.2276C59.3922 32.4477 59.04 32.598 58.6679 32.6681C58.2957 32.7382 57.9127 32.7264 57.5456 32.6335L55.1877 32.0295L51.8594 17.6128Z" fill="#407BFF"/>
    <path d="M47.4439 41.2575L47.0177 41.2345C47.0348 40.9253 47.0461 40.5988 47.0632 40.261C47.1541 38.0503 47.2734 35.2956 48.4499 33.4458C49.6718 31.5273 51.7405 30.3876 54.6049 30.0497C57.1908 29.7462 59.8051 30.8515 61.2714 32.8617C62.8741 35.0551 62.9934 37.9587 62.9821 40.7477H62.5558C62.5672 38.0331 62.4535 35.204 60.9304 33.1194C59.5493 31.2295 57.0885 30.1929 54.656 30.4792C51.9281 30.7999 49.9616 31.8766 48.8079 33.6806C47.6883 35.4331 47.5803 38.1248 47.4894 40.2839C47.478 40.6218 47.461 40.9539 47.4439 41.2632V41.2575Z" fill="#00308E"/>
    <path d="M66 54H44L46.2676 39.5909H64.2154L66 54Z" fill="#407BFF"/>
    <path opacity="0.3" d="M46.2678 39.5909C46.2678 39.5909 48.9731 46.7668 55.003 46.7954C61.033 46.8183 64.2156 39.5909 64.2156 39.5909C64.2156 39.5909 61.2603 48.1871 55.003 48.0611C48.7457 47.9294 46.2678 39.5909 46.2678 39.5909Z" fill="#00308E"/>
    <path d="M56.8725 44.1839H53.292V44.8826H56.8725V44.1839Z" fill="#00308E"/>
</svg>
