<svg width="130.000000" height="120.000000" viewBox="0 0 130 120" fill="none" xmlns="http://www.w3.org/2000/svg" xmlns:xlink="http://www.w3.org/1999/xlink">
	<desc>
			Created with Pixso.
	</desc>
	<defs/>
	<rect id="bg" rx="6.000000" width="130.000000" height="120.000000" fill="#F2F7FF" fill-opacity="1.000000"/>
	<path id="Vector" d="M57.25 87.78C57.25 87.78 57.2 84.37 57.2 79.5C57.2 74.63 57.54 60.66 57.54 60.66L61.37 41.95L53.8 37.93L31.09 36.05L27.26 37.43C27.26 37.43 19.51 40.42 18.59 42.55C17.68 44.69 22.92 62.2 22.92 62.2C22.92 62.2 22.43 72.99 22.2 75.8C21.9 79.34 21.96 82.9 22.38 86.43L21.71 89.02C21.71 89.02 31.28 94.12 42.62 93.85C53.52 93.61 57.56 89.98 57.56 89.98L57.25 87.78Z" fill="#1749AB" fill-opacity="1.000000" fill-rule="nonzero"/>
	<path id="Vector" d="M9.06 69.91C8.97 69.65 8.81 65.36 9.92 62.62C11.03 59.89 18.59 42.55 18.59 42.55L25.9 56.05L22.92 62.2L19.86 69.38L19.4 84.81L20.89 88.62L15.51 93.02L13.3 86.72C13.3 86.72 11.94 86.29 11.3 84.16C10.66 82.02 9.06 69.91 9.06 69.91Z" fill="#1749AB" fill-opacity="1.000000" fill-rule="nonzero"/>
	<path id="Vector" d="M29.52 71.75C29.5 71.89 29.47 72.03 29.43 72.17C29.36 72.43 29.24 72.81 29.08 73.27C28.23 75.68 26.94 77.91 25.26 79.85C24.94 80.22 24.67 80.51 24.48 80.7C24.38 80.81 24.28 80.91 24.16 80.99C24.25 80.88 24.34 80.77 24.44 80.67C24.62 80.47 24.88 80.17 25.19 79.79C26.82 77.84 28.11 75.62 29.01 73.24C29.18 72.79 29.3 72.41 29.39 72.15C29.42 72.02 29.47 71.88 29.52 71.75Z" fill="#00308E" fill-opacity="1.000000" fill-rule="nonzero"/>
	<path id="Vector" d="M48.96 71.76C48.96 71.79 44.92 71.82 39.93 71.82C34.95 71.82 30.9 71.79 30.9 71.76C30.9 71.72 34.95 71.7 39.93 71.7C44.92 71.7 48.96 71.72 48.96 71.76Z" fill="#00308E" fill-opacity="1.000000" fill-rule="nonzero"/>
	<path id="Vector" d="M55.34 79.9C55.25 79.84 55.16 79.77 55.08 79.7C54.85 79.5 54.63 79.3 54.43 79.08C54.12 78.76 53.83 78.42 53.56 78.07C52.89 77.2 52.34 76.25 51.94 75.23C51.78 74.82 51.63 74.4 51.52 73.97C51.44 73.68 51.37 73.39 51.32 73.09C51.3 72.98 51.28 72.87 51.28 72.76C51.32 72.87 51.35 72.97 51.37 73.08C51.41 73.29 51.49 73.58 51.61 73.94C51.73 74.31 51.87 74.73 52.06 75.19C52.27 75.68 52.51 76.17 52.77 76.64C53.04 77.1 53.34 77.56 53.66 77.99C53.96 78.39 54.25 78.74 54.5 79.01C54.76 79.29 54.97 79.51 55.13 79.66C55.21 79.73 55.28 79.81 55.34 79.9Z" fill="#00308E" fill-opacity="1.000000" fill-rule="nonzero"/>
	<path id="Vector" d="M51.77 87.78C51.76 87.76 52.09 87.54 52.54 87.12C52.81 86.87 53.05 86.6 53.28 86.31C53.54 85.95 53.78 85.57 53.99 85.17C54.18 84.77 54.35 84.35 54.47 83.92C54.57 83.57 54.64 83.21 54.68 82.85C54.75 82.22 54.71 81.84 54.74 81.84C54.76 81.92 54.77 82.02 54.78 82.11C54.78 82.21 54.78 82.32 54.78 82.43C54.78 82.57 54.77 82.71 54.76 82.86C54.73 83.22 54.67 83.59 54.58 83.95C54.34 84.83 53.93 85.66 53.36 86.38C53.13 86.67 52.87 86.94 52.59 87.19C52.48 87.3 52.35 87.38 52.26 87.46C52.18 87.53 52.09 87.59 51.99 87.64C51.93 87.7 51.85 87.75 51.77 87.78Z" fill="#00308E" fill-opacity="1.000000" fill-rule="nonzero"/>
	<path id="Vector" d="M57.25 87.78L57.18 87.84L56.93 87.98L56.56 88.22C56.41 88.32 56.23 88.42 56.03 88.53C54.89 89.15 53.7 89.66 52.47 90.05C52.08 90.19 51.66 90.29 51.23 90.41C50.8 90.54 50.34 90.63 49.87 90.74C48.87 90.94 47.85 91.09 46.83 91.18C45.7 91.29 44.56 91.34 43.43 91.33C42.25 91.33 41.03 91.28 39.78 91.16C35.52 90.73 31.34 89.81 27.3 88.41C25.75 87.88 24.52 87.39 23.68 87.02C23.26 86.85 22.94 86.7 22.71 86.6L22.46 86.48L22.38 86.44C22.41 86.44 22.44 86.45 22.47 86.47L22.71 86.57C22.93 86.67 23.26 86.81 23.69 86.98C24.53 87.32 25.76 87.81 27.32 88.33C31.35 89.69 35.54 90.6 39.78 91.02C41.03 91.14 42.24 91.2 43.42 91.2C44.55 91.21 45.68 91.16 46.81 91.06C47.83 90.96 48.84 90.82 49.84 90.63C50.31 90.52 50.77 90.43 51.2 90.31C51.63 90.2 52.04 90.09 52.43 89.96C53.66 89.58 54.86 89.08 56 88.47C56.2 88.37 56.38 88.27 56.53 88.18L56.91 87.96L57.15 87.82C57.19 87.8 57.22 87.79 57.25 87.78Z" fill="#00308E" fill-opacity="1.000000" fill-rule="nonzero"/>
	<path id="Vector" d="M65.43 47.24C64.68 44.14 61.36 41.95 61.36 41.95L57.03 61.04L60.81 70.46L59.3 85.55L58.44 87.43L63.7 91.25L68.42 84.81C68.42 84.81 71.68 73.56 71.68 70.11C71.68 66.66 66.19 50.34 65.43 47.24Z" fill="#1749AB" fill-opacity="1.000000" fill-rule="nonzero"/>
	<path id="Vector" d="M28.05 37.14C28.05 37.14 27.2 37.27 27.26 35.25C27.31 33.23 28.31 31.2 28.31 31.2L32.33 29.24C32.33 29.24 44.75 27.71 49.18 30.93C53.61 34.15 54.72 34.18 54.26 36.06L53.79 37.94L42.18 42.55L28.05 37.14Z" fill="#1749AB" fill-opacity="1.000000" fill-rule="nonzero"/>
	<path id="Vector" d="M50.86 34.11C50.85 34.13 50.85 34.15 50.84 34.16C50.82 34.2 50.8 34.25 50.77 34.32C50.75 34.38 50.69 34.46 50.63 34.56C50.55 34.66 50.47 34.75 50.38 34.84C49.81 35.4 49.16 35.87 48.46 36.27C46.71 37.31 44.13 38.5 41.15 39.65L41.13 39.66L41.1 39.64L39.72 38.76L31.97 33.9L29.63 32.42L29 32.01C28.93 31.96 28.88 31.93 28.83 31.9L28.78 31.86C28.78 31.86 28.8 31.86 28.84 31.89L29.01 31.99L29.66 32.38L32.02 33.83L39.79 38.66L41.16 39.52L41.11 39.52C44.09 38.38 46.67 37.21 48.41 36.19C49.11 35.81 49.76 35.34 50.35 34.81C50.45 34.71 50.52 34.62 50.59 34.54C50.66 34.46 50.7 34.38 50.74 34.32L50.82 34.17C50.84 34.12 50.85 34.11 50.86 34.11Z" fill="#00308E" fill-opacity="1.000000" fill-rule="nonzero"/>
	<path id="Vector" d="M52.26 38.55L52.21 38.58L52.05 38.64L51.41 38.9L49.08 39.81L41.29 42.81L41.27 42.81L41.25 42.81C40.96 42.73 40.65 42.67 40.34 42.57C38.77 42.08 37.23 41.45 35.77 40.69C34.41 40.01 33.21 39.35 32.2 38.81C31.18 38.27 30.36 37.85 29.78 37.57C29.5 37.42 29.27 37.32 29.12 37.25L28.95 37.16C28.93 37.15 28.91 37.14 28.89 37.13C28.91 37.13 28.93 37.14 28.95 37.15L29.13 37.22C29.29 37.29 29.52 37.38 29.81 37.52C30.39 37.78 31.22 38.2 32.24 38.73C33.26 39.26 34.46 39.91 35.82 40.58C37.28 41.33 38.81 41.95 40.38 42.44C40.68 42.53 40.99 42.6 41.28 42.68L41.24 42.68L49.05 39.72L51.39 38.85L52.02 38.6L52.19 38.55L52.26 38.55Z" fill="#00308E" fill-opacity="1.000000" fill-rule="nonzero"/>
	<path id="Vector" d="M22.79 64.44C22.78 64.39 22.78 64.33 22.79 64.27C22.79 64.15 22.8 63.99 22.82 63.79C22.83 63.59 22.82 63.32 22.82 63.02C22.82 62.73 22.8 62.39 22.78 62.01C22.75 61.26 22.65 60.37 22.52 59.38C22.4 58.39 22.23 57.31 22.04 56.18C21.64 53.91 21.23 51.87 20.98 50.38C20.85 49.64 20.76 49.03 20.71 48.61C20.69 48.41 20.68 48.25 20.66 48.13C20.66 48.07 20.66 48.02 20.66 47.96C20.68 48.01 20.69 48.07 20.7 48.13C20.72 48.25 20.74 48.41 20.77 48.61C20.83 49.02 20.93 49.63 21.07 50.37C21.35 51.85 21.77 53.89 22.17 56.17C22.37 57.3 22.53 58.39 22.66 59.37C22.79 60.36 22.86 61.26 22.89 62.02C22.9 62.39 22.92 62.74 22.9 63.03C22.89 63.33 22.9 63.59 22.88 63.81C22.85 64.02 22.84 64.17 22.83 64.29C22.82 64.34 22.81 64.39 22.79 64.44Z" fill="#00308E" fill-opacity="1.000000" fill-rule="nonzero"/>
	<path id="Vector" d="M58.99 46.62C58.99 46.62 58.99 46.64 58.99 46.68C58.99 46.71 58.99 46.78 58.97 46.85L58.89 47.52C58.82 48.12 58.72 48.96 58.59 49.99C58.35 52.08 58.04 54.96 57.79 58.16C57.54 61.35 57.39 64.25 57.3 66.35C57.26 67.39 57.23 68.24 57.21 68.84C57.2 69.12 57.19 69.35 57.18 69.51L57.18 69.69C57.18 69.71 57.18 69.73 57.18 69.75C57.18 69.73 57.18 69.71 57.18 69.69C57.18 69.64 57.18 69.58 57.18 69.51C57.18 69.34 57.18 69.12 57.18 68.84C57.18 68.25 57.2 67.4 57.23 66.35C57.3 64.25 57.43 61.35 57.69 58.15C57.94 54.95 58.26 52.07 58.53 49.98C58.66 48.94 58.77 48.1 58.86 47.52C58.91 47.23 58.94 47.01 58.97 46.85C58.98 46.78 58.99 46.72 59 46.67C58.99 46.65 58.99 46.64 58.99 46.62Z" fill="#00308E" fill-opacity="1.000000" fill-rule="nonzero"/>
	<g opacity="0.300000">
		<path id="Vector" d="M41.28 42.75C45.64 42.56 50.11 41.01 53.35 38.1C51.63 38.79 50.04 39.45 48.36 40.09C46.01 40.99 43.63 41.86 41.28 42.75Z" fill="#00308E" fill-opacity="1.000000" fill-rule="nonzero"/>
	</g>
	<g opacity="0.300000">
		<path id="Vector" d="M27.23 85.77C35.25 88.64 44.39 90.15 52.42 87.31C50.08 89.2 46.89 90.09 43.88 90.14C38.05 90.25 32.16 88.86 27.23 85.77Z" fill="#00308E" fill-opacity="1.000000" fill-rule="nonzero"/>
	</g>
	<g opacity="0.300000">
		<path id="Vector" d="M57.86 61.77C59.48 60.18 60.26 57.88 60.3 55.63C60.34 53.38 59.58 50.9 58.69 48.83C57.94 53.43 57.71 58.22 57.41 62.76L57.86 61.77Z" fill="#00308E" fill-opacity="1.000000" fill-rule="nonzero"/>
	</g>
	<path id="Vector" d="M48.65 22.28C47.88 21.2 46.76 20.41 45.49 20.02C41.62 18.88 36.2 18.45 30.47 24.05L29.63 24.42C29.63 24.42 29.46 22.52 29.75 21.1C29.95 20.16 31.68 14.66 37.87 14.1C37.87 14.07 47.34 12.54 48.65 22.28Z" fill="#1B4BA9" fill-opacity="1.000000" fill-rule="nonzero"/>
	<path id="Vector" d="M48.65 22.28C47.88 21.2 46.76 20.41 45.49 20.02C41.62 18.88 36.2 18.45 30.47 24.05L29.63 24.42C29.63 24.42 29.46 22.52 29.75 21.1C29.95 20.16 31.68 14.66 37.87 14.1C37.87 14.07 47.34 12.54 48.65 22.28Z" fill="#407BFF" fill-opacity="1.000000" fill-rule="nonzero"/>
	<path id="Vector" d="M30.46 24.04C32.83 21.48 35.84 20.02 39.02 18.84C42.2 17.66 47.22 16.91 50.61 16.71C51.63 16.65 52.68 16.63 53.63 17C54.58 17.37 55.41 18.21 55.45 19.23C55.51 20.5 52.97 21.9 51.82 22.43C50.67 22.96 48.29 23.88 48.29 23.88C48.29 23.88 47.65 21.01 45.37 20.2C40.62 18.49 30.29 24.12 30.46 24.04Z" fill="#1B4BA9" fill-opacity="1.000000" fill-rule="nonzero"/>
	<path id="Vector" d="M63.76 23.43C63.87 23.28 63.97 23.11 64.14 23.06C64.31 23 64.51 23.1 64.71 23.15L65.26 33.85L64.51 34.06L63.76 23.43Z" fill="#72ADFF" fill-opacity="1.000000" fill-rule="nonzero"/>
	<path id="Vector" d="M80.66 23.86L80.93 24.63L79.19 33.67L78.6 33.47L80.28 24.18L80.66 23.86Z" fill="#72ADFF" fill-opacity="1.000000" fill-rule="nonzero"/>
	<path id="Vector" d="M48.11 101.69C51.59 106.42 55.09 108.03 58.39 108.35C62.11 108.23 65 105.61 67.92 101.69C68.63 100.49 69.8 100.2 70.1 101.69L70.74 103.49C70.79 103.62 70.88 103.73 70.99 103.81C71.11 103.89 71.25 103.92 71.39 103.92C71.53 103.91 71.67 103.86 71.78 103.78C71.89 103.69 71.97 103.57 72 103.44L72.46 101.71C72.51 101.41 72.67 101.15 72.9 100.96C73.14 100.77 73.43 100.67 73.73 100.67C74.03 100.67 74.32 100.77 74.55 100.96C74.78 101.15 74.94 101.41 75 101.71L75.54 104.54C76.39 106.83 78.77 110.16 84.01 109.99C87.64 110.03 90.3 105.74 93 101.71L80.12 50.41L64.3 49.9L48.11 101.69Z" fill="#72ADFF" fill-opacity="1.000000" fill-rule="nonzero"/>
	<g opacity="0.200000">
		<path id="Vector" d="M69.89 70.9L69.41 100.7C69.22 100.65 69.03 100.65 68.84 100.71C68.66 100.77 68.5 100.88 68.38 101.03L69.89 70.9Z" fill="#00308E" fill-opacity="1.000000" fill-rule="nonzero"/>
	</g>
	<g opacity="0.200000">
		<path id="Vector" d="M74.46 100.93C74.29 100.8 74.1 100.7 73.88 100.66C73.67 100.62 73.45 100.64 73.25 100.7L73.25 71.53L74.46 100.93Z" fill="#00308E" fill-opacity="1.000000" fill-rule="nonzero"/>
	</g>
	<path id="Vector" d="M59.15 34.98L63.78 32.78C64.34 32.52 64.96 32.39 65.58 32.42C66.19 32.45 66.8 32.63 67.33 32.95L72.23 35.88L76.27 33.38C76.99 32.94 77.82 32.69 78.66 32.67C79.51 32.64 80.34 32.84 81.08 33.24L85.65 35.7L80.78 52.69L78.06 53.83C77.71 53.97 77.34 54.03 76.96 54C76.59 53.98 76.22 53.87 75.9 53.68L72.94 51.7C72.63 51.5 72.27 51.39 71.9 51.4C71.53 51.4 71.17 51.52 70.87 51.74L68.93 53.14C68.55 53.41 68.11 53.6 67.64 53.68C67.18 53.77 66.7 53.75 66.24 53.64L63.3 52.89L59.15 34.98Z" fill="#407BFF" fill-opacity="1.000000" fill-rule="nonzero"/>
	<path id="Vector" d="M53.42 62.95L52.87 62.93C52.89 62.53 52.9 62.12 52.93 61.69C53.04 58.9 53.2 55.41 54.71 53.07C56.28 50.65 58.94 49.2 62.62 48.78C65.94 48.39 69.3 49.79 71.18 52.33C73.24 55.11 73.39 58.78 73.38 62.31L72.83 62.31C72.85 58.88 72.7 55.3 70.74 52.66C68.97 50.27 65.81 48.96 62.68 49.32C59.18 49.73 56.65 51.09 55.17 53.37C53.73 55.59 53.59 58.99 53.47 61.72C53.46 62.15 53.44 62.57 53.42 62.96L53.42 62.95Z" fill="#00308E" fill-opacity="1.000000" fill-rule="nonzero"/>
	<path id="Vector" d="M77.26 79.07L48.99 79.07L51.9 60.85L74.97 60.85L77.26 79.07Z" fill="#407BFF" fill-opacity="1.000000" fill-rule="nonzero"/>
	<g opacity="0.300000">
		<path id="Vector" d="M51.9 60.85C51.9 60.85 55.38 69.92 63.13 69.96C70.88 69.99 74.97 60.85 74.97 60.85C74.97 60.85 71.17 71.72 63.13 71.56C55.09 71.39 51.9 60.85 51.9 60.85Z" fill="#00308E" fill-opacity="1.000000" fill-rule="nonzero"/>
	</g>
	<path id="Vector" d="M60.93 66.66L65.53 66.66L65.53 67.54L60.93 67.54L60.93 66.66Z" fill="#00308E" fill-opacity="1.000000" fill-rule="evenodd"/>
</svg>
