<svg width="130.000000" height="120.000000" viewBox="0 0 130 120" fill="none" xmlns="http://www.w3.org/2000/svg" xmlns:xlink="http://www.w3.org/1999/xlink">
	<desc>
			Created with Pixso.
	</desc>
	<defs/>
	<rect id="bg" rx="6.000000" width="130.000000" height="120.000000" fill="#F2F7FF" fill-opacity="1.000000"/>
	<path id="Vector" d="M31.51 52.36L28.43 52.36C28.29 52.36 28.15 52.4 28.03 52.47C27.9 52.54 27.8 52.65 27.73 52.77L26.19 55.52C26.12 55.65 26.08 55.79 26.08 55.94C26.08 56.08 26.12 56.23 26.19 56.35L27.73 59.1C27.8 59.23 27.9 59.33 28.03 59.41C28.15 59.48 28.29 59.52 28.43 59.52L31.51 59.52C31.65 59.52 31.79 59.48 31.92 59.41C32.04 59.33 32.14 59.23 32.21 59.1L33.75 56.35C33.82 56.23 33.86 56.08 33.86 55.94C33.86 55.79 33.82 55.65 33.75 55.52L32.21 52.77C32.14 52.65 32.04 52.54 31.92 52.47C31.79 52.4 31.65 52.36 31.51 52.36Z" fill="#407BFF" fill-opacity="1.000000" fill-rule="nonzero"/>
	<g opacity="0.500000">
		<path id="Vector" d="M31.51 52.36L28.43 52.36C28.29 52.36 28.15 52.4 28.03 52.47C27.9 52.54 27.8 52.65 27.73 52.77L26.19 55.52C26.12 55.65 26.08 55.79 26.08 55.94C26.08 56.08 26.12 56.23 26.19 56.35L27.73 59.1C27.8 59.23 27.9 59.33 28.03 59.41C28.15 59.48 28.29 59.52 28.43 59.52L31.51 59.52C31.65 59.52 31.79 59.48 31.92 59.41C32.04 59.33 32.14 59.23 32.21 59.1L33.75 56.35C33.82 56.23 33.86 56.08 33.86 55.94C33.86 55.79 33.82 55.65 33.75 55.52L32.21 52.77C32.14 52.65 32.04 52.54 31.92 52.47C31.79 52.4 31.65 52.36 31.51 52.36Z" fill="#FFFFFF" fill-opacity="1.000000" fill-rule="nonzero"/>
	</g>
	<path id="Vector" d="M11.76 43.24L11.59 43.06L13.07 41.53L13.25 41.71L11.76 43.24ZM14.32 40.61L14.14 40.43L17.24 37.23L17.42 37.41L14.32 40.61Z" fill="#407BFF" fill-opacity="1.000000" fill-rule="nonzero"/>
	<g opacity="0.500000">
		<path id="Vector" d="M11.76 43.24L11.59 43.06L13.07 41.53L13.25 41.71L11.76 43.24ZM14.32 40.61L14.14 40.43L17.24 37.23L17.42 37.41L14.32 40.61Z" fill="#FFFFFF" fill-opacity="1.000000" fill-rule="nonzero"/>
	</g>
	<path id="Vector" d="M50.95 61.7L50.95 50.18L47.49 49.06C47.36 48.72 47.23 48.38 47.08 48.04L48.77 44.73L40.86 36.58L37.64 38.32C37.32 38.17 36.99 38.03 36.65 37.9L35.57 34.33L24.37 34.33L23.29 37.9C22.96 38.03 22.63 38.17 22.3 38.32L19.09 36.58L11.18 44.73L12.86 48.04C12.72 48.37 12.58 48.71 12.46 49.06L9 50.18L9 61.7L12.46 62.82C12.58 63.16 12.72 63.49 12.86 63.83L11.18 67.14L19.09 75.29L22.3 73.56C22.62 73.71 22.95 73.85 23.29 73.98L24.37 77.54L35.56 77.54L36.65 73.98C36.98 73.85 37.3 73.71 37.63 73.56L40.85 75.29L48.76 67.14L47.07 63.83C47.22 63.5 47.35 63.17 47.48 62.82L50.95 61.7ZM38.3 55.94C38.3 57.63 37.81 59.29 36.89 60.7C35.98 62.11 34.68 63.21 33.16 63.86C31.64 64.51 29.96 64.68 28.35 64.35C26.73 64.02 25.25 63.2 24.08 62C22.92 60.8 22.13 59.27 21.8 57.61C21.48 55.95 21.65 54.22 22.28 52.65C22.91 51.09 23.98 49.75 25.35 48.81C26.71 47.86 28.32 47.36 29.97 47.36C32.18 47.36 34.3 48.26 35.86 49.87C37.42 51.48 38.3 53.66 38.3 55.94Z" fill="#407BFF" fill-opacity="1.000000" fill-rule="nonzero"/>
	<g opacity="0.500000">
		<path id="Vector" d="M50.95 61.7L50.95 50.18L47.49 49.06C47.36 48.72 47.23 48.38 47.08 48.04L48.77 44.73L40.86 36.58L37.64 38.32C37.32 38.17 36.99 38.03 36.65 37.9L35.57 34.33L24.37 34.33L23.29 37.9C22.96 38.03 22.63 38.17 22.3 38.32L19.09 36.58L11.18 44.73L12.86 48.04C12.72 48.37 12.58 48.71 12.46 49.06L9 50.18L9 61.7L12.46 62.82C12.58 63.16 12.72 63.49 12.86 63.83L11.18 67.14L19.09 75.29L22.3 73.56C22.62 73.71 22.95 73.85 23.29 73.98L24.37 77.54L35.56 77.54L36.65 73.98C36.98 73.85 37.3 73.71 37.63 73.56L40.85 75.29L48.76 67.14L47.07 63.83C47.22 63.5 47.35 63.17 47.48 62.82L50.95 61.7ZM38.3 55.94C38.3 57.63 37.81 59.29 36.89 60.7C35.98 62.11 34.68 63.21 33.16 63.86C31.64 64.51 29.96 64.68 28.35 64.35C26.73 64.02 25.25 63.2 24.08 62C22.92 60.8 22.13 59.27 21.8 57.61C21.48 55.95 21.65 54.22 22.28 52.65C22.91 51.09 23.98 49.75 25.35 48.81C26.71 47.86 28.32 47.36 29.97 47.36C32.18 47.36 34.3 48.26 35.86 49.87C37.42 51.48 38.3 53.66 38.3 55.94Z" fill="#FFFFFF" fill-opacity="1.000000" fill-rule="nonzero"/>
	</g>
	<path id="Vector" d="M35.02 76.84L24.92 76.84C24.91 76.84 24.9 76.84 24.89 76.83C24.88 76.82 24.87 76.81 24.86 76.8L23.87 73.58C23.87 73.57 23.87 73.55 23.88 73.53C23.89 73.52 23.9 73.51 23.92 73.5C23.93 73.5 23.95 73.5 23.96 73.51C23.98 73.52 23.99 73.53 23.99 73.55L24.96 76.72L34.96 76.72L35.99 73.37C35.99 73.36 36 73.35 36 73.35C36.01 73.34 36.02 73.33 36.03 73.33L36.37 73.2C36.65 73.09 36.96 72.96 37.3 72.8L37.63 72.65C37.64 72.64 37.66 72.64 37.68 72.65C37.69 72.65 37.7 72.66 37.71 72.68C37.72 72.7 37.72 72.71 37.71 72.73C37.71 72.74 37.69 72.76 37.68 72.76L37.35 72.91C37.01 73.07 36.7 73.2 36.41 73.32L36.1 73.44L35.08 76.8C35.08 76.81 35.07 76.82 35.06 76.83C35.05 76.84 35.03 76.84 35.02 76.84ZM40.71 74.42C40.69 74.42 40.68 74.41 40.66 74.4C40.66 74.39 40.65 74.39 40.65 74.38C40.65 74.37 40.64 74.36 40.64 74.35C40.64 74.34 40.65 74.34 40.65 74.33C40.65 74.32 40.66 74.31 40.66 74.31L47.77 66.99L46.19 63.88C46.19 63.87 46.19 63.86 46.19 63.85C46.19 63.84 46.19 63.83 46.19 63.82L46.34 63.49C46.49 63.14 46.62 62.83 46.73 62.53L46.85 62.18C46.86 62.17 46.86 62.16 46.87 62.15C46.88 62.15 46.88 62.14 46.89 62.14L50.14 61.09L50.14 50.79L46.93 49.76C46.92 49.76 46.91 49.75 46.9 49.75C46.9 49.74 46.89 49.74 46.89 49.73C46.88 49.72 46.88 49.71 46.88 49.7C46.88 49.69 46.88 49.69 46.88 49.68C46.88 49.67 46.89 49.66 46.89 49.65C46.9 49.65 46.91 49.64 46.91 49.64C46.92 49.63 46.93 49.63 46.94 49.63C46.95 49.63 46.96 49.63 46.97 49.64L50.22 50.68C50.23 50.69 50.24 50.7 50.25 50.71C50.25 50.72 50.26 50.73 50.26 50.74L50.26 61.15C50.26 61.16 50.25 61.17 50.25 61.18C50.24 61.19 50.23 61.2 50.22 61.21L46.96 62.25L46.84 62.57C46.73 62.87 46.6 63.19 46.45 63.54L46.32 63.85L47.9 66.97C47.91 66.98 47.92 66.99 47.92 67.01C47.92 67.02 47.91 67.03 47.9 67.04L40.76 74.4C40.75 74.41 40.73 74.42 40.71 74.42L40.71 74.42ZM19.23 74.42C19.22 74.42 19.2 74.41 19.19 74.4L12.05 67.04C12.04 67.03 12.04 67.02 12.04 67.01C12.04 66.99 12.04 66.98 12.05 66.97L13.65 63.82C13.66 63.81 13.67 63.8 13.68 63.79C13.7 63.79 13.72 63.79 13.73 63.79C13.74 63.8 13.75 63.8 13.75 63.81C13.76 63.82 13.76 63.82 13.76 63.83C13.76 63.84 13.76 63.85 13.76 63.86C13.76 63.86 13.76 63.87 13.76 63.88L12.18 66.99L19.29 74.31C19.29 74.31 19.3 74.32 19.3 74.33C19.3 74.34 19.31 74.34 19.31 74.35C19.31 74.36 19.3 74.37 19.3 74.38C19.3 74.39 19.29 74.39 19.29 74.4C19.28 74.4 19.27 74.41 19.26 74.41C19.25 74.42 19.24 74.42 19.23 74.42L19.23 74.42ZM23.43 73.27L23.41 73.27C23.17 73.17 22.9 73.06 22.6 72.92C22.59 72.92 22.58 72.91 22.57 72.91C22.57 72.9 22.56 72.89 22.56 72.89C22.55 72.88 22.55 72.87 22.55 72.86C22.55 72.85 22.55 72.84 22.56 72.83C22.56 72.82 22.56 72.82 22.57 72.81C22.58 72.8 22.59 72.8 22.59 72.8C22.6 72.79 22.61 72.79 22.62 72.79C22.63 72.8 22.64 72.8 22.65 72.8C22.94 72.94 23.21 73.06 23.46 73.15C23.46 73.16 23.47 73.16 23.48 73.17C23.48 73.17 23.49 73.18 23.49 73.19C23.49 73.2 23.5 73.2 23.5 73.21C23.5 73.22 23.49 73.23 23.49 73.24C23.49 73.25 23.48 73.26 23.47 73.27C23.46 73.27 23.44 73.27 23.43 73.27L23.43 73.27ZM29.98 65.34C27.55 65.34 25.23 64.34 23.52 62.58C21.81 60.81 20.85 58.42 20.85 55.92C20.85 55.91 20.85 55.89 20.86 55.88C20.88 55.87 20.89 55.86 20.91 55.86C20.92 55.86 20.94 55.87 20.95 55.88C20.96 55.89 20.97 55.91 20.97 55.92C20.97 57.76 21.5 59.55 22.49 61.08C23.48 62.6 24.88 63.79 26.53 64.49C28.18 65.19 29.99 65.38 31.73 65.02C33.48 64.66 35.08 63.78 36.34 62.48C37.6 61.18 38.46 59.53 38.81 57.73C39.16 55.93 38.98 54.07 38.3 52.37C37.61 50.68 36.46 49.23 34.98 48.21C33.5 47.19 31.76 46.65 29.98 46.65C29.96 46.65 29.94 46.64 29.93 46.63C29.92 46.62 29.91 46.6 29.91 46.58C29.91 46.57 29.92 46.55 29.93 46.54C29.94 46.53 29.96 46.52 29.98 46.52C32.4 46.52 34.72 47.51 36.43 49.27C38.15 51.04 39.11 53.43 39.11 55.93C39.11 58.42 38.15 60.81 36.43 62.58C34.72 64.34 32.4 65.33 29.98 65.33L29.98 65.34ZM13.17 62.61C13.15 62.61 13.14 62.61 13.13 62.6C13.12 62.59 13.11 62.58 13.11 62.57L12.99 62.25L9.72 61.2C9.71 61.19 9.7 61.19 9.69 61.18C9.69 61.16 9.68 61.15 9.68 61.14L9.68 50.74C9.68 50.72 9.69 50.71 9.69 50.7C9.7 50.69 9.71 50.68 9.72 50.68L12.85 49.67C12.86 49.67 12.88 49.67 12.89 49.68C12.91 49.68 12.92 49.7 12.93 49.71C12.93 49.73 12.93 49.75 12.92 49.76C12.91 49.78 12.9 49.79 12.88 49.79L9.8 50.79L9.8 61.1L13.05 62.15C13.06 62.15 13.07 62.15 13.07 62.16C13.08 62.17 13.08 62.18 13.09 62.18L13.22 62.53C13.22 62.55 13.22 62.57 13.21 62.58C13.21 62.6 13.2 62.61 13.18 62.61L13.17 62.61ZM13.17 49.37L13.14 49.37C13.13 49.36 13.12 49.35 13.11 49.34C13.1 49.32 13.1 49.3 13.11 49.29C13.23 48.96 13.36 48.65 13.49 48.34C13.5 48.32 13.51 48.31 13.53 48.3C13.54 48.3 13.56 48.3 13.57 48.3C13.58 48.31 13.59 48.31 13.59 48.32C13.6 48.33 13.6 48.33 13.61 48.34C13.61 48.35 13.61 48.36 13.61 48.36C13.61 48.37 13.61 48.38 13.61 48.39C13.47 48.7 13.34 49.01 13.23 49.33C13.22 49.35 13.21 49.36 13.2 49.37C13.19 49.38 13.17 49.38 13.16 49.38L13.17 49.37ZM46.34 47.92L46.31 47.92C46.3 47.91 46.3 47.91 46.29 47.9C46.29 47.9 46.28 47.89 46.28 47.88C46.28 47.87 46.28 47.86 46.28 47.86C46.28 47.85 46.28 47.84 46.28 47.83L47.77 44.89L46.58 43.66C46.57 43.66 46.57 43.65 46.56 43.64C46.56 43.63 46.56 43.63 46.56 43.62C46.56 43.61 46.56 43.6 46.56 43.59C46.56 43.58 46.57 43.57 46.57 43.57C46.58 43.56 46.59 43.56 46.6 43.55C46.6 43.55 46.61 43.55 46.62 43.55C46.63 43.55 46.64 43.55 46.65 43.56C46.66 43.56 46.66 43.57 46.67 43.57L47.9 44.85C47.91 44.86 47.92 44.87 47.92 44.88C47.92 44.9 47.91 44.91 47.9 44.92L46.39 47.9C46.38 47.91 46.37 47.92 46.36 47.92C46.35 47.93 46.34 47.93 46.33 47.93L46.34 47.92ZM12.09 44.94C12.08 44.94 12.06 44.93 12.05 44.92C12.04 44.91 12.03 44.89 12.03 44.87C12.03 44.86 12.04 44.84 12.05 44.83L19.18 37.48C19.19 37.47 19.2 37.47 19.22 37.47C19.23 37.47 19.24 37.47 19.25 37.48L22.28 39.11L22.58 38.97C22.87 38.84 23.14 38.72 23.4 38.62C23.41 38.62 23.41 38.61 23.42 38.61C23.43 38.61 23.44 38.62 23.45 38.62C23.45 38.62 23.46 38.63 23.47 38.63C23.47 38.64 23.48 38.65 23.48 38.65C23.48 38.67 23.48 38.69 23.48 38.7C23.47 38.72 23.46 38.73 23.44 38.74C23.2 38.84 22.92 38.96 22.63 39.09L22.31 39.24C22.3 39.24 22.29 39.25 22.28 39.25C22.27 39.25 22.26 39.24 22.25 39.24L19.23 37.61L12.14 44.94C12.12 44.94 12.11 44.94 12.09 44.94ZM45.59 42.61C45.58 42.61 45.56 42.61 45.55 42.6L40.69 37.6L37.67 39.23C37.66 39.23 37.65 39.23 37.65 39.23C37.64 39.23 37.63 39.23 37.62 39.23L37.29 39.07C36.95 38.92 36.65 38.79 36.36 38.68L36.02 38.55C36.01 38.54 36 38.54 35.99 38.53C35.99 38.52 35.98 38.51 35.98 38.5L34.96 35.16L24.97 35.16L24.09 38.04C24.09 38.05 24.09 38.05 24.08 38.06C24.08 38.07 24.07 38.07 24.06 38.08C24.06 38.08 24.05 38.08 24.04 38.08C24.03 38.08 24.02 38.08 24.02 38.08C24 38.07 23.99 38.06 23.98 38.05C23.97 38.03 23.97 38.02 23.98 38L24.87 35.08C24.87 35.06 24.88 35.05 24.89 35.05C24.9 35.04 24.91 35.03 24.93 35.03L35.02 35.03C35.04 35.03 35.05 35.04 35.06 35.05C35.07 35.05 35.08 35.06 35.08 35.08L36.1 38.44L36.41 38.56C36.71 38.67 37.01 38.82 37.35 38.96L37.65 39.1L40.69 37.47C40.7 37.46 40.71 37.46 40.72 37.46C40.74 37.46 40.75 37.46 40.76 37.47L45.63 42.51C45.64 42.52 45.64 42.52 45.65 42.53C45.65 42.54 45.65 42.55 45.65 42.56C45.65 42.56 45.65 42.57 45.65 42.58C45.64 42.59 45.64 42.6 45.63 42.6C45.62 42.61 45.61 42.62 45.59 42.62L45.59 42.61Z" fill="#F2F7FF" fill-opacity="1.000000" fill-rule="nonzero"/>
	<path id="Vector" d="M66.61 74.7L68.52 74.9L69.25 73.44L66.95 73.09L66.61 74.7Z" fill="#1919D3" fill-opacity="1.000000" fill-rule="nonzero"/>
	<path id="Vector" d="M72.82 81.93L73.51 78.19C73.59 77.76 73.83 77.37 74.18 77.12C74.54 76.88 74.97 76.78 75.39 76.86L81.12 77.97C80.78 76.79 80.17 75.71 79.35 74.82C78.52 73.93 77.51 73.25 76.38 72.84C75.25 72.43 74.05 72.31 72.86 72.47C71.68 72.63 70.55 73.08 69.57 73.78L43.58 57.94C43.72 56.26 43.32 54.59 42.46 53.16C41.59 51.74 40.31 50.64 38.78 50.03C37.26 49.42 35.59 49.33 34.02 49.78C32.45 50.23 31.06 51.19 30.06 52.51L35.78 53.62C36.21 53.7 36.58 53.95 36.82 54.32C37.06 54.68 37.15 55.13 37.08 55.56L36.39 59.31C36.31 59.74 36.07 60.12 35.72 60.37C35.36 60.62 34.93 60.72 34.51 60.64L28.78 59.53C29.12 60.72 29.73 61.8 30.57 62.7C31.4 63.59 32.42 64.27 33.56 64.67C34.69 65.08 35.9 65.2 37.09 65.02C38.28 64.85 39.42 64.39 40.4 63.67L66.33 79.49C66.18 81.16 66.57 82.85 67.42 84.28C68.28 85.72 69.57 86.83 71.09 87.45C72.61 88.07 74.29 88.16 75.87 87.72C77.44 87.28 78.84 86.32 79.85 84.99L74.12 83.88C73.7 83.8 73.32 83.54 73.08 83.18C72.84 82.82 72.75 82.37 72.82 81.93Z" fill="#407BFF" fill-opacity="1.000000" fill-rule="nonzero"/>
	<path id="Vector" d="M45.28 60.84L66.35 73.68C66.73 73.92 66.86 74.43 66.63 74.82L65.78 76.31C65.55 76.71 65.06 76.84 64.67 76.61L43.6 63.76C43.22 63.53 43.09 63.02 43.32 62.62L44.18 61.13C44.4 60.74 44.9 60.61 45.28 60.84Z" fill="#407BFF" fill-opacity="1.000000" fill-rule="evenodd"/>
	<g opacity="0.200000">
		<path id="Vector" d="M45.28 60.84L66.35 73.68C66.73 73.92 66.86 74.43 66.63 74.82L65.78 76.31C65.55 76.71 65.06 76.84 64.67 76.61L43.6 63.76C43.22 63.53 43.09 63.02 43.32 62.62L44.18 61.13C44.4 60.74 44.9 60.61 45.28 60.84Z" fill="#FFFFFF" fill-opacity="1.000000" fill-rule="evenodd"/>
	</g>
	<path id="Vector" d="M66.7 28.25C65.09 30.69 64 33.37 63.43 36.13L59 36.54L59 45.06L63.43 45.48C64 48.24 65.09 50.92 66.7 53.35L63.87 56.75L69.94 62.77L73.35 59.96C75.81 61.56 78.51 62.64 81.29 63.21L81.71 67.61L90.28 67.61L90.7 63.21C93.48 62.64 96.18 61.56 98.64 59.96L102.05 62.77L108.12 56.75L105.29 53.35C106.9 50.92 107.99 48.24 108.56 45.48L112.99 45.06L113 36.54L108.57 36.13C107.99 33.37 106.9 30.69 105.29 28.25L108.12 24.86L102.05 18.84L98.64 21.64C96.18 20.04 93.48 18.97 90.7 18.39L90.28 14L81.7 14L81.29 18.39C78.51 18.97 75.81 20.04 73.35 21.64L69.94 18.83L63.87 24.86L66.7 28.25L66.7 28.25ZM93.99 33.26C98.4 37.64 98.4 44.74 93.99 49.13C89.57 53.51 82.42 53.51 78 49.13C73.59 44.74 73.59 37.64 78 33.26C82.42 28.87 89.57 28.87 93.99 33.26L93.99 33.26Z" fill="#00308E" fill-opacity="1.000000" fill-rule="nonzero"/>
</svg>
