<svg width="90" height="80" viewBox="0 0 90 80" fill="none" xmlns="http://www.w3.org/2000/svg">
    <path d="M5.21132 22.1252L1 78.0137H7.88419L5.21132 22.1252Z" fill="#00308E"/>
    <path d="M56.6017 77.6883L7.16931 77.9526L4.76062 22.1455L54.1775 21.8608L56.6017 77.6883Z" fill="#407BFF"/>
    <path opacity="0.6" d="M56.6017 77.6883L7.16931 77.9526L4.76062 22.1455L54.1775 21.8608L56.6017 77.6883Z" fill="white"/>
    <path d="M54.1774 21.8609L4.76049 22.1456L4.29431 11.6919L53.7267 11.4275L54.1774 21.8609Z" fill="#00308E"/>
    <path d="M11.6914 8.19371C11.668 7.73321 11.5124 7.3013 11.2559 6.98451C10.9995 6.66772 10.661 6.48944 10.3084 6.48534C10.1377 6.48186 9.96837 6.52501 9.81116 6.61202C9.65394 6.69903 9.51231 6.82797 9.39532 6.99065C9.27833 7.15333 9.18856 7.34614 9.13171 7.55679C9.07487 7.76744 9.05222 7.99129 9.0652 8.21404C9.0652 8.82418 9.32938 14.4984 9.36046 15.1086C9.38374 15.571 9.53875 16.0052 9.79484 16.3253C10.0509 16.6454 10.3895 16.8281 10.7435 16.8373C10.9135 16.8377 11.0818 16.7925 11.2379 16.7045C11.394 16.6164 11.5347 16.4874 11.6512 16.3254C11.7678 16.1634 11.8576 15.9718 11.9153 15.7625C11.973 15.5532 11.9973 15.3306 11.9867 15.1086C11.9712 14.6205 11.7225 8.68182 11.6914 8.19371Z" fill="#407BFF"/>
    <path d="M21.2019 8.15323C21.1822 7.6891 21.0283 7.25219 20.7714 6.93114C20.5146 6.61009 20.174 6.42897 19.8188 6.42453C19.6474 6.42389 19.4778 6.46964 19.3205 6.55893C19.1633 6.64822 19.0218 6.77911 18.9051 6.94337C18.7884 7.10762 18.6988 7.30168 18.6421 7.51339C18.5854 7.72509 18.5628 7.94988 18.5756 8.17358C18.5756 8.78372 18.8398 14.458 18.8709 15.0681C18.8981 15.5304 19.057 15.9625 19.316 16.2788C19.575 16.5952 19.9153 16.7728 20.2695 16.7765C20.4395 16.7769 20.6078 16.7317 20.7639 16.6437C20.92 16.5556 21.0607 16.4266 21.1772 16.2646C21.2937 16.1026 21.3836 15.911 21.4413 15.7017C21.499 15.4924 21.5233 15.2698 21.5127 15.0478C21.4816 14.5597 21.233 8.64134 21.2019 8.15323Z" fill="#407BFF"/>
    <path d="M30.7277 8.09201C30.7005 7.62973 30.5417 7.19767 30.2827 6.88131C30.0237 6.56496 29.6834 6.38736 29.3292 6.38364C29.1585 6.38016 28.9891 6.4233 28.8319 6.51031C28.6747 6.59732 28.5331 6.72627 28.4161 6.88895C28.2991 7.05163 28.2093 7.24447 28.1525 7.45512C28.0956 7.66577 28.073 7.88959 28.086 8.11234C28.086 8.72247 28.3657 14.3968 28.3812 15.0069C28.4047 15.4728 28.5619 15.9099 28.8213 16.2305C29.0807 16.5511 29.423 16.7315 29.7798 16.7356C29.9505 16.7333 30.1191 16.6855 30.2753 16.5952C30.4315 16.5049 30.572 16.374 30.6883 16.2104C30.8046 16.0468 30.8942 15.8539 30.9518 15.6435C31.0093 15.4331 31.0335 15.2096 31.023 14.9866C30.9919 14.4984 30.7433 8.58012 30.7277 8.09201Z" fill="#407BFF"/>
    <path d="M40.2383 8.05188C40.2148 7.58597 40.0576 7.14893 39.7982 6.82833C39.5388 6.50774 39.1965 6.32729 38.8397 6.32318C38.6704 6.32564 38.5031 6.37279 38.348 6.46183C38.1929 6.55088 38.0532 6.67999 37.9371 6.8414C37.821 7.00281 37.731 7.19321 37.6725 7.40121C37.614 7.6092 37.5881 7.8305 37.5965 8.05188C37.5965 8.66202 37.8762 14.3566 37.9073 14.9668C37.9308 15.4273 38.0864 15.8592 38.3428 16.176C38.5993 16.4927 38.9377 16.671 39.2904 16.6752C39.461 16.6786 39.6304 16.6355 39.7876 16.5485C39.9448 16.4615 40.0864 16.3325 40.2034 16.1698C40.3204 16.0072 40.4102 15.8143 40.467 15.6037C40.5239 15.393 40.5465 15.1692 40.5335 14.9464C40.518 14.4583 40.2538 8.53999 40.2383 8.05188Z" fill="#407BFF"/>
    <path d="M49.7487 7.99037C49.7252 7.52986 49.5696 7.09798 49.3132 6.78119C49.0567 6.4644 48.7183 6.2861 48.3656 6.28199C48.195 6.27852 48.0256 6.32166 47.8684 6.40867C47.7112 6.49568 47.5696 6.62466 47.4526 6.78734C47.3356 6.95002 47.2458 7.14283 47.189 7.35348C47.1321 7.56412 47.1095 7.78798 47.1225 8.01073C47.1225 8.62086 47.3866 14.2951 47.4177 14.9053C47.4338 15.3692 47.5871 15.8068 47.8452 16.1256C48.1032 16.4444 48.4459 16.6194 48.8008 16.6136C48.9714 16.6171 49.1408 16.574 49.298 16.487C49.4552 16.4 49.5968 16.271 49.7138 16.1083C49.8308 15.9456 49.9206 15.7528 49.9774 15.5422C50.0343 15.3315 50.0569 15.1077 50.0439 14.8849C49.9818 14.3968 49.7642 8.47848 49.7487 7.99037Z" fill="#407BFF"/>
    <g opacity="0.7">
        <path d="M11.6913 8.19379C11.6678 7.73328 11.5123 7.30137 11.2558 6.98458C10.9993 6.66779 10.6609 6.48952 10.3083 6.48542C10.1376 6.48194 9.96825 6.52508 9.81104 6.61209C9.65382 6.6991 9.51219 6.82805 9.3952 6.99073C9.27821 7.15341 9.18843 7.34622 9.13159 7.55687C9.07475 7.76751 9.0521 7.99137 9.06508 8.21412C9.06508 8.82425 9.32926 14.4985 9.36034 15.1087C9.38362 15.5711 9.53863 16.0053 9.79472 16.3254C10.0508 16.6455 10.3893 16.8282 10.7434 16.8374C10.9134 16.8378 11.0817 16.7926 11.2378 16.7046C11.3939 16.6165 11.5346 16.4875 11.6511 16.3255C11.7676 16.1634 11.8575 15.9719 11.9152 15.7626C11.9729 15.5533 11.9972 15.3307 11.9866 15.1087C11.971 14.6205 11.7224 8.6819 11.6913 8.19379Z" fill="white"/>
        <path d="M21.2015 8.15307C21.1818 7.68894 21.0279 7.25203 20.7711 6.93098C20.5142 6.60993 20.1736 6.42881 19.8185 6.42436C19.6471 6.42373 19.4774 6.46948 19.3202 6.55877C19.1629 6.64806 19.0215 6.77895 18.9047 6.94321C18.788 7.10746 18.6985 7.30152 18.6418 7.51322C18.5851 7.72493 18.5624 7.94972 18.5753 8.17342C18.5753 8.78356 18.8395 14.4578 18.8705 15.068C18.8978 15.5302 19.0566 15.9623 19.3156 16.2787C19.5746 16.595 19.9149 16.7726 20.2691 16.7763C20.4392 16.7768 20.6074 16.7316 20.7635 16.6435C20.9197 16.5555 21.0603 16.4264 21.1769 16.2644C21.2934 16.1024 21.3833 15.9108 21.441 15.7015C21.4987 15.4922 21.5229 15.2697 21.5123 15.0476C21.4812 14.5595 21.2326 8.64118 21.2015 8.15307Z" fill="white"/>
        <path d="M30.7276 8.09215C30.7004 7.62987 30.5415 7.19781 30.2826 6.88145C30.0236 6.5651 29.6833 6.3875 29.329 6.38377C29.1584 6.3803 28.989 6.42344 28.8318 6.51045C28.6745 6.59746 28.5329 6.72641 28.416 6.88909C28.299 7.05176 28.2092 7.24461 28.1523 7.45526C28.0955 7.6659 28.0728 7.88972 28.0858 8.11248C28.0858 8.72261 28.3656 14.3969 28.3811 15.007C28.4046 15.473 28.5618 15.91 28.8212 16.2306C29.0805 16.5512 29.4229 16.7316 29.7797 16.7357C29.9504 16.7334 30.119 16.6857 30.2752 16.5954C30.4314 16.5051 30.5719 16.3741 30.6882 16.2105C30.8045 16.0469 30.8941 15.854 30.9516 15.6436C31.0092 15.4332 31.0334 15.2097 31.0229 14.9867C30.9918 14.4986 30.7431 8.58026 30.7276 8.09215Z" fill="white"/>
        <path d="M40.2382 8.05189C40.2147 7.58599 40.0575 7.14895 39.7981 6.82835C39.5387 6.50775 39.1963 6.32731 38.8396 6.32319C38.6702 6.32566 38.503 6.3728 38.3479 6.46185C38.1928 6.55089 38.053 6.68001 37.937 6.84142C37.8209 7.00282 37.7309 7.19322 37.6724 7.40122C37.6139 7.60922 37.588 7.83051 37.5964 8.05189C37.5964 8.66203 37.8761 14.3567 37.9072 14.9668C37.9307 15.4273 38.0862 15.8592 38.3427 16.176C38.5992 16.4928 38.9376 16.6711 39.2902 16.6752C39.4609 16.6786 39.6303 16.6355 39.7875 16.5485C39.9447 16.4615 40.0863 16.3325 40.2033 16.1699C40.3203 16.0072 40.4101 15.8143 40.4669 15.6037C40.5238 15.393 40.5464 15.1692 40.5334 14.9464C40.5179 14.4583 40.2537 8.54 40.2382 8.05189Z" fill="white"/>
        <path d="M49.7486 7.99033C49.7251 7.52982 49.5695 7.09794 49.3131 6.78115C49.0566 6.46436 48.7182 6.28605 48.3655 6.28195C48.1949 6.27848 48.0255 6.32162 47.8683 6.40863C47.711 6.49564 47.5694 6.62462 47.4524 6.7873C47.3355 6.94997 47.2457 7.14279 47.1888 7.35343C47.132 7.56408 47.1093 7.78793 47.1223 8.01068C47.1223 8.62082 47.3865 14.2951 47.4176 14.9052C47.4337 15.3692 47.587 15.8068 47.845 16.1256C48.1031 16.4444 48.4458 16.6194 48.8006 16.6136C48.9713 16.6171 49.1407 16.5739 49.2979 16.4869C49.4551 16.3999 49.5967 16.2709 49.7137 16.1083C49.8307 15.9456 49.9205 15.7528 49.9773 15.5421C50.0342 15.3315 50.0568 15.1076 50.0438 14.8849C49.9817 14.3968 49.7641 8.47844 49.7486 7.99033Z" fill="white"/>
    </g>
    <path d="M57.9848 76.1222L8.55236 76.3866L4.76062 22.1455L54.1775 21.8608L57.9848 76.1222Z" fill="#407BFF"/>
    <path opacity="0.8" d="M57.9848 76.1222L8.55236 76.3866L4.76062 22.1455L54.1775 21.8608L57.9848 76.1222Z" fill="white"/>
    <path d="M43.7189 35.2634L19.2435 35.3855L18.5753 25.847L43.0507 25.7046L43.7189 35.2634Z" fill="#407BFF"/>
    <path opacity="0.6" d="M43.7189 35.2634L19.2435 35.3855L18.5753 25.847L43.0507 25.7046L43.7189 35.2634Z" fill="white"/>
    <path d="M15.9959 47.7509L9.45359 47.7916L8.84753 39.2293L15.3898 39.1887L15.9959 47.7509Z" fill="white"/>
    <path d="M25.2578 47.6901L18.7311 47.7307L18.125 39.1888L24.6673 39.1481L25.2578 47.6901Z" fill="white"/>
    <path d="M16.7887 59.2825L10.2619 59.3232L9.65588 50.7609L16.1982 50.7203L16.7887 59.2825Z" fill="#407BFF"/>
    <path d="M17.5966 70.8141L11.0698 70.8547L10.4637 62.2925L17.006 62.2721L17.5966 70.8141Z" fill="#407BFF"/>
    <path d="M26.0659 59.2418L19.5392 59.2621L18.9331 50.7202L25.4599 50.6795L26.0659 59.2418Z" fill="#407BFF"/>
    <path opacity="0.2" d="M26.0659 59.2418L19.5392 59.2621L18.9331 50.7202L25.4599 50.6795L26.0659 59.2418Z" fill="white"/>
    <path d="M35.343 59.1809L28.8007 59.2215L28.2102 50.6593L34.737 50.6186L35.343 59.1809Z" fill="#407BFF"/>
    <path opacity="0.2" d="M35.343 59.1809L28.8007 59.2215L28.2102 50.6593L34.737 50.6186L35.343 59.1809Z" fill="white"/>
    <path d="M44.6047 59.1401L38.078 59.1605L37.4719 50.6186L44.0142 50.5779L44.6047 59.1401Z" fill="#407BFF"/>
    <path opacity="0.2" d="M44.6047 59.1401L38.078 59.1605L37.4719 50.6186L44.0142 50.5779L44.6047 59.1401Z" fill="white"/>
    <path d="M53.8821 59.0791L47.3398 59.1198L46.7493 50.5576L53.276 50.5373L53.8821 59.0791Z" fill="#407BFF"/>
    <path opacity="0.2" d="M53.8821 59.0791L47.3398 59.1198L46.7493 50.5576L53.276 50.5373L53.8821 59.0791Z" fill="white"/>
    <path d="M26.874 70.7736L20.3317 70.8143L19.7412 62.252L26.2835 62.2113L26.874 70.7736Z" fill="#407BFF"/>
    <path opacity="0.2" d="M26.874 70.7736L20.3317 70.8143L19.7412 62.252L26.2835 62.2113L26.874 70.7736Z" fill="white"/>
    <path d="M36.1356 70.7124L29.6089 70.7531L29.0028 62.1909L35.5451 62.1706L36.1356 70.7124Z" fill="#407BFF"/>
    <path opacity="0.2" d="M36.1356 70.7124L29.6089 70.7531L29.0028 62.1909L35.5451 62.1706L36.1356 70.7124Z" fill="white"/>
    <path d="M45.4126 70.6718L38.8858 70.7125L38.2798 62.1502L44.8221 62.1096L45.4126 70.6718Z" fill="#407BFF"/>
    <path opacity="0.2" d="M45.4126 70.6718L38.8858 70.7125L38.2798 62.1502L44.8221 62.1096L45.4126 70.6718Z" fill="white"/>
    <path d="M34.5352 47.6493L27.9929 47.69L27.4023 39.1278L33.9291 39.0871L34.5352 47.6493Z" fill="#407BFF"/>
    <path opacity="0.2" d="M34.5352 47.6493L27.9929 47.69L27.4023 39.1278L33.9291 39.0871L34.5352 47.6493Z" fill="white"/>
    <path d="M43.7966 47.5882L37.2699 47.6289L36.6638 39.0869L43.2061 39.0463L43.7966 47.5882Z" fill="#407BFF"/>
    <path opacity="0.2" d="M43.7966 47.5882L37.2699 47.6289L36.6638 39.0869L43.2061 39.0463L43.7966 47.5882Z" fill="white"/>
    <path d="M53.0742 47.5476L46.5319 47.5883L45.9414 39.026L52.4682 38.9853L53.0742 47.5476Z" fill="#407BFF"/>
    <path opacity="0.2" d="M53.0742 47.5476L46.5319 47.5883L45.9414 39.026L52.4682 38.9853L53.0742 47.5476Z" fill="white"/>
    <path d="M54.6904 70.6107L48.1481 70.6513L47.5576 62.1094L54.0844 62.0687L54.6904 70.6107Z" fill="white"/>
    <path d="M72.2659 71.7341C72.3414 71.7346 72.4144 71.7071 72.4703 71.6569C81.4846 63.6459 77.6625 55.1304 73.6301 46.1403C73.2635 45.3214 72.8969 44.4965 72.5424 43.6717C68.4439 34.2424 73.7443 25.8693 73.8284 25.7625C73.8713 25.6964 73.8859 25.6162 73.869 25.5394C73.8522 25.4626 73.8051 25.3956 73.7383 25.3531C73.7056 25.3304 73.6686 25.3147 73.6295 25.3069C73.5904 25.2992 73.5501 25.2995 73.5112 25.3078C73.4722 25.3162 73.4354 25.3324 73.4031 25.3555C73.3709 25.3786 73.3438 25.4081 73.3236 25.4421C73.2635 25.5252 67.7588 34.1771 71.9895 43.909C72.3501 44.7339 72.7166 45.5587 73.0832 46.3776C77.0195 55.1957 80.7394 63.5213 72.0676 71.2475C72.0395 71.2751 72.0171 71.3079 72.0018 71.3441C71.9866 71.3802 71.9787 71.419 71.9787 71.4582C71.9787 71.4973 71.9866 71.5361 72.0018 71.5723C72.0171 71.6084 72.0395 71.6412 72.0676 71.6688C72.1234 71.7138 72.194 71.737 72.2659 71.7341Z" fill="#CCE5F7"/>
    <path d="M68.7082 8.10849C66.7972 14.0426 68.7082 22.6233 74.0026 24.2849C79.297 25.9464 85.8955 20.042 87.8246 14.1257C89.7536 8.20936 87.0073 2.07943 81.7369 0.417877C76.4665 -1.24367 70.6192 2.19811 68.7082 8.10849Z" fill="#407BFF"/>
    <path d="M68.7082 8.10849C66.7972 14.0426 68.7082 22.6233 74.0026 24.2849C79.297 25.9464 85.8955 20.042 87.8246 14.1257C89.7536 8.20936 87.0073 2.07943 81.7369 0.417877C76.4665 -1.24367 70.6192 2.19811 68.7082 8.10849Z" fill="#407BFF"/>
    <path d="M74.6576 24.457L75.1744 26.3322L71.8932 25.3174L73.4197 24.0653L74.6576 24.457Z" fill="#407BFF"/>
    <path d="M74.477 78.3988C74.4015 78.3994 74.3285 78.3718 74.2727 78.3217C65.2583 70.3106 69.0804 61.7952 73.1128 52.805C73.4794 51.9861 73.846 51.1613 74.2006 50.3364C78.2991 40.9071 72.9986 32.5341 72.9145 32.4273C72.8716 32.3611 72.857 32.2809 72.8739 32.2041C72.8908 32.1274 72.9378 32.0604 73.0047 32.0178C73.0373 31.9952 73.0743 31.9795 73.1134 31.9717C73.1525 31.9639 73.1928 31.9642 73.2317 31.9725C73.2707 31.9809 73.3075 31.9972 73.3398 32.0203C73.3721 32.0434 73.3991 32.0729 73.4193 32.1068C73.4794 32.1899 78.9842 40.8418 74.7534 50.5738C74.3929 51.3986 74.0263 52.2235 73.6597 53.0424C69.7234 61.8605 66.0035 70.186 74.6753 77.9122C74.7035 77.9398 74.7258 77.9726 74.7411 78.0088C74.7563 78.0449 74.7642 78.0837 74.7642 78.1229C74.7642 78.1621 74.7563 78.2008 74.7411 78.237C74.7258 78.2732 74.7035 78.306 74.6753 78.3336C74.6195 78.3785 74.549 78.4018 74.477 78.3988Z" fill="#CCE5F7"/>
    <path d="M78.0347 14.7733C79.9458 20.7074 78.0347 29.2881 72.7403 30.9497C67.4459 32.6112 60.8474 26.7068 58.9183 20.7905C56.9893 14.8742 59.7356 8.74422 65.006 7.08267C70.2764 5.42112 76.1237 8.86291 78.0347 14.7733Z" fill="#CCE5F7"/>
    <path d="M78.0347 14.7733C79.9458 20.7074 78.0347 29.2881 72.7403 30.9497C67.4459 32.6112 60.8474 26.7068 58.9183 20.7905C56.9893 14.8742 59.7356 8.74422 65.006 7.08267C70.2764 5.42112 76.1237 8.86291 78.0347 14.7733Z" fill="#CCE5F7"/>
    <path d="M72.0853 31.1218L71.5685 32.997L74.8497 31.9822L73.3233 30.7301L72.0853 31.1218Z" fill="#CCE5F7"/>
    <path d="M64.0932 71.7341C64.0177 71.7346 63.9448 71.7071 63.8889 71.6569C54.8746 63.6459 58.6966 55.1304 62.729 46.1403C63.0956 45.3214 63.4622 44.4965 63.8168 43.6717C67.9153 34.2424 62.6149 25.8693 62.5307 25.7625C62.4878 25.6964 62.4732 25.6162 62.4901 25.5394C62.507 25.4626 62.554 25.3956 62.6209 25.3531C62.6535 25.3304 62.6905 25.3147 62.7296 25.3069C62.7687 25.2992 62.809 25.2995 62.848 25.3078C62.8869 25.3162 62.9237 25.3324 62.956 25.3555C62.9883 25.3786 63.0154 25.4081 63.0355 25.4421C63.0956 25.5252 68.6004 34.1771 64.3696 43.909C64.0091 44.7339 63.6425 45.5587 63.2759 46.3776C59.3396 55.1957 55.6197 63.5213 64.2915 71.2475C64.3197 71.2751 64.342 71.3079 64.3573 71.3441C64.3725 71.3802 64.3804 71.419 64.3804 71.4582C64.3804 71.4973 64.3725 71.5361 64.3573 71.5723C64.342 71.6084 64.3197 71.6412 64.2915 71.6688C64.2357 71.7138 64.1652 71.737 64.0932 71.7341Z" fill="#CCE5F7"/>
    <path d="M67.6509 8.10849C69.562 14.0426 67.6509 22.6233 62.3565 24.2849C57.0621 25.9464 50.4636 20.042 48.5346 14.1257C46.6055 8.20936 49.3519 2.07943 54.6222 0.417877C59.8926 -1.24367 65.7399 2.19811 67.6509 8.10849Z" fill="#00308E"/>
    <path d="M67.6509 8.10849C69.562 14.0426 67.6509 22.6233 62.3565 24.2849C57.0621 25.9464 50.4636 20.042 48.5346 14.1257C46.6055 8.20936 49.3519 2.07943 54.6222 0.417877C59.8926 -1.24367 65.7399 2.19811 67.6509 8.10849Z" fill="#1919D3"/>
    <path d="M61.7015 24.457L61.1847 26.3322L64.4659 25.3174L62.9395 24.0653L61.7015 24.457Z" fill="#00308E"/>
    <path d="M41.7612 58.5882H41.5952V60.7907H41.7612V58.5882Z" fill="#407BFF"/>
    <path d="M41.7612 61.4461H41.5952V62.3572H41.7612V61.4461Z" fill="#407BFF"/>
    <path d="M42.1759 50.5388H69.3147V79.2935H42.9526C42.747 79.2935 42.5499 79.2129 42.4046 79.0694C42.2592 78.9259 42.1776 78.7312 42.1776 78.5283V50.5388H42.1759Z" fill="#407BFF"/>
    <path opacity="0.2" d="M69.3147 50.5388H42.1759V52.5773H57.7907L58.3085 79.2935L58.6703 52.5773H69.3147V50.5388Z" fill="#1919D3"/>
    <path d="M41.9421 46.1682H69.3149V51.9955H41.9421C41.8395 51.9955 41.7412 51.9553 41.6687 51.8837C41.5962 51.8121 41.5554 51.715 41.5554 51.6137V46.5517C41.5552 46.5014 41.565 46.4516 41.5844 46.4051C41.6037 46.3585 41.6322 46.3163 41.6681 46.2806C41.704 46.245 41.7467 46.2167 41.7937 46.1974C41.8408 46.1781 41.8912 46.1682 41.9421 46.1682Z" fill="#407BFF"/>
    <path d="M52.6264 79.2935L52.3427 46.1682H58.2441L58.5262 79.2935H52.6264Z" fill="#00308E"/>
    <path d="M80.0107 79.2936H69.3215V50.5388H80.7808V78.5283C80.7808 78.7304 80.6998 78.9243 80.5555 79.0677C80.4113 79.2111 80.2154 79.2923 80.0107 79.2936Z" fill="#407BFF"/>
    <path opacity="0.2" d="M80.0107 79.2936H69.3215V50.5388H80.7808V78.5283C80.7808 78.7304 80.6998 78.9243 80.5555 79.0677C80.4113 79.2111 80.2154 79.2923 80.0107 79.2936Z" fill="#1919D3"/>
    <path opacity="0.2" d="M69.3147 50.5388H80.779V52.5773H74.3813L73.5117 79.2935L73.6063 52.5773H69.3147V50.5388Z" fill="#1919D3"/>
    <path d="M81.0147 51.9956H69.3148V46.1683H81.0147C81.0655 46.1683 81.1157 46.1781 81.1627 46.1973C81.2096 46.2165 81.2522 46.2446 81.2881 46.2801C81.324 46.3156 81.3525 46.3577 81.3719 46.404C81.3914 46.4503 81.4014 46.5 81.4014 46.5501V51.6121C81.4016 51.6624 81.3917 51.7122 81.3724 51.7588C81.3531 51.8053 81.3246 51.8475 81.2887 51.8832C81.2528 51.9188 81.2101 51.9471 81.163 51.9664C81.116 51.9857 81.0656 51.9956 81.0147 51.9956Z" fill="#407BFF"/>
    <path opacity="0.2" d="M81.0147 51.9956H69.3148V46.1683H81.0147C81.0655 46.1683 81.1157 46.1781 81.1627 46.1973C81.2096 46.2165 81.2522 46.2446 81.2881 46.2801C81.324 46.3156 81.3525 46.3577 81.3719 46.404C81.3914 46.4503 81.4014 46.5 81.4014 46.5501V51.6121C81.4016 51.6624 81.3917 51.7122 81.3724 51.7588C81.3531 51.8053 81.3246 51.8475 81.2887 51.8832C81.2528 51.9188 81.2101 51.9471 81.163 51.9664C81.116 51.9857 81.0656 51.9956 81.0147 51.9956Z" fill="#1919D3"/>
    <path d="M73.5118 79.2935L74.0064 46.1682H77.689L77.1944 79.2935H73.5118Z" fill="#00308E"/>
    <path opacity="0.2" d="M73.5118 79.2935L74.0064 46.1682H77.689L77.1944 79.2935H73.5118Z" fill="#1919D3"/>
    <path d="M75.4338 35.1724V35.1642H70.6061C70.3283 35.1871 70.0571 35.2604 69.8062 35.3805C64.9105 37.406 62.5307 42.7138 61.4785 46.1617H66.4174C66.4174 46.1617 78.1057 34.8447 75.4338 35.1724Z" fill="#00308E"/>
    <path opacity="0.5" d="M66.4174 46.1683C66.4174 41.6896 69.8493 37.4125 74.745 35.3871C79.6407 33.3616 66.4174 46.1683 66.4174 46.1683Z" fill="#1919D3"/>
    <path d="M76.695 38.009H73.1121C72.8834 38.0284 72.6593 38.0838 72.4482 38.1729C68.2263 39.6773 64.9188 43.6184 63.1348 46.1781H66.8024C66.8024 46.1781 78.7745 37.7632 76.695 38.009Z" fill="#00308E"/>
    <path opacity="0.5" d="M66.8088 46.1683C68.5364 41.7437 71.9004 39.6674 76.1223 38.1631C80.3442 36.6587 66.8088 46.1683 66.8088 46.1683Z" fill="#1919D3"/>
    <path d="M52.5683 33.7746V33.7647H47.7291C47.6404 33.7631 47.5528 33.7848 47.4755 33.8277C47.3982 33.8707 47.3339 33.9332 47.2893 34.0089C45.7791 36.2917 52.268 42.2779 56.9861 46.1666H61.9249C61.9249 46.1666 54.6893 33.4026 52.5683 33.7746Z" fill="#00308E"/>
    <path opacity="0.5" d="M61.9248 46.1683C57.2133 42.2796 50.7177 36.2933 52.2279 34.0105C53.7381 31.7278 61.9248 46.1683 61.9248 46.1683Z" fill="#1919D3"/>
    <path d="M57.6134 36.975H54.0221C53.9497 36.9767 53.8785 36.9937 53.8133 37.0248C53.748 37.0559 53.6902 37.1003 53.6438 37.1552C52.0439 38.8513 55.6087 43.2972 58.2905 46.183H61.9532C61.9532 46.183 59.2647 36.6898 57.6134 36.975Z" fill="#00308E"/>
    <path opacity="0.5" d="M61.9531 46.1682C59.2713 43.2808 55.7049 38.8366 57.3063 37.1405C58.9078 35.4444 61.9531 46.1682 61.9531 46.1682Z" fill="#1919D3"/>
</svg>
