<svg width="130.000000" height="120.000000" viewBox="0 0 130 120" fill="none" xmlns="http://www.w3.org/2000/svg" xmlns:xlink="http://www.w3.org/1999/xlink">
	<desc>
			Created with Pixso.
	</desc>
	<defs/>
	<rect id="bg" rx="6.000000" width="130.000000" height="120.000000" fill="#F2F7FF" fill-opacity="1.000000"/>
	<path id="Vector" d="M13.71 34.49L9 81.69L16.7 81.69L13.71 34.49Z" fill="#00308E" fill-opacity="1.000000" fill-rule="nonzero"/>
	<path id="Vector" d="M71.23 81.42L15.9 81.64L13.2 34.51L68.51 34.27L71.23 81.42Z" fill="#407BFF" fill-opacity="1.000000" fill-rule="nonzero"/>
	<g opacity="0.600000">
		<path id="Vector" d="M71.23 81.42L15.9 81.64L13.2 34.51L68.51 34.27L71.23 81.42Z" fill="#FFFFFF" fill-opacity="1.000000" fill-rule="nonzero"/>
	</g>
	<path id="Vector" d="M68.51 34.27L13.2 34.51L12.68 25.68L68.01 25.46L68.51 34.27Z" fill="#00308E" fill-opacity="1.000000" fill-rule="nonzero"/>
	<path id="Vector" d="M20.96 22.73C20.94 22.34 20.76 21.98 20.47 21.71C20.19 21.44 19.81 21.29 19.41 21.29C19.22 21.28 19.03 21.32 18.86 21.39C18.68 21.47 18.52 21.58 18.39 21.71C18.26 21.85 18.16 22.01 18.1 22.19C18.03 22.37 18.01 22.56 18.02 22.75C18.02 23.26 18.32 28.05 18.35 28.57C18.38 28.96 18.55 29.33 18.84 29.6C19.13 29.87 19.5 30.02 19.9 30.03C20.09 30.03 20.28 29.99 20.45 29.92C20.63 29.84 20.79 29.73 20.92 29.6C21.05 29.46 21.15 29.3 21.21 29.12C21.28 28.94 21.3 28.76 21.29 28.57C21.27 28.16 21 23.14 20.96 22.73Z" fill="#407BFF" fill-opacity="1.000000" fill-rule="nonzero"/>
	<path id="Vector" d="M31.61 22.7C31.58 22.3 31.41 21.93 31.12 21.66C30.84 21.39 30.46 21.24 30.06 21.24C29.87 21.24 29.68 21.27 29.5 21.35C29.32 21.42 29.17 21.54 29.04 21.67C28.9 21.81 28.8 21.98 28.74 22.16C28.68 22.33 28.65 22.52 28.67 22.71C28.67 23.23 28.96 28.02 29 28.54C29.03 28.93 29.21 29.29 29.5 29.56C29.79 29.82 30.17 29.97 30.56 29.98C30.75 29.98 30.94 29.94 31.12 29.87C31.29 29.79 31.45 29.68 31.58 29.55C31.71 29.41 31.81 29.25 31.87 29.07C31.94 28.89 31.97 28.71 31.95 28.52C31.92 28.11 31.64 23.11 31.61 22.7Z" fill="#407BFF" fill-opacity="1.000000" fill-rule="nonzero"/>
	<path id="Vector" d="M42.27 22.64C42.24 22.25 42.06 21.89 41.77 21.62C41.48 21.35 41.1 21.2 40.7 21.2C40.51 21.2 40.32 21.23 40.15 21.31C39.97 21.38 39.81 21.49 39.68 21.63C39.55 21.77 39.45 21.93 39.39 22.11C39.32 22.28 39.3 22.47 39.31 22.66C39.31 23.18 39.62 27.97 39.64 28.48C39.67 28.88 39.84 29.25 40.13 29.52C40.42 29.79 40.81 29.94 41.21 29.94C41.4 29.94 41.59 29.9 41.76 29.82C41.94 29.75 42.09 29.64 42.22 29.5C42.35 29.36 42.45 29.2 42.52 29.02C42.58 28.84 42.61 28.65 42.6 28.47C42.56 28.05 42.29 23.06 42.27 22.64Z" fill="#407BFF" fill-opacity="1.000000" fill-rule="nonzero"/>
	<path id="Vector" d="M52.91 22.61C52.89 22.22 52.71 21.85 52.42 21.58C52.13 21.31 51.75 21.15 51.35 21.15C51.16 21.15 50.97 21.19 50.8 21.27C50.62 21.34 50.47 21.45 50.34 21.59C50.21 21.72 50.11 21.88 50.04 22.06C49.98 22.24 49.95 22.42 49.96 22.61C49.96 23.13 50.27 27.93 50.3 28.45C50.33 28.84 50.5 29.2 50.79 29.47C51.08 29.74 51.46 29.89 51.85 29.89C52.04 29.89 52.23 29.86 52.41 29.79C52.58 29.71 52.74 29.6 52.87 29.47C53 29.33 53.11 29.17 53.17 28.99C53.23 28.81 53.26 28.62 53.24 28.43C53.23 28.02 52.93 23.02 52.91 22.61Z" fill="#407BFF" fill-opacity="1.000000" fill-rule="nonzero"/>
	<path id="Vector" d="M63.56 22.56C63.53 22.17 63.36 21.8 63.07 21.54C62.78 21.27 62.4 21.12 62.01 21.12C61.82 21.11 61.63 21.15 61.45 21.22C61.28 21.3 61.12 21.4 60.99 21.54C60.86 21.68 60.76 21.84 60.69 22.02C60.63 22.2 60.6 22.39 60.62 22.58C60.62 23.09 60.91 27.88 60.95 28.4C60.97 28.79 61.14 29.16 61.43 29.43C61.72 29.7 62.1 29.85 62.5 29.84C62.69 29.84 62.88 29.81 63.05 29.73C63.23 29.66 63.39 29.55 63.52 29.41C63.65 29.28 63.75 29.11 63.81 28.94C63.88 28.76 63.9 28.57 63.89 28.38C63.82 27.97 63.58 22.97 63.56 22.56Z" fill="#407BFF" fill-opacity="1.000000" fill-rule="nonzero"/>
	<g opacity="0.700000">
		<path id="Vector" d="M20.96 22.73C20.94 22.34 20.76 21.98 20.47 21.71C20.19 21.44 19.81 21.29 19.41 21.29C19.22 21.28 19.03 21.32 18.86 21.39C18.68 21.47 18.52 21.58 18.39 21.71C18.26 21.85 18.16 22.01 18.1 22.19C18.03 22.37 18.01 22.56 18.02 22.75C18.02 23.26 18.32 28.05 18.35 28.57C18.38 28.96 18.55 29.33 18.84 29.6C19.13 29.87 19.5 30.02 19.9 30.03C20.09 30.03 20.28 29.99 20.45 29.92C20.63 29.84 20.79 29.73 20.92 29.6C21.05 29.46 21.15 29.3 21.21 29.12C21.28 28.94 21.3 28.76 21.29 28.57C21.27 28.16 21 23.14 20.96 22.73Z" fill="#FFFFFF" fill-opacity="1.000000" fill-rule="nonzero"/>
		<path id="Vector" d="M31.61 22.7C31.58 22.3 31.41 21.93 31.12 21.66C30.84 21.39 30.46 21.24 30.06 21.24C29.87 21.24 29.68 21.27 29.5 21.35C29.32 21.42 29.17 21.54 29.04 21.67C28.9 21.81 28.8 21.98 28.74 22.16C28.68 22.33 28.65 22.52 28.67 22.71C28.67 23.23 28.96 28.02 29 28.54C29.03 28.93 29.21 29.29 29.5 29.56C29.79 29.82 30.17 29.97 30.56 29.98C30.75 29.98 30.94 29.94 31.12 29.87C31.29 29.79 31.45 29.68 31.58 29.55C31.71 29.41 31.81 29.25 31.87 29.07C31.94 28.89 31.97 28.71 31.95 28.52C31.92 28.11 31.64 23.11 31.61 22.7Z" fill="#FFFFFF" fill-opacity="1.000000" fill-rule="nonzero"/>
		<path id="Vector" d="M42.27 22.64C42.24 22.25 42.06 21.89 41.77 21.62C41.48 21.35 41.1 21.2 40.7 21.2C40.51 21.2 40.32 21.23 40.15 21.31C39.97 21.38 39.81 21.49 39.68 21.63C39.55 21.77 39.45 21.93 39.39 22.11C39.32 22.28 39.3 22.47 39.31 22.66C39.31 23.18 39.62 27.97 39.64 28.48C39.67 28.88 39.84 29.25 40.13 29.52C40.42 29.79 40.81 29.94 41.21 29.94C41.4 29.94 41.59 29.9 41.76 29.82C41.94 29.75 42.09 29.64 42.22 29.5C42.35 29.36 42.45 29.2 42.52 29.02C42.58 28.84 42.61 28.65 42.6 28.47C42.56 28.05 42.29 23.06 42.27 22.64Z" fill="#FFFFFF" fill-opacity="1.000000" fill-rule="nonzero"/>
		<path id="Vector" d="M52.91 22.61C52.89 22.22 52.71 21.85 52.42 21.58C52.13 21.31 51.75 21.15 51.35 21.15C51.16 21.15 50.97 21.19 50.8 21.27C50.62 21.34 50.47 21.45 50.34 21.59C50.21 21.72 50.11 21.88 50.04 22.06C49.98 22.24 49.95 22.42 49.96 22.61C49.96 23.13 50.27 27.93 50.3 28.45C50.33 28.84 50.5 29.2 50.79 29.47C51.08 29.74 51.46 29.89 51.85 29.89C52.04 29.89 52.23 29.86 52.41 29.79C52.58 29.71 52.74 29.6 52.87 29.47C53 29.33 53.11 29.17 53.17 28.99C53.23 28.81 53.26 28.62 53.24 28.43C53.23 28.02 52.93 23.02 52.91 22.61Z" fill="#FFFFFF" fill-opacity="1.000000" fill-rule="nonzero"/>
		<path id="Vector" d="M63.56 22.56C63.53 22.17 63.36 21.8 63.07 21.54C62.78 21.27 62.4 21.12 62.01 21.12C61.82 21.11 61.63 21.15 61.45 21.22C61.28 21.3 61.12 21.4 60.99 21.54C60.86 21.68 60.76 21.84 60.69 22.02C60.63 22.2 60.6 22.39 60.62 22.58C60.62 23.09 60.91 27.88 60.95 28.4C60.97 28.79 61.14 29.16 61.43 29.43C61.72 29.7 62.1 29.85 62.5 29.84C62.69 29.84 62.88 29.81 63.05 29.73C63.23 29.66 63.39 29.55 63.52 29.41C63.65 29.28 63.75 29.11 63.81 28.94C63.88 28.76 63.9 28.57 63.89 28.38C63.82 27.97 63.58 22.97 63.56 22.56Z" fill="#FFFFFF" fill-opacity="1.000000" fill-rule="nonzero"/>
	</g>
	<path id="Vector" d="M72.78 80.09L17.45 80.32L13.2 34.51L68.51 34.27L72.78 80.09Z" fill="#407BFF" fill-opacity="1.000000" fill-rule="nonzero"/>
	<g opacity="0.800000">
		<path id="Vector" d="M72.78 80.09L17.45 80.32L13.2 34.51L68.51 34.27L72.78 80.09Z" fill="#FFFFFF" fill-opacity="1.000000" fill-rule="nonzero"/>
	</g>
	<path id="Vector" d="M56.81 45.59L29.41 45.69L28.67 37.64L56.06 37.52L56.81 45.59Z" fill="#407BFF" fill-opacity="1.000000" fill-rule="nonzero"/>
	<g opacity="0.600000">
		<path id="Vector" d="M56.81 45.59L29.41 45.69L28.67 37.64L56.06 37.52L56.81 45.59Z" fill="#FFFFFF" fill-opacity="1.000000" fill-rule="nonzero"/>
	</g>
	<path id="Vector" d="M25.78 56.14L18.46 56.17L17.78 48.94L25.1 48.9L25.78 56.14Z" fill="#FFFFFF" fill-opacity="1.000000" fill-rule="nonzero"/>
	<path id="Vector" d="M36.15 56.08L28.84 56.12L28.16 48.9L35.48 48.87L36.15 56.08Z" fill="#FFFFFF" fill-opacity="1.000000" fill-rule="nonzero"/>
	<path id="Vector" d="M26.67 65.87L19.36 65.91L18.68 58.68L26.01 58.64L26.67 65.87Z" fill="#407BFF" fill-opacity="1.000000" fill-rule="nonzero"/>
	<path id="Vector" d="M27.57 75.61L20.27 75.65L19.59 68.42L26.91 68.4L27.57 75.61Z" fill="#407BFF" fill-opacity="1.000000" fill-rule="nonzero"/>
	<path id="Vector" d="M37.05 65.84L29.75 65.86L29.07 58.64L36.37 58.61L37.05 65.84Z" fill="#407BFF" fill-opacity="1.000000" fill-rule="nonzero"/>
	<g opacity="0.200000">
		<path id="Vector" d="M37.05 65.84L29.75 65.86L29.07 58.64L36.37 58.61L37.05 65.84Z" fill="#FFFFFF" fill-opacity="1.000000" fill-rule="nonzero"/>
	</g>
	<path id="Vector" d="M47.43 65.79L40.11 65.82L39.45 58.59L46.76 58.56L47.43 65.79Z" fill="#407BFF" fill-opacity="1.000000" fill-rule="nonzero"/>
	<g opacity="0.200000">
		<path id="Vector" d="M47.43 65.79L40.11 65.82L39.45 58.59L46.76 58.56L47.43 65.79Z" fill="#FFFFFF" fill-opacity="1.000000" fill-rule="nonzero"/>
	</g>
	<path id="Vector" d="M57.8 65.75L50.5 65.77L49.82 58.56L57.14 58.52L57.8 65.75Z" fill="#407BFF" fill-opacity="1.000000" fill-rule="nonzero"/>
	<g opacity="0.200000">
		<path id="Vector" d="M57.8 65.75L50.5 65.77L49.82 58.56L57.14 58.52L57.8 65.75Z" fill="#FFFFFF" fill-opacity="1.000000" fill-rule="nonzero"/>
	</g>
	<path id="Vector" d="M68.18 65.7L60.86 65.74L60.2 58.51L67.51 58.49L68.18 65.7Z" fill="#407BFF" fill-opacity="1.000000" fill-rule="nonzero"/>
	<g opacity="0.200000">
		<path id="Vector" d="M68.18 65.7L60.86 65.74L60.2 58.51L67.51 58.49L68.18 65.7Z" fill="#FFFFFF" fill-opacity="1.000000" fill-rule="nonzero"/>
	</g>
	<path id="Vector" d="M37.95 75.58L30.63 75.61L29.97 68.38L37.29 68.35L37.95 75.58Z" fill="#407BFF" fill-opacity="1.000000" fill-rule="nonzero"/>
	<g opacity="0.200000">
		<path id="Vector" d="M37.95 75.58L30.63 75.61L29.97 68.38L37.29 68.35L37.95 75.58Z" fill="#FFFFFF" fill-opacity="1.000000" fill-rule="nonzero"/>
	</g>
	<path id="Vector" d="M48.32 75.53L41.02 75.56L40.34 68.33L47.66 68.31L48.32 75.53Z" fill="#407BFF" fill-opacity="1.000000" fill-rule="nonzero"/>
	<g opacity="0.200000">
		<path id="Vector" d="M48.32 75.53L41.02 75.56L40.34 68.33L47.66 68.31L48.32 75.53Z" fill="#FFFFFF" fill-opacity="1.000000" fill-rule="nonzero"/>
	</g>
	<path id="Vector" d="M58.7 75.49L51.4 75.53L50.72 68.29L58.04 68.26L58.7 75.49Z" fill="#407BFF" fill-opacity="1.000000" fill-rule="nonzero"/>
	<g opacity="0.200000">
		<path id="Vector" d="M58.7 75.49L51.4 75.53L50.72 68.29L58.04 68.26L58.7 75.49Z" fill="#FFFFFF" fill-opacity="1.000000" fill-rule="nonzero"/>
	</g>
	<path id="Vector" d="M46.53 56.05L39.21 56.08L38.55 48.85L45.85 48.82L46.53 56.05Z" fill="#407BFF" fill-opacity="1.000000" fill-rule="nonzero"/>
	<g opacity="0.200000">
		<path id="Vector" d="M46.53 56.05L39.21 56.08L38.55 48.85L45.85 48.82L46.53 56.05Z" fill="#FFFFFF" fill-opacity="1.000000" fill-rule="nonzero"/>
	</g>
	<path id="Vector" d="M56.9 56L49.59 56.03L48.91 48.82L56.23 48.78L56.9 56Z" fill="#407BFF" fill-opacity="1.000000" fill-rule="nonzero"/>
	<g opacity="0.200000">
		<path id="Vector" d="M56.9 56L49.59 56.03L48.91 48.82L56.23 48.78L56.9 56Z" fill="#FFFFFF" fill-opacity="1.000000" fill-rule="nonzero"/>
	</g>
	<path id="Vector" d="M67.28 55.96L59.96 56L59.3 48.77L66.6 48.73L67.28 55.96Z" fill="#407BFF" fill-opacity="1.000000" fill-rule="nonzero"/>
	<g opacity="0.200000">
		<path id="Vector" d="M67.28 55.96L59.96 56L59.3 48.77L66.6 48.73L67.28 55.96Z" fill="#FFFFFF" fill-opacity="1.000000" fill-rule="nonzero"/>
	</g>
	<path id="Vector" d="M69.09 75.44L61.77 75.47L61.11 68.26L68.41 68.23L69.09 75.44Z" fill="#FFFFFF" fill-opacity="1.000000" fill-rule="nonzero"/>
	<path id="Vector" d="M102.14 95.3C102.06 95.3 101.97 95.27 101.91 95.22C91.69 86.14 96.03 76.48 100.6 66.29C101.01 65.37 101.43 64.43 101.83 63.5C106.47 52.81 100.47 43.32 100.37 43.2C100.32 43.12 100.31 43.03 100.33 42.94C100.34 42.86 100.4 42.78 100.47 42.73C100.51 42.71 100.55 42.69 100.6 42.68C100.64 42.67 100.69 42.67 100.73 42.68C100.78 42.69 100.82 42.71 100.85 42.73C100.89 42.76 100.92 42.79 100.94 42.83C101.01 42.93 107.25 52.73 102.46 63.76C102.05 64.7 101.63 65.63 101.22 66.56C96.75 76.56 92.54 85.99 102.37 94.75C102.4 94.78 102.42 94.82 102.44 94.86C102.46 94.9 102.47 94.95 102.47 94.99C102.47 95.04 102.46 95.08 102.44 95.12C102.42 95.16 102.4 95.2 102.37 95.23C102.3 95.28 102.22 95.31 102.14 95.3Z" fill="#68A3FF" fill-opacity="1.000000" fill-rule="nonzero"/>
	<path id="Vector" d="M106.18 23.19C108.34 29.91 106.18 39.64 100.17 41.52C94.17 43.4 86.69 36.71 84.51 30.01C82.32 23.3 85.43 16.35 91.41 14.47C97.38 12.59 104.01 16.49 106.18 23.19Z" fill="#407BFF" fill-opacity="1.000000" fill-rule="nonzero"/>
	<path id="Vector" d="M106.18 23.19C108.34 29.91 106.18 39.64 100.17 41.52C94.17 43.4 86.69 36.71 84.51 30.01C82.32 23.3 85.43 16.35 91.41 14.47C97.38 12.59 104.01 16.49 106.18 23.19Z" fill="#407BFF" fill-opacity="1.000000" fill-rule="nonzero"/>
	<g opacity="0.200000">
		<path id="Vector" d="M106.18 23.19C108.34 29.91 106.18 39.64 100.17 41.52C94.17 43.4 86.69 36.71 84.51 30.01C82.32 23.3 85.43 16.35 91.41 14.47C97.38 12.59 104.01 16.49 106.18 23.19Z" fill="#FFFFFF" fill-opacity="1.000000" fill-rule="nonzero"/>
	</g>
	<path id="Vector" d="M99.43 41.72L98.85 43.84L102.57 42.69L100.83 41.27L99.43 41.72Z" fill="#407BFF" fill-opacity="1.000000" fill-rule="nonzero"/>
	<path id="Vector" d="M96.73 114C96.65 114 96.57 113.96 96.5 113.91C86.28 104.83 90.62 95.17 95.19 84.98C95.6 84.06 96.02 83.12 96.42 82.19C101.07 71.5 95.06 62.01 94.96 61.89C94.91 61.81 94.9 61.72 94.92 61.63C94.94 61.55 94.99 61.47 95.07 61.42C95.1 61.4 95.14 61.38 95.19 61.37C95.23 61.36 95.28 61.36 95.32 61.37C95.37 61.38 95.41 61.4 95.45 61.43C95.48 61.45 95.51 61.49 95.54 61.52C95.6 61.62 101.84 71.42 97.05 82.46C96.64 83.39 96.22 84.33 95.81 85.25C91.35 95.25 87.13 104.69 96.96 113.44C96.99 113.47 97.02 113.51 97.03 113.55C97.05 113.59 97.06 113.64 97.06 113.68C97.06 113.73 97.05 113.77 97.03 113.81C97.02 113.85 96.99 113.89 96.96 113.92C96.9 113.97 96.82 114 96.73 114Z" fill="#68A3FF" fill-opacity="1.000000" fill-rule="nonzero"/>
	<path id="Vector" d="M100.77 41.88C102.93 48.6 100.77 58.33 94.77 60.21C88.76 62.1 81.29 55.4 79.1 48.7C76.91 41.99 80.03 35.04 86 33.16C91.97 31.28 98.6 35.18 100.77 41.88Z" fill="#72ADFF" fill-opacity="1.000000" fill-rule="nonzero"/>
	<path id="Vector" d="M100.77 41.88C102.93 48.6 100.77 58.33 94.77 60.21C88.76 62.1 81.29 55.4 79.1 48.7C76.91 41.99 80.03 35.04 86 33.16C91.97 31.28 98.6 35.18 100.77 41.88Z" fill="#72ADFF" fill-opacity="1.000000" fill-rule="nonzero"/>
	<g opacity="0.200000">
		<path id="Vector" d="M100.77 41.88C102.93 48.6 100.77 58.33 94.77 60.21C88.76 62.1 81.29 55.4 79.1 48.7C76.91 41.99 80.03 35.04 86 33.16C91.97 31.28 98.6 35.18 100.77 41.88Z" fill="#FFFFFF" fill-opacity="1.000000" fill-rule="nonzero"/>
	</g>
	<path id="Vector" d="M94.02 60.41L93.44 62.53L97.16 61.38L95.43 59.96L94.02 60.41Z" fill="#72ADFF" fill-opacity="1.000000" fill-rule="nonzero"/>
	<path id="Vector" d="M80.51 95.3C80.42 95.3 80.34 95.27 80.28 95.22C70.06 86.14 74.39 76.48 78.96 66.29C79.38 65.37 79.79 64.43 80.2 63.5C84.84 52.81 78.83 43.32 78.74 43.2C78.69 43.12 78.67 43.03 78.69 42.94C78.71 42.86 78.77 42.78 78.84 42.73C78.88 42.71 78.92 42.69 78.96 42.68C79.01 42.67 79.05 42.67 79.1 42.68C79.14 42.69 79.18 42.71 79.22 42.73C79.26 42.76 79.29 42.79 79.31 42.83C79.38 42.93 85.62 52.73 80.82 63.76C80.41 64.7 80 65.63 79.58 66.56C75.12 76.56 70.91 85.99 80.73 94.75C80.77 94.78 80.79 94.82 80.81 94.86C80.83 94.9 80.84 94.95 80.84 94.99C80.84 95.04 80.83 95.08 80.81 95.12C80.79 95.16 80.77 95.2 80.73 95.23C80.67 95.28 80.59 95.31 80.51 95.3Z" fill="#68A3FF" fill-opacity="1.000000" fill-rule="nonzero"/>
	<path id="Vector" d="M84.54 23.19C86.71 29.91 84.54 39.64 78.54 41.52C72.54 43.4 65.06 36.71 62.87 30.01C60.69 23.3 63.8 16.35 69.77 14.47C75.75 12.59 82.38 16.49 84.54 23.19Z" fill="#00308E" fill-opacity="1.000000" fill-rule="nonzero"/>
	<path id="Vector" d="M84.54 23.19C86.71 29.91 84.54 39.64 78.54 41.52C72.54 43.4 65.06 36.71 62.87 30.01C60.69 23.3 63.8 16.35 69.77 14.47C75.75 12.59 82.38 16.49 84.54 23.19Z" fill="#00308E" fill-opacity="1.000000" fill-rule="nonzero"/>
	<g opacity="0.200000">
		<path id="Vector" d="M84.54 23.19C86.71 29.91 84.54 39.64 78.54 41.52C72.54 43.4 65.06 36.71 62.87 30.01C60.69 23.3 63.8 16.35 69.77 14.47C75.75 12.59 82.38 16.49 84.54 23.19Z" fill="#FFFFFF" fill-opacity="1.000000" fill-rule="nonzero"/>
	</g>
	<path id="Vector" d="M77.8 41.72L77.21 43.84L80.93 42.69L79.2 41.27L77.8 41.72Z" fill="#00308E" fill-opacity="1.000000" fill-rule="nonzero"/>
	<path id="Vector" d="M55.01 80.4L55.2 80.4L55.2 82.9L55.01 82.9L55.01 80.4Z" fill="#407BFF" fill-opacity="1.000000" fill-rule="evenodd"/>
	<path id="Vector" d="M55.01 83.64L55.2 83.64L55.2 84.68L55.01 84.68L55.01 83.64Z" fill="#407BFF" fill-opacity="1.000000" fill-rule="evenodd"/>
	<path id="Vector" d="M55.67 71.28L86.43 71.28L86.43 103.87L56.55 103.87C56.31 103.87 56.09 103.78 55.93 103.62C55.76 103.46 55.67 103.24 55.67 103.01L55.67 71.28L55.67 71.28Z" fill="#407BFF" fill-opacity="1.000000" fill-rule="nonzero"/>
	<g opacity="0.200000">
		<path id="Vector" d="M86.43 71.28L55.67 71.28L55.67 73.59L73.37 73.59L73.95 103.87L74.36 73.59L86.43 73.59L86.43 71.28Z" fill="#1919D3" fill-opacity="1.000000" fill-rule="nonzero"/>
	</g>
	<path id="Vector" d="M55.4 66.33L86.43 66.33L86.43 72.93L55.4 72.93C55.29 72.93 55.17 72.89 55.09 72.8C55.01 72.72 54.96 72.61 54.96 72.5L54.96 66.76C54.96 66.7 54.97 66.65 55 66.59C55.02 66.54 55.05 66.49 55.09 66.45C55.13 66.41 55.18 66.38 55.23 66.36C55.29 66.34 55.34 66.33 55.4 66.33Z" fill="#407BFF" fill-opacity="1.000000" fill-rule="nonzero"/>
	<path id="Vector" d="M67.51 103.87L67.19 66.33L73.88 66.33L74.2 103.87L67.51 103.87Z" fill="#00308E" fill-opacity="1.000000" fill-rule="nonzero"/>
	<path id="Vector" d="M98.55 103.87L86.44 103.87L86.44 71.28L99.42 71.28L99.42 103.01C99.42 103.23 99.33 103.45 99.17 103.62C99.01 103.78 98.78 103.87 98.55 103.87Z" fill="#407BFF" fill-opacity="1.000000" fill-rule="nonzero"/>
	<g opacity="0.200000">
		<path id="Vector" d="M98.55 103.87L86.44 103.87L86.44 71.28L99.42 71.28L99.42 103.01C99.42 103.23 99.33 103.45 99.17 103.62C99.01 103.78 98.78 103.87 98.55 103.87Z" fill="#1919D3" fill-opacity="1.000000" fill-rule="nonzero"/>
	</g>
	<g opacity="0.200000">
		<path id="Vector" d="M86.43 71.28L99.42 71.28L99.42 73.59L92.17 73.59L91.19 103.87L91.29 73.59L86.43 73.59L86.43 71.28Z" fill="#1919D3" fill-opacity="1.000000" fill-rule="nonzero"/>
	</g>
	<path id="Vector" d="M99.69 72.93L86.43 72.93L86.43 66.33L99.69 66.33C99.75 66.33 99.8 66.34 99.86 66.36C99.91 66.38 99.96 66.41 100 66.45C100.04 66.49 100.07 66.54 100.1 66.59C100.12 66.65 100.13 66.7 100.13 66.76L100.13 72.5C100.13 72.55 100.12 72.61 100.1 72.66C100.07 72.72 100.04 72.76 100 72.8C99.96 72.84 99.91 72.88 99.86 72.9C99.8 72.92 99.75 72.93 99.69 72.93Z" fill="#407BFF" fill-opacity="1.000000" fill-rule="nonzero"/>
	<g opacity="0.200000">
		<path id="Vector" d="M99.69 72.93L86.43 72.93L86.43 66.33L99.69 66.33C99.75 66.33 99.8 66.34 99.86 66.36C99.91 66.38 99.96 66.41 100 66.45C100.04 66.49 100.07 66.54 100.1 66.59C100.12 66.65 100.13 66.7 100.13 66.76L100.13 72.5C100.13 72.55 100.12 72.61 100.1 72.66C100.07 72.72 100.04 72.76 100 72.8C99.96 72.84 99.91 72.88 99.86 72.9C99.8 72.92 99.75 72.93 99.69 72.93Z" fill="#1919D3" fill-opacity="1.000000" fill-rule="nonzero"/>
	</g>
	<path id="Vector" d="M91.19 103.87L91.75 66.33L95.92 66.33L95.36 103.87L91.19 103.87Z" fill="#00308E" fill-opacity="1.000000" fill-rule="nonzero"/>
	<g opacity="0.200000">
		<path id="Vector" d="M91.19 103.87L91.75 66.33L95.92 66.33L95.36 103.87L91.19 103.87Z" fill="#1919D3" fill-opacity="1.000000" fill-rule="nonzero"/>
	</g>
	<path id="Vector" d="M93.36 53.86L93.36 53.85L87.89 53.85C87.58 53.88 87.27 53.96 86.99 54.1C81.44 56.39 78.74 62.41 77.55 66.32L83.14 66.32C83.14 66.32 96.39 53.49 93.36 53.86Z" fill="#00308E" fill-opacity="1.000000" fill-rule="nonzero"/>
	<g opacity="0.500000">
		<path id="Vector" d="M83.14 66.33C83.14 61.25 87.03 56.4 92.58 54.11C98.13 51.81 83.14 66.33 83.14 66.33Z" fill="#1919D3" fill-opacity="1.000000" fill-rule="nonzero"/>
	</g>
	<path id="Vector" d="M94.79 57.08L90.73 57.08C90.47 57.1 90.22 57.16 89.98 57.26C85.19 58.97 81.45 63.44 79.42 66.34L83.58 66.34C83.58 66.34 97.15 56.8 94.79 57.08Z" fill="#00308E" fill-opacity="1.000000" fill-rule="nonzero"/>
	<g opacity="0.500000">
		<path id="Vector" d="M83.59 66.33C85.55 61.31 89.36 58.96 94.14 57.25C98.93 55.55 83.59 66.33 83.59 66.33Z" fill="#1919D3" fill-opacity="1.000000" fill-rule="nonzero"/>
	</g>
	<path id="Vector" d="M67.45 52.28L67.45 52.27L61.96 52.27C61.86 52.26 61.76 52.29 61.67 52.34C61.59 52.39 61.51 52.46 61.46 52.54C59.75 55.13 67.11 61.92 72.45 66.32L78.05 66.32C78.05 66.32 69.85 51.86 67.45 52.28Z" fill="#00308E" fill-opacity="1.000000" fill-rule="nonzero"/>
	<g opacity="0.500000">
		<path id="Vector" d="M78.05 66.33C72.71 61.92 65.35 55.13 67.06 52.55C68.77 49.96 78.05 66.33 78.05 66.33Z" fill="#1919D3" fill-opacity="1.000000" fill-rule="nonzero"/>
	</g>
	<path id="Vector" d="M73.17 55.91L69.09 55.91C69.01 55.91 68.93 55.93 68.86 55.96C68.78 56 68.72 56.05 68.67 56.11C66.85 58.03 70.89 63.07 73.93 66.34L78.08 66.34C78.08 66.34 75.04 55.58 73.17 55.91Z" fill="#00308E" fill-opacity="1.000000" fill-rule="nonzero"/>
	<g opacity="0.500000">
		<path id="Vector" d="M78.08 66.33C75.04 63.05 71 58.02 72.82 56.09C74.63 54.17 78.08 66.33 78.08 66.33Z" fill="#1919D3" fill-opacity="1.000000" fill-rule="nonzero"/>
	</g>
</svg>
