<svg width="130.000000" height="120.000000" viewBox="0 0 130 120" fill="none" xmlns="http://www.w3.org/2000/svg" xmlns:xlink="http://www.w3.org/1999/xlink">
	<desc>
			Created with Pixso.
	</desc>
	<defs/>
	<rect id="bg" rx="6.000000" width="130.000000" height="120.000000" fill="#F2F7FF" fill-opacity="1.000000"/>
	<path id="Vector" d="M19.26 18.89L24.77 18.89L24.77 35.39L19.26 35.39L19.26 18.89Z" fill="#00308E" fill-opacity="1.000000" fill-rule="evenodd"/>
	<path id="Vector" d="M34.34 16.2L9 40.16L59.68 40.16L34.34 16.2Z" fill="#00308E" fill-opacity="1.000000" fill-rule="nonzero"/>
	<path id="Vector" d="M34.34 18.23L11.14 40.16L57.54 40.16L34.34 18.23Z" fill="#407BFF" fill-opacity="1.000000" fill-rule="nonzero"/>
	<g opacity="0.100000">
		<path id="Vector" d="M24.21 37.68L24.21 36.4L44.47 36.4L44.47 37.68L24.21 37.68Z" fill="#1919D3" fill-opacity="1.000000" fill-rule="evenodd"/>
	</g>
	<g opacity="0.100000">
		<path id="Vector" d="M34.53 24.99L34.53 23.71L30.84 23.71L30.84 24.99L32.68 24.99L32.68 26.26L36.37 26.26L36.37 24.99L34.53 24.99Z" fill="#1919D3" fill-opacity="1.000000" fill-rule="nonzero"/>
	</g>
	<path id="Vector" d="M13.9 38.81L54.78 38.81L54.78 104L13.9 104L13.9 38.81Z" fill="#407BFF" fill-opacity="1.000000" fill-rule="evenodd"/>
	<path id="Vector" d="M13.1 103.17L55.58 103.17L55.58 104L13.1 104L13.1 103.17Z" fill="#407BFF" fill-opacity="1.000000" fill-rule="evenodd"/>
	<path id="Vector" d="M13.35 53.05L13.35 71.49L12.83 71.49L12.83 72.47L13.9 72.47L13.9 71.49L13.9 53.05L13.35 53.05Z" fill="#407BFF" fill-opacity="1.000000" fill-rule="nonzero"/>
	<path id="Vector" d="M55.33 53.05L55.33 71.49L55.85 71.49L55.85 72.47L54.78 72.47L54.78 71.49L54.78 53.05L55.33 53.05Z" fill="#407BFF" fill-opacity="1.000000" fill-rule="nonzero"/>
	<path id="Vector" d="M12.8 41.06L55.88 41.06L55.37 47.52L13.31 47.52L12.8 41.06Z" fill="#407BFF" fill-opacity="1.000000" fill-rule="nonzero"/>
	<g opacity="0.100000">
		<path id="Vector" d="M13.9 40.16L54.78 40.16L54.78 41.06L13.9 41.06L13.9 40.16Z" fill="#1919D3" fill-opacity="1.000000" fill-rule="evenodd"/>
	</g>
	<g opacity="0.100000">
		<path id="Vector" d="M13.9 47.47L54.78 47.47L54.78 48.37L13.9 48.37L13.9 47.47Z" fill="#1919D3" fill-opacity="1.000000" fill-rule="evenodd"/>
	</g>
	<g opacity="0.400000">
		<path id="Vector" d="M34.34 28.18C32.03 28.18 29.82 29.04 28.19 30.59C26.56 32.13 25.64 34.22 25.64 36.4L43.04 36.4C43.04 34.22 42.12 32.13 40.49 30.59C38.86 29.05 36.65 28.18 34.34 28.18Z" fill="#FFFFFF" fill-opacity="1.000000" fill-rule="nonzero"/>
	</g>
	<g opacity="0.300000">
		<path id="Vector" d="M35.57 30.17C33.83 30.17 32.15 30.83 30.91 32C29.68 33.17 28.98 34.75 28.98 36.4L42.16 36.4C42.16 34.75 41.47 33.17 40.23 32C39 30.83 37.32 30.17 35.57 30.17Z" fill="#407BFF" fill-opacity="1.000000" fill-rule="nonzero"/>
	</g>
	<g opacity="0.100000">
		<path id="Vector" d="M14.76 42.32L15.25 42.32L15.25 46.26L14.76 46.26L14.76 42.32Z" fill="#1919D3" fill-opacity="1.000000" fill-rule="evenodd"/>
	</g>
	<g opacity="0.100000">
		<path id="Vector" d="M17.18 42.32L17.67 42.32L17.67 46.26L17.18 46.26L17.18 42.32Z" fill="#1919D3" fill-opacity="1.000000" fill-rule="evenodd"/>
	</g>
	<g opacity="0.100000">
		<path id="Vector" d="M19.6 42.32L20.09 42.32L20.09 46.26L19.6 46.26L19.6 42.32Z" fill="#1919D3" fill-opacity="1.000000" fill-rule="evenodd"/>
	</g>
	<g opacity="0.100000">
		<path id="Vector" d="M22.01 42.32L22.5 42.32L22.5 46.26L22.01 46.26L22.01 42.32Z" fill="#1919D3" fill-opacity="1.000000" fill-rule="evenodd"/>
	</g>
	<g opacity="0.100000">
		<path id="Vector" d="M24.43 42.32L24.92 42.32L24.92 46.26L24.43 46.26L24.43 42.32Z" fill="#1919D3" fill-opacity="1.000000" fill-rule="evenodd"/>
	</g>
	<g opacity="0.100000">
		<path id="Vector" d="M26.84 42.32L27.34 42.32L27.34 46.26L26.84 46.26L26.84 42.32Z" fill="#1919D3" fill-opacity="1.000000" fill-rule="evenodd"/>
	</g>
	<g opacity="0.100000">
		<path id="Vector" d="M29.26 42.32L29.75 42.32L29.75 46.26L29.26 46.26L29.26 42.32Z" fill="#1919D3" fill-opacity="1.000000" fill-rule="evenodd"/>
	</g>
	<g opacity="0.100000">
		<path id="Vector" d="M31.68 42.32L32.17 42.32L32.17 46.26L31.68 46.26L31.68 42.32Z" fill="#1919D3" fill-opacity="1.000000" fill-rule="evenodd"/>
	</g>
	<g opacity="0.100000">
		<path id="Vector" d="M34.09 42.32L34.58 42.32L34.58 46.26L34.09 46.26L34.09 42.32Z" fill="#1919D3" fill-opacity="1.000000" fill-rule="evenodd"/>
	</g>
	<g opacity="0.100000">
		<path id="Vector" d="M36.51 42.32L37 42.32L37 46.26L36.51 46.26L36.51 42.32Z" fill="#1919D3" fill-opacity="1.000000" fill-rule="evenodd"/>
	</g>
	<g opacity="0.100000">
		<path id="Vector" d="M38.93 42.32L39.42 42.32L39.42 46.26L38.93 46.26L38.93 42.32Z" fill="#1919D3" fill-opacity="1.000000" fill-rule="evenodd"/>
	</g>
	<g opacity="0.100000">
		<path id="Vector" d="M41.34 42.32L41.84 42.32L41.84 46.26L41.34 46.26L41.34 42.32Z" fill="#1919D3" fill-opacity="1.000000" fill-rule="evenodd"/>
	</g>
	<g opacity="0.100000">
		<path id="Vector" d="M43.76 42.32L44.25 42.32L44.25 46.26L43.76 46.26L43.76 42.32Z" fill="#1919D3" fill-opacity="1.000000" fill-rule="evenodd"/>
	</g>
	<g opacity="0.100000">
		<path id="Vector" d="M46.17 42.32L46.67 42.32L46.67 46.26L46.17 46.26L46.17 42.32Z" fill="#1919D3" fill-opacity="1.000000" fill-rule="evenodd"/>
	</g>
	<g opacity="0.100000">
		<path id="Vector" d="M48.59 42.32L49.08 42.32L49.08 46.26L48.59 46.26L48.59 42.32Z" fill="#1919D3" fill-opacity="1.000000" fill-rule="evenodd"/>
	</g>
	<g opacity="0.100000">
		<path id="Vector" d="M51.01 42.32L51.5 42.32L51.5 46.26L51.01 46.26L51.01 42.32Z" fill="#1919D3" fill-opacity="1.000000" fill-rule="evenodd"/>
	</g>
	<g opacity="0.100000">
		<path id="Vector" d="M53.43 42.32L53.92 42.32L53.92 46.26L53.43 46.26L53.43 42.32Z" fill="#1919D3" fill-opacity="1.000000" fill-rule="evenodd"/>
	</g>
	<g opacity="0.100000">
		<path id="Vector" d="M15.25 73.74L15.73 73.74L15.73 74.8L15.25 74.8L15.25 73.74Z" fill="#1919D3" fill-opacity="1.000000" fill-rule="evenodd"/>
	</g>
	<g opacity="0.100000">
		<path id="Vector" d="M17.61 73.74L18.09 73.74L18.09 74.8L17.61 74.8L17.61 73.74Z" fill="#1919D3" fill-opacity="1.000000" fill-rule="evenodd"/>
	</g>
	<g opacity="0.100000">
		<path id="Vector" d="M19.96 73.74L20.44 73.74L20.44 74.8L19.96 74.8L19.96 73.74Z" fill="#1919D3" fill-opacity="1.000000" fill-rule="evenodd"/>
	</g>
	<g opacity="0.100000">
		<path id="Vector" d="M22.32 73.74L22.8 73.74L22.8 74.8L22.32 74.8L22.32 73.74Z" fill="#1919D3" fill-opacity="1.000000" fill-rule="evenodd"/>
	</g>
	<g opacity="0.100000">
		<path id="Vector" d="M24.68 73.74L25.15 73.74L25.15 74.8L24.68 74.8L24.68 73.74Z" fill="#1919D3" fill-opacity="1.000000" fill-rule="evenodd"/>
	</g>
	<g opacity="0.100000">
		<path id="Vector" d="M27.03 73.74L27.51 73.74L27.51 74.8L27.03 74.8L27.03 73.74Z" fill="#1919D3" fill-opacity="1.000000" fill-rule="evenodd"/>
	</g>
	<g opacity="0.100000">
		<path id="Vector" d="M29.39 73.74L29.87 73.74L29.87 74.8L29.39 74.8L29.39 73.74Z" fill="#1919D3" fill-opacity="1.000000" fill-rule="evenodd"/>
	</g>
	<g opacity="0.100000">
		<path id="Vector" d="M31.75 73.74L32.22 73.74L32.22 74.8L31.75 74.8L31.75 73.74Z" fill="#1919D3" fill-opacity="1.000000" fill-rule="evenodd"/>
	</g>
	<g opacity="0.100000">
		<path id="Vector" d="M34.1 73.74L34.58 73.74L34.58 74.8L34.1 74.8L34.1 73.74Z" fill="#1919D3" fill-opacity="1.000000" fill-rule="evenodd"/>
	</g>
	<g opacity="0.100000">
		<path id="Vector" d="M36.46 73.74L36.93 73.74L36.93 74.8L36.46 74.8L36.46 73.74Z" fill="#1919D3" fill-opacity="1.000000" fill-rule="evenodd"/>
	</g>
	<g opacity="0.100000">
		<path id="Vector" d="M38.81 73.74L39.29 73.74L39.29 74.8L38.81 74.8L38.81 73.74Z" fill="#1919D3" fill-opacity="1.000000" fill-rule="evenodd"/>
	</g>
	<g opacity="0.100000">
		<path id="Vector" d="M41.17 73.74L41.65 73.74L41.65 74.8L41.17 74.8L41.17 73.74Z" fill="#1919D3" fill-opacity="1.000000" fill-rule="evenodd"/>
	</g>
	<g opacity="0.100000">
		<path id="Vector" d="M43.52 73.74L44 73.74L44 74.8L43.52 74.8L43.52 73.74Z" fill="#1919D3" fill-opacity="1.000000" fill-rule="evenodd"/>
	</g>
	<g opacity="0.100000">
		<path id="Vector" d="M45.88 73.74L46.36 73.74L46.36 74.8L45.88 74.8L45.88 73.74Z" fill="#1919D3" fill-opacity="1.000000" fill-rule="evenodd"/>
	</g>
	<g opacity="0.100000">
		<path id="Vector" d="M48.24 73.74L48.72 73.74L48.72 74.8L48.24 74.8L48.24 73.74Z" fill="#1919D3" fill-opacity="1.000000" fill-rule="evenodd"/>
	</g>
	<g opacity="0.100000">
		<path id="Vector" d="M50.59 73.74L51.07 73.74L51.07 74.8L50.59 74.8L50.59 73.74Z" fill="#1919D3" fill-opacity="1.000000" fill-rule="evenodd"/>
	</g>
	<g opacity="0.100000">
		<path id="Vector" d="M52.95 73.74L53.43 73.74L53.43 74.8L52.95 74.8L52.95 73.74Z" fill="#1919D3" fill-opacity="1.000000" fill-rule="evenodd"/>
	</g>
	<g opacity="0.400000">
		<path id="Vector" d="M27.35 53.05L27.35 71.49L17.92 71.49L17.92 53.05L27.35 53.05Z" fill="#FFFFFF" fill-opacity="1.000000" fill-rule="evenodd"/>
	</g>
	<g opacity="0.100000">
		<path id="Vector" d="M17.85 72.47L17.85 71.49L27.35 71.49L27.35 72.47L17.85 72.47Z" fill="#1919D3" fill-opacity="1.000000" fill-rule="evenodd"/>
	</g>
	<g opacity="0.400000">
		<path id="Vector" d="M27.35 61.71L27.35 62.83L17.92 62.83L17.92 61.71L27.35 61.71Z" fill="#FFFFFF" fill-opacity="1.000000" fill-rule="evenodd"/>
	</g>
	<g opacity="0.400000">
		<path id="Vector" d="M18.63 53.73L26.64 53.73L26.64 70.82L18.63 70.82L18.63 53.73Z" fill="#FFFFFF" fill-opacity="1.000000" fill-rule="evenodd"/>
	</g>
	<g opacity="0.300000">
		<path id="Vector" d="M19.84 56.57L26.04 56.57L26.04 70.82L19.84 70.82L19.84 56.57Z" fill="#407BFF" fill-opacity="1.000000" fill-rule="evenodd"/>
	</g>
	<g opacity="0.400000">
		<path id="Vector" d="M46.51 53.05L46.51 71.49L37.08 71.49L37.08 53.05L46.51 53.05Z" fill="#FFFFFF" fill-opacity="1.000000" fill-rule="evenodd"/>
	</g>
	<g opacity="0.100000">
		<path id="Vector" d="M32.74 72.47L32.74 71.49L50.86 71.49L50.86 72.47L32.74 72.47Z" fill="#1919D3" fill-opacity="1.000000" fill-rule="evenodd"/>
	</g>
	<g opacity="0.400000">
		<path id="Vector" d="M46.51 61.71L46.51 62.84L37.08 62.84L37.08 61.71L46.51 61.71Z" fill="#FFFFFF" fill-opacity="1.000000" fill-rule="evenodd"/>
	</g>
	<g opacity="0.400000">
		<path id="Vector" d="M37.79 53.73L45.8 53.73L45.8 70.82L37.79 70.82L37.79 53.73Z" fill="#FFFFFF" fill-opacity="1.000000" fill-rule="evenodd"/>
	</g>
	<g opacity="0.300000">
		<path id="Vector" d="M39 56.57L45.2 56.57L45.2 70.82L39 70.82L39 56.57Z" fill="#407BFF" fill-opacity="1.000000" fill-rule="evenodd"/>
	</g>
	<g opacity="0.400000">
		<path id="Vector" d="M50.86 53.05L50.86 71.49L47.78 71.49L47.78 53.05L50.86 53.05Z" fill="#FFFFFF" fill-opacity="1.000000" fill-rule="evenodd"/>
	</g>
	<g opacity="0.400000">
		<path id="Vector" d="M50.86 61.71L50.86 62.83L47.78 62.83L47.78 61.71L50.86 61.71Z" fill="#FFFFFF" fill-opacity="1.000000" fill-rule="evenodd"/>
	</g>
	<g opacity="0.400000">
		<path id="Vector" d="M48.49 53.73L50.14 53.73L50.14 70.82L48.49 70.82L48.49 53.73Z" fill="#FFFFFF" fill-opacity="1.000000" fill-rule="evenodd"/>
	</g>
	<g opacity="0.400000">
		<path id="Vector" d="M35.81 53.05L35.81 71.49L32.73 71.49L32.73 53.05L35.81 53.05Z" fill="#FFFFFF" fill-opacity="1.000000" fill-rule="evenodd"/>
	</g>
	<g opacity="0.400000">
		<path id="Vector" d="M35.81 61.71L35.81 62.83L32.73 62.83L32.73 61.71L35.81 61.71Z" fill="#FFFFFF" fill-opacity="1.000000" fill-rule="evenodd"/>
	</g>
	<g opacity="0.400000">
		<path id="Vector" d="M33.45 53.73L35.1 53.73L35.1 70.82L33.45 70.82L33.45 53.73Z" fill="#FFFFFF" fill-opacity="1.000000" fill-rule="evenodd"/>
	</g>
	<g opacity="0.400000">
		<path id="Vector" d="M46.51 77.88L46.51 96.32L37.08 96.32L37.08 77.88L46.51 77.88Z" fill="#FFFFFF" fill-opacity="1.000000" fill-rule="evenodd"/>
	</g>
	<g opacity="0.100000">
		<path id="Vector" d="M32.74 97.3L32.74 96.32L50.86 96.32L50.86 97.3L32.74 97.3Z" fill="#1919D3" fill-opacity="1.000000" fill-rule="evenodd"/>
	</g>
	<g opacity="0.400000">
		<path id="Vector" d="M46.51 86.54L46.51 87.67L37.08 87.67L37.08 86.54L46.51 86.54Z" fill="#FFFFFF" fill-opacity="1.000000" fill-rule="evenodd"/>
	</g>
	<g opacity="0.400000">
		<path id="Vector" d="M37.79 78.56L45.8 78.56L45.8 95.65L37.79 95.65L37.79 78.56Z" fill="#FFFFFF" fill-opacity="1.000000" fill-rule="evenodd"/>
	</g>
	<g opacity="0.300000">
		<path id="Vector" d="M39 81.41L45.2 81.41L45.2 95.65L39 95.65L39 81.41Z" fill="#407BFF" fill-opacity="1.000000" fill-rule="evenodd"/>
	</g>
	<g opacity="0.400000">
		<path id="Vector" d="M50.85 77.88L50.85 96.33L47.77 96.33L47.77 77.88L50.85 77.88Z" fill="#FFFFFF" fill-opacity="1.000000" fill-rule="evenodd"/>
	</g>
	<g opacity="0.400000">
		<path id="Vector" d="M50.85 86.54L50.85 87.67L47.77 87.67L47.77 86.54L50.85 86.54Z" fill="#FFFFFF" fill-opacity="1.000000" fill-rule="evenodd"/>
	</g>
	<g opacity="0.400000">
		<path id="Vector" d="M48.49 78.56L50.14 78.56L50.14 95.65L48.49 95.65L48.49 78.56Z" fill="#FFFFFF" fill-opacity="1.000000" fill-rule="evenodd"/>
	</g>
	<g opacity="0.400000">
		<path id="Vector" d="M35.81 77.88L35.81 96.33L32.73 96.33L32.73 77.88L35.81 77.88Z" fill="#FFFFFF" fill-opacity="1.000000" fill-rule="evenodd"/>
	</g>
	<g opacity="0.400000">
		<path id="Vector" d="M35.81 86.54L35.81 87.67L32.73 87.67L32.73 86.54L35.81 86.54Z" fill="#FFFFFF" fill-opacity="1.000000" fill-rule="evenodd"/>
	</g>
	<g opacity="0.400000">
		<path id="Vector" d="M33.45 78.56L35.1 78.56L35.1 95.65L33.45 95.65L33.45 78.56Z" fill="#FFFFFF" fill-opacity="1.000000" fill-rule="evenodd"/>
	</g>
	<g opacity="0.100000">
		<path id="Vector" d="M30.72 102.35L30.72 100.71L16.59 100.71L16.59 102.35L15.69 102.35L15.69 104L31.62 104L31.62 102.35L30.72 102.35Z" fill="#1919D3" fill-opacity="1.000000" fill-rule="nonzero"/>
	</g>
	<g opacity="0.400000">
		<path id="Vector" d="M23.66 77.88C25.31 77.88 26.89 78.5 28.06 79.61C29.22 80.71 29.88 82.2 29.88 83.76L29.88 100.71L17.42 100.71L17.42 83.76C17.42 82.99 17.59 82.22 17.9 81.51C18.21 80.8 18.67 80.15 19.25 79.6C19.83 79.06 20.52 78.62 21.27 78.33C22.03 78.03 22.84 77.88 23.66 77.88Z" fill="#FFFFFF" fill-opacity="1.000000" fill-rule="nonzero"/>
	</g>
	<g opacity="0.500000">
		<path id="Vector" d="M18.66 84.31L28.64 84.31L28.64 100.71L18.66 100.71L18.66 84.31Z" fill="#407BFF" fill-opacity="1.000000" fill-rule="evenodd"/>
	</g>
	<g opacity="0.500000">
		<path id="Vector" d="M23.66 79.03C23.16 79.03 22.66 79.12 22.2 79.3C21.74 79.48 21.32 79.75 20.97 80.08C20.62 80.41 20.34 80.81 20.14 81.24C19.95 81.68 19.85 82.15 19.85 82.62L27.46 82.62C27.46 82.15 27.36 81.68 27.17 81.24C26.98 80.81 26.7 80.41 26.34 80.08C25.99 79.75 25.57 79.48 25.11 79.3C24.65 79.12 24.16 79.03 23.66 79.03Z" fill="#407BFF" fill-opacity="1.000000" fill-rule="nonzero"/>
	</g>
	<path id="Vector" d="M28.09 92.51C28.09 92.63 28.05 92.75 27.98 92.85C27.91 92.95 27.81 93.02 27.69 93.07C27.58 93.11 27.45 93.13 27.32 93.1C27.2 93.08 27.09 93.02 27 92.94C26.91 92.85 26.85 92.75 26.82 92.63C26.8 92.51 26.81 92.39 26.86 92.28C26.91 92.17 26.99 92.07 27.09 92.01C27.2 91.94 27.32 91.91 27.45 91.91C27.62 91.91 27.78 91.97 27.9 92.08C28.02 92.2 28.09 92.35 28.09 92.51Z" fill="#407BFF" fill-opacity="1.000000" fill-rule="nonzero"/>
	<g opacity="0.100000">
		<path id="Vector" d="M22.26 52.15L22.26 50.88L25.94 50.88L25.94 52.15L22.26 52.15Z" fill="#1919D3" fill-opacity="1.000000" fill-rule="evenodd"/>
	</g>
	<g opacity="0.100000">
		<path id="Vector" d="M39.57 50.38L39.57 49.1L43.25 49.1L43.25 50.38L39.57 50.38Z" fill="#1919D3" fill-opacity="1.000000" fill-rule="evenodd"/>
	</g>
	<g opacity="0.100000">
		<path id="Vector" d="M48.7 100.17L48.7 98.9L45.01 98.9L45.01 100.17L46.85 100.17L46.85 101.45L50.54 101.45L50.54 100.17L48.7 100.17Z" fill="#1919D3" fill-opacity="1.000000" fill-rule="nonzero"/>
	</g>
	<path id="Vector" d="M62.81 25.99L103.07 25.99L103.07 104L62.81 104L62.81 25.99Z" fill="#407BFF" fill-opacity="1.000000" fill-rule="evenodd"/>
	<path id="Vector" d="M68.52 16.56C68.48 16.56 68.45 16.57 68.41 16.58C68.38 16.59 68.34 16.61 68.32 16.64C68.29 16.66 68.27 16.69 68.25 16.73C68.24 16.76 68.23 16.8 68.23 16.83L68.23 24.73L68.81 24.73L68.81 16.83C68.81 16.76 68.78 16.69 68.73 16.64C68.67 16.59 68.6 16.56 68.52 16.56Z" fill="#00308E" fill-opacity="1.000000" fill-rule="nonzero"/>
	<path id="Vector" d="M97.16 22.19C97.09 22.19 97.01 22.22 96.96 22.27C96.91 22.32 96.88 22.39 96.88 22.46L96.88 24.73L97.45 24.73L97.45 22.46C97.45 22.43 97.45 22.39 97.43 22.36C97.42 22.32 97.4 22.29 97.37 22.27C97.34 22.24 97.31 22.22 97.28 22.21C97.24 22.2 97.2 22.19 97.16 22.19Z" fill="#00308E" fill-opacity="1.000000" fill-rule="nonzero"/>
	<path id="Vector" d="M72.75 18.62L73.33 18.62L73.33 24.73L72.75 24.73L72.75 18.62Z" fill="#00308E" fill-opacity="1.000000" fill-rule="evenodd"/>
	<path id="Vector" d="M77.53 17.11C78.38 19.3 77.78 21.53 76.2 22.07C74.61 22.62 72.64 21.28 71.8 19.08C70.95 16.88 71.55 14.66 73.13 14.12C74.72 13.57 76.69 14.91 77.53 17.11Z" fill="#00308E" fill-opacity="1.000000" fill-rule="nonzero"/>
	<path id="Vector" d="M103.07 66.22L117.63 75.45L117.63 104L103.07 104L103.07 66.22Z" fill="#407BFF" fill-opacity="1.000000" fill-rule="nonzero"/>
	<g opacity="0.100000">
		<path id="Vector" d="M103.07 66.22L117.63 75.45L117.63 104L103.07 104L103.07 66.22Z" fill="#1919D3" fill-opacity="1.000000" fill-rule="nonzero"/>
	</g>
	<g opacity="0.100000">
		<path id="Vector" d="M114.17 95.84L114.17 94.45L110.17 94.45L110.17 95.84L112.17 95.84L112.17 97.22L116.17 97.22L116.17 95.84L114.17 95.84Z" fill="#1919D3" fill-opacity="1.000000" fill-rule="nonzero"/>
	</g>
	<path id="Vector" d="M119 76.86L103.07 66.7L103.07 65.15L119 75.31L119 76.86Z" fill="#00308E" fill-opacity="1.000000" fill-rule="nonzero"/>
	<g opacity="0.400000">
		<path id="Vector" d="M115.11 78.08L115.11 90.25L105.23 90.25L105.23 78.08L115.11 78.08Z" fill="#FFFFFF" fill-opacity="1.000000" fill-rule="evenodd"/>
	</g>
	<g opacity="0.400000">
		<path id="Vector" d="M115.11 83.79L115.11 84.53L105.23 84.53L105.23 83.79L115.11 83.79Z" fill="#FFFFFF" fill-opacity="1.000000" fill-rule="evenodd"/>
	</g>
	<g opacity="0.400000">
		<path id="Vector" d="M105.66 78.52L114.68 78.52L114.68 89.8L105.66 89.8L105.66 78.52Z" fill="#FFFFFF" fill-opacity="1.000000" fill-rule="evenodd"/>
	</g>
	<g opacity="0.300000">
		<path id="Vector" d="M106.38 80.4L114.32 80.4L114.32 89.8L106.38 89.8L106.38 80.4Z" fill="#407BFF" fill-opacity="1.000000" fill-rule="evenodd"/>
	</g>
	<path id="Vector" d="M103.07 25.99L62.81 25.99L62.26 25.16L103.62 25.16L103.07 25.99Z" fill="#407BFF" fill-opacity="1.000000" fill-rule="nonzero"/>
	<g opacity="0.200000">
		<path id="Vector" d="M103.07 25.99L62.81 25.99L62.26 25.16L103.62 25.16L103.07 25.99Z" fill="#1919D3" fill-opacity="1.000000" fill-rule="nonzero"/>
	</g>
	<path id="Vector" d="M103.85 25.16L62.02 25.16L61.45 24.3L104.42 24.3L103.85 25.16Z" fill="#00308E" fill-opacity="1.000000" fill-rule="nonzero"/>
	<g opacity="0.200000">
		<path id="Vector" d="M64.09 28.04L67.52 28.04L67.52 35.84L64.09 35.84L64.09 28.04Z" fill="#1919D3" fill-opacity="1.000000" fill-rule="evenodd"/>
	</g>
	<g opacity="0.400000">
		<path id="Vector" d="M64.6 29.19L67.01 29.19L67.01 34.69L64.6 34.69L64.6 29.19Z" fill="#407BFF" fill-opacity="1.000000" fill-rule="evenodd"/>
	</g>
	<g opacity="0.200000">
		<path id="Vector" d="M98.36 28.04L101.78 28.04L101.78 35.84L98.36 35.84L98.36 28.04Z" fill="#1919D3" fill-opacity="1.000000" fill-rule="evenodd"/>
	</g>
	<g opacity="0.400000">
		<path id="Vector" d="M98.86 29.19L101.27 29.19L101.27 34.69L98.86 34.69L98.86 29.19Z" fill="#407BFF" fill-opacity="1.000000" fill-rule="evenodd"/>
	</g>
	<g opacity="0.200000">
		<path id="Vector" d="M91.44 28.04L96.88 28.04L96.88 35.84L91.44 35.84L91.44 28.04Z" fill="#1919D3" fill-opacity="1.000000" fill-rule="evenodd"/>
	</g>
	<g opacity="0.400000">
		<path id="Vector" d="M92.25 29.19L96.08 29.19L96.08 34.69L92.25 34.69L92.25 29.19Z" fill="#407BFF" fill-opacity="1.000000" fill-rule="evenodd"/>
	</g>
	<g opacity="0.200000">
		<path id="Vector" d="M69 28.04L74.43 28.04L74.43 35.84L69 35.84L69 28.04Z" fill="#1919D3" fill-opacity="1.000000" fill-rule="evenodd"/>
	</g>
	<g opacity="0.400000">
		<path id="Vector" d="M69.8 29.19L73.63 29.19L73.63 34.69L69.8 34.69L69.8 29.19Z" fill="#407BFF" fill-opacity="1.000000" fill-rule="evenodd"/>
	</g>
	<g opacity="0.200000">
		<path id="Vector" d="M76.07 28.04L89.81 28.04L89.81 35.84L76.07 35.84L76.07 28.04Z" fill="#1919D3" fill-opacity="1.000000" fill-rule="evenodd"/>
	</g>
	<g opacity="0.400000">
		<path id="Vector" d="M78.1 29.19L87.78 29.19L87.78 34.69L78.1 34.69L78.1 29.19Z" fill="#407BFF" fill-opacity="1.000000" fill-rule="evenodd"/>
	</g>
	<g opacity="0.400000">
		<path id="Vector" d="M81.19 42.5L81.19 64.57L70.95 64.57L70.95 42.5L81.19 42.5Z" fill="#FFFFFF" fill-opacity="1.000000" fill-rule="evenodd"/>
	</g>
	<g opacity="0.100000">
		<path id="Vector" d="M66.24 65.15L66.24 64.57L85.9 64.57L85.9 65.15L66.24 65.15Z" fill="#1919D3" fill-opacity="1.000000" fill-rule="evenodd"/>
	</g>
	<g opacity="0.400000">
		<path id="Vector" d="M81.19 52.86L81.19 54.21L70.95 54.21L70.95 52.86L81.19 52.86Z" fill="#FFFFFF" fill-opacity="1.000000" fill-rule="evenodd"/>
	</g>
	<g opacity="0.400000">
		<path id="Vector" d="M71.72 43.3L80.41 43.3L80.41 63.76L71.72 63.76L71.72 43.3Z" fill="#FFFFFF" fill-opacity="1.000000" fill-rule="evenodd"/>
	</g>
	<g opacity="0.300000">
		<path id="Vector" d="M73.04 46.71L79.76 46.71L79.76 63.76L73.04 63.76L73.04 46.71Z" fill="#407BFF" fill-opacity="1.000000" fill-rule="evenodd"/>
	</g>
	<g opacity="0.400000">
		<path id="Vector" d="M85.89 42.49L85.89 64.57L82.56 64.57L82.56 42.49L85.89 42.49Z" fill="#FFFFFF" fill-opacity="1.000000" fill-rule="evenodd"/>
	</g>
	<g opacity="0.400000">
		<path id="Vector" d="M85.89 52.86L85.89 54.2L82.56 54.2L82.56 52.86L85.89 52.86Z" fill="#FFFFFF" fill-opacity="1.000000" fill-rule="evenodd"/>
	</g>
	<g opacity="0.400000">
		<path id="Vector" d="M83.33 43.3L85.12 43.3L85.12 63.76L83.33 63.76L83.33 43.3Z" fill="#FFFFFF" fill-opacity="1.000000" fill-rule="evenodd"/>
	</g>
	<g opacity="0.400000">
		<path id="Vector" d="M69.58 42.5L69.58 64.57L66.24 64.57L66.24 42.5L69.58 42.5Z" fill="#FFFFFF" fill-opacity="1.000000" fill-rule="evenodd"/>
	</g>
	<g opacity="0.400000">
		<path id="Vector" d="M69.58 52.86L69.58 54.2L66.24 54.2L66.24 52.86L69.58 52.86Z" fill="#FFFFFF" fill-opacity="1.000000" fill-rule="evenodd"/>
	</g>
	<g opacity="0.400000">
		<path id="Vector" d="M67.01 43.3L68.8 43.3L68.8 63.76L67.01 63.76L67.01 43.3Z" fill="#FFFFFF" fill-opacity="1.000000" fill-rule="evenodd"/>
	</g>
	<g opacity="0.400000">
		<path id="Vector" d="M81.19 69.98L81.19 92.05L70.95 92.05L70.95 69.98L81.19 69.98Z" fill="#FFFFFF" fill-opacity="1.000000" fill-rule="evenodd"/>
	</g>
	<g opacity="0.100000">
		<path id="Vector" d="M66.24 92.64L66.24 92.05L85.89 92.05L85.89 92.64L66.24 92.64Z" fill="#1919D3" fill-opacity="1.000000" fill-rule="evenodd"/>
	</g>
	<g opacity="0.400000">
		<path id="Vector" d="M81.19 80.34L81.19 81.69L70.95 81.69L70.95 80.34L81.19 80.34Z" fill="#FFFFFF" fill-opacity="1.000000" fill-rule="evenodd"/>
	</g>
	<g opacity="0.400000">
		<path id="Vector" d="M71.72 70.79L80.41 70.79L80.41 91.25L71.72 91.25L71.72 70.79Z" fill="#FFFFFF" fill-opacity="1.000000" fill-rule="evenodd"/>
	</g>
	<g opacity="0.300000">
		<path id="Vector" d="M73.04 74.2L79.76 74.2L79.76 91.25L73.04 91.25L73.04 74.2Z" fill="#407BFF" fill-opacity="1.000000" fill-rule="evenodd"/>
	</g>
	<g opacity="0.400000">
		<path id="Vector" d="M85.9 69.98L85.9 92.05L82.56 92.05L82.56 69.98L85.9 69.98Z" fill="#FFFFFF" fill-opacity="1.000000" fill-rule="evenodd"/>
	</g>
	<g opacity="0.400000">
		<path id="Vector" d="M85.9 80.34L85.9 81.69L82.56 81.69L82.56 80.34L85.9 80.34Z" fill="#FFFFFF" fill-opacity="1.000000" fill-rule="evenodd"/>
	</g>
	<g opacity="0.400000">
		<path id="Vector" d="M83.33 70.79L85.12 70.79L85.12 91.25L83.33 91.25L83.33 70.79Z" fill="#FFFFFF" fill-opacity="1.000000" fill-rule="evenodd"/>
	</g>
	<g opacity="0.400000">
		<path id="Vector" d="M69.58 69.98L69.58 92.05L66.24 92.05L66.24 69.98L69.58 69.98Z" fill="#FFFFFF" fill-opacity="1.000000" fill-rule="evenodd"/>
	</g>
	<g opacity="0.400000">
		<path id="Vector" d="M69.58 80.34L69.58 81.69L66.24 81.69L66.24 80.34L69.58 80.34Z" fill="#FFFFFF" fill-opacity="1.000000" fill-rule="evenodd"/>
	</g>
	<g opacity="0.400000">
		<path id="Vector" d="M67.01 70.79L68.8 70.79L68.8 91.25L67.01 91.25L67.01 70.79Z" fill="#FFFFFF" fill-opacity="1.000000" fill-rule="evenodd"/>
	</g>
	<g opacity="0.400000">
		<path id="Vector" d="M100.04 42.5L100.04 64.57L89.81 64.57L89.81 42.5L100.04 42.5Z" fill="#FFFFFF" fill-opacity="1.000000" fill-rule="evenodd"/>
	</g>
	<g opacity="0.100000">
		<path id="Vector" d="M89.81 65.16L89.81 64.57L100.05 64.57L100.05 65.16L89.81 65.16Z" fill="#1919D3" fill-opacity="1.000000" fill-rule="evenodd"/>
	</g>
	<g opacity="0.400000">
		<path id="Vector" d="M100.04 52.86L100.04 54.2L89.81 54.2L89.81 52.86L100.04 52.86Z" fill="#FFFFFF" fill-opacity="1.000000" fill-rule="evenodd"/>
	</g>
	<g opacity="0.400000">
		<path id="Vector" d="M90.58 43.3L99.27 43.3L99.27 63.76L90.58 63.76L90.58 43.3Z" fill="#FFFFFF" fill-opacity="1.000000" fill-rule="evenodd"/>
	</g>
	<g opacity="0.300000">
		<path id="Vector" d="M91.9 46.71L98.62 46.71L98.62 63.76L91.9 63.76L91.9 46.71Z" fill="#407BFF" fill-opacity="1.000000" fill-rule="evenodd"/>
	</g>
	<g opacity="0.100000">
		<path id="Vector" d="M72.23 39.17L72.23 37.79L68.23 37.79L68.23 39.17L70.23 39.17L70.23 40.55L74.23 40.55L74.23 39.17L72.23 39.17Z" fill="#1919D3" fill-opacity="1.000000" fill-rule="nonzero"/>
	</g>
	<g opacity="0.100000">
		<path id="Vector" d="M91.58 68.6L91.58 67.21L87.58 67.21L87.58 68.6L89.58 68.6L89.58 69.98L93.58 69.98L93.58 68.6L91.58 68.6Z" fill="#1919D3" fill-opacity="1.000000" fill-rule="nonzero"/>
	</g>
	<g opacity="0.100000">
		<path id="Vector" d="M83.12 38.48L83.12 37.09L87.12 37.09L87.12 38.48L83.12 38.48Z" fill="#1919D3" fill-opacity="1.000000" fill-rule="evenodd"/>
	</g>
	<g opacity="0.100000">
		<path id="Vector" d="M67.58 96.95L67.58 95.57L71.58 95.57L71.58 96.95L67.58 96.95Z" fill="#1919D3" fill-opacity="1.000000" fill-rule="evenodd"/>
	</g>
	<g opacity="0.100000">
		<path id="Vector" d="M77.19 100.92L77.19 99.53L81.19 99.53L81.19 100.92L77.19 100.92Z" fill="#1919D3" fill-opacity="1.000000" fill-rule="evenodd"/>
	</g>
	<g opacity="0.100000">
		<path id="Vector" d="M104.82 75.16L104.82 73.78L108.82 73.78L108.82 75.16L104.82 75.16Z" fill="#1919D3" fill-opacity="1.000000" fill-rule="evenodd"/>
	</g>
	<g opacity="0.100000">
		<path id="Vector" d="M101.31 101.35L101.31 98.7L100.82 98.7L100.82 96.05L88.58 96.05L88.58 98.7L88.09 98.7L88.09 101.35L87.51 101.35L87.51 104L101.89 104L101.89 101.35L101.31 101.35Z" fill="#1919D3" fill-opacity="1.000000" fill-rule="nonzero"/>
	</g>
	<g opacity="0.100000">
		<path id="Vector" d="M100.82 73.05L100.82 96.05L88.57 96.05L88.57 73.05L100.82 73.05Z" fill="#00308E" fill-opacity="1.000000" fill-rule="evenodd"/>
	</g>
	<g opacity="0.300000">
		<path id="Vector" d="M89.35 73.78L100.05 73.78L100.05 96.05L89.35 96.05L89.35 73.78Z" fill="#00308E" fill-opacity="1.000000" fill-rule="evenodd"/>
	</g>
	<g opacity="0.600000">
		<path id="Vector" d="M91.14 76.15L94.41 76.15L94.41 79.24L91.14 79.24L91.14 76.15Z" fill="#407BFF" fill-opacity="1.000000" fill-rule="evenodd"/>
		<path id="Vector" d="M94.99 76.15L98.26 76.15L98.26 79.24L94.99 79.24L94.99 76.15Z" fill="#407BFF" fill-opacity="1.000000" fill-rule="evenodd"/>
		<path id="Vector" d="M91.14 79.81L94.41 79.81L94.41 82.89L91.14 82.89L91.14 79.81Z" fill="#407BFF" fill-opacity="1.000000" fill-rule="evenodd"/>
		<path id="Vector" d="M94.99 79.81L98.26 79.81L98.26 82.89L94.99 82.89L94.99 79.81Z" fill="#407BFF" fill-opacity="1.000000" fill-rule="evenodd"/>
	</g>
	<path id="Vector" d="M99.18 85.89C99.18 86.24 98.87 86.53 98.49 86.53C98.12 86.53 97.81 86.24 97.81 85.89C97.81 85.53 98.12 85.24 98.49 85.24C98.87 85.24 99.18 85.53 99.18 85.89Z" fill="#407BFF" fill-opacity="1.000000" fill-rule="evenodd"/>
</svg>
