<svg width="130.000000" height="120.000000" viewBox="0 0 130 120" fill="none" xmlns="http://www.w3.org/2000/svg" xmlns:xlink="http://www.w3.org/1999/xlink">
	<desc>
			Created with Pixso.
	</desc>
	<defs/>
	<rect id="bg" rx="6.000000" width="130.000000" height="120.000000" fill="#F2F7FF" fill-opacity="1.000000"/>
	<path id="Vector" d="M92.78 81.37L96.65 81.37C96.94 81.37 97.18 81.61 97.18 81.9L97.18 82.02C97.18 82.31 96.94 82.55 96.65 82.55L92.78 82.55C92.48 82.55 92.24 82.31 92.24 82.02L92.24 81.9C92.24 81.61 92.48 81.37 92.78 81.37Z" fill="#00308E" fill-opacity="1.000000" fill-rule="evenodd"/>
	<path id="Vector" d="M95.15 81.78C95.15 82.14 95.25 82.49 95.46 82.79C95.66 83.09 95.95 83.33 96.29 83.46C96.63 83.6 97 83.64 97.36 83.57C97.72 83.5 98.05 83.32 98.31 83.07C98.57 82.81 98.74 82.49 98.82 82.13C98.89 81.78 98.85 81.41 98.71 81.08C98.57 80.74 98.33 80.46 98.03 80.26C97.72 80.06 97.37 79.95 97 79.95C96.51 79.95 96.04 80.14 95.69 80.48C95.34 80.83 95.15 81.29 95.15 81.78Z" fill="#00308E" fill-opacity="1.000000" fill-rule="nonzero"/>
	<path id="Vector" d="M88.64 37.07L99.49 37.07C100.54 37.08 101.55 37.43 102.38 38.06C103.2 38.69 103.79 39.57 104.06 40.57L108.92 59.61C109 59.87 109.02 60.14 108.97 60.41C108.92 60.68 108.81 60.93 108.65 61.15C108.48 61.37 108.27 61.55 108.03 61.67C107.78 61.8 107.51 61.86 107.23 61.86C106.42 61.85 105.64 61.6 104.98 61.14C104.32 60.68 103.82 60.03 103.55 59.28L99.43 45.38C99.1 44.47 98.5 43.68 97.7 43.12C96.91 42.56 95.96 42.26 94.98 42.25L88.54 42.25L88.54 37.07L88.64 37.07Z" fill="#00308E" fill-opacity="1.000000" fill-rule="nonzero"/>
	<path id="Vector" d="M57.45 54.92L50.86 40.99L58.4 40.99L57.45 54.92Z" fill="#407BFF" fill-opacity="1.000000" fill-rule="nonzero"/>
	<g opacity="0.500000">
		<path id="Vector" d="M57.45 54.92L50.86 40.99L58.4 40.99L57.45 54.92Z" fill="#FFFFFF" fill-opacity="1.000000" fill-rule="nonzero"/>
	</g>
	<path id="Vector" d="M94.51 82.55L54.98 82.55L57.66 43.57C57.86 41.11 58.96 38.8 60.74 37.07C64.5 33.56 69.52 31.66 74.7 31.8C78.86 31.74 82.95 32.92 86.42 35.19C87.22 35.75 87.96 36.38 88.64 37.07C90.43 38.8 91.54 41.11 91.75 43.57L94.51 82.55Z" fill="#407BFF" fill-opacity="1.000000" fill-rule="nonzero"/>
	<path id="Vector" d="M88.48 89.86L60.93 89.86C60.27 89.88 59.62 89.73 59.04 89.41C58.47 89.09 58 88.62 57.68 88.05L54.98 82.55L94.51 82.55L91.73 88.03C91.41 88.6 90.94 89.08 90.37 89.4C89.79 89.72 89.14 89.88 88.48 89.86Z" fill="#407BFF" fill-opacity="1.000000" fill-rule="nonzero"/>
	<g opacity="0.400000">
		<path id="Vector" d="M88.48 89.86L60.93 89.86C60.27 89.88 59.62 89.73 59.04 89.41C58.47 89.09 58 88.62 57.68 88.05L54.98 82.55L94.51 82.55L91.73 88.03C91.41 88.6 90.94 89.08 90.37 89.4C89.79 89.72 89.14 89.88 88.48 89.86Z" fill="#1919D3" fill-opacity="1.000000" fill-rule="nonzero"/>
	</g>
	<g opacity="0.500000">
		<path id="Vector" d="M88.64 37.07L60.74 37.07C64.5 33.56 69.52 31.66 74.7 31.8C78.86 31.74 82.95 32.92 86.42 35.19C87.22 35.75 87.96 36.38 88.64 37.07Z" fill="#FFFFFF" fill-opacity="1.000000" fill-rule="nonzero"/>
	</g>
	<path id="Vector" d="M75.34 78.47C75.34 78.86 75.02 79.18 74.62 79.18C74.22 79.18 73.9 78.86 73.9 78.47C73.9 78.08 74.22 77.76 74.62 77.76C75.02 77.76 75.34 78.08 75.34 78.47Z" fill="#FFFFFF" fill-opacity="1.000000" fill-rule="evenodd"/>
	<path id="Vector" d="M68.01 78.47C68.01 78.86 67.69 79.18 67.29 79.18C66.89 79.18 66.57 78.86 66.57 78.47C66.57 78.08 66.89 77.76 67.29 77.76C67.69 77.76 68.01 78.08 68.01 78.47Z" fill="#FFFFFF" fill-opacity="1.000000" fill-rule="evenodd"/>
	<path id="Vector" d="M71.68 78.47C71.68 78.86 71.35 79.18 70.96 79.18C70.56 79.18 70.24 78.86 70.24 78.47C70.24 78.08 70.56 77.76 70.96 77.76C71.35 77.76 71.68 78.08 71.68 78.47Z" fill="#FFFFFF" fill-opacity="1.000000" fill-rule="evenodd"/>
	<path id="Vector" d="M79.01 78.47C79.01 78.86 78.68 79.18 78.28 79.18C77.89 79.18 77.56 78.86 77.56 78.47C77.56 78.08 77.89 77.76 78.28 77.76C78.68 77.76 79.01 78.08 79.01 78.47Z" fill="#FFFFFF" fill-opacity="1.000000" fill-rule="evenodd"/>
	<path id="Vector" d="M82.69 78.47C82.69 78.86 82.37 79.18 81.97 79.18C81.57 79.18 81.25 78.86 81.25 78.47C81.25 78.08 81.57 77.76 81.97 77.76C82.37 77.76 82.69 78.08 82.69 78.47Z" fill="#FFFFFF" fill-opacity="1.000000" fill-rule="evenodd"/>
	<path id="Vector" d="M43.37 43.33L39.02 43.33C38.49 43.33 37.97 43.12 37.59 42.74C37.22 42.37 37 41.86 37 41.34C37 40.81 37.22 40.3 37.59 39.93C37.97 39.56 38.49 39.35 39.02 39.35L43.31 39.35C43.5 39.14 43.65 38.89 43.74 38.62C43.83 38.36 43.86 38.08 43.84 37.79L43.84 22.6C43.86 22.32 43.83 22.04 43.74 21.77C43.65 21.5 43.5 21.26 43.31 21.05L39.44 21.05C38.91 21.05 38.39 20.84 38.02 20.46C37.64 20.09 37.42 19.59 37.42 19.06C37.42 18.53 37.64 18.03 38.02 17.65C38.39 17.28 38.91 17.07 39.44 17.07L43.37 17.07C45.89 17.07 47.87 19.51 47.87 22.6L47.87 37.79C47.87 40.91 45.89 43.33 43.37 43.33Z" fill="#407BFF" fill-opacity="1.000000" fill-rule="nonzero"/>
	<g opacity="0.400000">
		<path id="Vector" d="M43.37 43.33L39.02 43.33C38.49 43.33 37.97 43.12 37.59 42.74C37.22 42.37 37 41.86 37 41.34C37 40.81 37.22 40.3 37.59 39.93C37.97 39.56 38.49 39.35 39.02 39.35L43.31 39.35C43.5 39.14 43.65 38.89 43.74 38.62C43.83 38.36 43.86 38.08 43.84 37.79L43.84 22.6C43.86 22.32 43.83 22.04 43.74 21.77C43.65 21.5 43.5 21.26 43.31 21.05L39.44 21.05C38.91 21.05 38.39 20.84 38.02 20.46C37.64 20.09 37.42 19.59 37.42 19.06C37.42 18.53 37.64 18.03 38.02 17.65C38.39 17.28 38.91 17.07 39.44 17.07L43.37 17.07C45.89 17.07 47.87 19.51 47.87 22.6L47.87 37.79C47.87 40.91 45.89 43.33 43.37 43.33Z" fill="#FFFFFF" fill-opacity="1.000000" fill-rule="nonzero"/>
	</g>
	<path id="Vector" d="M34.88 59.76L16.3 59.76C15.62 59.77 14.95 59.56 14.4 59.17C13.84 58.78 13.42 58.22 13.2 57.58L12.66 56.05C12.55 55.73 12.49 55.4 12.48 55.06L11.64 21.34L39.53 21.34L38.69 55.25C38.67 55.61 38.6 55.95 38.48 56.29L37.97 57.64C37.74 58.26 37.32 58.8 36.77 59.18C36.21 59.56 35.56 59.76 34.88 59.76Z" fill="#407BFF" fill-opacity="1.000000" fill-rule="nonzero"/>
	<path id="Vector" d="M23.74 56.31L23.74 50L25.24 50L27.71 56.31L23.74 56.31Z" fill="#00308E" fill-opacity="1.000000" fill-rule="nonzero"/>
	<path id="Vector" d="M23.74 56.31L27.68 56.31L27.68 59.76L23.74 59.76L23.74 56.31Z" fill="#00308E" fill-opacity="1.000000" fill-rule="evenodd"/>
	<g opacity="0.100000">
		<path id="Vector" d="M23.74 56.31L27.68 56.31L27.68 59.76L23.74 59.76L23.74 56.31Z" fill="#FFFFFF" fill-opacity="1.000000" fill-rule="evenodd"/>
	</g>
	<path id="Vector" d="M22.61 56.31L15.48 57.39L23.84 54.73L26.54 50L27.71 50L27.71 55.2L35.01 57.39L27.71 56.31L22.61 56.31Z" fill="#00308E" fill-opacity="1.000000" fill-rule="nonzero"/>
	<g opacity="0.200000">
		<path id="Vector" d="M22.61 56.31L15.48 57.39L23.84 54.73L26.54 50L27.71 50L27.71 55.2L35.01 57.39L27.71 56.31L22.61 56.31Z" fill="#FFFFFF" fill-opacity="1.000000" fill-rule="nonzero"/>
	</g>
	<g opacity="0.500000">
		<path id="Vector" d="M34.88 59.76L16.3 59.76C15.62 59.77 14.95 59.56 14.4 59.17C13.84 58.78 13.42 58.22 13.2 57.58L12.66 56.05C12.55 55.73 12.49 55.4 12.48 55.06L11.64 21.34L39.53 21.34L38.69 55.25C38.67 55.61 38.6 55.95 38.48 56.29L37.97 57.64C37.74 58.26 37.32 58.8 36.77 59.18C36.21 59.56 35.56 59.76 34.88 59.76Z" fill="#FFFFFF" fill-opacity="1.000000" fill-rule="nonzero"/>
	</g>
	<path id="Vector" d="M16.27 59.76L34.85 59.76C35.45 59.72 36.04 59.82 36.6 60.04C37.15 60.27 37.64 60.61 38.04 61.06L38.65 61.99C38.77 62.17 38.85 62.38 38.88 62.6L41.44 85.79L9.71 85.79L12.29 62.51C12.31 62.28 12.4 62.06 12.54 61.87L13.1 61.04C13.49 60.6 13.98 60.26 14.53 60.04C15.08 59.82 15.68 59.72 16.27 59.76Z" fill="#407BFF" fill-opacity="1.000000" fill-rule="nonzero"/>
	<g opacity="0.300000">
		<path id="Vector" d="M16.27 59.76L34.85 59.76C35.45 59.72 36.04 59.82 36.6 60.04C37.15 60.27 37.64 60.61 38.04 61.06L38.65 61.99C38.77 62.17 38.85 62.38 38.88 62.6L41.44 85.79L9.71 85.79L12.29 62.51C12.31 62.28 12.4 62.06 12.54 61.87L13.1 61.04C13.49 60.6 13.98 60.26 14.53 60.04C15.08 59.82 15.68 59.72 16.27 59.76Z" fill="#FFFFFF" fill-opacity="1.000000" fill-rule="nonzero"/>
	</g>
	<path id="Vector" d="M34.88 89.99L16.3 89.99C15.24 90.01 14.17 89.94 13.11 89.78L12.5 89.63C12.42 89.61 12.34 89.58 12.27 89.52L9.71 85.79L41.44 85.79L38.88 89.54C38.8 89.59 38.71 89.63 38.62 89.64L38.06 89.78C37.01 89.94 35.94 90.01 34.88 89.99Z" fill="#407BFF" fill-opacity="1.000000" fill-rule="nonzero"/>
	<g opacity="0.400000">
		<path id="Vector" d="M34.88 89.99L16.3 89.99C15.24 90.01 14.17 89.94 13.11 89.78L12.5 89.63C12.42 89.61 12.34 89.58 12.27 89.52L9.71 85.79L41.44 85.79L38.88 89.54C38.8 89.59 38.71 89.63 38.62 89.64L38.06 89.78C37.01 89.94 35.94 90.01 34.88 89.99Z" fill="#1919D3" fill-opacity="1.000000" fill-rule="nonzero"/>
	</g>
	<path id="Vector" d="M32.66 15.93L15.97 15.93L15.95 14L32.64 14L32.66 15.93Z" fill="#407BFF" fill-opacity="1.000000" fill-rule="nonzero"/>
	<g opacity="0.400000">
		<path id="Vector" d="M32.66 15.93L15.97 15.93L15.95 14L32.64 14L32.66 15.93Z" fill="#1919D3" fill-opacity="1.000000" fill-rule="nonzero"/>
	</g>
	<path id="Vector" d="M39.63 16.02L39.63 17.97L9.59 17.97L9 16.99L9 16.02L16.74 15.53L24.31 15.07L33.43 15.64L39.63 16.02Z" fill="#407BFF" fill-opacity="1.000000" fill-rule="nonzero"/>
	<g opacity="0.700000">
		<path id="Vector" d="M39.63 16.02L39.63 17.97L9.59 17.97L9 16.99L9 16.02L16.74 15.53L24.31 15.07L33.43 15.64L39.63 16.02Z" fill="#FFFFFF" fill-opacity="1.000000" fill-rule="nonzero"/>
	</g>
	<path id="Vector" d="M39.63 16.99L39.62 17.97L39.53 21.36L11.64 21.36L9.59 17.97L9 16.99L39.63 16.99Z" fill="#407BFF" fill-opacity="1.000000" fill-rule="nonzero"/>
	<g opacity="0.500000">
		<path id="Vector" d="M39.63 16.99L39.62 17.97L39.53 21.36L11.64 21.36L9.59 17.97L9 16.99L39.63 16.99Z" fill="#FFFFFF" fill-opacity="1.000000" fill-rule="nonzero"/>
	</g>
	<path id="Vector" d="M11.64 21.34L39.63 21.34L39.63 24.33L11.64 24.33L11.64 21.34Z" fill="#407BFF" fill-opacity="1.000000" fill-rule="evenodd"/>
	<g opacity="0.400000">
		<path id="Vector" d="M11.64 21.34L39.63 21.34L39.63 24.33L11.64 24.33L11.64 21.34Z" fill="#1919D3" fill-opacity="1.000000" fill-rule="evenodd"/>
	</g>
	<path id="Vector" d="M25.7 64.38C24.37 64.38 23.07 64.76 21.97 65.49C20.87 66.22 20 67.25 19.5 68.46C18.99 69.67 18.86 71 19.11 72.29C19.37 73.57 20.01 74.75 20.95 75.68C21.89 76.6 23.09 77.23 24.39 77.49C25.69 77.74 27.04 77.61 28.27 77.11C29.49 76.61 30.54 75.76 31.28 74.67C32.02 73.58 32.41 72.31 32.41 71C32.41 69.24 31.7 67.56 30.44 66.32C29.18 65.08 27.48 64.38 25.7 64.38ZM25.7 75.18C24.86 75.18 24.04 74.93 23.34 74.47C22.64 74.01 22.1 73.36 21.78 72.6C21.46 71.83 21.38 70.99 21.54 70.18C21.7 69.37 22.11 68.62 22.7 68.04C23.29 67.45 24.05 67.06 24.87 66.89C25.69 66.73 26.55 66.82 27.32 67.13C28.1 67.45 28.76 67.98 29.23 68.67C29.69 69.36 29.94 70.17 29.94 71C29.94 72.11 29.49 73.17 28.7 73.95C27.9 74.74 26.82 75.18 25.7 75.18Z" fill="#FFFFFF" fill-opacity="1.000000" fill-rule="nonzero"/>
	<g opacity="0.600000">
		<path id="Vector" d="M29.94 71C29.94 71.82 29.69 72.63 29.23 73.32C28.76 74.01 28.1 74.54 27.32 74.86C26.55 75.18 25.69 75.26 24.87 75.1C24.05 74.94 23.29 74.54 22.7 73.95C22.11 73.37 21.7 72.62 21.54 71.81C21.38 71 21.46 70.16 21.78 69.4C22.1 68.63 22.64 67.98 23.34 67.52C24.04 67.06 24.86 66.81 25.7 66.81C26.82 66.81 27.9 67.25 28.7 68.04C29.49 68.82 29.94 69.89 29.94 71Z" fill="#FFFFFF" fill-opacity="1.000000" fill-rule="nonzero"/>
	</g>
	<path id="Vector" d="M25.7 74.23C25.05 74.23 24.42 74.04 23.88 73.68C23.34 73.33 22.92 72.82 22.67 72.23C22.42 71.64 22.36 70.99 22.48 70.37C22.61 69.74 22.92 69.16 23.38 68.71C23.84 68.26 24.42 67.95 25.06 67.83C25.7 67.7 26.35 67.77 26.95 68.01C27.55 68.25 28.06 68.67 28.42 69.2C28.78 69.73 28.98 70.36 28.98 71C28.98 71.85 28.63 72.68 28.02 73.28C27.4 73.89 26.57 74.23 25.7 74.23ZM25.7 68.21C25.14 68.21 24.6 68.38 24.13 68.68C23.67 68.99 23.31 69.42 23.09 69.93C22.88 70.44 22.82 71 22.93 71.54C23.04 72.08 23.31 72.57 23.7 72.96C24.1 73.35 24.6 73.62 25.15 73.73C25.7 73.83 26.26 73.78 26.78 73.57C27.29 73.36 27.74 73 28.05 72.54C28.36 72.08 28.52 71.55 28.52 71C28.52 70.26 28.22 69.55 27.69 69.03C27.16 68.51 26.45 68.22 25.7 68.21Z" fill="#407BFF" fill-opacity="1.000000" fill-rule="nonzero"/>
	<g opacity="0.200000">
		<path id="Vector" d="M28.24 82.27C28.24 82.69 28.12 83.11 27.88 83.47C27.64 83.83 27.3 84.11 26.9 84.27C26.49 84.44 26.05 84.48 25.63 84.4C25.2 84.32 24.81 84.11 24.5 83.81C24.19 83.51 23.98 83.12 23.9 82.7C23.82 82.28 23.86 81.84 24.03 81.45C24.2 81.05 24.48 80.71 24.84 80.48C25.21 80.24 25.63 80.12 26.07 80.12C26.64 80.12 27.2 80.35 27.6 80.75C28.01 81.15 28.24 81.7 28.24 82.27Z" fill="#1919D3" fill-opacity="1.000000" fill-rule="nonzero"/>
	</g>
	<path id="Vector" d="M27.82 82.26C27.82 83.22 27.03 83.99 26.07 83.99C25.1 83.99 24.31 83.22 24.31 82.26C24.31 81.31 25.1 80.54 26.07 80.54C27.03 80.54 27.82 81.31 27.82 82.26Z" fill="#00308E" fill-opacity="1.000000" fill-rule="evenodd"/>
</svg>
