<svg width="90" height="80" viewBox="0 0 90 80" fill="none" xmlns="http://www.w3.org/2000/svg">
    <path d="M13.4448 7.14429H9.09839V20.3006H13.4448V7.14429Z" fill="#00308E"/>
    <path d="M21.0013 5L1 24.1027H41L21.0013 5Z" fill="#00308E"/>
    <path d="M21.0013 6.62213L2.6958 24.1029H39.3043L21.0013 6.62213Z" fill="#407BFF"/>
    <path opacity="0.1" d="M13.0063 21.1067V22.1246H28.9963V21.1067H13.0063Z" fill="#1919D3"/>
    <path opacity="0.1" d="M21.15 12.0102V10.9923H18.2397V12.0102H19.6936V13.0258H22.6038V12.0102H21.15Z" fill="#1919D3"/>
    <path d="M37.1296 23.027H4.87012V75H37.1296V23.027Z" fill="#407BFF"/>
    <path d="M37.7573 74.3454H4.24292V75H37.7573V74.3454Z" fill="#407BFF"/>
    <path d="M4.43683 34.3833V49.0869H4.02612V49.8642H4.87022V49.0869V34.3833H4.43683Z" fill="#407BFF"/>
    <path d="M37.5633 34.3833V49.0869H37.974V49.8642H37.1299V49.0869V34.3833H37.5633Z" fill="#407BFF"/>
    <path d="M4.00122 24.8199H37.9993L37.5987 29.9746H4.40185L4.00122 24.8199Z" fill="#407BFF"/>
    <path opacity="0.1" d="M37.1296 24.1027H4.87012V24.8199H37.1296V24.1027Z" fill="#1919D3"/>
    <path opacity="0.1" d="M37.1296 29.9312H4.87012V30.6483H37.1296V29.9312Z" fill="#1919D3"/>
    <path opacity="0.4" d="M21.0011 14.5514C19.1801 14.5514 17.4337 15.2423 16.1461 16.4721C14.8584 17.7019 14.135 19.3699 14.135 21.1091H27.8648C27.8648 19.3703 27.1417 17.7027 25.8546 16.473C24.5675 15.2432 22.8217 14.552 21.0011 14.5514Z" fill="white"/>
    <path opacity="0.3" d="M21.9738 16.1397C20.5943 16.1403 19.2715 16.6642 18.2963 17.5961C17.321 18.5279 16.7732 19.7916 16.7732 21.1091H27.1745C27.1745 19.7916 26.6266 18.5279 25.6514 17.5961C24.6761 16.6642 23.3533 16.1403 21.9738 16.1397Z" fill="#407BFF"/>
    <path opacity="0.1" d="M5.93857 25.8282H5.55054V28.9663H5.93857V25.8282Z" fill="#1919D3"/>
    <path opacity="0.1" d="M7.84579 25.8282H7.45776V28.9663H7.84579V25.8282Z" fill="#1919D3"/>
    <path opacity="0.1" d="M9.75351 25.8282H9.36548V28.9663H9.75351V25.8282Z" fill="#1919D3"/>
    <path opacity="0.1" d="M11.661 25.8282H11.2729V28.9663H11.661V25.8282Z" fill="#1919D3"/>
    <path opacity="0.1" d="M13.5655 25.8282H13.1775V28.9663H13.5655V25.8282Z" fill="#1919D3"/>
    <path opacity="0.1" d="M15.4732 25.8282H15.0852V28.9663H15.4732V25.8282Z" fill="#1919D3"/>
    <path opacity="0.1" d="M17.3805 25.8282H16.9924V28.9663H17.3805V25.8282Z" fill="#1919D3"/>
    <path opacity="0.1" d="M19.2879 25.8282H18.8999V28.9663H19.2879V25.8282Z" fill="#1919D3"/>
    <path opacity="0.1" d="M21.1927 25.8282H20.8047V28.9663H21.1927V25.8282Z" fill="#1919D3"/>
    <path opacity="0.1" d="M23.1002 25.8282H22.7122V28.9663H23.1002V25.8282Z" fill="#1919D3"/>
    <path opacity="0.1" d="M25.0074 25.8282H24.6194V28.9663H25.0074V25.8282Z" fill="#1919D3"/>
    <path opacity="0.1" d="M26.9149 25.8282H26.5269V28.9663H26.9149V25.8282Z" fill="#1919D3"/>
    <path opacity="0.1" d="M28.8221 25.8282H28.4341V28.9663H28.8221V25.8282Z" fill="#1919D3"/>
    <path opacity="0.1" d="M30.7271 25.8282H30.3391V28.9663H30.7271V25.8282Z" fill="#1919D3"/>
    <path opacity="0.1" d="M32.6346 25.8282H32.2466V28.9663H32.6346V25.8282Z" fill="#1919D3"/>
    <path opacity="0.1" d="M34.5421 25.8282H34.1541V28.9663H34.5421V25.8282Z" fill="#1919D3"/>
    <path opacity="0.1" d="M36.4493 25.8282H36.0613V28.9663H36.4493V25.8282Z" fill="#1919D3"/>
    <path opacity="0.1" d="M6.31399 50.8797H5.93604V51.7244H6.31399V50.8797Z" fill="#1919D3"/>
    <path opacity="0.1" d="M8.17336 50.8797H7.79541V51.7244H8.17336V50.8797Z" fill="#1919D3"/>
    <path opacity="0.1" d="M10.033 50.8797H9.65503V51.7244H10.033V50.8797Z" fill="#1919D3"/>
    <path opacity="0.1" d="M11.8924 50.8797H11.5144V51.7244H11.8924V50.8797Z" fill="#1919D3"/>
    <path opacity="0.1" d="M13.752 50.8797H13.374V51.7244H13.752V50.8797Z" fill="#1919D3"/>
    <path opacity="0.1" d="M15.6116 50.8797H15.2336V51.7244H15.6116V50.8797Z" fill="#1919D3"/>
    <path opacity="0.1" d="M17.471 50.8797H17.093V51.7244H17.471V50.8797Z" fill="#1919D3"/>
    <path opacity="0.1" d="M19.3306 50.8797H18.9526V51.7244H19.3306V50.8797Z" fill="#1919D3"/>
    <path opacity="0.1" d="M21.1875 50.8797H20.8096V51.7244H21.1875V50.8797Z" fill="#1919D3"/>
    <path opacity="0.1" d="M23.0471 50.8797H22.6692V51.7244H23.0471V50.8797Z" fill="#1919D3"/>
    <path opacity="0.1" d="M24.9068 50.8797H24.5288V51.7244H24.9068V50.8797Z" fill="#1919D3"/>
    <path opacity="0.1" d="M26.7661 50.8797H26.3882V51.7244H26.7661V50.8797Z" fill="#1919D3"/>
    <path opacity="0.1" d="M28.6255 50.8797H28.2476V51.7244H28.6255V50.8797Z" fill="#1919D3"/>
    <path opacity="0.1" d="M30.4851 50.8797H30.1072V51.7244H30.4851V50.8797Z" fill="#1919D3"/>
    <path opacity="0.1" d="M32.3447 50.8797H31.9668V51.7244H32.3447V50.8797Z" fill="#1919D3"/>
    <path opacity="0.1" d="M34.2022 50.8797H33.8242V51.7244H34.2022V50.8797Z" fill="#1919D3"/>
    <path opacity="0.1" d="M36.0615 50.8797H35.6836V51.7244H36.0615V50.8797Z" fill="#1919D3"/>
    <path opacity="0.4" d="M15.4856 49.0845L15.4856 34.3809H8.03993V49.0845H15.4856Z" fill="white"/>
    <path opacity="0.1" d="M7.98486 49.087V49.8643H15.4834V49.087H7.98486Z" fill="#1919D3"/>
    <path opacity="0.4" d="M15.4856 42.1827V41.285H8.03993V42.1827H15.4856Z" fill="white"/>
    <path opacity="0.4" d="M14.9212 34.9199H8.60181V48.5478H14.9212V34.9199Z" fill="white"/>
    <path opacity="0.3" d="M14.4475 37.1916H9.55933V48.5478H14.4475V37.1916Z" fill="#407BFF"/>
    <path opacity="0.4" d="M30.6062 49.0869V34.3833H23.1605V49.0869H30.6062Z" fill="white"/>
    <path opacity="0.1" d="M19.7339 49.087V49.8643H34.0331V49.087H19.7339Z" fill="#1919D3"/>
    <path opacity="0.4" d="M30.6062 42.185V41.2874H23.1605V42.185H30.6062Z" fill="white"/>
    <path opacity="0.4" d="M30.0418 34.9199H23.7224V48.5478H30.0418V34.9199Z" fill="white"/>
    <path opacity="0.3" d="M29.5681 37.1916H24.6799V48.5478H29.5681V37.1916Z" fill="#407BFF"/>
    <path opacity="0.4" d="M34.033 49.0869V34.3833H31.604V49.0869H34.033Z" fill="white"/>
    <path opacity="0.4" d="M34.033 42.1827V41.285H31.604V42.1827H34.033Z" fill="white"/>
    <path opacity="0.4" d="M33.4687 34.9199H32.166V48.5478H33.4687V34.9199Z" fill="white"/>
    <path opacity="0.4" d="M22.1602 49.0869V34.3833H19.7312V49.0869H22.1602Z" fill="white"/>
    <path opacity="0.4" d="M22.1602 42.1827V41.285H19.7312V42.1827H22.1602Z" fill="white"/>
    <path opacity="0.4" d="M21.5983 34.9199H20.2957V48.5478H21.5983V34.9199Z" fill="white"/>
    <path opacity="0.4" d="M30.6062 68.8826V54.179H23.1605V68.8826H30.6062Z" fill="white"/>
    <path opacity="0.1" d="M19.7339 68.8827V69.66H34.0331V68.8827H19.7339Z" fill="#1919D3"/>
    <path opacity="0.4" d="M30.6062 61.9809V61.0833H23.1605V61.9809H30.6062Z" fill="white"/>
    <path opacity="0.4" d="M30.0418 54.7181H23.7224V68.346H30.0418V54.7181Z" fill="white"/>
    <path opacity="0.3" d="M29.5681 56.9898H24.6799V68.346H29.5681V56.9898Z" fill="#407BFF"/>
    <path opacity="0.4" d="M34.0305 68.885V54.1814H31.6015V68.885H34.0305Z" fill="white"/>
    <path opacity="0.4" d="M34.0305 61.9833V61.0857H31.6015V61.9833H34.0305Z" fill="white"/>
    <path opacity="0.4" d="M33.4687 54.7181H32.166V68.346H33.4687V54.7181Z" fill="white"/>
    <path opacity="0.4" d="M22.1602 68.885V54.1814H19.7312V68.885H22.1602Z" fill="white"/>
    <path opacity="0.4" d="M22.1602 61.9809V61.0833H19.7312V61.9809H22.1602Z" fill="white"/>
    <path opacity="0.4" d="M21.5983 54.7181H20.2957V68.346H21.5983V54.7181Z" fill="white"/>
    <path opacity="0.1" d="M18.1441 73.6909V72.3817H6.99449V73.6909H6.28394V75H18.8546V73.6909H18.1441Z" fill="#1919D3"/>
    <path opacity="0.4" d="M12.57 54.1814C13.8718 54.1814 15.1203 54.6753 16.0408 55.5544C16.9613 56.4336 17.4784 57.6259 17.4784 58.8692V72.3816H7.65161V58.8692C7.65161 58.2528 7.7789 57.6424 8.0262 57.073C8.2735 56.5037 8.63594 55.9864 9.09279 55.551C9.54964 55.1156 10.0919 54.7705 10.6886 54.5355C11.2853 54.3004 11.9246 54.1801 12.57 54.1814Z" fill="white"/>
    <path d="M16.5062 59.3073H8.62964V72.3817H16.5062V59.3073Z" fill="#1919D3"/>
    <path d="M12.5703 55.0935C12.1763 55.0932 11.7861 55.1671 11.4221 55.3108C11.058 55.4546 10.7271 55.6655 10.4484 55.9314C10.1697 56.1974 9.94866 56.5132 9.79782 56.8608C9.64698 57.2084 9.56934 57.581 9.56934 57.9572H15.5687C15.5687 57.5812 15.4911 57.2088 15.3405 56.8613C15.1898 56.5139 14.9689 56.1982 14.6905 55.9323C14.4121 55.6664 14.0815 55.4554 13.7177 55.3115C13.3539 55.1676 12.964 55.0935 12.5703 55.0935Z" fill="#1919D3"/>
    <path d="M16.065 65.8433C16.065 65.9385 16.0354 66.0316 15.9801 66.1107C15.9247 66.1899 15.846 66.2516 15.7539 66.288C15.6618 66.3244 15.5605 66.3339 15.4628 66.3154C15.365 66.2968 15.2752 66.251 15.2047 66.1837C15.1343 66.1163 15.0863 66.0306 15.0668 65.9372C15.0474 65.8439 15.0573 65.7471 15.0955 65.6591C15.1336 65.5712 15.1982 65.496 15.2811 65.4431C15.364 65.3903 15.4614 65.362 15.5611 65.362C15.6947 65.362 15.8229 65.4127 15.9174 65.503C16.0119 65.5933 16.065 65.7157 16.065 65.8433Z" fill="#407BFF"/>
    <path opacity="0.1" d="M11.4644 32.6482V33.6661H14.3746V32.6482H11.4644Z" fill="#1919D3"/>
    <path opacity="0.1" d="M25.1233 31.2356V32.2536H28.0335V31.2356H25.1233Z" fill="#1919D3"/>
    <path opacity="0.1" d="M32.3324 71.9534V70.9379H29.4221V71.9534H30.876V72.9714H33.7862V71.9534H32.3324Z" fill="#1919D3"/>
    <path d="M76.2673 13.596H44.082V75.9998H76.2673V13.596Z" fill="#407BFF"/>
    <path d="M48.6514 6.05269C48.621 6.05237 48.5908 6.05775 48.5626 6.06853C48.5344 6.07931 48.5088 6.09527 48.4872 6.11548C48.4656 6.13569 48.4484 6.15975 48.4367 6.18628C48.425 6.2128 48.4189 6.24126 48.4189 6.27V12.5915H48.8813V6.27C48.8813 6.21237 48.8571 6.15709 48.814 6.11634C48.7708 6.07558 48.7124 6.05269 48.6514 6.05269Z" fill="#00308E"/>
    <path d="M71.5476 10.556C71.4867 10.556 71.4282 10.5789 71.3851 10.6196C71.342 10.6604 71.3177 10.7157 71.3177 10.7733V12.5915H71.7801V10.7733C71.7801 10.7446 71.7741 10.7161 71.7624 10.6896C71.7506 10.663 71.7335 10.639 71.7119 10.6188C71.6902 10.5986 71.6646 10.5826 71.6364 10.5718C71.6082 10.561 71.5781 10.5557 71.5476 10.556Z" fill="#00308E"/>
    <path d="M52.4929 7.7019H52.0305V12.5915H52.4929V7.7019Z" fill="#00308E"/>
    <path d="M55.852 6.48982C56.5284 8.24768 56.0511 10.0273 54.785 10.4619C53.5189 10.8965 51.944 9.82685 51.2676 8.06658C50.5911 6.30631 51.071 4.53156 52.3371 4.09692C53.6032 3.66229 55.1781 4.73197 55.852 6.48982Z" fill="#00308E"/>
    <path d="M76.2676 45.7782L87.9073 53.1646V75.9998H76.2676V45.7782Z" fill="#407BFF"/>
    <path opacity="0.1" d="M76.2676 45.7782L87.9073 53.1646V75.9998H76.2676V45.7782Z" fill="#1919D3"/>
    <path opacity="0.1" d="M85.1425 69.4755V68.3672H81.9441V69.4755H83.5445V70.5838H86.7404V69.4755H85.1425Z" fill="#1919D3"/>
    <path d="M88.9998 54.2898L76.2676 46.1621V44.9258L88.9998 53.0559V54.2898Z" fill="#00308E"/>
    <path opacity="0.4" d="M85.8929 65.0011V55.2653H77.9979V65.0011H85.8929Z" fill="white"/>
    <path opacity="0.4" d="M85.8929 60.4303V59.8363H77.9979V60.4303H85.8929Z" fill="white"/>
    <path opacity="0.4" d="M85.551 55.6227H78.3374V64.6462H85.551V55.6227Z" fill="white"/>
    <path opacity="0.3" d="M85.2624 57.1271H78.9167V64.6463H85.2624V57.1271Z" fill="#407BFF"/>
    <path d="M76.2674 13.5961H44.0821L43.6431 12.9344H76.7064L76.2674 13.5961Z" fill="#407BFF"/>
    <path opacity="0.2" d="M76.2674 13.5961H44.0821L43.6431 12.9344H76.7064L76.2674 13.5961Z" fill="#1919D3"/>
    <path d="M76.8953 12.9343H43.4541L42.9998 12.2462H77.3496L76.8953 12.9343Z" fill="#00308E"/>
    <path opacity="0.2" d="M47.8495 15.2332H45.108V21.4774H47.8495V15.2332Z" fill="#1919D3"/>
    <path opacity="0.4" d="M47.4438 16.1579H45.514V20.5574H47.4438V16.1579Z" fill="#407BFF"/>
    <path opacity="0.2" d="M75.2412 15.2332H72.4998V21.4774H75.2412V15.2332Z" fill="#1919D3"/>
    <path opacity="0.4" d="M74.8328 16.1579H72.9031V20.5574H74.8328V16.1579Z" fill="#407BFF"/>
    <path opacity="0.2" d="M71.318 15.2332H66.9735V21.4774H71.318V15.2332Z" fill="#1919D3"/>
    <path opacity="0.4" d="M70.6771 16.1579H67.6166V20.5574H70.6771V16.1579Z" fill="#407BFF"/>
    <path opacity="0.2" d="M53.376 15.2332H49.0315V21.4774H53.376V15.2332Z" fill="#1919D3"/>
    <path opacity="0.4" d="M52.7353 16.1579H49.6748V20.5574H52.7353V16.1579Z" fill="#407BFF"/>
    <path opacity="0.2" d="M65.6691 15.2332H54.6829V21.4774H65.6691V15.2332Z" fill="#1919D3"/>
    <path opacity="0.4" d="M64.0431 16.1579H56.3063V20.5574H64.0431V16.1579Z" fill="#407BFF"/>
    <path opacity="0.4" d="M58.7747 44.4598V26.8016H50.5911V44.4598H58.7747Z" fill="white"/>
    <path opacity="0.1" d="M46.826 44.4574V44.9258H62.5396V44.4574H46.826Z" fill="#1919D3"/>
    <path opacity="0.4" d="M58.7747 36.1704V35.0934H50.5911V36.1704H58.7747Z" fill="white"/>
    <path opacity="0.4" d="M58.1541 27.4464H51.2086V43.8127H58.1541V27.4464Z" fill="white"/>
    <path opacity="0.3" d="M57.631 30.1749H52.2604V43.8127H57.631V30.1749Z" fill="#407BFF"/>
    <path opacity="0.4" d="M62.5371 44.4574V26.7992H59.8697V44.4574H62.5371Z" fill="white"/>
    <path opacity="0.4" d="M62.5371 36.168V35.0911H59.8697V36.168H62.5371Z" fill="white"/>
    <path opacity="0.4" d="M61.9194 27.4464H60.49V43.8127H61.9194V27.4464Z" fill="white"/>
    <path opacity="0.4" d="M49.4935 44.4598V26.8016H46.8261V44.4598H49.4935Z" fill="white"/>
    <path opacity="0.4" d="M49.4935 36.168V35.0911H46.8261V36.168H49.4935Z" fill="white"/>
    <path opacity="0.4" d="M48.8733 27.4464H47.4438V43.8127H48.8733V27.4464Z" fill="white"/>
    <path opacity="0.4" d="M58.7747 66.4451V48.7869H50.5911V66.4451H58.7747Z" fill="white"/>
    <path opacity="0.1" d="M46.8234 66.4451V66.9135H62.537V66.4451H46.8234Z" fill="#1919D3"/>
    <path opacity="0.4" d="M58.7747 58.1557V57.0787H50.5911V58.1557H58.7747Z" fill="white"/>
    <path opacity="0.4" d="M58.1541 49.4341H51.2086V65.8005H58.1541V49.4341Z" fill="white"/>
    <path opacity="0.3" d="M57.631 52.1625H52.2604V65.8004H57.631V52.1625Z" fill="#407BFF"/>
    <path opacity="0.4" d="M62.5396 66.4451V48.7869H59.8721V66.4451H62.5396Z" fill="white"/>
    <path opacity="0.4" d="M62.5396 58.1557V57.0787H59.8721V58.1557H62.5396Z" fill="white"/>
    <path opacity="0.4" d="M61.9194 49.4341H60.49V65.8005H61.9194V49.4341Z" fill="white"/>
    <path opacity="0.4" d="M49.4935 66.4475V48.7893H46.8261V66.4475H49.4935Z" fill="white"/>
    <path opacity="0.4" d="M49.4935 58.1557V57.0787H46.8261V58.1557H49.4935Z" fill="white"/>
    <path opacity="0.4" d="M48.8733 49.4341H47.4438V65.8005H48.8733V49.4341Z" fill="white"/>
    <path opacity="0.4" d="M73.8499 44.4598V26.8016H65.6663V44.4598H73.8499Z" fill="white"/>
    <path opacity="0.1" d="M65.6691 44.4598V44.9283H73.8526V44.4598H65.6691Z" fill="#1919D3"/>
    <path opacity="0.4" d="M73.8499 36.168V35.0911H65.6663V36.168H73.8499Z" fill="white"/>
    <path opacity="0.4" d="M73.2325 27.4464H66.287V43.8127H73.2325V27.4464Z" fill="white"/>
    <path opacity="0.3" d="M72.7091 30.1749H67.3385V43.8127H72.7091V30.1749Z" fill="#407BFF"/>
    <path opacity="0.1" d="M51.6173 24.1407V23.0324H48.4189V24.1407H50.0194V25.2466H53.2152V24.1407H51.6173Z" fill="#1919D3"/>
    <path opacity="0.1" d="M67.0858 47.6809V46.5726H63.8875V47.6809H65.4879V48.7893H68.6837V47.6809H67.0858Z" fill="#1919D3"/>
    <path opacity="0.1" d="M60.3214 22.477V23.5853H63.5198V22.477H60.3214Z" fill="#1919D3"/>
    <path opacity="0.1" d="M47.8956 69.2581V70.3665H51.094V69.2581H47.8956Z" fill="#1919D3"/>
    <path opacity="0.1" d="M55.5763 72.431V73.5393H58.7747V72.431H55.5763Z" fill="#1919D3"/>
    <path opacity="0.1" d="M77.6636 51.8245V52.9328H80.8619V51.8245H77.6636Z" fill="#1919D3"/>
    <path opacity="0.1" d="M74.8609 73.8822V71.7646H74.4678V69.6469H64.6838V71.7646H64.2907V73.8822H63.8262V75.9998H75.3255V73.8822H74.8609Z" fill="#1919D3"/>
    <path d="M74.4679 69.6469V51.2426H64.6814V69.6469H74.4679Z" fill="#00308E"/>
    <path d="M73.8526 51.8268H65.3041V69.6444H73.8526V51.8268Z" fill="#1919D3"/>
    <g opacity="0.6">
        <path d="M69.3422 53.7272H66.7335V56.195H69.3422V53.7272Z" fill="#407BFF"/>
        <path d="M72.4209 53.7272H69.8121V56.195H72.4209V53.7272Z" fill="#407BFF"/>
        <path d="M69.3422 56.6514H66.7335V59.1191H69.3422V56.6514Z" fill="#407BFF"/>
        <path d="M72.4209 56.6514H69.8121V59.1191H72.4209V56.6514Z" fill="#407BFF"/>
    </g>
    <path d="M72.6098 62.0288C72.9117 62.0288 73.1564 61.7974 73.1564 61.512C73.1564 61.2266 72.9117 60.9953 72.6098 60.9953C72.3078 60.9953 72.0631 61.2266 72.0631 61.512C72.0631 61.7974 72.3078 62.0288 72.6098 62.0288Z" fill="#407BFF"/>
</svg>
