<svg width="90" height="80" viewBox="0 0 90 80" fill="none" xmlns="http://www.w3.org/2000/svg">
    <path d="M88.8213 55.2417C88.8565 55.239 88.8902 55.2259 88.9183 55.2039C88.9464 55.1819 88.9679 55.152 88.98 55.1177C89.0017 55.0662 89.0059 55.0085 88.9918 54.9542C88.9777 54.8999 88.9462 54.8521 88.9024 54.8188C69.7308 42.6089 61.25 7.5105 61.1689 7.15686C61.1653 7.13118 61.1565 7.1066 61.143 7.08474C61.1295 7.06288 61.1116 7.04426 61.0906 7.03011C61.0696 7.01596 61.0459 7.00661 61.0211 7.00269C60.9963 6.99877 60.971 7.00038 60.9469 7.00739C60.8982 7.0312 60.8594 7.0722 60.8374 7.12301C60.8154 7.17382 60.8117 7.23109 60.827 7.28446C60.9116 7.64905 69.4347 42.9188 88.7403 55.2162C88.7649 55.2312 88.7927 55.24 88.8213 55.2417Z" fill="#407BFF"/>
    <path d="M68.9624 56.3864H53.0266L60.9963 7.21881L68.9624 56.3864Z" fill="#00308E"/>
    <path d="M46.0757 56.3864L60.9964 7.21881H19.724L1 56.3864H46.0757Z" fill="#407BFF"/>
    <path opacity="0.2" d="M46.0757 56.3864L60.9964 7.21881H19.724L1 56.3864H46.0757Z" fill="#00308E"/>
    <path d="M58.4796 56.3864L60.9964 7.21881L46.0757 56.3864H58.4796Z" fill="#407BFF"/>
    <path d="M63.5091 56.3864L60.9958 7.21881L75.913 56.3864H63.5091Z" fill="#407BFF"/>
    <path d="M20.8273 56.6087C34.4649 56.6087 44.7081 43.1884 50.9013 31.9301C55.1256 24.1023 58.5638 15.8476 61.1621 7.29521C61.1793 7.2421 61.1778 7.18439 61.1578 7.13233C61.1378 7.08028 61.1006 7.03723 61.0528 7.01084C61.0295 7.0019 61.0045 6.99839 60.9797 7.00057C60.9549 7.00274 60.9309 7.01056 60.9094 7.02344C60.8878 7.03632 60.8693 7.05396 60.8551 7.0751C60.8409 7.09624 60.8314 7.12035 60.8272 7.14573C58.2395 15.6644 54.8143 23.8862 50.6052 31.6822C44.4614 42.8493 34.3098 56.1639 20.8273 56.1639C20.7755 56.1694 20.7279 56.1959 20.6949 56.2375C20.6619 56.2792 20.6461 56.3327 20.651 56.3863C20.6461 56.4399 20.6619 56.4934 20.6949 56.535C20.7279 56.5767 20.7755 56.6031 20.8273 56.6087Z" fill="#00308E"/>
    <path d="M51.1831 47.5737L82.2617 47.5737V45.7836L51.1831 45.7836V47.5737Z" fill="#1919D3"/>
    <path opacity="0.2" d="M51.1827 47.5737H62.3564V45.7836H51.1827V47.5737Z" fill="#1919D3"/>
    <path d="M72.1029 64.6143H73.6292L61.3486 47.5737H59.8188L72.1029 64.6143Z" fill="#1919D3"/>
    <path d="M61.3486 64.6143H59.8188L72.1029 47.5737H73.6292L61.3486 64.6143Z" fill="#1919D3"/>
    <path d="M77.3972 40.6721C77.3972 43.4977 74.6231 45.7763 71.2005 45.7763C67.7779 45.7763 65.0073 43.4867 65.0073 40.6721H77.3972Z" fill="#1919D3"/>
    <path d="M41.796 65.4557L26.7241 65.4557L26.8078 64.503H41.5448L41.796 65.4557Z" fill="#1919D3"/>
    <path d="M25.2355 55.3227C25.2355 55.3227 26.0542 55.5825 27.059 55.5825C28.04 55.5825 29.571 55.5825 29.571 55.5825L24.7208 71.4719C24.3876 72.5694 23.2877 73.2105 22.2074 72.9369C21.0253 72.6375 20.333 71.3681 20.6967 70.1668L25.2355 55.3227Z" fill="#1919D3"/>
    <path d="M43.1357 55.3642C43.1357 55.3642 42.3465 55.5825 41.461 55.5825C40.4146 55.5825 38.7816 55.5825 38.7816 55.5825L43.6317 71.4719C43.9649 72.5694 45.0649 73.2105 46.1451 72.9369C47.3272 72.6375 48.0195 71.3681 47.6558 70.1668L43.1357 55.3642Z" fill="#1919D3"/>
    <path d="M23.7097 43.3709V46.229H44.7266V43.3709C44.7266 42.4143 43.9768 41.6388 43.052 41.6388H25.3843C24.4594 41.6388 23.7097 42.4143 23.7097 43.3709Z" fill="#1919D3"/>
    <path d="M20.3604 48.6539V46.5754H48.1597V48.6539C48.1597 52.4805 45.1606 55.5825 41.461 55.5825C35.8367 55.5825 32.6833 55.5825 27.059 55.5825C23.3594 55.5825 20.3604 52.4805 20.3604 48.6539Z" fill="#1919D3"/>
    <path d="M28.8432 30.3815C28.9812 30.3962 29.0816 30.5238 29.0673 30.6665L29.0668 30.6717L29.0654 30.686C29.0641 30.6984 29.0623 30.7163 29.0599 30.7386C29.0553 30.7832 29.0486 30.8455 29.0406 30.9163C29.0248 31.0567 29.0033 31.2345 28.9817 31.3739C28.897 31.9208 28.5493 32.1919 28.2778 32.4036L28.2709 32.409C27.9888 32.6289 27.7889 32.7901 27.7238 33.1173C27.6882 33.2964 27.6735 33.401 27.6731 33.4994C27.6727 33.5966 27.6863 33.7004 27.7232 33.8757C27.7921 34.2033 28.0274 34.4337 28.3383 34.7331L28.3455 34.74C28.6314 35.0153 28.9887 35.3594 29.0658 35.8839C29.0834 36.0034 29.0927 36.0906 29.0919 36.182C29.0912 36.267 29.0814 36.35 29.0691 36.4541L29.0668 36.4739C28.9964 37.073 28.6061 37.3476 28.3083 37.5572L28.2938 37.5674C27.982 37.7869 27.7729 37.9438 27.7267 38.2963C27.712 38.4077 27.7113 38.5628 27.7156 38.6999C27.7177 38.7664 27.7208 38.825 27.7234 38.8669C27.7247 38.8878 27.7259 38.9045 27.7267 38.9157L27.7277 38.9284L27.7279 38.9314L27.728 38.932C27.7398 39.075 27.6373 39.2008 27.4991 39.2131C27.3609 39.2253 27.2392 39.1193 27.2274 38.9763L27.4777 38.9542C27.2274 38.9763 27.2274 38.9763 27.2274 38.9763L27.2273 38.9745L27.2269 38.9703L27.2258 38.9551C27.2248 38.9421 27.2235 38.9234 27.2221 38.9003C27.2192 38.8543 27.2157 38.7899 27.2135 38.7167C27.209 38.5744 27.2083 38.3831 27.2288 38.2264C27.3067 37.6332 27.6956 37.3597 27.9918 37.1514L28.0111 37.1378C28.3217 36.9191 28.5268 36.7627 28.5681 36.4112L28.5692 36.402C28.583 36.284 28.5891 36.2299 28.5895 36.1772C28.59 36.1279 28.5855 36.0734 28.5691 35.962C28.5216 35.6384 28.303 35.4091 27.9959 35.1134L27.9601 35.079C27.6821 34.812 27.3362 34.4798 27.2323 33.9863C27.1927 33.7981 27.17 33.651 27.1707 33.4972C27.1713 33.3445 27.1948 33.1979 27.2317 33.0126C27.3364 32.4859 27.6791 32.2192 27.9449 32.0124L27.9684 31.994C28.2467 31.777 28.4353 31.6168 28.4857 31.2917C28.5055 31.1639 28.5259 30.9952 28.5416 30.8561C28.5494 30.787 28.5559 30.7262 28.5605 30.6826C28.5627 30.6609 28.5645 30.6434 28.5658 30.6315L28.5676 30.6134L28.8432 30.3815Z" fill="#CCE5F7"/>
    <path d="M35.0116 30.3815C35.1496 30.3962 35.2499 30.5238 35.2357 30.6665L35.2357 30.6669L35.2352 30.6717L35.2337 30.686C35.2325 30.6984 35.2306 30.7163 35.2283 30.7386C35.2236 30.7832 35.2169 30.8455 35.209 30.9163C35.1931 31.0567 35.1717 31.2345 35.1501 31.3739C35.0654 31.9208 34.7176 32.1919 34.4461 32.4036L34.4392 32.409C34.1571 32.6289 33.9572 32.7901 33.8921 33.1173C33.8565 33.2964 33.8418 33.401 33.8414 33.4994C33.841 33.5966 33.8546 33.7004 33.8915 33.8757C33.9605 34.2033 34.1958 34.4337 34.5066 34.7331L34.5138 34.74C34.7998 35.0153 35.1571 35.3594 35.2341 35.8839C35.2517 36.0034 35.2611 36.0906 35.2603 36.182C35.2595 36.267 35.2497 36.35 35.2375 36.4541L35.2352 36.4739C35.1648 37.073 34.7745 37.3476 34.4766 37.5572L34.4622 37.5674C34.1503 37.7869 33.9413 37.9438 33.895 38.2963C33.8804 38.4077 33.8796 38.5628 33.8839 38.6999C33.886 38.7664 33.8892 38.825 33.8918 38.8669C33.8931 38.8878 33.8942 38.9045 33.8951 38.9157L33.896 38.9284L33.8963 38.932C33.9081 39.075 33.8057 39.2008 33.6674 39.2131C33.5292 39.2253 33.4076 39.1193 33.3957 38.9763L33.646 38.9542C33.3957 38.9763 33.3957 38.9763 33.3957 38.9763L33.3957 38.9757L33.3956 38.9745L33.3953 38.9703L33.3941 38.9551C33.3932 38.9421 33.3919 38.9234 33.3904 38.9003C33.3875 38.8543 33.3841 38.7899 33.3818 38.7167C33.3773 38.5744 33.3766 38.3831 33.3972 38.2264C33.475 37.6332 33.8639 37.3597 34.1602 37.1514L34.1794 37.1378C34.4901 36.9191 34.6951 36.7627 34.7364 36.4112L34.7375 36.402C34.7514 36.284 34.7574 36.2299 34.7579 36.1772C34.7583 36.1279 34.7538 36.0734 34.7375 35.962C34.6899 35.6384 34.4714 35.4091 34.1643 35.1134L34.1285 35.079C33.8505 34.812 33.5045 34.4798 33.4006 33.9863C33.361 33.7981 33.3384 33.651 33.339 33.4972C33.3396 33.3445 33.3632 33.1979 33.4001 33.0126C33.5048 32.4859 33.8475 32.2192 34.1132 32.0124L34.1368 31.994C34.4151 31.777 34.6037 31.6168 34.654 31.2917C34.6738 31.1639 34.6942 30.9952 34.7099 30.8561C34.7177 30.787 34.7242 30.7262 34.7288 30.6826C34.7311 30.6609 34.7329 30.6434 34.7341 30.6315L34.7355 30.6179L34.7359 30.6135L34.7359 30.6134L35.0116 30.3815Z" fill="#CCE5F7"/>
    <path d="M41.404 30.6665C41.4183 30.5238 41.3179 30.3962 41.1799 30.3815L40.9043 30.6133L40.9043 30.6135L40.9038 30.6179L40.9025 30.6315C40.9012 30.6434 40.8994 30.6609 40.8972 30.6826C40.8926 30.7262 40.8861 30.787 40.8783 30.8561C40.8626 30.9952 40.8422 31.1639 40.8224 31.2917C40.772 31.6168 40.5834 31.777 40.3051 31.994L40.2816 32.0124C40.0158 32.2192 39.6731 32.4859 39.5684 33.0126C39.5315 33.1979 39.508 33.3445 39.5074 33.4972C39.5067 33.651 39.5294 33.7981 39.569 33.9863C39.6728 34.4798 40.0188 34.812 40.2968 35.079L40.3326 35.1134C40.6397 35.4091 40.8583 35.6384 40.9058 35.962C40.9222 36.0734 40.9267 36.1279 40.9262 36.1772C40.9258 36.2299 40.9197 36.284 40.9059 36.402L40.9048 36.4112C40.8635 36.7627 40.6584 36.9191 40.3478 37.1378L40.3285 37.1514C40.0323 37.3597 39.6434 37.6332 39.5655 38.2264C39.545 38.3831 39.5457 38.5744 39.5502 38.7167C39.5524 38.7899 39.5559 38.8543 39.5588 38.9003C39.5602 38.9234 39.5615 38.9421 39.5625 38.9551L39.5636 38.9703L39.564 38.9745L39.564 38.9757L39.5641 38.9761L39.5641 38.9763C39.5641 38.9763 39.5641 38.9763 39.8144 38.9542L39.5641 38.9763C39.5759 39.1193 39.6976 39.2253 39.8358 39.2131C39.974 39.2008 40.0765 39.075 40.0647 38.9321L40.0646 38.9314L40.0644 38.9284L40.0634 38.9157C40.0626 38.9045 40.0614 38.8878 40.0601 38.8669C40.0575 38.825 40.0544 38.7664 40.0523 38.6999C40.048 38.5628 40.0487 38.4077 40.0634 38.2963C40.1096 37.9438 40.3187 37.7869 40.6305 37.5674L40.645 37.5572C40.9428 37.3476 41.3331 37.073 41.4035 36.4739L41.4058 36.4541C41.4181 36.35 41.4279 36.267 41.4286 36.182C41.4294 36.0906 41.4201 36.0034 41.4025 35.8839C41.3254 35.3594 40.9681 35.0153 40.6822 34.74L40.675 34.7331C40.3641 34.4337 40.1288 34.2033 40.0599 33.8757C40.023 33.7004 40.0094 33.5966 40.0098 33.4994C40.0102 33.401 40.0249 33.2964 40.0605 33.1173C40.1256 32.7901 40.3255 32.6289 40.6076 32.409L40.6145 32.4036C40.886 32.1919 41.2337 31.9208 41.3184 31.3739C41.34 31.2345 41.3615 31.0567 41.3773 30.9163C41.3853 30.8455 41.392 30.7832 41.3966 30.7386C41.399 30.7163 41.4008 30.6984 41.4021 30.686L41.4035 30.6717L41.404 30.6665Z" fill="#CCE5F7"/>
    <path d="M34.6697 70.0146C37.9544 70.0146 39.244 66.8658 38.0598 64.2372C36.8756 61.6087 37.3683 60.8949 37.3683 60.8949C37.3683 60.8949 35.9058 62.3119 35.9058 63.3645C34.751 62.1545 37.6121 59.5514 36.4244 56.9454C35.5445 58.6832 34.9584 59.5544 32.3014 62.105C29.8033 64.5011 28.2561 70.0146 34.6697 70.0146Z" fill="#407BFF"/>
    <path opacity="0.5" d="M34.0178 69.6083C32.2303 69.6083 31.3987 67.7565 32.2441 66.323C33.0894 64.8895 32.6745 64.4307 32.6745 64.4307C32.6745 64.4307 33.5666 65.2734 33.4871 65.8461C34.2079 65.1864 33.1966 63.57 34.0385 62.15C34.3843 63.0961 34.3013 63.7619 35.5443 65.1609C36.8547 66.6334 37.5133 69.6083 34.0178 69.6083Z" fill="#F2F7FF"/>
    <path opacity="0.5" d="M34.3621 69.055C35.159 69.055 35.529 68.2303 35.1521 67.5901C34.7752 66.9498 34.9602 66.7474 34.9602 66.7474C34.9602 66.7474 34.5626 67.1222 34.5972 67.3786C34.2774 67.0787 34.7268 66.362 34.3517 65.7292C34.1961 66.1521 34.2359 66.449 33.681 67.0712C33.0966 67.7295 32.8027 69.055 34.3621 69.055Z" fill="#F2F7FF"/>
    <path d="M30.2339 70.7794C30.2339 70.4533 30.3832 70.1406 30.6491 69.91C30.9149 69.6794 31.2755 69.5499 31.6515 69.5499H36.8602V70.7794H30.2339Z" fill="#CCE5F7"/>
    <path opacity="0.2" d="M30.2339 70.7794C30.2339 70.4533 30.3832 70.1406 30.6491 69.91C30.9149 69.6794 31.2755 69.5499 31.6515 69.5499H36.8602V70.7794H30.2339Z" fill="#00308E"/>
    <path d="M36.86 69.5469C37.2359 69.5469 37.5965 69.6764 37.8623 69.907C38.1282 70.1376 38.2775 70.4504 38.2775 70.7764H35.4424C35.4424 70.4504 35.5917 70.1376 35.8576 69.907C36.1234 69.6764 36.484 69.5469 36.86 69.5469Z" fill="#CCE5F7"/>
</svg>
