<svg width="90" height="80" viewBox="0 0 90 80" fill="none" xmlns="http://www.w3.org/2000/svg">
    <path d="M70.9757 30.9534C71.2501 30.5936 71.5043 30.2192 71.7373 29.8319L71.915 29.5369C72.0924 29.2311 72.2478 28.9257 72.3923 28.6206C72.4696 28.4517 72.5522 28.2773 72.6185 28.1087C72.6848 27.94 72.7164 27.8962 72.7518 27.793L72.8528 27.4995C73.0551 26.9456 73.2162 26.3777 73.3349 25.8002L73.3974 25.502C73.4962 24.9499 73.5551 24.3913 73.5736 23.8303L73.5764 23.5495C73.5889 23.0016 73.5547 22.4532 73.4741 21.9101C73.4657 21.8077 73.4466 21.7162 73.4332 21.6301C73.3458 21.0797 73.2129 20.5369 73.0357 20.0072C73.0088 19.9162 72.977 19.8267 72.9403 19.7391C72.7445 19.1905 72.4981 18.6602 72.2043 18.1552C72.1368 18.0917 72.1008 17.9844 72.0489 17.8936C71.8476 17.5657 71.6225 17.2525 71.3754 16.9563C71.2516 16.8399 71.1596 16.6905 71.0408 16.5579C70.9219 16.4252 70.9057 16.4309 70.8381 16.3674C70.7553 16.2791 70.6669 16.196 70.5735 16.1187C70.3666 15.9033 70.1486 15.6985 69.9204 15.505C69.6874 15.3174 69.4447 15.1418 69.1932 14.9792C69.1031 14.8945 68.9867 14.8482 68.8807 14.78C68.7747 14.7119 68.7137 14.6861 68.6411 14.6389C68.5685 14.5917 68.3352 14.4774 68.1797 14.4048C67.8353 14.2301 67.4796 14.0783 67.115 13.9503C67.0099 13.9145 66.9158 13.8785 66.811 13.8536C66.2425 13.6609 65.6571 13.5222 65.0628 13.4392L64.7716 13.407C64.2145 13.3439 63.6533 13.3294 63.0944 13.3638C62.9974 13.3632 62.9005 13.3704 62.8048 13.3856C62.251 13.4186 61.7017 13.4996 61.1633 13.6279L60.8749 13.6928C60.3319 13.8385 59.7993 14.0183 59.2803 14.2312L59.01 14.3552C58.4596 14.586 57.9291 14.8598 57.4235 15.1741L57.1542 15.3305L56.8749 15.5195L56.4135 15.8523C56.1345 16.0521 55.8671 16.2732 55.6052 16.4996L55.3606 16.7527C55.0522 17.0718 54.7385 17.3964 54.4194 17.7266L54.1323 18.0237L54.0738 18.0842L53.8573 18.3637C53.7563 18.4683 53.6606 18.5673 53.5987 18.6981C53.3406 19.054 53.0994 19.4258 52.8855 19.7917L52.7134 20.092C52.5207 20.4358 52.3449 20.7956 52.196 21.1386L51.9658 21.6992L51.9148 21.8298L51.8138 22.1233C51.6297 22.6753 51.4832 23.239 51.3752 23.8109L51.3286 24.0925C51.24 24.6454 51.1884 25.2037 51.1744 25.7639L51.1715 26.0447C51.1756 26.5967 51.2208 27.148 51.3069 27.6942C51.317 27.7865 51.3324 27.8781 51.3532 27.9687C51.4476 28.5147 51.5895 29.0521 51.7776 29.5749C51.808 29.6769 51.8433 29.7626 51.8733 29.8538C52.0842 30.3998 52.3451 30.9261 52.6528 31.4261C52.7045 31.5183 52.762 31.6074 52.8248 31.6927C52.9265 31.8583 53.0372 32.0183 53.1563 32.1723C53.259 32.3191 53.371 32.4594 53.4916 32.5923C53.6713 32.8152 53.8659 33.0261 54.074 33.2236C54.1606 33.3154 54.2527 33.402 54.3499 33.4828C54.4995 33.6391 54.6573 33.7874 54.8228 33.9272C54.9896 34.0639 55.1633 34.1921 55.3433 34.3113C55.4334 34.3959 55.5235 34.4806 55.6505 34.5159C55.8906 34.6729 56.1398 34.8159 56.3968 34.9442C56.5582 35.0329 56.7192 35.1108 56.8856 35.1832C57.052 35.2556 57.2516 35.3381 57.4343 35.4047C57.6169 35.4714 57.6282 35.482 57.7277 35.5125C58.2915 35.7062 58.8711 35.8504 59.4599 35.9433C59.5576 35.9641 59.6569 35.9767 59.7567 35.9808C60.317 36.0521 60.882 36.0773 61.4458 36.0562L61.7248 36.0454C62.2815 36.0173 62.8345 35.9434 63.3779 35.8245L63.6556 35.7705C64.2092 35.6447 64.7518 35.4772 65.2787 35.2694L65.5605 35.1668C66.1082 34.9381 66.6385 34.6717 67.1477 34.3695L67.4114 34.2078L67.5515 34.1295L68.0404 33.8015C68.3596 33.577 68.667 33.3368 68.9616 33.0818L69.2009 32.8342C69.4986 32.5261 69.8408 32.2387 70.1155 31.8879C70.2185 31.7924 70.3161 31.6914 70.4079 31.5853C70.495 31.5063 70.5767 31.4217 70.6525 31.3322L70.7164 31.2662L70.9757 30.9534ZM70.2791 29.9734C70.1211 30.1924 69.9579 30.417 69.778 30.6364C69.5457 30.9043 69.299 31.1595 69.0389 31.4012L68.8969 30.0919L70.2566 29.9522L70.2791 29.9734ZM58.9475 34.706C58.4863 34.5944 58.0336 34.4498 57.5932 34.2732L57.4797 33.1902L59.1343 33.0232L59.3132 34.6612L58.9529 34.7005L58.9475 34.706ZM55.4922 33.0234L55.3212 31.4663L56.9815 31.3047L57.1657 32.9371L55.5876 33.1026L55.4922 33.0234ZM53.2008 30.1143L53.163 29.7533L54.8067 29.5866L54.9909 31.219L53.8933 31.332C53.6344 30.9477 53.4066 30.5441 53.2121 30.1249L53.2008 30.1143ZM53.1985 21.7132C53.3739 21.2954 53.5762 20.8894 53.8041 20.4974L53.9198 21.656L53.1879 21.7242L53.1985 21.7132ZM54.9486 18.7908C55.1401 18.5927 55.3315 18.3947 55.5229 18.1966L55.6715 19.5435L54.3171 19.6777C54.5273 19.3712 54.7452 19.0791 54.9709 18.8011L54.9486 18.7908ZM66.2758 14.852C66.5022 14.9178 66.7125 14.9893 66.923 15.0716L67.0774 16.4346L65.4171 16.5963L65.2383 14.9584L66.2758 14.852ZM69.2303 18.1532L67.5757 18.3201L67.3968 16.6822L69.0514 16.5153L69.2303 18.1532ZM71.2769 18.848L71.3719 19.8612L69.7173 20.0281L69.5328 18.3849L70.909 18.2504C71.0798 18.4738 71.1949 18.666 71.3154 18.8526L71.2769 18.848ZM70.7496 29.1976L70.6001 28.0073L71.4136 27.9214C71.2316 28.366 71.019 28.7976 70.7774 29.2133L70.7496 29.1976ZM68.6716 31.77L67.1261 31.924L66.9867 30.3232L68.6413 30.1562L68.8177 31.7078L68.6716 31.77ZM54.0059 20.0886L54.1069 19.9841L55.6687 19.8243L55.8532 21.4675L54.1929 21.6292L54.0284 20.1098L54.0059 20.0886ZM55.7923 17.8512L57.3816 17.6963L57.5604 19.3342L55.9001 19.4959L55.7829 17.9054L55.7923 17.8512ZM59.9275 22.9654L58.2729 23.1323L58.0887 21.4999L59.7487 21.3275L59.9275 22.9654ZM60.033 21.3112L61.6929 21.1388L61.8718 22.7767L60.2172 22.9436L60.033 21.3112ZM59.9632 23.2509L60.142 24.8888L58.4874 25.0557L58.3085 23.4178L59.9632 23.2509ZM60.2472 23.2238L61.9018 23.0568L62.086 24.6893L60.4639 24.8448L60.2472 23.2238ZM62.1859 23.0298L63.8461 22.8681L64.0303 24.5005L62.3757 24.6675L62.1859 23.0298ZM62.1761 24.9629L62.355 26.6008L60.6947 26.7624L60.5105 25.13L62.1761 24.9629ZM62.4545 24.9305L64.1148 24.7688L64.3052 26.4281L62.6506 26.5951L62.4545 24.9305ZM64.3988 24.7418L66.0591 24.5801L66.2433 26.2125L64.583 26.3742L64.3988 24.7418ZM64.3346 26.6867L64.5135 28.3246L62.8532 28.4863L62.669 26.8539L64.3346 26.6867ZM64.613 26.6543L66.2733 26.4927L66.4575 28.1251L64.7972 28.2868L64.613 26.6543ZM66.5517 26.4603L68.212 26.2987L68.4018 27.9364L66.7359 28.0927L66.5517 26.4603ZM66.5217 26.1801L66.3375 24.5478L68.0031 24.3806L68.1819 26.0185L66.5217 26.1801ZM66.3074 24.2676L66.1286 22.6297L67.7889 22.468L67.9677 24.1059L66.3074 24.2676ZM66.0234 24.2947L64.3688 24.4616L64.1843 22.8184L65.8446 22.6567L66.0234 24.2947ZM64.1599 22.5435L63.9701 20.9058L65.6303 20.7442L65.8145 22.3766L64.1599 22.5435ZM63.8702 22.5653L62.2103 22.7377L62.0261 21.1053L63.6861 20.9329L63.8702 22.5653ZM62.0067 20.8142L61.8225 19.1817L63.4771 19.0148L63.6613 20.6472L62.0067 20.8142ZM61.7174 20.8467L60.0571 21.0084L59.8729 19.376L61.5329 19.2035L61.7174 20.8467ZM59.7787 21.0408L58.1184 21.2024L57.9342 19.57L59.5942 19.3976L59.7787 21.0408ZM57.8344 21.2295L56.1638 21.4129L55.974 19.7752L57.6396 19.6081L57.8344 21.2295ZM57.8644 21.5097L58.0433 23.1476L56.3886 23.3145L56.2097 21.6766L57.8644 21.5097ZM58.0786 23.4223L58.2575 25.0602L56.6028 25.2271L56.424 23.5892L58.0786 23.4223ZM58.2931 25.3456L58.472 26.9835L56.8173 27.1505L56.6328 25.5073L58.2931 25.3456ZM58.5715 25.3133L60.2371 25.1461L60.416 26.784L58.7348 26.9785L58.5715 25.3133ZM60.4463 27.075L60.6252 28.7129L58.9649 28.8745L58.786 27.2366L60.4463 27.075ZM60.7247 27.0426L62.3903 26.8755L62.5692 28.5134L60.9089 28.675L60.7247 27.0426ZM62.5995 28.8043L62.7784 30.4422L61.1181 30.6039L60.9392 28.966L62.5995 28.8043ZM62.8779 28.772L64.5382 28.6103L64.7224 30.2427L63.0621 30.4044L62.8779 28.772ZM64.8166 28.5779L66.4769 28.4163L66.6667 30.054L65.0008 30.2103L64.8166 28.5779ZM66.7662 28.3837L68.4209 28.2168L68.6107 29.8545L66.9451 30.0216L66.7662 28.3837ZM68.4907 26.2771L70.1506 26.1047L70.3351 27.7479L68.6695 27.915L68.4907 26.2771ZM68.455 25.9916L68.2761 24.3537L69.9364 24.1921L70.1263 25.8298L68.455 25.9916ZM68.2464 24.0843L68.0619 22.4411L69.7222 22.2795L69.9293 23.9438L68.2464 24.0843ZM68.0375 22.1662L67.853 20.5231L69.5133 20.3614L69.6922 21.9993L68.0375 22.1662ZM67.7479 22.188L66.0986 22.3495L65.9197 20.7116L67.5744 20.5446L67.7479 22.188ZM65.8844 20.4369L65.7055 18.799L67.3601 18.632L67.5443 20.2645L65.8844 20.4369ZM65.5947 20.4587L63.94 20.6256L63.7559 18.9932L65.4105 18.8263L65.5947 20.4587ZM63.7312 18.7075L63.5523 17.0696L65.2069 16.9027L65.3911 18.5351L63.7312 18.7075ZM63.4471 18.7346L61.7868 18.8963L61.6027 17.2639L63.2573 17.0969L63.4471 18.7346ZM61.5085 18.9286L59.8482 19.0903L59.664 17.4579L61.3186 17.2909L61.5085 18.9286ZM59.5373 19.1341L57.877 19.2958L57.6871 17.658L59.3528 17.4909L59.5373 19.1341ZM55.9379 21.7466L56.1168 23.3846L54.4621 23.5515L54.2776 21.9083L55.9379 21.7466ZM56.1468 23.6647L56.331 25.2971L54.671 25.4696L54.4922 23.8317L56.1468 23.6647ZM56.361 25.5773L56.5455 27.2205L54.8852 27.3821L54.7064 25.7442L56.361 25.5773ZM56.5809 27.4952L56.7597 29.1331L55.0885 29.295L54.904 27.6518L56.5809 27.4952ZM56.8592 27.4628L58.5195 27.3012L58.6759 28.9179L57.0212 29.0849L56.8592 27.4628ZM58.7341 29.2245L58.9129 30.8625L57.2473 31.0296L57.0685 29.3917L58.7341 29.2245ZM59.0125 29.1922L60.6727 29.0305L60.8516 30.6684L59.1913 30.8301L59.0125 29.1922ZM60.8816 30.9486L61.0661 32.5918L59.4005 32.759L59.2217 31.1211L60.8816 30.9486ZM61.1657 30.9215L62.8203 30.7546L63.0048 32.3978L61.3445 32.5594L61.1657 30.9215ZM63.099 30.733L64.7646 30.5658L64.9435 32.2038L63.2926 32.3112L63.099 30.733ZM65.0486 30.5388L66.7033 30.3718L66.8931 32.0095L65.2328 32.1712L65.0486 30.5388ZM68.7171 28.2327L70.3774 28.071L70.5487 29.6389L70.4902 29.6994L68.8847 29.86L68.7171 28.2327ZM71.6032 27.6586L70.6098 27.7749L70.4309 26.137L72.0912 25.9754L72.1065 26.1263C71.9683 26.6361 71.7942 27.1356 71.5857 27.6211L71.6032 27.6586ZM70.4115 25.8459L70.2326 24.2079L71.893 24.0463L72.0771 25.6787L70.4115 25.8459ZM70.2026 23.9278L70.0181 22.2846L71.6784 22.1229L71.8629 23.7661L70.2026 23.9278ZM69.9884 22.0152L69.8039 20.372L71.4642 20.2103L71.6431 21.8482L69.9884 22.0152ZM69.4846 20.1244L67.8299 20.2913L67.651 18.6534L69.3057 18.4865L69.4846 20.1244ZM67.337 18.4003L65.6714 18.5675L65.4925 16.9296L67.1472 16.7626L67.337 18.4003ZM65.1666 16.6443L63.501 16.8115L63.3221 15.1736L64.9824 15.0119L65.1666 16.6443ZM63.2279 16.8383L61.5633 17.0379L61.3844 15.4L63.039 15.233L63.2279 16.8383ZM61.2839 17.0379L59.6236 17.1995L59.4338 15.5618L61.0941 15.4002L61.2839 17.0379ZM59.1554 15.5942L59.3396 17.2266L57.6793 17.3882L57.547 16.4135C58.0077 16.1002 58.4922 15.8219 58.9962 15.5811L59.1554 15.5942ZM57.39 17.4208L56.1836 17.5575C56.54 17.2225 56.921 16.9138 57.3234 16.6338L57.39 17.4208ZM53.0809 22.0016L53.9601 21.9144L54.1725 23.5733L52.5832 23.7282C52.7031 23.1403 52.8695 22.5631 53.0809 22.0016ZM54.18 23.8323L54.3642 25.4647L52.7042 25.6371L52.5197 23.9939L54.18 23.8323ZM54.3942 25.7449L54.5731 27.3828L52.9184 27.5497L52.7342 25.9173L54.3942 25.7449ZM54.6031 27.663L54.7929 29.3007L53.1273 29.4678L52.9484 27.8299L54.6031 27.663ZM55.1013 29.5485L56.7616 29.3868L56.9458 31.0192L55.2858 31.1917L55.1013 29.5485ZM57.2598 31.2723L58.9201 31.1107L59.099 32.7486L57.4387 32.9102L57.2598 31.2723ZM59.4183 32.9962L61.073 32.8292L61.2575 34.4724L59.5972 34.6341L59.4183 32.9962ZM61.3627 32.8074L63.0283 32.6403L63.158 34.2845L61.4977 34.4462L61.3627 32.8074ZM63.307 32.6187L64.9669 32.4463L65.1458 34.0842L63.4911 34.2511L63.307 32.6187ZM65.2456 32.4247L66.9056 32.2522L67.0023 33.1305C66.4986 33.458 65.9706 33.7479 65.4226 33.9979L65.2456 32.4247ZM67.2762 32.947L67.1953 32.2305L68.3698 32.1268C68.0293 32.415 67.6692 32.6799 67.2919 32.9197L67.2762 32.947ZM72.2983 25.1831L72.1488 23.9928L72.4219 23.9659C72.4048 24.3724 72.3617 24.7772 72.2927 25.1778L72.2983 25.1831ZM72.3603 22.0288C72.4356 22.5742 72.4643 23.1245 72.4463 23.6739L72.1294 23.7016L71.9505 22.0637L72.3603 22.0288ZM72.3137 21.7435L71.9205 21.7835L71.7307 20.1458L71.8837 20.1321C72.0726 20.6546 72.2146 21.192 72.3081 21.7382L72.3137 21.7435ZM71.7063 19.8709L71.6769 19.6123C71.7168 19.6924 71.7521 19.7747 71.7826 19.8586L71.7063 19.8709ZM70.7711 18.0263L69.5647 18.1629L69.3858 16.525C69.9108 16.9614 70.3748 17.4645 70.7655 18.021L70.7711 18.0263ZM69.0496 16.2616L67.3893 16.4232L67.2398 15.2329C67.8829 15.496 68.4894 15.84 69.0439 16.2563L69.0496 16.2616ZM65.4929 14.6727L65.2308 14.6994L65.2233 14.6293C65.3119 14.637 65.4 14.6498 65.4873 14.6674L65.4929 14.6727ZM63.248 14.5055C63.8118 14.4843 64.3767 14.5095 64.937 14.5809L64.9524 14.7317L63.2921 14.8934L63.248 14.5055ZM62.9637 14.5218L63.0137 14.9258L61.3534 15.0874L61.3171 14.7804C61.85 14.6461 62.393 14.5525 62.9412 14.5006L62.9637 14.5218ZM61.0694 15.1145L59.8736 15.2402C60.255 15.0879 60.6465 14.9613 61.0456 14.8612L61.0694 15.1145ZM52.3586 25.0499L52.4202 25.6642L52.322 25.6769C52.3157 25.4655 52.326 25.2541 52.353 25.0446L52.3586 25.0499ZM52.427 27.6024C52.3425 27.0579 52.2992 26.5083 52.2973 25.9582L52.4502 25.9444L52.6504 27.5603L52.443 27.5859L52.427 27.6024ZM52.4733 27.8769L52.6644 27.857L52.8055 29.1339C52.6616 28.7238 52.5505 28.3035 52.4733 27.8769ZM54.1035 31.5924L55.0318 31.4989L55.1722 32.7542C54.7819 32.3988 54.4242 32.01 54.1035 31.5924ZM55.9389 33.3171L57.2169 33.1953L57.3201 34.1111C56.8279 33.8996 56.3565 33.643 55.9123 33.3446L55.9389 33.3171ZM60.0032 34.8476L61.3138 34.7143L61.336 34.9137C60.8829 34.9348 60.4284 34.9219 59.9766 34.8751L60.0032 34.8476ZM63.2734 34.6764C62.7299 34.7948 62.177 34.8687 61.6203 34.8974L61.6035 34.6925L63.2581 34.5256L63.2734 34.6764ZM63.5421 34.4985L64.1918 34.4265C63.9824 34.5014 63.7683 34.5632 63.5509 34.6117L63.5421 34.4985Z" fill="#407BFF"/>
    <path d="M71.5556 32.0534C76.11 26.4964 75.6973 18.6759 70.6349 14.6327C65.5725 10.5895 57.7438 11.8205 53.195 17.3829C52.3175 18.4493 51.6012 19.6359 51.0681 20.9063L51.0096 20.9668C50.82 21.4169 50.6578 21.8779 50.5239 22.3475C49.7144 24.9871 49.5904 27.7903 50.163 30.5014C50.5183 32.9349 51.2895 35.3603 49.6446 38.5072L47.2799 41.3874L49.0011 42.7632L51.3657 39.8831C54.1319 37.6323 56.7126 37.8632 59.1835 37.7075C61.9812 37.6859 64.7226 36.974 67.1576 35.6369C67.5965 35.4097 68.0208 35.1563 68.4281 34.8781L68.4866 34.8176C69.6405 34.0477 70.6742 33.1167 71.5556 32.0534ZM51.0733 38.674L50.9269 38.5365C52.1878 35.9314 51.7531 33.5913 51.522 31.663C52.1901 32.8491 53.0813 33.9003 54.1473 34.7598C55.2196 35.6151 56.4493 36.2571 57.7673 36.6497C55.7693 36.8718 53.3616 36.94 51.0733 38.674ZM67.411 34.1743C67.2336 34.2911 67.0504 34.3918 66.878 34.4923C62.9539 36.6629 58.2201 36.5924 54.8564 33.9039C51.4926 31.2154 50.4296 26.6577 51.7581 22.4154L51.9548 21.834C52.4534 20.4802 53.1755 19.2187 54.0921 18.0998C58.2552 13.0254 65.347 11.8788 69.9321 15.5155C74.5172 19.1522 74.8439 26.2725 70.6754 31.3524C69.7492 32.4781 68.6368 33.4412 67.3844 34.2018L67.411 34.1743Z" fill="#00308E"/>
    <path d="M49.4189 42.0449L47.945 40.8673C47.7181 40.6861 47.3868 40.7191 47.2049 40.9411L38.2276 51.9012C38.0457 52.1233 38.0822 52.4502 38.3091 52.6314L39.783 53.809C40.0099 53.9902 40.3412 53.9572 40.5231 53.7352L49.5004 42.7751C49.6823 42.553 49.6458 42.2261 49.4189 42.0449Z" fill="#407BFF"/>
    <path d="M77.4958 33.9994C77.7702 33.6395 78.0245 33.2651 78.2575 32.8778L78.4351 32.5828C78.6125 32.2771 78.768 31.9717 78.9125 31.6665C78.9898 31.4977 79.0723 31.3233 79.1386 31.1546C79.205 30.986 79.2365 30.9422 79.2719 30.8389L79.373 30.5454C79.5752 29.9916 79.7363 29.4237 79.855 28.8461L79.9176 28.548C80.0163 27.9959 80.0752 27.4372 80.0937 26.8762L80.0965 26.5954C80.109 26.0475 80.0748 25.4991 79.9943 24.956C79.9858 24.8536 79.9668 24.7622 79.9533 24.676C79.866 24.1257 79.733 23.5829 79.5558 23.0532C79.529 22.9622 79.4971 22.8727 79.4604 22.785C79.2646 22.2364 79.0183 21.7062 78.7245 21.2011C78.6569 21.1376 78.6209 21.0303 78.569 20.9395C78.3677 20.6117 78.1426 20.2984 77.8956 20.0023C77.7717 19.8859 77.6798 19.7365 77.5609 19.6038C77.4421 19.4711 77.4258 19.4768 77.3582 19.4133C77.2754 19.325 77.1871 19.242 77.0936 19.1647C76.8867 18.9493 76.6687 18.7444 76.4405 18.551C76.2076 18.3633 75.9648 18.1878 75.7133 18.0251C75.6232 17.9405 75.5069 17.8941 75.4009 17.826C75.2948 17.7578 75.2338 17.732 75.1612 17.6848C75.0887 17.6376 74.8553 17.5234 74.6999 17.4508C74.3555 17.2761 73.9998 17.1242 73.6352 16.9962C73.5301 16.9604 73.4359 16.9245 73.3312 16.8995C72.7627 16.7069 72.1773 16.5681 71.583 16.4851L71.2918 16.453C70.7346 16.3898 70.1734 16.3754 69.6146 16.4098C69.5175 16.4091 69.4206 16.4164 69.3249 16.4316C68.7712 16.4645 68.2219 16.5456 67.6834 16.6738L67.395 16.7388C66.8521 16.8844 66.3195 17.0642 65.8004 17.2771L65.5302 17.4011C64.9797 17.6319 64.4492 17.9058 63.9437 18.22L63.6744 18.3764L63.395 18.5654L62.9337 18.8983C62.6546 19.098 62.3872 19.3192 62.1254 19.5456L61.8808 19.7987C61.5724 20.1178 61.2586 20.4424 60.9396 20.7725L60.6524 21.0696L60.5939 21.1301L60.3775 21.4097C60.2764 21.5142 60.1807 21.6132 60.1188 21.744C59.8607 22.1 59.6196 22.4718 59.4056 22.8376L59.2336 23.1379C59.0409 23.4818 58.8651 23.8415 58.7162 24.1846L58.486 24.7451L58.435 24.8757L58.3339 25.1692C58.1498 25.7212 58.0033 26.285 57.8954 26.8568L57.8487 27.1385C57.7601 27.6913 57.7086 28.2496 57.6945 28.8098L57.6917 29.0906C57.6957 29.6427 57.741 30.194 57.8271 30.7402C57.8371 30.8324 57.8526 30.9241 57.8734 31.0146C57.9677 31.5607 58.1097 32.0981 58.2978 32.6208C58.3281 32.7228 58.3634 32.8085 58.3935 32.8997C58.6043 33.4457 58.8652 33.972 59.1729 34.472C59.2246 34.5643 59.2821 34.6533 59.3449 34.7387C59.4466 34.9042 59.5573 35.0643 59.6765 35.2182C59.7791 35.365 59.8911 35.5054 60.0118 35.6383C60.1914 35.8612 60.386 36.0721 60.5942 36.2695C60.6807 36.3614 60.7729 36.4479 60.87 36.5288C61.0196 36.685 61.1775 36.8334 61.343 36.9732C61.5098 37.1098 61.6835 37.238 61.8634 37.3572C61.9535 37.4419 62.0436 37.5265 62.1706 37.5619C62.4108 37.7189 62.66 37.8619 62.9169 37.9902C63.0783 38.0789 63.2394 38.1568 63.4058 38.2291C63.5722 38.3015 63.7717 38.384 63.9544 38.4507C64.1371 38.5174 64.1483 38.5279 64.2478 38.5584C64.8116 38.7521 65.3913 38.8963 65.98 38.9893C66.0778 39.0101 66.1771 39.0226 66.2768 39.0267C66.8372 39.0981 67.4022 39.1233 67.9659 39.1021L68.2449 39.0913C68.8017 39.0633 69.3546 38.9894 69.898 38.8704L70.1758 38.8165C70.7294 38.6907 71.272 38.5232 71.7988 38.3154L72.0807 38.2128C72.6283 37.9841 73.1587 37.7177 73.6678 37.4154L73.9315 37.2537L74.0716 37.1755L74.5605 36.8474C74.8797 36.623 75.1872 36.3828 75.4817 36.1278L75.721 35.8802C76.0188 35.5721 76.361 35.2847 76.6356 34.9338C76.7386 34.8383 76.8363 34.7373 76.9281 34.6312C77.0151 34.5522 77.0968 34.4677 77.1727 34.3782L77.2365 34.3121L77.4958 33.9994ZM76.7993 33.0194C76.6413 33.2384 76.478 33.4629 76.2981 33.6824C76.0659 33.9502 75.8192 34.2055 75.559 34.4471L75.417 33.1378L76.7767 32.9982L76.7993 33.0194ZM65.4677 37.752C65.0064 37.6404 64.5538 37.4957 64.1133 37.3192L63.9998 36.2361L65.6545 36.0692L65.8334 37.7071L65.473 37.7465L65.4677 37.752ZM62.0124 36.0694L61.8413 34.5123L63.5016 34.3506L63.6858 35.983L62.1078 36.1485L62.0124 36.0694ZM59.7209 33.1602L59.6831 32.7992L61.3268 32.6325L61.511 34.2649L60.4134 34.3779C60.1545 33.9936 59.9267 33.59 59.7322 33.1708L59.7209 33.1602ZM59.7187 24.7591C59.894 24.3414 60.0963 23.9353 60.3243 23.5434L60.44 24.702L59.708 24.7701L59.7187 24.7591ZM61.4688 21.8367C61.6602 21.6387 61.8516 21.4406 62.0431 21.2425L62.1916 22.5895L60.8372 22.7236C61.0475 22.4172 61.2654 22.125 61.491 21.8471L61.4688 21.8367ZM72.7959 17.8979C73.0224 17.9637 73.2326 18.0352 73.4431 18.1176L73.5976 19.4806L71.9373 19.6422L71.7584 18.0043L72.7959 17.8979ZM75.7505 21.1991L74.0958 21.3661L73.9169 19.7282L75.5716 19.5612L75.7505 21.1991ZM77.797 21.8939L77.8921 22.9071L76.2374 23.0741L76.0529 21.4309L77.4292 21.2963C77.6 21.5198 77.7151 21.7119 77.8355 21.8986L77.797 21.8939ZM77.2697 32.2436L77.1202 31.0532L77.9338 30.9673C77.7518 31.4119 77.5392 31.8436 77.2975 32.2592L77.2697 32.2436ZM75.1918 34.816L73.6463 34.97L73.5068 33.3691L75.1615 33.2022L75.3379 34.7538L75.1918 34.816ZM60.526 23.1346L60.627 23.03L62.1888 22.8703L62.3733 24.5135L60.713 24.6751L60.5485 23.1557L60.526 23.1346ZM62.3124 20.8972L63.9017 20.7423L64.0806 22.3802L62.4203 22.5419L62.303 20.9513L62.3124 20.8972ZM66.4477 26.0113L64.793 26.1783L64.6088 24.5459L66.2688 24.3734L66.4477 26.0113ZM66.5531 24.3572L68.2131 24.1847L68.392 25.8226L66.7373 25.9895L66.5531 24.3572ZM66.4833 26.2968L66.6622 27.9347L65.0075 28.1017L64.8287 26.4638L66.4833 26.2968ZM66.7673 26.2697L68.422 26.1028L68.6062 27.7352L66.984 27.8907L66.7673 26.2697ZM68.706 26.0757L70.3663 25.9141L70.5505 27.5465L68.8958 27.7134L68.706 26.0757ZM68.6963 28.0088L68.8751 29.6467L67.2148 29.8084L67.0307 28.176L68.6963 28.0088ZM68.9746 27.9764L70.6349 27.8148L70.8254 29.4741L69.1707 29.641L68.9746 27.9764ZM70.919 27.7877L72.5792 27.6261L72.7634 29.2585L71.1031 29.4201L70.919 27.7877ZM70.8548 29.7327L71.0336 31.3706L69.3734 31.5322L69.1892 29.8998L70.8548 29.7327ZM71.1332 29.7003L72.7934 29.5387L72.9776 31.171L71.3173 31.3327L71.1332 29.7003ZM73.0718 29.5063L74.7321 29.3446L74.9219 30.9823L73.256 31.1387L73.0718 29.5063ZM73.0418 29.2261L72.8576 27.5937L74.5232 27.4266L74.7021 29.0644L73.0418 29.2261ZM72.8276 27.3135L72.6487 25.6756L74.309 25.514L74.4879 27.1519L72.8276 27.3135ZM72.5436 27.3406L70.8889 27.5075L70.7044 25.8643L72.3647 25.7027L72.5436 27.3406ZM70.68 25.5895L70.4902 23.9518L72.1505 23.7901L72.3347 25.4225L70.68 25.5895ZM70.3904 25.6112L68.7304 25.7837L68.5462 24.1513L70.2062 23.9788L70.3904 25.6112ZM68.5268 23.8601L68.3426 22.2277L69.9973 22.0608L70.1815 23.6932L68.5268 23.8601ZM68.2375 23.8927L66.5772 24.0543L66.393 22.4219L68.053 22.2495L68.2375 23.8927ZM66.2988 24.0867L64.6385 24.2483L64.4543 22.6159L66.1143 22.4435L66.2988 24.0867ZM64.3545 24.2754L62.6839 24.4589L62.4941 22.8212L64.1597 22.654L64.3545 24.2754ZM64.3845 24.5556L64.5634 26.1935L62.9088 26.3605L62.7299 24.7225L64.3845 24.5556ZM64.5987 26.4682L64.7776 28.1061L63.123 28.273L62.9441 26.6351L64.5987 26.4682ZM64.8133 28.3916L64.9922 30.0295L63.3375 30.1964L63.153 28.5532L64.8133 28.3916ZM65.0917 28.3592L66.7573 28.192L66.9361 29.83L65.2549 30.0244L65.0917 28.3592ZM66.9665 30.1209L67.1454 31.7588L65.4851 31.9205L65.3062 30.2826L66.9665 30.1209ZM67.2449 30.0886L68.9105 29.9214L69.0893 31.5593L67.429 31.721L67.2449 30.0886ZM69.1197 31.8503L69.2986 33.4882L67.6383 33.6498L67.4594 32.0119L69.1197 31.8503ZM69.3981 31.8179L71.0583 31.6562L71.2425 33.2887L69.5822 33.4503L69.3981 31.8179ZM71.3367 31.6239L72.997 31.4622L73.1868 33.0999L71.5209 33.2563L71.3367 31.6239ZM73.2863 31.4296L74.941 31.2627L75.1308 32.9004L73.4652 33.0676L73.2863 31.4296ZM75.0108 29.3231L76.6708 29.1506L76.8553 30.7938L75.1897 30.9609L75.0108 29.3231ZM74.9752 29.0376L74.7963 27.3997L76.4566 27.238L76.6464 28.8757L74.9752 29.0376ZM74.7666 27.1303L74.5821 25.4871L76.2424 25.3254L76.4494 26.9898L74.7666 27.1303ZM74.5577 25.2122L74.3732 23.569L76.0335 23.4073L76.2123 25.0453L74.5577 25.2122ZM74.268 25.234L72.6187 25.3954L72.4398 23.7575L74.0945 23.5906L74.268 25.234ZM72.4045 23.4828L72.2256 21.8449L73.8803 21.678L74.0645 23.3104L72.4045 23.4828ZM72.1149 23.5046L70.4602 23.6716L70.276 22.0392L71.9307 21.8722L72.1149 23.5046ZM70.2513 21.7535L70.0724 20.1156L71.7271 19.9486L71.9113 21.5811L70.2513 21.7535ZM69.9673 21.7806L68.307 21.9422L68.1228 20.3098L69.7775 20.1429L69.9673 21.7806ZM68.0286 21.9746L66.3683 22.1362L66.1841 20.5038L67.8388 20.3369L68.0286 21.9746ZM66.0574 22.18L64.3971 22.3417L64.2073 20.704L65.8729 20.5369L66.0574 22.18ZM62.4581 24.7926L62.6369 26.4305L60.9823 26.5974L60.7978 24.9542L62.4581 24.7926ZM62.667 26.7107L62.8512 28.3431L61.1912 28.5155L61.0123 26.8776L62.667 26.7107ZM62.8812 28.6233L63.0657 30.2665L61.4054 30.4281L61.2265 28.7902L62.8812 28.6233ZM63.101 30.5411L63.2799 32.179L61.6086 32.3409L61.4241 30.6977L63.101 30.5411ZM63.3794 30.5088L65.0397 30.3471L65.196 31.9639L63.5414 32.1308L63.3794 30.5088ZM65.2542 32.2705L65.4331 33.9084L63.7675 34.0756L63.5886 32.4376L65.2542 32.2705ZM65.5326 32.2381L67.1929 32.0765L67.3718 33.7144L65.7115 33.876L65.5326 32.2381ZM67.4018 33.9945L67.5863 35.6378L65.9207 35.8049L65.7418 34.167L67.4018 33.9945ZM67.6858 33.9675L69.3405 33.8005L69.525 35.4437L67.8647 35.6054L67.6858 33.9675ZM69.6191 33.779L71.2848 33.6118L71.4636 35.2497L69.8127 35.3572L69.6191 33.779ZM71.5688 33.5847L73.2234 33.4178L73.4133 35.0555L71.753 35.2171L71.5688 33.5847ZM75.2372 31.2786L76.8975 31.1169L77.0689 32.6848L77.0104 32.7453L75.4048 32.9059L75.2372 31.2786ZM78.1233 30.7045L77.1299 30.8209L76.951 29.183L78.6113 29.0213L78.6267 29.1722C78.4884 29.6821 78.3144 30.1815 78.1058 30.6671L78.1233 30.7045ZM76.9317 28.8918L76.7528 27.2539L78.4131 27.0923L78.5973 28.7247L76.9317 28.8918ZM76.7228 26.9737L76.5383 25.3305L78.1985 25.1689L78.3831 26.8121L76.7228 26.9737ZM76.5086 25.0611L76.3241 23.4179L77.9843 23.2563L78.1632 24.8942L76.5086 25.0611ZM76.0047 23.1703L74.35 23.3373L74.1712 21.6994L75.8258 21.5324L76.0047 23.1703ZM73.8571 21.4463L72.1915 21.6134L72.0127 19.9755L73.6673 19.8086L73.8571 21.4463ZM71.6867 19.6903L70.0211 19.8574L69.8423 18.2195L71.5025 18.0579L71.6867 19.6903ZM69.7481 19.8843L68.0834 20.0838L67.9045 18.4459L69.5592 18.279L69.7481 19.8843ZM67.8041 20.0838L66.1438 20.2455L65.954 18.6078L67.6143 18.4461L67.8041 20.0838ZM65.6756 18.6401L65.8598 20.2725L64.1995 20.4342L64.0672 19.4595C64.5279 19.1461 65.0123 18.8678 65.5164 18.627L65.6756 18.6401ZM63.9101 20.4668L62.7037 20.6035C63.0601 20.2685 63.4411 19.9598 63.8435 19.6798L63.9101 20.4668ZM59.601 25.0476L60.4803 24.9604L60.6926 26.6192L59.1033 26.7741C59.2233 26.1863 59.3897 25.609 59.601 25.0476ZM60.7001 26.8782L60.8843 28.5107L59.2244 28.6831L59.0398 27.0399L60.7001 26.8782ZM60.9144 28.7908L61.0932 30.4287L59.4386 30.5957L59.2544 28.9633L60.9144 28.7908ZM61.1232 30.7089L61.3131 32.3466L59.6474 32.5138L59.4686 30.8759L61.1232 30.7089ZM61.6215 32.5944L63.2818 32.4328L63.4659 34.0652L61.806 34.2376L61.6215 32.5944ZM63.78 34.3183L65.4403 34.1566L65.6191 35.7945L63.9589 35.9562L63.78 34.3183ZM65.9385 36.0421L67.5931 35.8752L67.7777 37.5184L66.1174 37.68L65.9385 36.0421ZM67.8828 35.8534L69.5484 35.6862L69.6782 37.3305L68.0179 37.4922L67.8828 35.8534ZM69.8271 35.6647L71.4871 35.4922L71.666 37.1301L70.0113 37.2971L69.8271 35.6647ZM71.7658 35.4706L73.4258 35.2982L73.5224 36.1764C73.0188 36.5039 72.4907 36.7939 71.9428 37.0438L71.7658 35.4706ZM73.7964 35.9929L73.7154 35.2764L74.8899 35.1727C74.5495 35.4609 74.1893 35.7258 73.812 35.9656L73.7964 35.9929ZM78.8184 28.2291L78.6689 27.0387L78.942 27.0118C78.925 27.4183 78.8818 27.8231 78.8128 28.2238L78.8184 28.2291ZM78.8804 25.0747C78.9557 25.6202 78.9845 26.1705 78.9664 26.7198L78.6495 26.7475L78.4707 25.1096L78.8804 25.0747ZM78.8338 24.7894L78.4407 24.8294L78.2509 23.1917L78.4038 23.178C78.5927 23.7005 78.7347 24.238 78.8282 24.7842L78.8338 24.7894ZM78.2265 22.9169L78.1971 22.6583C78.237 22.7384 78.2722 22.8206 78.3028 22.9046L78.2265 22.9169ZM77.2913 21.0722L76.0848 21.2089L75.906 19.571C76.4309 20.0074 76.8949 20.5105 77.2856 21.0669L77.2913 21.0722ZM75.5697 19.3075L73.9094 19.4692L73.7599 18.2788C74.403 18.5419 75.0095 18.8859 75.5641 19.3022L75.5697 19.3075ZM72.013 17.7187L71.7509 17.7453L71.7434 17.6753C71.832 17.683 71.9202 17.6957 72.0074 17.7134L72.013 17.7187ZM69.7681 17.5514C70.3319 17.5302 70.8969 17.5555 71.4572 17.6268L71.4725 17.7777L69.8122 17.9393L69.7681 17.5514ZM69.4838 17.5677L69.5338 17.9717L67.8736 18.1333L67.8373 17.8263C68.3702 17.692 68.9131 17.5985 69.4613 17.5466L69.4838 17.5677ZM67.5896 18.1604L66.3938 18.2861C66.7751 18.1339 67.1667 18.0073 67.5658 17.9071L67.5896 18.1604ZM58.8787 28.0959L58.9403 28.7102L58.8421 28.7229C58.8358 28.5115 58.8462 28.3001 58.8731 28.0906L58.8787 28.0959ZM58.9472 30.6484C58.8627 30.1038 58.8193 29.5542 58.8174 29.0041L58.9703 28.9904L59.1705 30.6063L58.9631 30.6318L58.9472 30.6484ZM58.9935 30.9228L59.1846 30.9029L59.3256 32.1798C59.1817 31.7698 59.0706 31.3495 58.9935 30.9228ZM60.6236 34.6384L61.552 34.5449L61.6924 35.8002C61.302 35.4448 60.9443 35.0559 60.6236 34.6384ZM62.459 36.3631L63.7371 36.2412L63.8403 37.1571C63.348 36.9455 62.8766 36.6889 62.4324 36.3906L62.459 36.3631ZM66.5234 37.8935L67.834 37.7603L67.8561 37.9596C67.403 37.9807 66.9486 37.9679 66.4968 37.9211L66.5234 37.8935ZM69.7936 37.7224C69.2501 37.8407 68.6971 37.9146 68.1405 37.9433L68.1236 37.7385L69.7782 37.5715L69.7936 37.7224ZM70.0623 37.5444L70.7119 37.4725C70.5025 37.5473 70.2885 37.6092 70.071 37.6577L70.0623 37.5444Z" fill="#407BFF"/>
    <path d="M78.0758 35.0993C82.6302 29.5423 82.2176 21.7218 77.1552 17.6786C72.0928 13.6354 64.2641 14.8664 59.7153 20.4288C58.8377 21.4952 58.1214 22.6818 57.5884 23.9522L57.5299 24.0127C57.3402 24.4628 57.178 24.9238 57.0441 25.3934C56.2347 28.033 56.1106 30.8362 56.6833 33.5473C57.0385 35.9808 57.8098 38.4062 56.1648 41.5531L53.8002 44.4332L55.5213 45.8091L57.8859 42.929C60.6522 40.6782 63.2328 40.9091 65.7037 40.7534C68.5014 40.7318 71.2429 40.0199 73.6779 38.6828C74.1168 38.4556 74.5411 38.2022 74.9484 37.924L75.0069 37.8635C76.1608 37.0936 77.1944 36.1626 78.0758 35.0993ZM57.5935 41.7199L57.4472 41.5824C58.708 38.9773 58.2733 36.6372 58.0422 34.7088C58.7104 35.895 59.6015 36.9462 60.6676 37.8057C61.7399 38.661 62.9696 39.303 64.2875 39.6956C62.2895 39.9177 59.8818 39.9858 57.5935 41.7199ZM73.9312 37.2202C73.7539 37.337 73.5706 37.4377 73.3983 37.5382C69.4742 39.7088 64.7404 39.6382 61.3766 36.9498C58.0128 34.2613 56.9499 29.7035 58.2783 25.4613L58.4751 24.8799C58.9736 23.5261 59.6957 22.2645 60.6123 21.1457C64.7754 16.0713 71.8672 14.9247 76.4524 18.5614C81.0375 22.1981 81.3641 29.3184 77.1957 34.3983C76.2695 35.524 75.157 36.4871 73.9047 37.2477L73.9312 37.2202Z" fill="#00308E"/>
    <path d="M55.9393 45.0909L54.4654 43.9133C54.2385 43.732 53.9072 43.7651 53.7253 43.9871L44.7479 54.9472C44.5661 55.1692 44.6026 55.4961 44.8295 55.6774L46.3034 56.8549C46.5303 57.0362 46.8616 57.0031 47.0434 56.7811L56.0208 45.821C56.2027 45.599 56.1662 45.2721 55.9393 45.0909Z" fill="#407BFF"/>
    <path d="M55.9286 53.6295C55.2688 53.3058 54.7196 52.7973 54.3506 52.1684C53.9815 51.5396 53.8091 50.8188 53.8554 50.0972C53.9016 49.3756 54.1643 48.6857 54.6102 48.1149C55.0561 47.544 55.6652 47.118 56.3603 46.8906C57.0554 46.6632 57.8052 46.6448 58.5148 46.8376C59.2245 47.0304 59.862 47.4258 60.3467 47.9738C60.8314 48.5217 61.1414 49.1975 61.2375 49.9156C61.3337 50.6337 61.2115 51.3618 60.8867 52.0077C60.6723 52.436 60.3741 52.8177 60.0089 53.131C59.6437 53.4444 59.2187 53.6832 58.7582 53.8338C58.2978 53.9844 57.8109 54.0439 57.3254 54.0088C56.8399 53.9738 56.3652 53.8449 55.9286 53.6295Z" fill="#1919D3"/>
    <path opacity="0.7" d="M55.9284 53.6293C55.3679 53.3551 54.885 52.9474 54.5238 52.4435C54.1626 51.9396 53.9347 51.3556 53.8611 50.7451C53.8271 50.5099 53.8202 50.2719 53.8404 50.0356C53.8763 49.5795 53.9974 49.1347 54.1974 48.7233C54.6117 47.8869 55.3399 47.2438 56.2295 46.9285C56.3438 46.8814 56.4619 46.8434 56.5825 46.8149C57.4449 46.5971 58.3609 46.6933 59.1628 47.0861C59.4245 47.2137 59.6708 47.3703 59.8969 47.5529C60.0204 47.6529 60.1351 47.7631 60.2396 47.8823C60.6292 48.2976 60.9173 48.795 61.0813 49.3358C61.2453 49.8766 61.2809 50.4462 61.1854 51.0003C61.0898 51.5545 60.8656 52.0784 60.5303 52.5312C60.1949 52.984 59.7574 53.3537 59.2517 53.6114C59.1627 53.6572 59.0707 53.6972 58.9763 53.7312C58.492 53.9282 57.9697 54.021 57.4442 54.0035C56.9187 53.9859 56.4019 53.8584 55.9284 53.6293Z" fill="#407BFF"/>
    <g opacity="0.2">
        <path d="M55.7702 48.9754C56.4329 48.9817 57.0691 49.2437 57.5424 49.705C57.7833 49.9464 57.9711 50.2342 58.0937 50.5499C58.2163 50.8657 58.271 51.2025 58.2543 51.539C58.2297 52.3315 58.4882 53.1101 58.9847 53.739C59.0791 53.7051 59.1711 53.665 59.2601 53.6193C58.7687 53.0356 58.5125 52.2952 58.5411 51.5411C58.5476 51.165 58.4771 50.7906 58.3338 50.4405C58.1905 50.0904 57.9773 49.7717 57.707 49.5034C57.1729 49.0001 56.4668 48.7135 55.7312 48.7013C55.3096 48.7087 54.9012 48.8405 54.5587 49.0798C54.2162 49.3191 53.9554 49.6548 53.8101 50.0435C53.7899 50.2798 53.7968 50.5179 53.8308 50.7531C54.2764 49.5613 54.9025 48.9767 55.7702 48.9754ZM59.2384 47.8174C59.5758 47.8063 59.9138 47.8279 60.2474 47.8821C60.1429 47.7629 60.0283 47.6527 59.9047 47.5527L59.2388 47.5655C58.7158 47.5833 58.1922 47.5265 57.6843 47.3967C57.2924 47.2612 56.9197 47.0758 56.5758 46.8453C56.4552 46.8737 56.3371 46.9117 56.2228 46.9589C56.6457 47.2702 57.1124 47.5185 57.6078 47.6959C58.1431 47.8145 58.6925 47.8555 59.2384 47.8174Z" fill="white"/>
    </g>
    <path d="M42.1644 58.0001H38.6015C36.6125 58.0001 35 59.6501 35 61.6855V70.3146C35 72.35 36.6125 74 38.6015 74H42.1644C44.1534 74 45.7659 72.35 45.7659 70.3146V61.6855C45.7659 59.6501 44.1534 58.0001 42.1644 58.0001Z" fill="#407BFF"/>
    <path d="M69.3984 58H65.8356C63.8465 58 62.234 59.65 62.234 61.6854V70.3145C62.234 72.3499 63.8465 73.9999 65.8356 73.9999H69.3984C71.3874 73.9999 72.9999 72.3499 72.9999 70.3145V61.6854C72.9999 59.65 71.3874 58 69.3984 58Z" fill="#407BFF"/>
    <path d="M65.7385 67.9072H42.2316C41.7282 67.8918 41.2505 67.6762 40.8998 67.3063C40.5492 66.9364 40.3532 66.4412 40.3534 65.9258C40.371 65.4282 40.5766 64.957 40.9269 64.6114C41.2773 64.2658 41.745 64.0729 42.2316 64.0732H65.7094C66.2029 64.0881 66.6722 64.2954 67.0214 64.6527C67.3705 65.0099 67.573 65.4901 67.5876 65.9952C67.5711 66.4935 67.3715 66.9671 67.0287 67.3215C66.686 67.6759 66.2252 67.8851 65.7385 67.9072Z" fill="#407BFF"/>
    <path d="M33.8976 57.0061C33.9102 59.2195 33.4608 61.411 32.5783 63.4398C31.6959 65.4685 30.3998 67.2897 28.7735 68.7862C27.722 69.7624 26.5408 70.5881 25.2635 71.2398L24.5974 71.5738C23.7731 71.9591 22.9155 72.2687 22.0354 72.4987C20.7386 72.8358 19.4039 73.0042 18.0642 72.9997C15.93 73.0018 13.8173 72.5729 11.8519 71.7386C9.88654 70.9044 8.10882 69.6818 6.62469 68.1438C6.45816 67.964 6.2788 67.7841 6.11227 67.5914C3.53168 64.6733 2.10942 60.9065 2.11549 57.0061C2.11268 56.3402 2.15547 55.675 2.24358 55.015C2.24358 54.7837 2.24359 54.5525 2.33326 54.3213C2.83509 51.3594 4.15867 48.5992 6.1524 46.3568C8.14613 44.1143 10.7294 42.4804 13.6062 41.642C14.2627 41.4486 14.93 41.2942 15.6046 41.1796L16.7448 41.0511C17.1163 41.0511 17.5005 41.0511 17.8848 41.0511H18.0642C21.2861 41.0663 24.4287 42.055 27.0818 43.8883C29.7349 45.7216 31.7753 48.3143 32.9369 51.3281L33.1675 51.9576C33.6927 53.5147 33.9736 55.1442 34.0001 56.7877C33.969 56.8619 33.9348 56.9348 33.8976 57.0061Z" fill="#407BFF"/>
    <path d="M11.6717 51.8552L5.40747 56.4285L7.80298 63.8279H15.5532L17.9487 56.4285L11.6717 51.8552Z" fill="#00308E"/>
    <path d="M33.8846 56.6725L32.3601 57.6745L26.6852 53.1012L26.3137 52.8057L26.429 52.4846L28.9911 45.5348C30.6443 47.1294 31.9297 49.0674 32.7573 51.2128L32.9878 51.8423C33.5348 53.3959 33.8374 55.0255 33.8846 56.6725Z" fill="#00308E"/>
    <path d="M28.7228 68.7864C27.6712 69.7627 26.49 70.5884 25.2128 71.24L24.5467 71.574C23.7223 71.9594 22.8648 72.269 21.9846 72.4989L22.4586 70.071L22.5611 69.5315H22.7532L28.7228 68.7864Z" fill="#00308E"/>
    <path d="M17.8206 41L15.4635 42.1819L14.5284 42.6443L14.3746 42.4773L13.542 41.6423C14.1985 41.4489 14.8658 41.2945 15.5404 41.1798L16.6805 41.0514C17.0007 41.0257 17.3851 41 17.8206 41Z" fill="#00308E"/>
    <path d="M16.6294 41.0511C16.188 41.3873 15.7804 41.7659 15.4124 42.1816C12.9528 44.9307 12.1586 48.9901 11.9536 52.0603C11.8478 53.4843 11.8478 54.9142 11.9536 56.3381L11.3259 56.4152C11.181 54.9939 11.1553 53.563 11.249 52.1374C11.3173 48.6921 12.3711 45.339 14.2851 42.477C14.6364 42.0162 15.0264 41.5865 15.4508 41.1924L16.6294 41.0511Z" fill="#00308E"/>
    <path d="M33.0523 51.8422C30.8769 52.0347 28.7291 52.4654 26.6472 53.1268C23.6352 54.0703 20.6977 55.2383 17.8594 56.621C16.0659 57.4817 14.913 58.124 14.8746 58.1497L14.5671 57.5845C14.7081 57.5074 15.7841 56.9036 17.4367 56.1072C20.3278 54.6759 23.3259 53.4732 26.4038 52.5102C28.4888 51.8608 30.6353 51.4303 32.8089 51.2256L33.0523 51.8422Z" fill="#00308E"/>
    <path d="M25.2123 71.2401L24.5462 71.5741C23.816 71.0988 23.0986 70.5978 22.4069 70.0711C19.8527 68.1513 17.4304 66.0612 15.1563 63.8149C13.4782 62.1449 12.4277 60.9759 12.4021 60.9502L12.8889 60.5263C12.8889 60.5263 13.9778 61.7467 15.6815 63.4167C17.8822 65.6025 20.2276 67.6368 22.7015 69.5058C23.5214 70.1225 24.354 70.7005 25.2123 71.2401Z" fill="#00308E"/>
    <path d="M10.7626 59.8582C9.74 61.0592 8.87866 62.3894 8.20056 63.8148C7.50776 65.1993 6.95422 66.6495 6.54807 68.144C6.38153 67.9642 6.20218 67.7843 6.03564 67.5916C6.45445 66.1408 7.01216 64.734 7.70098 63.3909C8.40636 61.9553 9.2933 60.6168 10.3399 59.4086L10.7626 59.8582Z" fill="#00308E"/>
    <path d="M8.53304 57.5458L8.30247 58.1367C8.16155 58.0725 7.02143 57.6229 5.54826 56.8521C4.53625 56.3511 3.3449 55.7345 2.12793 54.9894C2.12793 54.7582 2.12794 54.5269 2.21761 54.2957C3.49863 55.0408 4.65154 55.6959 5.68917 56.1969C7.32888 57.0448 8.49461 57.5329 8.53304 57.5458Z" fill="#00308E"/>
    <path opacity="0.2" d="M28.9528 54.0002C28.959 57.2405 27.8391 60.3817 25.7857 62.8837C23.7324 65.3857 20.8739 67.0921 17.7018 67.7094C14.5297 68.3268 11.2423 67.8165 8.40473 66.2664C5.56719 64.7163 3.35687 62.2232 2.15387 59.2157C2.0508 58.4795 1.99942 57.7368 2.00013 56.9933C1.99732 56.3275 2.04013 55.6622 2.12824 55.0022C2.12824 54.7709 2.12825 54.5397 2.21792 54.3085C2.71975 51.3466 4.04334 48.5864 6.03706 46.3439C8.03079 44.1015 10.614 42.4675 13.4909 41.6292C14.1474 41.4358 14.8147 41.2814 15.4893 41.1668L16.6294 41.0383C17.0009 41.0383 17.3852 41.0383 17.7695 41.0383H17.9489C18.8074 41.0401 19.6644 41.1132 20.5109 41.2567C23.0029 42.3253 25.1294 44.1006 26.6292 46.3645C28.1289 48.6284 28.9365 51.2823 28.9528 54.0002Z" fill="white"/>
    <path d="M33.8053 4H30.1946V8.25545H33.8053V4Z" fill="#1919D3"/>
    <path d="M34.9466 6.87909H29.0583V11.7396H34.9466V6.87909Z" fill="#407BFF"/>
    <path d="M39 17.7496V40H25V17.7496C25 13.3429 27.7006 9.9446 32 9.9446C36.2994 9.9446 39 13.353 39 17.7496Z" fill="#00308E"/>
    <path d="M31.2423 11.6186C31.2422 11.7295 31.2101 11.8379 31.1499 11.93C31.0897 12.0221 31.0041 12.0939 30.904 12.1361C30.804 12.1783 30.6939 12.1891 30.5879 12.1671C30.4818 12.1451 30.3846 12.0913 30.3084 12.0125C30.2322 11.9337 30.1806 11.8335 30.1601 11.7246C30.1396 11.6157 30.1511 11.503 30.1932 11.4009C30.2353 11.2987 30.306 11.2116 30.3965 11.1508C30.4869 11.0899 30.593 11.0579 30.7012 11.0589C30.8451 11.0602 30.9827 11.1198 31.0841 11.2246C31.1854 11.3294 31.2423 11.471 31.2423 11.6186ZM37.6372 16.0908C37.5292 16.0908 37.4236 16.1236 37.3338 16.1851C37.2441 16.2466 37.1741 16.334 37.1327 16.4363C37.0914 16.5386 37.0806 16.6511 37.1017 16.7597C37.1227 16.8682 37.1747 16.9679 37.2511 17.0462C37.3275 17.1245 37.4248 17.1778 37.5307 17.1994C37.6366 17.221 37.7464 17.2099 37.8462 17.1675C37.9459 17.1252 38.0312 17.0534 38.0912 16.9614C38.1512 16.8694 38.1832 16.7612 38.1832 16.6505C38.1833 16.5046 38.1278 16.3645 38.0286 16.26C37.9293 16.1555 37.7942 16.0947 37.652 16.0908H37.6372ZM31.439 16.6505C31.3308 16.6505 31.2251 16.6834 31.1352 16.7452C31.0453 16.8069 30.9753 16.8946 30.9341 16.9971C30.8929 17.0997 30.8824 17.2125 30.9039 17.3212C30.9254 17.4299 30.9779 17.5296 31.0547 17.6077C31.1316 17.6857 31.2293 17.7386 31.3356 17.7596C31.4418 17.7807 31.5517 17.7689 31.6514 17.7257C31.7511 17.6826 31.836 17.6101 31.8954 17.5174C31.9548 17.4247 31.986 17.316 31.9851 17.2051C31.9851 17.0597 31.9294 16.9202 31.8301 16.8164C31.7307 16.7127 31.5956 16.6531 31.4538 16.6505H31.439ZM31.9851 21.99C31.8771 21.99 31.7715 22.0228 31.6817 22.0843C31.5919 22.1458 31.5219 22.2332 31.4806 22.3354C31.4393 22.4377 31.4285 22.5502 31.4495 22.6588C31.4706 22.7674 31.5226 22.8671 31.599 22.9454C31.6753 23.0236 31.7726 23.0769 31.8785 23.0985C31.9844 23.1201 32.0942 23.109 32.194 23.0667C32.2938 23.0243 32.3791 22.9526 32.4391 22.8606C32.4991 22.7685 32.5311 22.6603 32.5311 22.5496C32.5311 22.4038 32.4756 22.2637 32.3764 22.1591C32.2772 22.0546 32.1421 21.9939 31.9998 21.99H31.9851ZM26.3477 27.5765C26.2395 27.5765 26.1337 27.6095 26.0438 27.6712C25.9539 27.7329 25.8839 27.8206 25.8428 27.9232C25.8016 28.0257 25.791 28.1385 25.8125 28.2472C25.834 28.3559 25.8865 28.4556 25.9633 28.5337C26.0402 28.6117 26.138 28.6647 26.2442 28.6857C26.3504 28.7067 26.4604 28.6949 26.5601 28.6518C26.6597 28.6086 26.7447 28.5361 26.8041 28.4434C26.8635 28.3507 26.8947 28.242 26.8937 28.1311C26.8925 27.9861 26.8364 27.8473 26.7373 27.7439C26.6382 27.6404 26.5038 27.5804 26.3624 27.5765H26.3477ZM25.8016 22.6051C25.6936 22.6051 25.5881 22.6379 25.4983 22.6994C25.4085 22.7609 25.3385 22.8483 25.2972 22.9506C25.2559 23.0528 25.245 23.1654 25.2661 23.2739C25.2872 23.3825 25.3392 23.4822 25.4155 23.5605C25.4919 23.6388 25.5892 23.6921 25.6951 23.7137C25.801 23.7352 25.9108 23.7242 26.0106 23.6818C26.1104 23.6394 26.1956 23.5677 26.2556 23.4757C26.3156 23.3836 26.3477 23.2754 26.3477 23.1647C26.3477 23.0189 26.2922 22.8788 26.193 22.7743C26.0938 22.6697 25.9586 22.609 25.8164 22.6051H25.8016ZM25.9394 17.3412C25.8314 17.3412 25.7258 17.3741 25.636 17.4356C25.5462 17.497 25.4762 17.5844 25.4349 17.6867C25.3936 17.789 25.3828 17.9015 25.4038 18.0101C25.4249 18.1186 25.4769 18.2184 25.5533 18.2966C25.6296 18.3749 25.7269 18.4282 25.8328 18.4498C25.9388 18.4714 26.0486 18.4603 26.1483 18.4179C26.2481 18.3756 26.3334 18.3039 26.3934 18.2118C26.4534 18.1198 26.4854 18.0116 26.4854 17.9009C26.4855 17.755 26.43 17.6149 26.3307 17.5104C26.2315 17.4059 26.0964 17.3452 25.9541 17.3412H25.9394ZM28.3055 14.1194C28.1975 14.1194 28.0919 14.1522 28.0021 14.2137C27.9124 14.2752 27.8424 14.3626 27.801 14.4649C27.7597 14.5671 27.7489 14.6797 27.77 14.7882C27.791 14.8968 27.843 14.9965 27.9194 15.0748C27.9958 15.1531 28.0931 15.2064 28.199 15.228C28.3049 15.2495 28.4147 15.2385 28.5145 15.1961C28.6142 15.1538 28.6995 15.082 28.7595 14.99C28.8195 14.8979 28.8515 14.7897 28.8515 14.6791C28.8516 14.5332 28.7961 14.3931 28.6969 14.2886C28.5976 14.184 28.4625 14.1233 28.3203 14.1194H28.3055ZM28.8515 19.6656C28.7435 19.6656 28.638 19.6984 28.5482 19.7599C28.4584 19.8214 28.3884 19.9088 28.3471 20.0111C28.3057 20.1133 28.2949 20.2259 28.316 20.3344C28.3371 20.443 28.3891 20.5427 28.4654 20.621C28.5418 20.6993 28.6391 20.7526 28.745 20.7742C28.8509 20.7958 28.9607 20.7847 29.0605 20.7423C29.1603 20.7 29.2456 20.6282 29.3056 20.5362C29.3655 20.4441 29.3976 20.3359 29.3976 20.2253C29.3989 20.0785 29.344 19.9372 29.2446 19.8315C29.1452 19.7259 29.0094 19.6645 28.8663 19.6606L28.8515 19.6656ZM34.1889 13.6152C34.0809 13.6152 33.9753 13.648 33.8855 13.7095C33.7957 13.771 33.7257 13.8584 33.6844 13.9607C33.6431 14.0629 33.6322 14.1755 33.6533 14.284C33.6744 14.3926 33.7264 14.4923 33.8028 14.5706C33.8791 14.6489 33.9764 14.7022 34.0823 14.7238C34.1883 14.7453 34.298 14.7343 34.3978 14.6919C34.4976 14.6496 34.5829 14.5778 34.6429 14.4858C34.7029 14.3937 34.7349 14.2855 34.7349 14.1749C34.7312 14.0316 34.674 13.8953 34.5752 13.794C34.4763 13.6927 34.3433 13.6341 34.2036 13.6303L34.1889 13.6152ZM34.848 19.0454C34.7398 19.0454 34.6341 19.0784 34.5442 19.1401C34.4543 19.2018 34.3843 19.2895 34.3431 19.3921C34.3019 19.4947 34.2914 19.6074 34.3129 19.7161C34.3343 19.8248 34.3868 19.9246 34.4637 20.0026C34.5406 20.0807 34.6383 20.1336 34.7445 20.1546C34.8508 20.1756 34.9607 20.1638 35.0604 20.1207C35.1601 20.0776 35.245 20.005 35.3044 19.9123C35.3638 19.8197 35.395 19.711 35.394 19.6001C35.3891 19.4577 35.3314 19.3227 35.2327 19.2224C35.134 19.1222 35.0017 19.0643 34.8628 19.0606L34.848 19.0454ZM29.1418 24.8488C29.0338 24.8488 28.9282 24.8816 28.8384 24.9431C28.7486 25.0046 28.6786 25.092 28.6373 25.1943C28.596 25.2965 28.5852 25.4091 28.6062 25.5176C28.6273 25.6262 28.6793 25.7259 28.7557 25.8042C28.832 25.8824 28.9293 25.9358 29.0352 25.9573C29.1412 25.9789 29.2509 25.9679 29.3507 25.9255C29.4505 25.8831 29.5358 25.8114 29.5958 25.7194C29.6558 25.6273 29.6878 25.5191 29.6878 25.4084C29.6841 25.2652 29.6269 25.1289 29.5281 25.0276C29.4292 24.9263 29.2963 24.8677 29.1565 24.8639L29.1418 24.8488ZM35.0448 29.2656C34.9366 29.2656 34.8308 29.2985 34.7409 29.3602C34.651 29.422 34.5811 29.5097 34.5399 29.6122C34.4987 29.7148 34.4882 29.8276 34.5096 29.9363C34.5311 30.045 34.5836 30.1447 34.6605 30.2228C34.7373 30.3008 34.8351 30.3537 34.9413 30.3747C35.0476 30.3958 35.1575 30.384 35.2572 30.3408C35.3569 30.2977 35.4418 30.2252 35.5012 30.1325C35.5606 30.0398 35.5918 29.9311 35.5908 29.8202C35.5857 29.6735 35.5245 29.5348 35.4206 29.4339C35.3166 29.333 35.1781 29.278 35.035 29.2807L35.0448 29.2656ZM34.9612 33.4706C34.853 33.4706 34.7472 33.5036 34.6573 33.5653C34.5674 33.627 34.4974 33.7147 34.4563 33.8173C34.4151 33.9198 34.4045 34.0326 34.426 34.1413C34.4475 34.25 34.5 34.3497 34.5768 34.4278C34.6537 34.5058 34.7515 34.5588 34.8577 34.5798C34.9639 34.6008 35.0739 34.589 35.1736 34.5459C35.2732 34.5027 35.3582 34.4302 35.4176 34.3375C35.477 34.2448 35.5082 34.1361 35.5072 34.0252C35.5021 33.8785 35.4409 33.7398 35.3369 33.6389C35.233 33.538 35.0945 33.483 34.9513 33.4857L34.9612 33.4706ZM29.4959 29.3614C29.388 29.3614 29.2824 29.3942 29.1926 29.4557C29.1028 29.5172 29.0328 29.6046 28.9915 29.7068C28.9502 29.8091 28.9393 29.9216 28.9604 30.0302C28.9815 30.1388 29.0335 30.2385 29.1099 30.3168C29.1862 30.395 29.2835 30.4483 29.3894 30.4699C29.4953 30.4915 29.6051 30.4804 29.7049 30.4381C29.8047 30.3957 29.89 30.324 29.95 30.232C30.01 30.1399 30.042 30.0317 30.042 29.921C30.0381 29.7735 29.9775 29.6335 29.8734 29.5315C29.7693 29.4295 29.6301 29.3738 29.4861 29.3765L29.4959 29.3614ZM26.8396 35.916C26.7314 35.915 26.6253 35.9469 26.5349 36.0078C26.4445 36.0687 26.3737 36.1558 26.3316 36.2579C26.2895 36.3601 26.278 36.4728 26.2985 36.5817C26.319 36.6906 26.3707 36.7908 26.4468 36.8696C26.523 36.9483 26.6203 37.0021 26.7263 37.0241C26.8324 37.0461 26.9424 37.0354 27.0425 36.9932C27.1425 36.951 27.2281 36.8792 27.2883 36.7871C27.3485 36.6949 27.3807 36.5865 27.3807 36.4756C27.3794 36.4028 27.3642 36.3309 27.3358 36.2641C27.3074 36.1974 27.2664 36.1369 27.2153 36.0864C27.1641 36.0358 27.1037 35.9961 27.0376 35.9694C26.9714 35.9428 26.9008 35.9298 26.8297 35.9311L26.8396 35.916ZM32.3196 26.8404C32.2114 26.8394 32.1053 26.8713 32.0149 26.9322C31.9244 26.9931 31.8537 27.0802 31.8116 27.1823C31.7695 27.2845 31.758 27.3972 31.7785 27.5061C31.799 27.615 31.8506 27.7152 31.9268 27.794C32.003 27.8727 32.1002 27.9265 32.2063 27.9485C32.3123 27.9705 32.4224 27.9598 32.5224 27.9176C32.6225 27.8754 32.7081 27.8036 32.7683 27.7115C32.8285 27.6193 32.8607 27.5109 32.8607 27.4C32.8555 27.2542 32.7951 27.1163 32.6922 27.0155C32.5893 26.9147 32.452 26.8591 32.3097 26.8605L32.3196 26.8404ZM32.3835 31.3782C32.2755 31.3782 32.17 31.411 32.0802 31.4725C31.9904 31.534 31.9204 31.6214 31.879 31.7236C31.8377 31.8259 31.8269 31.9384 31.848 32.047C31.869 32.1556 31.921 32.2553 31.9974 32.3336C32.0738 32.4118 32.1711 32.4651 32.277 32.4867C32.3829 32.5083 32.4927 32.4972 32.5925 32.4549C32.6922 32.4125 32.7775 32.3408 32.8375 32.2488C32.8975 32.1567 32.9295 32.0485 32.9295 31.9378C32.9244 31.7916 32.8631 31.6534 32.759 31.5533C32.6549 31.4532 32.5164 31.3993 32.3737 31.4034L32.3835 31.3782ZM32.3835 35.916C32.2755 35.916 32.17 35.9488 32.0802 36.0103C31.9904 36.0718 31.9204 36.1592 31.879 36.2614C31.8377 36.3637 31.8269 36.4762 31.848 36.5848C31.869 36.6934 31.921 36.7931 31.9974 36.8714C32.0738 36.9496 32.1711 37.0029 32.277 37.0245C32.3829 37.0461 32.4927 37.035 32.5925 36.9927C32.6922 36.9503 32.7775 36.8786 32.8375 36.7866C32.8975 36.6945 32.9295 36.5863 32.9295 36.4756C32.9283 36.4024 32.9128 36.3301 32.8842 36.2629C32.8555 36.1958 32.8141 36.1352 32.7624 36.0846C32.7107 36.0339 32.6497 35.9943 32.583 35.968C32.5163 35.9416 32.4451 35.9291 32.3737 35.9311L32.3835 35.916ZM35.1579 38.0084C35.0499 38.0084 34.9444 38.0412 34.8546 38.1027C34.7648 38.1642 34.6948 38.2516 34.6535 38.3539C34.6121 38.4562 34.6013 38.5687 34.6224 38.6773C34.6435 38.7858 34.6955 38.8855 34.7718 38.9638C34.8482 39.0421 34.9455 39.0954 35.0514 39.117C35.1573 39.1386 35.2671 39.1275 35.3669 39.0851C35.4667 39.0428 35.5519 38.971 35.6119 38.879C35.6719 38.787 35.704 38.6788 35.704 38.5681C35.7001 38.4205 35.6395 38.2805 35.5354 38.1785C35.4313 38.0765 35.2921 38.0208 35.1481 38.0235L35.1579 38.0084ZM26.7953 31.6555C26.6871 31.6555 26.5814 31.6884 26.4915 31.7502C26.4016 31.8119 26.3316 31.8996 26.2904 32.0022C26.2492 32.1047 26.2387 32.2175 26.2602 32.3262C26.2816 32.4349 26.3341 32.5346 26.411 32.6127C26.4879 32.6907 26.5856 32.7436 26.6918 32.7647C26.7981 32.7857 26.908 32.7739 27.0077 32.7307C27.1074 32.6876 27.1923 32.6151 27.2517 32.5224C27.3111 32.4297 27.3423 32.321 27.3413 32.2101C27.3395 32.135 27.3229 32.0611 27.2924 31.9928C27.2619 31.9245 27.2182 31.8633 27.1639 31.8129C27.1096 31.7624 27.0459 31.7238 26.9766 31.6994C26.9073 31.6749 26.834 31.6651 26.7609 31.6706L26.7953 31.6555ZM29.5205 33.6723C29.4123 33.6723 29.3066 33.7052 29.2167 33.767C29.1268 33.8287 29.0568 33.9164 29.0156 34.019C28.9744 34.1215 28.9639 34.2343 28.9854 34.343C29.0069 34.4517 29.0594 34.5514 29.1362 34.6295C29.2131 34.7075 29.3108 34.7604 29.4171 34.7815C29.5233 34.8025 29.6332 34.7907 29.7329 34.7475C29.8326 34.7044 29.9176 34.6319 29.977 34.5392C30.0364 34.4465 30.0676 34.3378 30.0666 34.2269C30.0647 34.1516 30.0481 34.0775 30.0177 34.009C29.9872 33.9404 29.9436 33.8789 29.8894 33.828C29.8352 33.7772 29.7715 33.7381 29.7022 33.7131C29.6329 33.688 29.5594 33.6776 29.4861 33.6824L29.5205 33.6723ZM37.7799 35.921C37.6719 35.921 37.5663 35.9538 37.4765 36.0153C37.3867 36.0768 37.3167 36.1642 37.2754 36.2665C37.2341 36.3688 37.2233 36.4813 37.2443 36.5899C37.2654 36.6984 37.3174 36.7981 37.3938 36.8764C37.4701 36.9547 37.5674 37.008 37.6733 37.0296C37.7793 37.0512 37.889 37.0401 37.9888 36.9977C38.0886 36.9554 38.1739 36.8836 38.2339 36.7916C38.2939 36.6996 38.3259 36.5914 38.3259 36.4807C38.3247 36.405 38.3085 36.3303 38.2784 36.2612C38.2482 36.192 38.2047 36.1299 38.1504 36.0785C38.0962 36.0272 38.0323 35.9876 37.9627 35.9623C37.8931 35.9369 37.8191 35.9263 37.7454 35.9311L37.7799 35.921ZM29.6435 38.0588C29.5355 38.0588 29.43 38.0916 29.3402 38.1531C29.2504 38.2146 29.1804 38.302 29.1391 38.4043C29.0977 38.5066 29.0869 38.6191 29.108 38.7277C29.1291 38.8362 29.1811 38.936 29.2574 39.0142C29.3338 39.0925 29.4311 39.1458 29.537 39.1674C29.6429 39.189 29.7527 39.1779 29.8525 39.1355C29.9523 39.0932 30.0375 39.0214 30.0975 38.9294C30.1575 38.8374 30.1896 38.7292 30.1896 38.6185C30.1884 38.5428 30.1722 38.4681 30.1421 38.399C30.1119 38.3299 30.0684 38.2677 30.0141 38.2163C29.9598 38.165 29.896 38.1254 29.8263 38.1001C29.7567 38.0747 29.6828 38.0641 29.6091 38.0689L29.6435 38.0588ZM37.8635 27.0067C37.7555 27.0067 37.6499 27.0396 37.5601 27.1011C37.4703 27.1626 37.4003 27.25 37.359 27.3522C37.3177 27.4545 37.3069 27.567 37.3279 27.6756C37.349 27.7842 37.401 27.8839 37.4774 27.9621C37.5537 28.0404 37.651 28.0937 37.757 28.1153C37.8629 28.1369 37.9727 28.1258 38.0724 28.0835C38.1722 28.0411 38.2575 27.9694 38.3175 27.8773C38.3775 27.7853 38.4095 27.6771 38.4095 27.5664C38.4083 27.4907 38.3922 27.416 38.362 27.3469C38.3319 27.2778 38.2883 27.2157 38.2341 27.1643C38.1798 27.1129 38.1159 27.0733 38.0463 27.048C37.9767 27.0227 37.9028 27.012 37.8291 27.0168L37.8635 27.0067ZM37.8635 31.3933C37.7555 31.3933 37.6499 31.4261 37.5601 31.4876C37.4703 31.5491 37.4003 31.6365 37.359 31.7388C37.3177 31.841 37.3069 31.9536 37.3279 32.0621C37.349 32.1707 37.401 32.2704 37.4774 32.3487C37.5537 32.427 37.651 32.4803 37.757 32.5019C37.8629 32.5235 37.9727 32.5124 38.0724 32.47C38.1722 32.4276 38.2575 32.3559 38.3175 32.2639C38.3775 32.1718 38.4095 32.0637 38.4095 31.953C38.4083 31.8773 38.3922 31.8026 38.362 31.7334C38.3319 31.6643 38.2883 31.6022 38.2341 31.5508C38.1798 31.4994 38.1159 31.4599 38.0463 31.4345C37.9767 31.4092 37.9028 31.3986 37.8291 31.4034L37.8635 31.3933ZM35.1825 24.6874C35.0745 24.6874 34.969 24.7203 34.8792 24.7818C34.7894 24.8433 34.7194 24.9307 34.6781 25.0329C34.6367 25.1352 34.6259 25.2477 34.647 25.3563C34.6681 25.4648 34.7201 25.5646 34.7964 25.6428C34.8728 25.7211 34.9701 25.7744 35.076 25.796C35.1819 25.8176 35.2917 25.8065 35.3915 25.7642C35.4913 25.7218 35.5765 25.6501 35.6365 25.558C35.6965 25.466 35.7286 25.3578 35.7286 25.2471C35.7274 25.1714 35.7112 25.0967 35.6811 25.0276C35.6509 24.9585 35.6074 24.8963 35.5531 24.8449C35.4988 24.7936 35.435 24.754 35.3653 24.7287C35.2957 24.7033 35.2218 24.6927 35.1481 24.6975L35.1825 24.6874ZM38.134 21.8992C38.026 21.8992 37.9205 21.932 37.8307 21.9935C37.7409 22.055 37.6709 22.1424 37.6296 22.2447C37.5882 22.347 37.5774 22.4595 37.5985 22.568C37.6196 22.6766 37.6716 22.7763 37.7479 22.8546C37.8243 22.9329 37.9216 22.9862 38.0275 23.0078C38.1334 23.0294 38.2432 23.0183 38.343 22.9759C38.4428 22.9336 38.5281 22.8618 38.5881 22.7698C38.6481 22.6778 38.6801 22.5696 38.6801 22.4589C38.6796 22.3829 38.6639 22.3079 38.634 22.2384C38.6041 22.169 38.5606 22.1066 38.5061 22.055C38.4517 22.0035 38.3876 21.964 38.3176 21.9389C38.2477 21.9138 38.1735 21.9038 38.0996 21.9093L38.134 21.8992Z" fill="white"/>
</svg>
