<svg width="130.000000" height="120.000000" viewBox="0 0 130 120" fill="none" xmlns="http://www.w3.org/2000/svg" xmlns:xlink="http://www.w3.org/1999/xlink">
	<desc>
			Created with Pixso.
	</desc>
	<defs/>
	<rect id="bg" rx="6.000000" width="130.000000" height="120.000000" fill="#F2F7FF" fill-opacity="1.000000"/>
	<path id="Vector" d="M85.87 47.84C86.18 47.43 86.46 46.99 86.73 46.54L86.92 46.2C87.12 45.85 87.3 45.5 87.46 45.15C87.54 44.95 87.64 44.75 87.71 44.56C87.78 44.36 87.82 44.31 87.86 44.19L87.97 43.85C88.19 43.22 88.37 42.56 88.5 41.9L88.57 41.56C88.68 40.92 88.74 40.28 88.75 39.64L88.75 39.32C88.76 38.69 88.72 38.06 88.62 37.44C88.61 37.32 88.59 37.22 88.57 37.12C88.47 36.49 88.31 35.87 88.1 35.26C88.07 35.16 88.04 35.06 87.99 34.96C87.76 34.33 87.48 33.73 87.14 33.15C87.06 33.08 87.02 32.96 86.96 32.86C86.73 32.48 86.47 32.13 86.19 31.79C86.05 31.66 85.94 31.49 85.8 31.34C85.67 31.19 85.65 31.2 85.57 31.13C85.48 31.03 85.37 30.93 85.27 30.84C85.03 30.6 84.78 30.37 84.52 30.15C84.25 29.94 83.98 29.74 83.69 29.56C83.58 29.46 83.45 29.41 83.33 29.34C83.21 29.26 83.14 29.23 83.06 29.18C82.97 29.13 82.71 29 82.53 28.92C82.14 28.72 81.73 28.55 81.32 28.41C81.2 28.37 81.09 28.33 80.97 28.31C80.32 28.09 79.66 27.94 78.98 27.86L78.65 27.83C78.01 27.76 77.38 27.75 76.74 27.8C76.63 27.8 76.52 27.81 76.41 27.83C75.78 27.88 75.16 27.98 74.55 28.13L74.22 28.21C73.61 28.39 73 28.6 72.42 28.85L72.11 29C71.49 29.27 70.89 29.6 70.32 29.96L70.01 30.15L69.7 30.37L69.17 30.76C68.86 30.99 68.56 31.25 68.26 31.51L67.99 31.81C67.64 32.18 67.29 32.55 66.93 32.94L66.6 33.28L66.54 33.35L66.29 33.67C66.18 33.8 66.07 33.91 66 34.06C65.71 34.47 65.44 34.9 65.2 35.33L65.01 35.67C64.8 36.07 64.6 36.49 64.43 36.88L64.18 37.53L64.12 37.68L64.01 38.02C63.81 38.65 63.64 39.3 63.53 39.96L63.48 40.28C63.38 40.91 63.33 41.56 63.32 42.2L63.32 42.52C63.33 43.15 63.39 43.78 63.49 44.41C63.5 44.51 63.52 44.62 63.54 44.72C63.66 45.35 63.82 45.96 64.04 46.56C64.08 46.67 64.12 46.77 64.15 46.87C64.4 47.5 64.7 48.1 65.05 48.67C65.11 48.77 65.18 48.87 65.25 48.97C65.37 49.16 65.5 49.34 65.63 49.51C65.75 49.68 65.88 49.84 66.02 49.99C66.23 50.24 66.45 50.48 66.69 50.7C66.79 50.81 66.89 50.91 67 51C67.17 51.17 67.36 51.34 67.54 51.5C67.74 51.65 67.93 51.8 68.14 51.93C68.24 52.03 68.35 52.12 68.49 52.16C68.77 52.34 69.05 52.5 69.34 52.64C69.53 52.74 69.71 52.83 69.9 52.91C70.09 52.99 70.32 53.08 70.53 53.15C70.73 53.23 70.75 53.24 70.86 53.27C71.5 53.48 72.16 53.64 72.83 53.74C72.94 53.76 73.06 53.77 73.17 53.78C73.81 53.85 74.45 53.87 75.09 53.84L75.41 53.82C76.04 53.78 76.67 53.69 77.28 53.54L77.6 53.48C78.23 53.32 78.84 53.12 79.44 52.88L79.76 52.75C80.38 52.48 80.98 52.17 81.55 51.82L81.85 51.63L82.01 51.53L82.56 51.15C82.92 50.89 83.27 50.61 83.6 50.31L83.87 50.02C84.21 49.67 84.59 49.33 84.9 48.93C85.02 48.81 85.13 48.7 85.23 48.57C85.33 48.48 85.42 48.38 85.51 48.28L85.58 48.2L85.87 47.84ZM85.07 46.73C84.89 46.98 84.71 47.24 84.51 47.5C84.25 47.81 83.97 48.1 83.67 48.38L83.5 46.89L85.04 46.71L85.07 46.73ZM72.24 52.33C71.71 52.21 71.2 52.05 70.7 51.85L70.56 50.61L72.44 50.4L72.65 52.27L72.25 52.32L72.24 52.33ZM68.3 50.45L68.09 48.67L69.97 48.46L70.2 50.33L68.41 50.54L68.3 50.45ZM65.66 47.15L65.62 46.74L67.48 46.52L67.71 48.39L66.46 48.54C66.16 48.1 65.9 47.64 65.68 47.17L65.66 47.15ZM65.58 37.52C65.77 37.04 66 36.57 66.26 36.12L66.4 37.45L65.57 37.54L65.58 37.52ZM67.54 34.15C67.75 33.92 67.97 33.69 68.19 33.46L68.37 35L66.83 35.17C67.07 34.82 67.31 34.48 67.56 34.16L67.54 34.15ZM80.37 29.46C80.63 29.53 80.87 29.61 81.11 29.7L81.3 31.26L79.41 31.47L79.19 29.6L80.37 29.46ZM83.76 33.2L81.88 33.41L81.66 31.54L83.54 31.32L83.76 33.2ZM86.09 33.96L86.21 35.12L84.33 35.34L84.11 33.46L85.67 33.28C85.87 33.54 86 33.75 86.14 33.97L86.09 33.96ZM85.6 45.83L85.41 44.47L86.34 44.36C86.14 44.87 85.9 45.37 85.63 45.85L85.6 45.83ZM83.26 48.81L81.51 49.01L81.33 47.18L83.21 46.96L83.43 48.74L83.26 48.81ZM66.48 35.65L66.59 35.53L68.37 35.32L68.59 37.2L66.71 37.41L66.51 35.67L66.48 35.65ZM68.49 33.06L70.29 32.86L70.51 34.73L68.63 34.94L68.48 33.12L68.49 33.06ZM73.24 38.86L71.36 39.07L71.13 37.2L73.02 36.98L73.24 38.86ZM73.34 36.96L75.23 36.74L75.45 38.61L73.57 38.83L73.34 36.96ZM73.28 39.18L73.5 41.06L71.62 41.27L71.4 39.4L73.28 39.18ZM73.6 39.15L75.48 38.93L75.71 40.8L73.87 41L73.6 39.15ZM75.8 38.89L77.69 38.68L77.91 40.55L76.04 40.77L75.8 38.89ZM75.81 41.11L76.03 42.99L74.15 43.2L73.92 41.33L75.81 41.11ZM76.13 41.07L78.01 40.86L78.25 42.76L76.37 42.97L76.13 41.07ZM78.34 40.82L80.22 40.61L80.45 42.48L78.56 42.69L78.34 40.82ZM78.28 43.05L78.5 44.93L76.62 45.14L76.39 43.27L78.28 43.05ZM78.6 43.01L80.48 42.8L80.71 44.67L78.82 44.88L78.6 43.01ZM80.8 42.76L82.68 42.55L82.92 44.42L81.02 44.63L80.8 42.76ZM80.76 42.44L80.54 40.57L82.43 40.35L82.65 42.23L80.76 42.44ZM80.5 40.25L80.28 38.38L82.17 38.16L82.39 40.04L80.5 40.25ZM80.18 40.29L78.3 40.5L78.07 38.62L79.96 38.41L80.18 40.29ZM78.04 38.31L77.81 36.43L79.7 36.22L79.92 38.09L78.04 38.31ZM77.71 38.34L75.83 38.56L75.6 36.69L77.49 36.47L77.71 38.34ZM75.58 36.36L75.35 34.49L77.23 34.27L77.46 36.14L75.58 36.36ZM75.25 36.4L73.37 36.61L73.14 34.74L75.02 34.52L75.25 36.4ZM73.05 36.65L71.16 36.86L70.94 34.99L72.82 34.77L73.05 36.65ZM70.84 36.9L68.95 37.13L68.71 35.26L70.6 35.04L70.84 36.9ZM70.88 37.22L71.1 39.09L69.22 39.31L69 37.44L70.88 37.22ZM71.14 39.41L71.36 41.28L69.48 41.5L69.26 39.62L71.14 39.41ZM71.4 41.61L71.62 43.48L69.74 43.7L69.52 41.82L71.4 41.61ZM71.72 41.57L73.61 41.35L73.83 43.23L71.92 43.47L71.72 41.57ZM73.87 43.56L74.09 45.43L72.2 45.64L71.98 43.77L73.87 43.56ZM74.18 43.52L76.07 43.3L76.29 45.17L74.41 45.39L74.18 43.52ZM76.33 45.51L76.55 47.38L74.67 47.59L74.45 45.72L76.33 45.51ZM76.65 45.47L78.53 45.26L78.76 47.12L76.87 47.33L76.65 45.47ZM78.85 45.21L80.73 45L80.97 46.88L79.07 47.08L78.85 45.21ZM81.06 44.96L82.94 44.74L83.17 46.62L81.28 46.84L81.06 44.96ZM83 42.52L84.89 42.3L85.11 44.18L83.22 44.39L83 42.52ZM82.96 42.19L82.74 40.32L84.62 40.11L84.85 41.98L82.96 42.19ZM82.7 40.01L82.48 38.13L84.36 37.92L84.61 39.82L82.7 40.01ZM82.45 37.82L82.22 35.93L84.1 35.72L84.32 37.6L82.45 37.82ZM82.12 37.84L80.24 38.06L80.02 36.18L81.9 35.96L82.12 37.84ZM79.98 35.87L79.76 33.99L81.64 33.77L81.87 35.64L79.98 35.87ZM79.65 35.9L77.77 36.11L77.55 34.24L79.43 34.03L79.65 35.9ZM77.52 33.92L77.3 32.04L79.18 31.83L79.4 33.69L77.52 33.92ZM77.2 33.95L75.31 34.16L75.09 32.3L76.96 32.08L77.2 33.95ZM74.99 34.2L73.11 34.42L72.88 32.55L74.76 32.33L74.99 34.2ZM72.76 34.47L70.87 34.68L70.64 32.81L72.53 32.59L72.76 34.47ZM68.69 37.52L68.91 39.39L67.03 39.61L66.81 37.73L68.69 37.52ZM68.95 39.72L69.17 41.58L67.29 41.81L67.07 39.93L68.95 39.72ZM69.21 41.9L69.44 43.78L67.55 44L67.33 42.12L69.21 41.9ZM69.48 44.1L69.7 45.97L67.8 46.19L67.58 44.3L69.48 44.1ZM69.8 44.06L71.68 43.85L71.87 45.7L70 45.91L69.8 44.06ZM71.94 46.05L72.16 47.92L70.27 48.14L70.05 46.27L71.94 46.05ZM72.26 46.01L74.14 45.8L74.36 47.67L72.48 47.88L72.26 46.01ZM74.4 47.99L74.63 49.87L72.74 50.09L72.52 48.21L74.4 47.99ZM74.72 47.96L76.6 47.74L76.83 49.62L74.94 49.83L74.72 47.96ZM76.92 47.71L78.81 47.49L79.03 49.37L77.15 49.52L76.92 47.71ZM79.13 47.46L81.01 47.24L81.24 49.11L79.36 49.33L79.13 47.46ZM83.28 44.76L85.16 44.55L85.37 46.34L85.31 46.41L83.48 46.62L83.28 44.76ZM86.55 44.06L85.42 44.2L85.2 42.33L87.09 42.12L87.11 42.29C86.96 42.88 86.76 43.45 86.53 44.01L86.55 44.06ZM85.18 42L84.96 40.12L86.85 39.91L87.07 41.78L85.18 42ZM84.92 39.8L84.7 37.92L86.58 37.71L86.81 39.59L84.92 39.8ZM84.66 37.61L84.44 35.73L86.32 35.52L86.54 37.4L84.66 37.61ZM84.07 35.45L82.19 35.67L81.97 33.79L83.85 33.58L84.07 35.45ZM81.61 33.51L79.72 33.73L79.5 31.85L81.38 31.64L81.61 33.51ZM79.13 31.53L77.24 31.75L77.02 29.87L78.9 29.66L79.13 31.53ZM76.93 31.78L75.04 32.04L74.82 30.16L76.7 29.95L76.93 31.78ZM74.72 32.04L72.84 32.25L72.6 30.38L74.49 30.17L74.72 32.04ZM72.29 30.42L72.51 32.29L70.63 32.5L70.47 31.38C70.99 31.02 71.54 30.69 72.11 30.41L72.29 30.42ZM70.3 32.54L68.93 32.72C69.33 32.33 69.76 31.97 70.22 31.64L70.3 32.54ZM65.45 37.86L66.45 37.74L66.7 39.64L64.9 39.84C65.03 39.17 65.21 38.5 65.45 37.86ZM66.72 39.94L66.94 41.81L65.06 42.03L64.83 40.15L66.72 39.94ZM66.98 42.13L67.2 44L65.32 44.22L65.09 42.35L66.98 42.13ZM67.23 44.32L67.47 46.2L65.57 46.41L65.35 44.54L67.23 44.32ZM67.82 46.48L69.7 46.26L69.93 48.13L68.04 48.36L67.82 46.48ZM70.29 48.42L72.17 48.21L72.39 50.08L70.51 50.29L70.29 48.42ZM72.76 50.36L74.64 50.14L74.86 52.02L72.98 52.24L72.76 50.36ZM74.97 50.11L76.86 49.9L77.02 51.78L75.13 51.99L74.97 50.11ZM77.17 49.87L79.06 49.65L79.28 51.52L77.4 51.74L77.17 49.87ZM79.37 49.62L81.26 49.39L81.38 50.4C80.81 50.78 80.21 51.12 79.59 51.42L79.37 49.62ZM81.69 50.18L81.59 49.36L82.92 49.23C82.54 49.56 82.13 49.87 81.7 50.15L81.69 50.18ZM87.32 41.21L87.14 39.85L87.45 39.81C87.43 40.28 87.38 40.74 87.31 41.2L87.32 41.21ZM87.36 37.59C87.45 38.22 87.49 38.85 87.47 39.48L87.11 39.51L86.89 37.64L87.36 37.59ZM87.3 37.26L86.85 37.32L86.62 35.44L86.8 35.42C87.02 36.02 87.18 36.63 87.29 37.26L87.3 37.26ZM86.59 35.13L86.56 34.83C86.6 34.92 86.64 35.02 86.68 35.11L86.59 35.13ZM85.51 33.03L84.14 33.2L83.92 31.33C84.52 31.82 85.06 32.39 85.5 33.02L85.51 33.03ZM83.54 31.03L81.65 31.24L81.47 29.88C82.2 30.17 82.9 30.56 83.53 31.03L83.54 31.03ZM79.48 29.27L79.18 29.3L79.17 29.22C79.27 29.23 79.37 29.24 79.47 29.26L79.48 29.27ZM76.93 29.11C77.57 29.08 78.21 29.1 78.85 29.17L78.87 29.34L76.98 29.55L76.93 29.11ZM76.6 29.13L76.67 29.59L74.78 29.8L74.74 29.45C75.34 29.29 75.96 29.18 76.58 29.11L76.6 29.13ZM74.46 29.84L73.1 30C73.53 29.82 73.98 29.67 74.43 29.55L74.46 29.84ZM64.66 41.36L64.73 42.06L64.62 42.08C64.61 41.84 64.62 41.6 64.65 41.36L64.66 41.36ZM64.76 44.29C64.66 43.66 64.6 43.03 64.6 42.4L64.77 42.39L65.01 44.23L64.78 44.27L64.76 44.29ZM64.82 44.6L65.03 44.57L65.21 46.04C65.04 45.57 64.91 45.09 64.82 44.6ZM66.7 48.83L67.76 48.71L67.93 50.15C67.48 49.75 67.07 49.31 66.7 48.83ZM68.81 50.78L70.26 50.62L70.38 51.67C69.82 51.44 69.28 51.15 68.78 50.81L68.81 50.78ZM73.44 52.47L74.93 52.3L74.96 52.53C74.44 52.56 73.92 52.55 73.41 52.51L73.44 52.47ZM77.15 52.23C76.54 52.37 75.91 52.46 75.28 52.51L75.26 52.27L77.14 52.05L77.15 52.23ZM77.46 52.02L78.2 51.93C77.96 52.02 77.72 52.09 77.47 52.15L77.46 52.02Z" fill="#407BFF" fill-opacity="1.000000" fill-rule="nonzero"/>
	<path id="Vector" d="M86.54 49.09C91.66 42.65 91.12 33.7 85.32 29.14C79.53 24.58 70.65 26.12 65.53 32.56C64.55 33.8 63.74 35.17 63.15 36.63L63.08 36.7C62.87 37.22 62.69 37.75 62.55 38.29C61.65 41.33 61.54 44.54 62.22 47.64C62.64 50.43 63.54 53.2 61.71 56.83L59.05 60.16L61.02 61.72L63.67 58.38C66.8 55.76 69.73 55.98 72.54 55.76C75.72 55.7 78.82 54.84 81.58 53.27C82.07 53 82.55 52.7 83.01 52.38L83.08 52.31C84.38 51.41 85.55 50.33 86.54 49.09ZM63.33 57L63.16 56.84C64.57 53.84 64.05 51.16 63.77 48.95C64.54 50.3 65.57 51.49 66.79 52.46C68.01 53.43 69.42 54.14 70.92 54.57C68.65 54.86 65.91 54.97 63.33 57ZM81.85 51.59C81.65 51.72 81.44 51.84 81.25 51.96C76.81 54.51 71.43 54.5 67.58 51.47C63.73 48.44 62.48 43.23 63.95 38.35L64.17 37.68C64.72 36.12 65.53 34.67 66.56 33.37C71.24 27.49 79.29 26.07 84.53 30.16C89.78 34.26 90.22 42.42 85.53 48.3C84.49 49.61 83.24 50.73 81.82 51.62L81.85 51.59Z" fill="#00308E" fill-opacity="1.000000" fill-rule="nonzero"/>
	<path id="Vector" d="M59.8 59.56L61.48 60.89C61.74 61.09 61.79 61.46 61.58 61.72L51.49 74.42C51.29 74.68 50.91 74.72 50.65 74.52L48.96 73.19C48.7 72.99 48.66 72.61 48.86 72.35L58.96 59.65C59.16 59.4 59.54 59.35 59.8 59.56Z" fill="#407BFF" fill-opacity="1.000000" fill-rule="evenodd"/>
	<path id="Vector" d="M93.31 51.23C93.62 50.82 93.9 50.38 94.16 49.94L94.36 49.59C94.56 49.24 94.74 48.89 94.9 48.54C94.98 48.34 95.07 48.14 95.15 47.95C95.22 47.75 95.26 47.7 95.3 47.58L95.41 47.24C95.63 46.61 95.81 45.95 95.94 45.29L96.01 44.95C96.11 44.31 96.18 43.67 96.19 43.03L96.19 42.71C96.2 42.08 96.16 41.45 96.06 40.83C96.05 40.71 96.03 40.61 96.01 40.51C95.91 39.88 95.75 39.26 95.54 38.65C95.51 38.55 95.47 38.45 95.43 38.35C95.2 37.72 94.92 37.12 94.58 36.54C94.5 36.47 94.46 36.35 94.4 36.25C94.17 35.87 93.91 35.52 93.63 35.18C93.48 35.05 93.38 34.88 93.24 34.73C93.11 34.58 93.09 34.59 93.01 34.52C92.91 34.42 92.81 34.32 92.71 34.24C92.47 33.99 92.22 33.76 91.96 33.54C91.69 33.33 91.41 33.13 91.13 32.95C91.02 32.86 90.89 32.8 90.77 32.73C90.65 32.65 90.58 32.62 90.5 32.57C90.41 32.52 90.15 32.39 89.97 32.31C89.58 32.11 89.17 31.94 88.76 31.8C88.64 31.76 88.53 31.72 88.41 31.7C87.76 31.49 87.09 31.34 86.42 31.25L86.09 31.22C85.45 31.15 84.82 31.15 84.18 31.19C84.07 31.19 83.96 31.2 83.85 31.22C83.22 31.27 82.6 31.37 81.99 31.53L81.66 31.6C81.05 31.78 80.44 31.99 79.86 32.25L79.55 32.39C78.93 32.67 78.33 32.99 77.75 33.36L77.45 33.54L77.13 33.76L76.61 34.15C76.3 34.38 76 34.64 75.7 34.9L75.43 35.2C75.08 35.57 74.73 35.94 74.37 36.33L74.04 36.67L73.98 36.74L73.73 37.07C73.62 37.19 73.51 37.3 73.44 37.45C73.15 37.86 72.88 38.29 72.64 38.72L72.45 39.06C72.24 39.46 72.04 39.88 71.87 40.27L71.62 40.92L71.56 41.07L71.45 41.41C71.24 42.04 71.08 42.69 70.97 43.35L70.92 43.67C70.82 44.31 70.77 44.95 70.76 45.59L70.76 45.91C70.77 46.54 70.82 47.17 70.93 47.8C70.94 47.9 70.96 48.01 70.98 48.11C71.1 48.74 71.26 49.35 71.48 49.95C71.52 50.06 71.56 50.16 71.59 50.27C71.84 50.89 72.14 51.49 72.49 52.06C72.55 52.16 72.62 52.26 72.69 52.36C72.81 52.55 72.94 52.73 73.07 52.9C73.19 53.07 73.32 53.23 73.46 53.38C73.66 53.63 73.89 53.87 74.13 54.09C74.23 54.2 74.33 54.3 74.44 54.39C74.61 54.56 74.79 54.73 74.98 54.89C75.17 55.04 75.37 55.19 75.58 55.32C75.68 55.42 75.79 55.51 75.93 55.55C76.2 55.73 76.49 55.89 76.78 56.03C76.97 56.13 77.15 56.22 77.34 56.3C77.53 56.38 77.76 56.47 77.97 56.54C78.17 56.62 78.19 56.63 78.3 56.66C78.94 56.88 79.6 57.03 80.27 57.13C80.38 57.15 80.5 57.16 80.61 57.17C81.25 57.24 81.89 57.26 82.53 57.23L82.85 57.21C83.48 57.17 84.11 57.08 84.72 56.93L85.04 56.87C85.67 56.71 86.28 56.51 86.88 56.27L87.2 56.15C87.82 55.87 88.42 55.56 88.99 55.21L89.29 55.02L89.45 54.93L90 54.54C90.36 54.28 90.71 54 91.04 53.7L91.31 53.42C91.65 53.06 92.03 52.72 92.34 52.32C92.46 52.21 92.57 52.09 92.67 51.97C92.77 51.87 92.86 51.78 92.95 51.67L93.02 51.6L93.31 51.23ZM92.51 50.12C92.33 50.37 92.15 50.63 91.95 50.89C91.68 51.2 91.41 51.49 91.11 51.78L90.94 50.28L92.48 50.1L92.51 50.12ZM79.68 55.72C79.15 55.6 78.64 55.44 78.14 55.24L78 54L79.87 53.79L80.09 55.66L79.68 55.71L79.68 55.72ZM75.74 53.84L75.53 52.06L77.41 51.85L77.64 53.72L75.84 53.93L75.74 53.84ZM73.1 50.54L73.06 50.13L74.92 49.91L75.15 51.78L73.9 51.93C73.6 51.49 73.34 51.03 73.12 50.56L73.1 50.54ZM73.02 40.91C73.21 40.43 73.44 39.96 73.69 39.51L73.84 40.84L73.01 40.93L73.02 40.91ZM74.98 37.54C75.19 37.31 75.41 37.08 75.62 36.85L75.81 38.39L74.27 38.56C74.5 38.21 74.75 37.87 75 37.55L74.98 37.54ZM87.81 32.85C88.07 32.92 88.31 33 88.55 33.09L88.74 34.65L86.85 34.86L86.63 32.99L87.81 32.85ZM91.2 36.59L89.32 36.8L89.1 34.93L90.98 34.71L91.2 36.59ZM93.53 37.35L93.65 38.51L91.77 38.73L91.55 36.85L93.11 36.67C93.31 36.93 93.44 37.15 93.58 37.36L93.53 37.35ZM93.04 49.22L92.85 47.86L93.78 47.75C93.57 48.26 93.34 48.76 93.07 49.24L93.04 49.22ZM90.7 52.2L88.94 52.4L88.77 50.57L90.65 50.35L90.86 52.13L90.7 52.2ZM73.92 39.04L74.03 38.92L75.81 38.71L76.03 40.59L74.15 40.8L73.95 39.06L73.92 39.04ZM75.93 36.45L77.73 36.25L77.95 38.12L76.07 38.33L75.92 36.51L75.93 36.45ZM80.68 42.25L78.8 42.46L78.57 40.6L80.46 40.37L80.68 42.25ZM80.78 40.35L82.66 40.13L82.88 42L81.01 42.22L80.78 40.35ZM80.72 42.57L80.94 44.45L79.06 44.66L78.84 42.79L80.72 42.57ZM81.04 42.54L82.92 42.32L83.15 44.19L81.3 44.39L81.04 42.54ZM83.24 42.29L85.13 42.08L85.35 43.94L83.48 44.16L83.24 42.29ZM83.25 44.5L83.47 46.38L81.59 46.59L81.36 44.72L83.25 44.5ZM83.57 44.46L85.45 44.25L85.69 46.15L83.81 46.37L83.57 44.46ZM85.77 44.21L87.66 44L87.89 45.87L86 46.08L85.77 44.21ZM85.72 46.44L85.94 48.32L84.06 48.53L83.83 46.66L85.72 46.44ZM86.04 46.4L87.92 46.19L88.15 48.06L86.26 48.27L86.04 46.4ZM88.24 46.15L90.12 45.94L90.36 47.81L88.46 48.02L88.24 46.15ZM88.2 45.83L87.98 43.96L89.87 43.74L90.09 45.62L88.2 45.83ZM87.94 43.64L87.72 41.77L89.6 41.56L89.82 43.43L87.94 43.64ZM87.62 43.68L85.74 43.89L85.51 42.01L87.4 41.8L87.62 43.68ZM85.48 41.7L85.25 39.82L87.14 39.61L87.36 41.48L85.48 41.7ZM85.15 41.73L83.27 41.95L83.04 40.08L84.93 39.86L85.15 41.73ZM83.02 39.75L82.79 37.88L84.67 37.66L84.9 39.53L83.02 39.75ZM82.69 39.79L80.8 40L80.58 38.13L82.46 37.91L82.69 39.79ZM80.49 40.04L78.6 40.25L78.38 38.39L80.26 38.16L80.49 40.04ZM78.28 40.29L76.38 40.53L76.15 38.65L78.04 38.43L78.28 40.29ZM78.32 40.61L78.54 42.48L76.66 42.7L76.44 40.83L78.32 40.61ZM78.58 42.8L78.8 44.67L76.92 44.89L76.7 43.02L78.58 42.8ZM78.84 45L79.06 46.87L77.18 47.09L76.96 45.21L78.84 45ZM79.16 44.96L81.05 44.74L81.27 46.62L79.36 46.86L79.16 44.96ZM81.31 46.95L81.53 48.82L79.64 49.03L79.42 47.16L81.31 46.95ZM81.62 46.91L83.51 46.69L83.73 48.57L81.85 48.78L81.62 46.91ZM83.77 48.9L83.99 50.77L82.1 50.98L81.89 49.11L83.77 48.9ZM84.09 48.86L85.97 48.65L86.2 50.51L84.31 50.72L84.09 48.86ZM86.29 48.6L88.17 48.39L88.4 50.27L86.51 50.47L86.29 48.6ZM88.5 48.35L90.38 48.14L90.61 50.01L88.72 50.23L88.5 48.35ZM90.44 45.91L92.32 45.69L92.55 47.57L90.66 47.79L90.44 45.91ZM90.4 45.58L90.18 43.71L92.06 43.5L92.29 45.37L90.4 45.58ZM90.14 43.4L89.91 41.52L91.8 41.31L92.05 43.21L90.14 43.4ZM89.88 41.21L89.66 39.33L91.54 39.11L91.76 40.99L89.88 41.21ZM89.56 41.24L87.68 41.45L87.46 39.57L89.34 39.35L89.56 41.24ZM87.42 39.26L87.2 37.38L89.08 37.17L89.31 39.03L87.42 39.26ZM87.09 39.29L85.21 39.5L84.99 37.64L86.87 37.42L87.09 39.29ZM84.96 37.31L84.74 35.43L86.62 35.22L86.84 37.08L84.96 37.31ZM84.63 37.34L82.75 37.55L82.52 35.69L84.4 35.47L84.63 37.34ZM82.43 37.6L80.55 37.81L80.32 35.94L82.2 35.72L82.43 37.6ZM80.2 37.86L78.31 38.07L78.08 36.2L79.97 35.98L80.2 37.86ZM76.13 40.91L76.35 42.79L74.47 43L74.25 41.12L76.13 40.91ZM76.39 43.11L76.61 44.97L74.73 45.2L74.51 43.32L76.39 43.11ZM76.65 45.3L76.88 47.18L74.99 47.39L74.77 45.51L76.65 45.3ZM76.92 47.49L77.14 49.36L75.24 49.58L75.01 47.7L76.92 47.49ZM77.23 47.45L79.12 47.24L79.31 49.09L77.43 49.31L77.23 47.45ZM79.38 49.44L79.6 51.31L77.71 51.53L77.49 49.66L79.38 49.44ZM79.7 49.4L81.58 49.19L81.8 51.06L79.92 51.27L79.7 49.4ZM81.84 51.38L82.06 53.26L80.17 53.48L79.95 51.61L81.84 51.38ZM82.16 51.35L84.04 51.13L84.27 53.01L82.38 53.22L82.16 51.35ZM84.36 51.1L86.25 50.88L86.47 52.76L84.59 52.91L84.36 51.1ZM86.57 50.85L88.45 50.63L88.68 52.51L86.8 52.72L86.57 50.85ZM90.72 48.15L92.6 47.94L92.81 49.73L92.75 49.8L90.92 50.01L90.72 48.15ZM93.99 47.45L92.86 47.6L92.64 45.72L94.53 45.51L94.55 45.68C94.39 46.27 94.2 46.84 93.97 47.4L93.99 47.45ZM92.62 45.39L92.4 43.51L94.28 43.3L94.51 45.17L92.62 45.39ZM92.36 43.19L92.14 41.31L94.02 41.1L94.25 42.98L92.36 43.19ZM92.1 41L91.87 39.12L93.76 38.91L93.98 40.79L92.1 41ZM91.51 38.84L89.63 39.06L89.41 37.19L91.29 36.97L91.51 38.84ZM89.05 36.9L87.16 37.12L86.94 35.24L88.82 35.03L89.05 36.9ZM86.57 34.92L84.68 35.14L84.46 33.26L86.34 33.05L86.57 34.92ZM84.37 35.17L82.48 35.43L82.26 33.55L84.14 33.34L84.37 35.17ZM82.16 35.43L80.27 35.64L80.04 33.77L81.93 33.56L82.16 35.43ZM79.73 33.81L79.95 35.68L78.07 35.89L77.91 34.77C78.43 34.41 78.98 34.08 79.55 33.8L79.73 33.81ZM77.74 35.93L76.37 36.11C76.77 35.72 77.2 35.36 77.66 35.03L77.74 35.93ZM72.89 41.25L73.89 41.13L74.14 43.03L72.34 43.23C72.47 42.56 72.65 41.89 72.89 41.25ZM74.15 43.33L74.38 45.2L72.49 45.42L72.27 43.54L74.15 43.33ZM74.42 45.52L74.64 47.39L72.76 47.61L72.53 45.74L74.42 45.52ZM74.67 47.71L74.9 49.59L73.01 49.8L72.79 47.93L74.67 47.71ZM75.26 49.87L77.14 49.66L77.37 51.52L75.48 51.75L75.26 49.87ZM77.73 51.81L79.61 51.6L79.83 53.47L77.95 53.68L77.73 51.81ZM80.2 53.75L82.08 53.53L82.3 55.42L80.42 55.63L80.2 53.75ZM82.4 53.51L84.3 53.29L84.46 55.17L82.57 55.38L82.4 53.51ZM84.61 53.26L86.5 53.04L86.72 54.91L84.84 55.13L84.61 53.26ZM86.81 53.01L88.7 52.78L88.82 53.79C88.25 54.17 87.65 54.51 87.03 54.81L86.81 53.01ZM89.13 53.57L89.03 52.75L90.36 52.62C89.98 52.95 89.57 53.26 89.14 53.54L89.13 53.57ZM94.76 44.6L94.57 43.24L94.88 43.2C94.87 43.67 94.82 44.13 94.75 44.59L94.76 44.6ZM94.8 40.98C94.89 41.61 94.92 42.24 94.91 42.87L94.55 42.9L94.33 41.03L94.8 40.98ZM94.74 40.66L94.29 40.71L94.06 38.83L94.23 38.82C94.45 39.41 94.62 40.03 94.73 40.65L94.74 40.66ZM94.03 38.52L93.99 38.22C94.04 38.31 94.08 38.41 94.12 38.5L94.03 38.52ZM92.95 36.42L91.58 36.59L91.36 34.72C91.96 35.21 92.49 35.78 92.94 36.41L92.95 36.42ZM90.98 34.42L89.09 34.63L88.91 33.27C89.64 33.56 90.34 33.95 90.97 34.42L90.98 34.42ZM86.92 32.66L86.62 32.69L86.61 32.61C86.71 32.62 86.81 32.63 86.91 32.65L86.92 32.66ZM84.37 32.5C85.01 32.47 85.65 32.49 86.29 32.56L86.31 32.73L84.42 32.94L84.37 32.5ZM84.04 32.52L84.1 32.98L82.22 33.2L82.18 32.84C82.78 32.68 83.4 32.57 84.02 32.5L84.04 32.52ZM81.9 33.23L80.54 33.39C80.97 33.21 81.41 33.06 81.87 32.94L81.9 33.23ZM72.1 44.75L72.17 45.46L72.06 45.47C72.05 45.23 72.06 44.99 72.09 44.75L72.1 44.75ZM72.2 47.68C72.1 47.05 72.04 46.42 72.04 45.79L72.21 45.78L72.45 47.63L72.22 47.66L72.2 47.68ZM72.25 47.99L72.47 47.97L72.64 49.43C72.48 48.96 72.35 48.48 72.25 47.99ZM74.14 52.22L75.2 52.1L75.37 53.54C74.92 53.14 74.51 52.7 74.14 52.22ZM76.25 54.17L77.7 54.01L77.82 55.06C77.26 54.83 76.72 54.54 76.22 54.2L76.25 54.17ZM80.88 55.86L82.37 55.69L82.39 55.92C81.88 55.95 81.36 55.94 80.85 55.9L80.88 55.86ZM84.59 55.62C83.98 55.76 83.35 55.86 82.72 55.9L82.7 55.66L84.57 55.45L84.59 55.62ZM84.9 55.41L85.63 55.32C85.4 55.41 85.15 55.48 84.91 55.54L84.9 55.41Z" fill="#407BFF" fill-opacity="1.000000" fill-rule="nonzero"/>
	<path id="Vector" d="M93.98 52.48C99.1 46.05 98.55 37.09 92.76 32.53C86.97 27.98 78.09 29.51 72.97 35.95C71.98 37.19 71.18 38.56 70.59 40.02L70.52 40.09C70.31 40.61 70.13 41.14 69.98 41.68C69.09 44.72 68.98 47.94 69.66 51.03C70.08 53.82 70.98 56.59 69.14 60.22L66.49 63.56L68.46 65.11L71.11 61.77C74.24 59.15 77.17 59.37 79.98 59.16C83.15 59.09 86.26 58.23 89.02 56.66C89.51 56.39 89.99 56.1 90.45 55.77L90.52 55.7C91.82 54.8 92.99 53.72 93.98 52.48ZM70.77 60.39L70.6 60.23C72.01 57.23 71.49 54.55 71.21 52.34C71.98 53.69 73 54.89 74.22 55.85C75.45 56.82 76.85 57.53 78.36 57.96C76.09 58.25 73.35 58.36 70.77 60.39ZM89.29 54.98C89.09 55.12 88.88 55.23 88.69 55.35C84.25 57.9 78.87 57.89 75.02 54.86C71.17 51.83 69.92 46.62 71.39 41.74L71.61 41.07C72.16 39.51 72.97 38.06 74 36.76C78.68 30.88 86.73 29.46 91.97 33.55C97.22 37.65 97.66 45.81 92.97 51.69C91.93 53 90.68 54.12 89.26 55.01L89.29 54.98Z" fill="#00308E" fill-opacity="1.000000" fill-rule="nonzero"/>
	<path id="Vector" d="M67.24 62.95L68.92 64.28C69.18 64.48 69.23 64.86 69.02 65.11L58.93 77.81C58.72 78.07 58.35 78.11 58.09 77.91L56.4 76.58C56.14 76.38 56.1 76 56.3 75.75L66.4 63.05C66.6 62.79 66.98 62.75 67.24 62.95Z" fill="#407BFF" fill-opacity="1.000000" fill-rule="evenodd"/>
	<path id="Vector" d="M68.99 74.06C68.24 73.7 67.61 73.13 67.19 72.41C66.76 71.7 66.56 70.87 66.6 70.05C66.65 69.22 66.94 68.42 67.44 67.76C67.94 67.1 68.63 66.6 69.42 66.33C70.21 66.06 71.06 66.03 71.87 66.24C72.68 66.45 73.4 66.89 73.96 67.51C74.52 68.13 74.87 68.9 74.99 69.73C75.11 70.55 74.98 71.38 74.61 72.13C74.37 72.62 74.04 73.06 73.63 73.43C73.21 73.79 72.73 74.07 72.21 74.25C71.69 74.43 71.14 74.51 70.59 74.48C70.03 74.44 69.49 74.3 68.99 74.06Z" fill="#0035B9" fill-opacity="1.000000" fill-rule="nonzero"/>
	<g opacity="0.700000">
		<path id="Vector" d="M68.99 74.06C68.36 73.76 67.8 73.3 67.39 72.73C66.97 72.15 66.71 71.49 66.62 70.79C66.58 70.52 66.57 70.25 66.59 69.98C66.62 69.45 66.76 68.94 66.98 68.47C67.44 67.5 68.26 66.75 69.27 66.38C69.4 66.32 69.53 66.28 69.67 66.24C70.65 65.98 71.69 66.08 72.61 66.51C72.9 66.66 73.19 66.83 73.44 67.04C73.59 67.15 73.72 67.28 73.84 67.41C74.28 67.88 74.62 68.45 74.81 69.06C75 69.68 75.05 70.33 74.94 70.97C74.84 71.61 74.59 72.21 74.21 72.73C73.84 73.26 73.34 73.69 72.77 73.99C72.67 74.05 72.57 74.09 72.46 74.13C71.91 74.37 71.32 74.48 70.72 74.47C70.12 74.46 69.54 74.32 68.99 74.06Z" fill="#FFFFFF" fill-opacity="1.000000" fill-rule="nonzero"/>
	</g>
	<g opacity="0.200000">
		<path id="Vector" d="M68.77 68.73C69.52 68.73 70.25 69.02 70.79 69.54C71.07 69.81 71.28 70.14 71.42 70.5C71.57 70.86 71.63 71.25 71.62 71.63C71.6 72.54 71.9 73.43 72.47 74.14C72.58 74.1 72.68 74.05 72.78 74C72.22 73.34 71.92 72.49 71.94 71.63C71.95 71.2 71.86 70.77 71.7 70.37C71.53 69.97 71.28 69.61 70.98 69.31C70.36 68.74 69.56 68.42 68.72 68.42C68.24 68.43 67.78 68.59 67.39 68.87C67.01 69.15 66.71 69.54 66.55 69.99C66.53 70.26 66.54 70.53 66.58 70.8C67.08 69.43 67.78 68.75 68.77 68.73ZM72.7 67.35C73.08 67.33 73.47 67.35 73.85 67.41C73.73 67.27 73.59 67.15 73.45 67.04L72.7 67.06C72.1 67.09 71.51 67.03 70.93 66.89C70.48 66.74 70.06 66.54 69.66 66.28C69.53 66.31 69.39 66.36 69.26 66.41C69.75 66.76 70.28 67.04 70.84 67.24C71.45 67.36 72.08 67.4 72.7 67.35Z" fill="#00308E" fill-opacity="1.000000" fill-rule="nonzero"/>
	</g>
	<path id="Vector" d="M49.78 80.19L53.82 80.19C56.07 80.19 57.9 82.03 57.9 84.29L57.9 93.89C57.9 96.16 56.07 98 53.82 98L49.78 98C47.53 98 45.7 96.16 45.7 93.89L45.7 84.29C45.7 82.03 47.53 80.19 49.78 80.19Z" fill="#407BFF" fill-opacity="1.000000" fill-rule="evenodd"/>
	<path id="Vector" d="M80.65 80.19L84.69 80.19C86.94 80.19 88.77 82.03 88.77 84.29L88.77 93.89C88.77 96.16 86.94 98 84.69 98L80.65 98C78.39 98 76.57 96.16 76.57 93.89L76.57 84.29C76.57 82.03 78.39 80.19 80.65 80.19Z" fill="#407BFF" fill-opacity="1.000000" fill-rule="evenodd"/>
	<path id="Vector" d="M80.54 91.21L53.9 91.21C53.32 91.2 52.78 90.96 52.39 90.55C51.99 90.13 51.77 89.58 51.77 89.01C51.79 88.46 52.02 87.93 52.42 87.55C52.81 87.16 53.34 86.95 53.9 86.95L80.5 86.95C81.06 86.96 81.6 87.2 81.99 87.59C82.39 87.99 82.62 88.52 82.63 89.09C82.61 89.64 82.39 90.17 82 90.56C81.61 90.96 81.09 91.19 80.54 91.21Z" fill="#407BFF" fill-opacity="1.000000" fill-rule="nonzero"/>
	<path id="Vector" d="M45.15 79.46C45.17 81.97 44.66 84.46 43.66 86.76C42.66 89.07 41.19 91.14 39.34 92.84C38.15 93.94 36.81 94.88 35.37 95.62L34.61 96C33.68 96.44 32.7 96.79 31.71 97.05C30.24 97.43 28.72 97.63 27.2 97.62C24.79 97.62 22.39 97.14 20.16 96.19C17.93 95.24 15.92 93.85 14.24 92.11C14.05 91.9 13.85 91.7 13.66 91.48C10.73 88.16 9.12 83.89 9.13 79.46C9.12 78.7 9.17 77.94 9.27 77.19C9.27 76.93 9.27 76.67 9.37 76.41C9.94 73.04 11.44 69.91 13.7 67.36C15.96 64.81 18.89 62.96 22.15 62.01C22.9 61.79 23.65 61.61 24.42 61.48L25.71 61.33C26.13 61.33 26.57 61.33 27 61.33L27.2 61.33C30.86 61.35 34.42 62.48 37.43 64.56C40.43 66.64 42.75 69.58 44.06 73.01L44.33 73.72C44.92 75.49 45.24 77.34 45.27 79.21C45.23 79.29 45.2 79.37 45.15 79.46Z" fill="#407BFF" fill-opacity="1.000000" fill-rule="nonzero"/>
	<path id="Vector" d="M19.96 73.61L12.86 78.8L15.57 87.2L24.36 87.2L27.07 78.8L19.96 73.61Z" fill="#00308E" fill-opacity="1.000000" fill-rule="nonzero"/>
	<path id="Vector" d="M45.14 79.08L43.41 80.21L36.98 75.02L36.56 74.69L36.69 74.32L39.59 66.43C41.47 68.24 42.92 70.44 43.86 72.88L44.12 73.59C44.74 75.36 45.09 77.21 45.14 79.08Z" fill="#00308E" fill-opacity="1.000000" fill-rule="nonzero"/>
	<path id="Vector" d="M39.29 92.84C38.09 93.94 36.76 94.88 35.31 95.62L34.55 96C33.62 96.44 32.65 96.79 31.65 97.05L32.19 94.29L32.3 93.68L32.52 93.68L39.29 92.84Z" fill="#00308E" fill-opacity="1.000000" fill-rule="nonzero"/>
	<path id="Vector" d="M26.93 61.28L24.26 62.62L23.2 63.14L23.02 62.95L22.08 62.01C22.82 61.79 23.58 61.61 24.34 61.48L25.64 61.33C26 61.31 26.43 61.28 26.93 61.28Z" fill="#00308E" fill-opacity="1.000000" fill-rule="nonzero"/>
	<path id="Vector" d="M25.58 61.33C25.08 61.72 24.62 62.15 24.2 62.62C21.41 65.74 20.51 70.35 20.28 73.84C20.16 75.46 20.16 77.08 20.28 78.7L19.57 78.78C19.4 77.17 19.37 75.55 19.48 73.93C19.56 70.01 20.75 66.2 22.92 62.95C23.32 62.43 23.76 61.94 24.24 61.5L25.58 61.33Z" fill="#00308E" fill-opacity="1.000000" fill-rule="nonzero"/>
	<path id="Vector" d="M44.19 73.59C41.73 73.81 39.29 74.3 36.93 75.05C33.52 76.12 30.19 77.45 26.97 79.02C24.94 80 23.63 80.73 23.59 80.75L23.24 80.11C23.4 80.03 24.62 79.34 26.49 78.43C29.77 76.81 33.17 75.44 36.66 74.35C39.02 73.61 41.46 73.12 43.92 72.89L44.19 73.59Z" fill="#00308E" fill-opacity="1.000000" fill-rule="nonzero"/>
	<path id="Vector" d="M35.31 95.62L34.55 96C33.72 95.46 32.91 94.89 32.13 94.29C29.23 92.11 26.49 89.74 23.91 87.19C22.01 85.29 20.82 83.96 20.79 83.94L21.34 83.45C21.34 83.45 22.57 84.84 24.5 86.74C27 89.22 29.66 91.53 32.46 93.65C33.39 94.35 34.33 95.01 35.31 95.62Z" fill="#00308E" fill-opacity="1.000000" fill-rule="nonzero"/>
	<path id="Vector" d="M18.93 82.7C17.77 84.06 16.79 85.57 16.02 87.19C15.24 88.76 14.61 90.41 14.15 92.11C13.96 91.9 13.76 91.7 13.57 91.48C14.04 89.83 14.68 88.23 15.46 86.71C16.26 85.08 17.26 83.56 18.45 82.18L18.93 82.7Z" fill="#00308E" fill-opacity="1.000000" fill-rule="nonzero"/>
	<path id="Vector" d="M16.4 80.07L16.14 80.74C15.98 80.67 14.69 80.16 13.02 79.28C11.87 78.71 10.52 78.01 9.14 77.17C9.14 76.9 9.14 76.64 9.24 76.38C10.69 77.22 12 77.97 13.18 78.54C15.04 79.5 16.36 80.05 16.4 80.07Z" fill="#00308E" fill-opacity="1.000000" fill-rule="nonzero"/>
	<g opacity="0.200000">
		<path id="Vector" d="M39.55 76.04C39.55 79.72 38.29 83.29 35.96 86.13C33.63 88.97 30.39 90.91 26.79 91.61C23.2 92.31 19.47 91.73 16.26 89.97C13.04 88.21 10.53 85.38 9.17 81.97C9.05 81.13 8.99 80.29 9 79.44C8.99 78.69 9.04 77.93 9.14 77.18C9.14 76.92 9.14 76.65 9.24 76.39C9.81 73.03 11.31 69.89 13.57 67.35C15.83 64.8 18.76 62.94 22.02 61.99C22.76 61.77 23.52 61.6 24.29 61.47L25.58 61.32C26 61.32 26.44 61.32 26.87 61.32L27.07 61.32C28.05 61.32 29.02 61.41 29.98 61.57C32.8 62.78 35.21 64.8 36.91 67.37C38.61 69.94 39.53 72.96 39.55 76.04Z" fill="#FFFFFF" fill-opacity="1.000000" fill-rule="nonzero"/>
	</g>
	<path id="Vector" d="M41.09 16.36L45.29 16.36L45.29 21.22L41.09 21.22L41.09 16.36Z" fill="#72ADFF" fill-opacity="1.000000" fill-rule="evenodd"/>
	<path id="Vector" d="M39.77 19.64L46.62 19.64L46.62 25.19L39.77 25.19L39.77 19.64Z" fill="#407BFF" fill-opacity="1.000000" fill-rule="evenodd"/>
	<path id="Vector" d="M51.34 32.05L51.34 57.45L35.04 57.45L35.04 32.05C35.04 27.02 38.19 23.14 43.19 23.14C48.2 23.14 51.34 27.03 51.34 32.05Z" fill="#00308E" fill-opacity="1.000000" fill-rule="nonzero"/>
	<path id="Vector" d="M42.31 25.05C42.31 25.18 42.27 25.3 42.2 25.41C42.13 25.51 42.03 25.6 41.92 25.64C41.8 25.69 41.67 25.7 41.55 25.68C41.43 25.65 41.31 25.59 41.22 25.5C41.13 25.41 41.07 25.3 41.05 25.17C41.03 25.05 41.04 24.92 41.09 24.81C41.14 24.69 41.22 24.59 41.33 24.52C41.43 24.45 41.55 24.41 41.68 24.42C41.85 24.42 42.01 24.48 42.13 24.6C42.24 24.72 42.31 24.89 42.31 25.05ZM49.76 30.16C49.63 30.16 49.51 30.2 49.4 30.27C49.3 30.34 49.22 30.44 49.17 30.55C49.12 30.67 49.11 30.8 49.13 30.92C49.16 31.05 49.22 31.16 49.31 31.25C49.4 31.34 49.51 31.4 49.63 31.42C49.75 31.45 49.88 31.44 50 31.39C50.12 31.34 50.21 31.26 50.28 31.15C50.35 31.05 50.39 30.92 50.39 30.8C50.39 30.63 50.33 30.47 50.21 30.35C50.1 30.23 49.94 30.16 49.77 30.16L49.76 30.16ZM42.54 30.8C42.41 30.8 42.29 30.83 42.19 30.9C42.08 30.98 42 31.08 41.95 31.19C41.9 31.31 41.89 31.44 41.92 31.56C41.94 31.69 42 31.8 42.09 31.89C42.18 31.98 42.3 32.04 42.42 32.06C42.54 32.09 42.67 32.07 42.79 32.02C42.9 31.97 43 31.89 43.07 31.79C43.14 31.68 43.18 31.56 43.18 31.43C43.18 31.26 43.11 31.1 42.99 30.99C42.88 30.87 42.72 30.8 42.56 30.8L42.54 30.8ZM43.18 36.89C43.05 36.89 42.93 36.93 42.82 37C42.72 37.07 42.64 37.17 42.59 37.28C42.54 37.4 42.53 37.53 42.55 37.65C42.58 37.78 42.64 37.89 42.73 37.98C42.81 38.07 42.93 38.13 43.05 38.16C43.17 38.18 43.3 38.17 43.42 38.12C43.53 38.07 43.63 37.99 43.7 37.88C43.77 37.78 43.81 37.66 43.81 37.53C43.81 37.36 43.75 37.2 43.63 37.08C43.52 36.96 43.36 36.9 43.19 36.89L43.18 36.89ZM36.61 43.27C36.49 43.27 36.36 43.3 36.26 43.37C36.15 43.44 36.07 43.54 36.02 43.66C35.98 43.78 35.96 43.91 35.99 44.03C36.01 44.16 36.08 44.27 36.16 44.36C36.25 44.45 36.37 44.51 36.49 44.53C36.62 44.56 36.74 44.54 36.86 44.49C36.98 44.44 37.07 44.36 37.14 44.26C37.21 44.15 37.25 44.03 37.25 43.9C37.25 43.73 37.18 43.58 37.07 43.46C36.95 43.34 36.79 43.27 36.63 43.27L36.61 43.27ZM35.98 37.59C35.85 37.59 35.73 37.63 35.62 37.7C35.52 37.77 35.44 37.87 35.39 37.99C35.34 38.1 35.33 38.23 35.35 38.36C35.38 38.48 35.44 38.59 35.53 38.68C35.62 38.77 35.73 38.83 35.85 38.86C35.98 38.88 36.1 38.87 36.22 38.82C36.34 38.77 36.43 38.69 36.5 38.59C36.57 38.48 36.61 38.36 36.61 38.23C36.61 38.06 36.55 37.9 36.43 37.79C36.32 37.67 36.16 37.6 35.99 37.59L35.98 37.59ZM36.14 31.58C36.01 31.58 35.89 31.62 35.78 31.69C35.68 31.76 35.6 31.86 35.55 31.98C35.5 32.1 35.49 32.22 35.51 32.35C35.54 32.47 35.6 32.59 35.69 32.68C35.78 32.76 35.89 32.83 36.01 32.85C36.14 32.87 36.26 32.86 36.38 32.81C36.5 32.77 36.6 32.68 36.66 32.58C36.74 32.47 36.77 32.35 36.77 32.22C36.77 32.06 36.71 31.9 36.59 31.78C36.48 31.66 36.32 31.59 36.15 31.58L36.14 31.58ZM38.89 27.91C38.77 27.91 38.64 27.95 38.54 28.02C38.43 28.09 38.35 28.19 38.3 28.3C38.26 28.42 38.24 28.55 38.27 28.67C38.29 28.8 38.35 28.91 38.44 29C38.53 29.09 38.64 29.15 38.77 29.17C38.89 29.2 39.02 29.19 39.13 29.14C39.25 29.09 39.35 29.01 39.42 28.9C39.49 28.8 39.53 28.67 39.53 28.55C39.53 28.38 39.46 28.22 39.35 28.1C39.23 27.98 39.07 27.91 38.91 27.91L38.89 27.91ZM39.53 34.24C39.4 34.24 39.28 34.28 39.17 34.35C39.07 34.42 38.99 34.52 38.94 34.63C38.89 34.75 38.88 34.88 38.9 35C38.93 35.12 38.99 35.24 39.08 35.33C39.17 35.42 39.28 35.48 39.4 35.5C39.53 35.53 39.65 35.51 39.77 35.47C39.89 35.42 39.99 35.34 40.06 35.23C40.13 35.13 40.16 35 40.16 34.88C40.16 34.71 40.1 34.55 39.98 34.43C39.87 34.31 39.71 34.24 39.54 34.23L39.53 34.24ZM45.74 27.33C45.62 27.33 45.49 27.37 45.39 27.44C45.28 27.51 45.2 27.61 45.15 27.73C45.11 27.84 45.09 27.97 45.12 28.1C45.14 28.22 45.2 28.33 45.29 28.42C45.38 28.51 45.49 28.57 45.62 28.6C45.74 28.62 45.87 28.61 45.98 28.56C46.1 28.51 46.2 28.43 46.27 28.33C46.34 28.22 46.38 28.1 46.38 27.97C46.37 27.81 46.31 27.65 46.19 27.54C46.08 27.42 45.92 27.35 45.76 27.35L45.74 27.33ZM46.51 33.53C46.38 33.53 46.26 33.57 46.15 33.64C46.05 33.71 45.97 33.81 45.92 33.93C45.87 34.04 45.86 34.17 45.89 34.3C45.91 34.42 45.97 34.53 46.06 34.62C46.15 34.71 46.26 34.77 46.39 34.8C46.51 34.82 46.64 34.81 46.76 34.76C46.87 34.71 46.97 34.63 47.04 34.52C47.11 34.41 47.15 34.29 47.14 34.16C47.14 34 47.07 33.85 46.96 33.73C46.84 33.62 46.69 33.55 46.53 33.55L46.51 33.53ZM39.86 40.15C39.74 40.15 39.62 40.19 39.51 40.26C39.41 40.33 39.33 40.43 39.28 40.55C39.23 40.66 39.22 40.79 39.24 40.92C39.27 41.04 39.33 41.15 39.42 41.24C39.5 41.33 39.62 41.39 39.74 41.42C39.86 41.44 39.99 41.43 40.11 41.38C40.22 41.33 40.32 41.25 40.39 41.15C40.46 41.04 40.5 40.92 40.5 40.79C40.5 40.63 40.43 40.47 40.31 40.36C40.2 40.24 40.04 40.17 39.88 40.17L39.86 40.15ZM46.74 45.19C46.61 45.19 46.49 45.23 46.38 45.3C46.28 45.37 46.2 45.47 46.15 45.59C46.1 45.71 46.09 45.84 46.11 45.96C46.14 46.08 46.2 46.2 46.29 46.29C46.38 46.38 46.49 46.44 46.62 46.46C46.74 46.48 46.87 46.47 46.98 46.42C47.1 46.37 47.2 46.29 47.27 46.18C47.34 46.08 47.37 45.95 47.37 45.83C47.37 45.66 47.3 45.5 47.17 45.39C47.05 45.27 46.89 45.21 46.73 45.21L46.74 45.19ZM46.64 49.99C46.51 49.99 46.39 50.03 46.29 50.1C46.18 50.17 46.1 50.27 46.05 50.39C46 50.51 45.99 50.63 46.02 50.76C46.04 50.88 46.1 51 46.19 51.09C46.28 51.17 46.4 51.24 46.52 51.26C46.64 51.28 46.77 51.27 46.89 51.22C47 51.17 47.1 51.09 47.17 50.98C47.24 50.88 47.28 50.75 47.28 50.63C47.27 50.46 47.2 50.3 47.08 50.19C46.96 50.07 46.8 50.01 46.63 50.01L46.64 49.99ZM40.28 45.3C40.15 45.3 40.03 45.34 39.92 45.41C39.82 45.48 39.74 45.58 39.69 45.7C39.64 45.81 39.63 45.94 39.65 46.07C39.68 46.19 39.74 46.3 39.83 46.39C39.92 46.48 40.03 46.54 40.15 46.57C40.28 46.59 40.4 46.58 40.52 46.53C40.64 46.48 40.74 46.4 40.81 46.3C40.88 46.19 40.91 46.07 40.91 45.94C40.91 45.77 40.84 45.61 40.72 45.5C40.6 45.38 40.43 45.32 40.27 45.32L40.28 45.3ZM37.18 52.78C37.06 52.78 36.94 52.82 36.83 52.89C36.72 52.96 36.64 53.06 36.59 53.17C36.54 53.29 36.53 53.42 36.55 53.54C36.58 53.67 36.64 53.78 36.73 53.87C36.82 53.96 36.93 54.02 37.05 54.05C37.18 54.07 37.3 54.06 37.42 54.01C37.54 53.97 37.64 53.88 37.71 53.78C37.78 53.67 37.81 53.55 37.81 53.42C37.81 53.34 37.8 53.26 37.76 53.18C37.73 53.11 37.68 53.04 37.62 52.98C37.56 52.92 37.49 52.88 37.42 52.85C37.34 52.81 37.26 52.8 37.17 52.8L37.18 52.78ZM43.56 42.43C43.44 42.43 43.32 42.46 43.21 42.53C43.1 42.6 43.02 42.7 42.97 42.82C42.92 42.93 42.91 43.06 42.93 43.19C42.96 43.31 43.02 43.42 43.11 43.51C43.2 43.6 43.31 43.67 43.43 43.69C43.56 43.72 43.68 43.7 43.8 43.66C43.92 43.61 44.02 43.53 44.09 43.42C44.16 43.32 44.19 43.19 44.19 43.06C44.19 42.9 44.12 42.74 44 42.63C43.88 42.51 43.72 42.45 43.55 42.45L43.56 42.43ZM43.64 47.61C43.51 47.61 43.39 47.64 43.29 47.71C43.18 47.78 43.1 47.88 43.05 48C43 48.12 42.99 48.24 43.02 48.37C43.04 48.49 43.1 48.61 43.19 48.7C43.28 48.78 43.39 48.85 43.52 48.87C43.64 48.89 43.77 48.88 43.88 48.83C44 48.79 44.1 48.7 44.17 48.6C44.24 48.49 44.27 48.37 44.27 48.24C44.27 48.08 44.2 47.92 44.08 47.8C43.96 47.69 43.79 47.63 43.63 47.63L43.64 47.61ZM43.64 52.78C43.51 52.78 43.39 52.82 43.29 52.89C43.18 52.96 43.1 53.06 43.05 53.18C43 53.3 42.99 53.42 43.02 53.55C43.04 53.67 43.1 53.79 43.19 53.87C43.28 53.96 43.39 54.02 43.52 54.05C43.64 54.07 43.77 54.06 43.88 54.01C44 53.96 44.1 53.88 44.17 53.78C44.24 53.67 44.27 53.55 44.27 53.42C44.27 53.34 44.26 53.26 44.22 53.18C44.19 53.1 44.14 53.03 44.08 52.98C44.02 52.92 43.95 52.87 43.87 52.84C43.79 52.81 43.71 52.8 43.63 52.8L43.64 52.78ZM46.87 55.17C46.74 55.17 46.62 55.21 46.52 55.28C46.41 55.35 46.33 55.45 46.28 55.57C46.23 55.68 46.22 55.81 46.25 55.94C46.27 56.06 46.33 56.17 46.42 56.26C46.51 56.35 46.62 56.41 46.75 56.44C46.87 56.46 47 56.45 47.11 56.4C47.23 56.35 47.33 56.27 47.4 56.17C47.47 56.06 47.5 55.94 47.5 55.81C47.5 55.64 47.43 55.48 47.31 55.37C47.19 55.25 47.03 55.19 46.86 55.19L46.87 55.17ZM37.13 47.92C37.01 47.92 36.88 47.96 36.78 48.03C36.67 48.1 36.59 48.2 36.55 48.32C36.5 48.43 36.49 48.56 36.51 48.69C36.54 48.81 36.6 48.92 36.69 49.01C36.78 49.1 36.89 49.16 37.01 49.19C37.14 49.21 37.26 49.2 37.38 49.15C37.5 49.1 37.6 49.02 37.66 48.91C37.73 48.81 37.77 48.68 37.77 48.55C37.77 48.47 37.75 48.38 37.71 48.31C37.68 48.23 37.63 48.16 37.56 48.1C37.5 48.04 37.42 48 37.34 47.97C37.26 47.94 37.18 47.93 37.09 47.94L37.13 47.92ZM40.31 50.22C40.18 50.22 40.06 50.26 39.95 50.33C39.85 50.4 39.77 50.5 39.72 50.62C39.67 50.74 39.66 50.86 39.68 50.99C39.71 51.11 39.77 51.23 39.86 51.32C39.95 51.4 40.06 51.47 40.19 51.49C40.31 51.51 40.44 51.5 40.55 51.45C40.67 51.4 40.77 51.32 40.84 51.21C40.91 51.11 40.94 50.98 40.94 50.86C40.94 50.77 40.92 50.69 40.88 50.61C40.85 50.53 40.8 50.46 40.74 50.4C40.67 50.34 40.6 50.3 40.52 50.27C40.44 50.24 40.35 50.23 40.27 50.23L40.31 50.22ZM49.92 52.79C49.8 52.79 49.67 52.83 49.57 52.9C49.46 52.97 49.38 53.07 49.33 53.18C49.29 53.3 49.27 53.43 49.3 53.55C49.32 53.68 49.38 53.79 49.47 53.88C49.56 53.97 49.67 54.03 49.8 54.06C49.92 54.08 50.05 54.07 50.16 54.02C50.28 53.97 50.38 53.89 50.45 53.78C50.52 53.68 50.56 53.55 50.56 53.43C50.56 53.34 50.54 53.26 50.5 53.18C50.47 53.1 50.42 53.03 50.35 52.97C50.29 52.91 50.22 52.87 50.13 52.84C50.05 52.81 49.97 52.8 49.88 52.8L49.92 52.79ZM40.45 55.23C40.32 55.23 40.2 55.27 40.1 55.34C39.99 55.41 39.91 55.51 39.86 55.62C39.81 55.74 39.8 55.87 39.83 55.99C39.85 56.12 39.91 56.23 40 56.32C40.09 56.41 40.2 56.47 40.33 56.49C40.45 56.52 40.58 56.51 40.69 56.46C40.81 56.41 40.91 56.33 40.98 56.22C41.05 56.12 41.08 55.99 41.08 55.87C41.08 55.78 41.06 55.7 41.03 55.62C40.99 55.54 40.94 55.47 40.88 55.41C40.82 55.35 40.74 55.31 40.66 55.28C40.58 55.25 40.49 55.24 40.41 55.24L40.45 55.23ZM50.02 42.62C49.89 42.62 49.77 42.65 49.67 42.72C49.56 42.79 49.48 42.89 49.43 43.01C49.38 43.13 49.37 43.26 49.4 43.38C49.42 43.5 49.48 43.62 49.57 43.71C49.66 43.8 49.77 43.86 49.9 43.88C50.02 43.91 50.15 43.89 50.26 43.84C50.38 43.8 50.48 43.71 50.55 43.61C50.62 43.5 50.65 43.38 50.65 43.25C50.65 43.17 50.63 43.08 50.6 43C50.56 42.93 50.51 42.85 50.45 42.8C50.39 42.74 50.31 42.69 50.23 42.66C50.15 42.63 50.06 42.62 49.98 42.63L50.02 42.62ZM50.02 47.62C49.89 47.62 49.77 47.66 49.67 47.73C49.56 47.8 49.48 47.9 49.43 48.02C49.38 48.13 49.37 48.26 49.4 48.39C49.42 48.51 49.48 48.62 49.57 48.71C49.66 48.8 49.77 48.86 49.9 48.89C50.02 48.91 50.15 48.9 50.26 48.85C50.38 48.8 50.48 48.72 50.55 48.62C50.62 48.51 50.65 48.39 50.65 48.26C50.65 48.17 50.63 48.09 50.6 48.01C50.56 47.93 50.51 47.86 50.45 47.8C50.39 47.74 50.31 47.7 50.23 47.67C50.15 47.64 50.06 47.63 49.98 47.63L50.02 47.62ZM46.9 39.97C46.77 39.97 46.65 40.01 46.54 40.08C46.44 40.15 46.36 40.25 46.31 40.36C46.26 40.48 46.25 40.61 46.27 40.73C46.3 40.86 46.36 40.97 46.45 41.06C46.54 41.15 46.65 41.21 46.77 41.23C46.9 41.26 47.02 41.25 47.14 41.2C47.26 41.15 47.36 41.07 47.43 40.96C47.5 40.86 47.53 40.73 47.53 40.61C47.53 40.52 47.51 40.44 47.48 40.36C47.44 40.28 47.39 40.21 47.33 40.15C47.27 40.09 47.19 40.05 47.11 40.02C47.03 39.99 46.94 39.98 46.86 39.98L46.9 39.97ZM50.33 36.79C50.21 36.79 50.09 36.82 49.98 36.89C49.88 36.96 49.79 37.06 49.75 37.18C49.7 37.3 49.69 37.43 49.71 37.55C49.74 37.67 49.8 37.79 49.88 37.88C49.97 37.97 50.09 38.03 50.21 38.05C50.33 38.08 50.46 38.06 50.58 38.02C50.69 37.97 50.79 37.89 50.86 37.78C50.93 37.68 50.97 37.55 50.97 37.43C50.97 37.34 50.95 37.25 50.92 37.17C50.88 37.09 50.83 37.02 50.77 36.96C50.7 36.91 50.63 36.86 50.55 36.83C50.47 36.8 50.38 36.79 50.29 36.8L50.33 36.79Z" fill="#FFFFFF" fill-opacity="1.000000" fill-rule="nonzero"/>
</svg>
