<svg width="90" height="80" viewBox="0 0 90 80" fill="none" xmlns="http://www.w3.org/2000/svg">
    <path d="M19.2502 39.3932H16.7498C16.6355 39.3933 16.5232 39.4234 16.4241 39.4803C16.325 39.5372 16.2425 39.6191 16.1848 39.7178L14.9346 41.8838C14.8775 41.9831 14.8474 42.0957 14.8474 42.2104C14.8474 42.325 14.8775 42.4376 14.9346 42.537L16.1848 44.7009C16.2419 44.8002 16.3242 44.8828 16.4235 44.9401C16.5227 44.9974 16.6352 45.0276 16.7498 45.0275H19.2502C19.3648 45.0276 19.4774 44.9974 19.5766 44.9401C19.6758 44.8828 19.7581 44.8002 19.8152 44.7009L21.0654 42.537C21.1226 42.4376 21.1526 42.325 21.1526 42.2104C21.1526 42.0957 21.1226 41.9831 21.0654 41.8838L19.8152 39.7178C19.7575 39.6191 19.6751 39.5372 19.5759 39.4803C19.4768 39.4234 19.3645 39.3933 19.2502 39.3932Z" fill="#407BFF"/>
    <path opacity="0.5" d="M19.2502 39.3932H16.7498C16.6355 39.3933 16.5232 39.4234 16.4241 39.4803C16.325 39.5372 16.2425 39.6191 16.1848 39.7178L14.9346 41.8838C14.8775 41.9831 14.8474 42.0957 14.8474 42.2104C14.8474 42.325 14.8775 42.4376 14.9346 42.537L16.1848 44.7009C16.2419 44.8002 16.3242 44.8828 16.4235 44.9401C16.5227 44.9974 16.6352 45.0276 16.7498 45.0275H19.2502C19.3648 45.0276 19.4774 44.9974 19.5766 44.9401C19.6758 44.8828 19.7581 44.8002 19.8152 44.7009L21.0654 42.537C21.1226 42.4376 21.1526 42.325 21.1526 42.2104C21.1526 42.0957 21.1226 41.9831 21.0654 41.8838L19.8152 39.7178C19.7575 39.6191 19.6751 39.5372 19.5759 39.4803C19.4768 39.4234 19.3645 39.3933 19.2502 39.3932Z" fill="white"/>
    <path d="M3.24406 32.216L3.10181 32.0737L4.30393 30.8715L4.44618 31.0138L3.24406 32.216ZM5.31371 30.1462L5.17146 30.004L7.68389 27.4914L7.82614 27.6316L5.31371 30.1462Z" fill="#407BFF"/>
    <path opacity="0.5" d="M3.24406 32.216L3.10181 32.0737L4.30393 30.8715L4.44618 31.0138L3.24406 32.216ZM5.31371 30.1462L5.17146 30.004L7.68389 27.4914L7.82614 27.6316L5.31371 30.1462Z" fill="white"/>
    <path d="M35 46.7449V37.6763L32.195 36.7967C32.0949 36.5282 31.9847 36.2638 31.8685 35.9953L33.2329 33.3905L26.8216 26.9788L24.217 28.3453C23.9545 28.2271 23.692 28.1169 23.4156 28.0147L22.536 25.2096H13.462L12.5844 28.0147C12.314 28.1169 12.0515 28.2271 11.783 28.3453L9.17843 26.9788L2.76712 33.3905L4.13353 35.9953C4.01532 36.2577 3.90513 36.5202 3.80495 36.7967L1 37.6763V46.7449L3.80495 47.6225C3.90713 47.891 4.01732 48.1554 4.13353 48.4239L2.76712 51.0287L9.17843 57.4404L11.783 56.0739C12.0435 56.1921 12.306 56.3023 12.5844 56.4045L13.462 59.2096H22.53L23.4095 56.4045C23.678 56.3023 23.9405 56.1921 24.211 56.0739L26.8156 57.4404L33.2269 51.0287L31.8605 48.4239C31.9767 48.1635 32.0889 47.899 32.189 47.6225L35 46.7449ZM24.7479 42.2086C24.7479 43.5433 24.3521 44.848 23.6107 45.9578C22.8692 47.0675 21.8153 47.9325 20.5823 48.4432C19.3493 48.954 17.9925 49.0876 16.6835 48.8272C15.3746 48.5668 14.1722 47.9241 13.2285 46.9804C12.2848 46.0366 11.6421 44.8342 11.3818 43.5251C11.1214 42.2161 11.255 40.8592 11.7657 39.6261C12.2765 38.393 13.1414 37.3391 14.2511 36.5976C15.3608 35.8561 16.6654 35.4603 18 35.4603C19.7895 35.4608 21.5055 36.172 22.7709 37.4374C24.0363 38.7028 24.7474 40.419 24.7479 42.2086Z" fill="#407BFF"/>
    <path opacity="0.5" d="M35 46.7449V37.6763L32.195 36.7967C32.0949 36.5282 31.9847 36.2638 31.8685 35.9953L33.2329 33.3905L26.8216 26.9788L24.217 28.3453C23.9545 28.2271 23.692 28.1169 23.4156 28.0147L22.536 25.2096H13.462L12.5844 28.0147C12.314 28.1169 12.0515 28.2271 11.783 28.3453L9.17843 26.9788L2.76712 33.3905L4.13353 35.9953C4.01532 36.2577 3.90513 36.5202 3.80495 36.7967L1 37.6763V46.7449L3.80495 47.6225C3.90713 47.891 4.01732 48.1554 4.13353 48.4239L2.76712 51.0287L9.17843 57.4404L11.783 56.0739C12.0435 56.1921 12.306 56.3023 12.5844 56.4045L13.462 59.2096H22.53L23.4095 56.4045C23.678 56.3023 23.9405 56.1921 24.211 56.0739L26.8156 57.4404L33.2269 51.0287L31.8605 48.4239C31.9767 48.1635 32.0889 47.899 32.189 47.6225L35 46.7449ZM24.7479 42.2086C24.7479 43.5433 24.3521 44.848 23.6107 45.9578C22.8692 47.0675 21.8153 47.9325 20.5823 48.4432C19.3493 48.954 17.9925 49.0876 16.6835 48.8272C15.3746 48.5668 14.1722 47.9241 13.2285 46.9804C12.2848 46.0366 11.6421 44.8342 11.3818 43.5251C11.1214 42.2161 11.255 40.8592 11.7657 39.6261C12.2765 38.393 13.1414 37.3391 14.2511 36.5976C15.3608 35.8561 16.6654 35.4603 18 35.4603C19.7895 35.4608 21.5055 36.172 22.7709 37.4374C24.0363 38.7028 24.7474 40.419 24.7479 42.2086Z" fill="white"/>
    <path d="M22.0934 58.6606H13.9089C13.8981 58.6606 13.8875 58.6571 13.8789 58.6506C13.8702 58.6441 13.8639 58.635 13.8608 58.6246L13.0594 56.096C13.0554 56.0832 13.0567 56.0694 13.0629 56.0576C13.0691 56.0457 13.0797 56.0368 13.0925 56.0328C13.1052 56.0289 13.1191 56.0301 13.1309 56.0363C13.1427 56.0425 13.1516 56.0532 13.1556 56.0659L13.935 58.5605H22.0453L22.8788 55.9277C22.8811 55.9204 22.8851 55.9138 22.8902 55.9083C22.8954 55.9028 22.9018 55.8984 22.9088 55.8956L23.1833 55.7934C23.4157 55.7052 23.6621 55.6031 23.9406 55.4788L24.2071 55.3586C24.2193 55.3533 24.2332 55.3531 24.2456 55.3579C24.258 55.3628 24.2679 55.3724 24.2732 55.3847C24.2785 55.3969 24.2788 55.4107 24.2739 55.4231C24.269 55.4355 24.2594 55.4455 24.2472 55.4508L23.9807 55.569C23.7022 55.6952 23.4518 55.7974 23.2194 55.8856L22.9669 55.9818L22.1415 58.6246C22.1382 58.6348 22.1318 58.6438 22.1231 58.6502C22.1145 58.6567 22.1041 58.6603 22.0934 58.6606ZM26.7015 56.7512C26.6882 56.7507 26.6755 56.7458 26.6654 56.7371C26.6606 56.7325 26.6567 56.7269 26.6541 56.7207C26.6515 56.7145 26.6501 56.7078 26.6501 56.7011C26.6501 56.6943 26.6515 56.6877 26.6541 56.6815C26.6567 56.6753 26.6606 56.6697 26.6654 56.665L32.4276 50.9045L31.1474 48.46C31.1438 48.4532 31.142 48.4457 31.142 48.438C31.142 48.4303 31.1438 48.4228 31.1474 48.416L31.2676 48.1495C31.3878 47.879 31.49 47.6305 31.5801 47.3941L31.6823 47.1196C31.6851 47.1126 31.6895 47.1062 31.695 47.101C31.7005 47.0958 31.7071 47.0919 31.7144 47.0895L34.349 46.266V38.1613L31.7444 37.3478C31.7372 37.3467 31.7303 37.3441 31.7243 37.3401C31.7182 37.3362 31.713 37.3309 31.7092 37.3247C31.7053 37.3186 31.7029 37.3116 31.702 37.3044C31.7011 37.2972 31.7018 37.2899 31.704 37.283C31.7062 37.2761 31.7099 37.2697 31.7148 37.2643C31.7197 37.259 31.7257 37.2548 31.7324 37.252C31.7391 37.2492 31.7464 37.2479 31.7536 37.2482C31.7609 37.2484 31.768 37.2503 31.7745 37.2536L34.4071 38.0751C34.417 38.0787 34.4255 38.0853 34.4316 38.0939C34.4377 38.1024 34.441 38.1127 34.4412 38.1232V46.3081C34.4413 46.3187 34.4381 46.3291 34.432 46.3377C34.4258 46.3463 34.4171 46.3528 34.4071 46.3562L31.7684 47.1777L31.6743 47.4302C31.5841 47.6686 31.4739 47.917 31.3577 48.1915L31.2495 48.436L32.5338 50.8905C32.5401 50.8988 32.5436 50.909 32.5436 50.9195C32.5436 50.93 32.5401 50.9402 32.5338 50.9486L26.7476 56.7371C26.7353 56.7473 26.7195 56.7523 26.7035 56.7512H26.7015ZM9.29679 56.7512C9.28352 56.7507 9.27079 56.7458 9.26073 56.7371L3.47452 50.9486C3.46875 50.94 3.46566 50.9299 3.46566 50.9195C3.46566 50.9092 3.46875 50.8991 3.47452 50.8905L4.7708 48.414C4.77719 48.4023 4.78781 48.3935 4.80048 48.3894C4.81315 48.3853 4.8269 48.3862 4.83892 48.3919C4.84472 48.3951 4.84985 48.3993 4.85399 48.4045C4.85814 48.4096 4.86124 48.4155 4.8631 48.4218C4.86496 48.4281 4.86555 48.4348 4.86484 48.4413C4.86413 48.4479 4.86213 48.4543 4.85896 48.46L3.5807 50.9045L9.34087 56.665C9.34572 56.6697 9.34957 56.6753 9.35221 56.6815C9.35484 56.6877 9.3562 56.6943 9.3562 56.7011C9.3562 56.7078 9.35484 56.7145 9.35221 56.7207C9.34957 56.7269 9.34572 56.7325 9.34087 56.7371C9.33518 56.7422 9.32851 56.7461 9.32128 56.7485C9.31404 56.7509 9.30639 56.7518 9.2988 56.7512H9.29679ZM12.7028 55.8515H12.6848C12.4844 55.7734 12.266 55.6812 12.0236 55.573C12.0165 55.5712 12.0099 55.5679 12.0042 55.5633C11.9985 55.5587 11.9939 55.5529 11.9907 55.5464C11.9875 55.5398 11.9858 55.5326 11.9856 55.5253C11.9855 55.518 11.987 55.5107 11.9899 55.5041C11.9929 55.4974 11.9973 55.4914 12.0028 55.4866C12.0083 55.4818 12.0148 55.4783 12.0219 55.4763C12.0289 55.4742 12.0363 55.4738 12.0435 55.4749C12.0507 55.4761 12.0576 55.4788 12.0637 55.4828C12.3041 55.589 12.5185 55.6832 12.7208 55.7573C12.7271 55.7598 12.7328 55.7634 12.7376 55.7681C12.7424 55.7727 12.7462 55.7783 12.7488 55.7845C12.7514 55.7906 12.7528 55.7973 12.7528 55.804C12.7528 55.8107 12.7515 55.8173 12.7489 55.8235C12.7447 55.8329 12.7375 55.8407 12.7285 55.8458C12.7195 55.8508 12.7091 55.8528 12.6988 55.8515H12.7028ZM18.0042 49.6121C16.0405 49.6084 14.1586 48.8257 12.7714 47.4358C11.3842 46.0459 10.6051 44.1624 10.6051 42.1986C10.6051 42.1853 10.6104 42.1726 10.6198 42.1632C10.6292 42.1538 10.6419 42.1485 10.6552 42.1485C10.6685 42.1485 10.6812 42.1538 10.6906 42.1632C10.7 42.1726 10.7053 42.1853 10.7053 42.1986C10.7053 43.6423 11.1333 45.0535 11.9354 46.2539C12.7374 47.4543 13.8773 48.3898 15.211 48.9423C16.5447 49.4948 18.0123 49.6393 19.4281 49.3577C20.8439 49.076 22.1445 48.3808 23.1652 47.36C24.186 46.3392 24.8812 45.0386 25.1628 43.6226C25.4444 42.2067 25.2999 40.7391 24.7474 39.4053C24.195 38.0715 23.2595 36.9315 22.0592 36.1295C20.8589 35.3274 19.4477 34.8993 18.0042 34.8993C17.9909 34.8993 17.9781 34.894 17.9687 34.8846C17.9593 34.8752 17.9541 34.8625 17.9541 34.8492C17.9541 34.8359 17.9593 34.8232 17.9687 34.8138C17.9781 34.8044 17.9909 34.7991 18.0042 34.7991C19.967 34.7991 21.8495 35.5789 23.2375 36.967C24.6255 38.355 25.4052 40.2376 25.4052 42.2006C25.4052 44.1636 24.6255 46.0462 23.2375 47.4343C21.8495 48.8223 19.967 49.6021 18.0042 49.6021V49.6121ZM4.38011 47.4622C4.36966 47.4618 4.35956 47.4584 4.35103 47.4523C4.34249 47.4463 4.33589 47.4379 4.33203 47.4282L4.23786 47.1777L1.59119 46.3502C1.58116 46.3468 1.57246 46.3403 1.56634 46.3317C1.56022 46.323 1.557 46.3127 1.55713 46.3021V38.1172C1.55729 38.1067 1.56063 38.0964 1.56671 38.0879C1.57279 38.0793 1.58132 38.0727 1.59119 38.0691L4.12166 37.2796C4.13442 37.2758 4.14818 37.2769 4.1601 37.2829C4.17203 37.2889 4.18122 37.2992 4.18577 37.3117C4.18905 37.3247 4.18739 37.3385 4.18109 37.3503C4.1748 37.3622 4.16433 37.3713 4.15171 37.3758L1.6513 38.1613V46.272L4.28595 47.0955C4.293 47.0978 4.29942 47.1017 4.30465 47.1069C4.30988 47.1121 4.31377 47.1186 4.316 47.1256L4.42019 47.4001C4.4248 47.4123 4.42445 47.4259 4.41921 47.4379C4.41397 47.4499 4.40426 47.4593 4.39214 47.4642L4.38011 47.4622ZM4.38011 37.0432H4.36208C4.34982 37.0379 4.34006 37.0281 4.33484 37.0158C4.32962 37.0035 4.32933 36.9896 4.33403 36.9771C4.4302 36.7206 4.53439 36.4762 4.64458 36.2277C4.65023 36.2158 4.66033 36.2066 4.67271 36.2021C4.68508 36.1976 4.69873 36.1982 4.7107 36.2037C4.71676 36.2063 4.72225 36.2101 4.72685 36.2148C4.73144 36.2196 4.73505 36.2252 4.73748 36.2313C4.7399 36.2375 4.74108 36.244 4.74095 36.2506C4.74083 36.2572 4.7394 36.2638 4.73674 36.2698C4.62455 36.5143 4.52437 36.7587 4.4282 37.0132C4.42469 37.0241 4.41768 37.0335 4.40827 37.04C4.39885 37.0465 4.38755 37.0498 4.37611 37.0492L4.38011 37.0432ZM31.2656 35.8991H31.2415C31.2357 35.896 31.2306 35.8917 31.2264 35.8866C31.2223 35.8815 31.2192 35.8756 31.2173 35.8692C31.2155 35.8629 31.2149 35.8563 31.2156 35.8497C31.2163 35.8431 31.2183 35.8368 31.2215 35.831L32.4236 33.5168L31.4619 32.551C31.4562 32.5467 31.4514 32.5412 31.448 32.5349C31.4445 32.5286 31.4425 32.5217 31.442 32.5145C31.4415 32.5073 31.4425 32.5002 31.445 32.4934C31.4475 32.4867 31.4515 32.4806 31.4565 32.4755C31.4616 32.4705 31.4677 32.4665 31.4744 32.464C31.4812 32.4615 31.4884 32.4605 31.4955 32.461C31.5027 32.4615 31.5096 32.4635 31.5159 32.467C31.5222 32.4704 31.5277 32.4752 31.532 32.4809L32.5338 33.4827C32.5401 33.4911 32.5436 33.5013 32.5436 33.5118C32.5436 33.5223 32.5401 33.5325 32.5338 33.5408L31.3056 35.8871C31.3004 35.8935 31.2936 35.8986 31.2859 35.9017C31.2782 35.9048 31.2698 35.906 31.2616 35.9051L31.2656 35.8991ZM3.51058 33.5529C3.4972 33.553 3.48429 33.548 3.47452 33.5388C3.46579 33.5292 3.46095 33.5167 3.46095 33.5038C3.46095 33.4908 3.46579 33.4783 3.47452 33.4687L9.25472 27.6842C9.26293 27.6775 9.27319 27.6738 9.28377 27.6738C9.29435 27.6738 9.30461 27.6775 9.31282 27.6842L11.7671 28.9685L12.0116 28.8603C12.248 28.7541 12.4644 28.6599 12.6727 28.5818C12.6789 28.5792 12.6856 28.5779 12.6922 28.5779C12.6989 28.5779 12.7056 28.5792 12.7117 28.5818C12.7179 28.5845 12.7235 28.5883 12.7281 28.5931C12.7328 28.5979 12.7364 28.6036 12.7389 28.6098C12.7434 28.6223 12.7427 28.6361 12.7371 28.6481C12.7315 28.6601 12.7213 28.6694 12.7088 28.674C12.5085 28.7561 12.2881 28.8463 12.0537 28.9505L11.7872 29.0707C11.7802 29.0737 11.7727 29.0752 11.7651 29.0752C11.7576 29.0752 11.7501 29.0737 11.7431 29.0707L9.2988 27.7903L3.54664 33.5529C3.53508 33.5575 3.52215 33.5575 3.51058 33.5529ZM30.6625 31.7255C30.6491 31.7256 30.6362 31.7206 30.6264 31.7115L26.6855 27.7803L24.2412 29.0607C24.2347 29.0642 24.2275 29.066 24.2201 29.066C24.2128 29.066 24.2055 29.0642 24.1991 29.0607L23.9326 28.9404C23.6581 28.8182 23.4097 28.716 23.1753 28.6259L22.9008 28.5237C22.8938 28.5209 22.8874 28.5165 22.8822 28.511C22.877 28.5054 22.8731 28.4988 22.8708 28.4916L22.0473 25.8588H13.945L13.2357 28.125C13.2339 28.1312 13.2309 28.1371 13.2267 28.1421C13.2226 28.1472 13.2174 28.1514 13.2116 28.1544C13.2058 28.1574 13.1994 28.1591 13.1929 28.1596C13.1864 28.1601 13.1798 28.1592 13.1736 28.157C13.1612 28.1529 13.151 28.1441 13.145 28.1325C13.139 28.1209 13.1378 28.1074 13.1416 28.0949L13.8629 25.7947C13.8662 25.7847 13.8727 25.776 13.8814 25.7699C13.89 25.7637 13.9003 25.7605 13.9109 25.7606H22.0954C22.1059 25.7608 22.1161 25.7641 22.1247 25.7702C22.1333 25.7763 22.1398 25.7848 22.1435 25.7947L22.9689 28.4395L23.2214 28.5357C23.4578 28.6239 23.7062 28.7361 23.9827 28.8523L24.2271 28.9605L26.6855 27.6761C26.6938 27.6698 26.704 27.6664 26.7145 27.6664C26.725 27.6664 26.7352 27.6698 26.7436 27.6761L30.6926 31.6434C30.6974 31.648 30.7013 31.6536 30.7039 31.6598C30.7065 31.666 30.7079 31.6727 30.7079 31.6794C30.7079 31.6862 30.7065 31.6928 30.7039 31.699C30.7013 31.7052 30.6974 31.7108 30.6926 31.7155C30.6843 31.7233 30.6738 31.7283 30.6625 31.7295V31.7255Z" fill="#CCE5F7"/>
    <path d="M49.7993 59.9505L51.4057 60.1156L52.0187 58.9008L50.0903 58.6108L49.7993 59.9505Z" fill="#1919D3"/>
    <path d="M55.0258 65.9612L55.5994 62.8522C55.666 62.4915 55.8703 62.1725 56.1675 61.965C56.4648 61.7575 56.8307 61.6785 57.185 61.7454L62 62.6639C61.7127 61.6842 61.2018 60.7876 60.5092 60.0474C59.8165 59.3073 58.9617 58.7445 58.0147 58.4052C57.0676 58.0659 56.0551 57.9596 55.06 58.0951C54.0648 58.2305 53.1153 58.6038 52.289 59.1845L30.4438 46.0165C30.5573 44.6243 30.226 43.232 29.4992 42.0471C28.7725 40.8623 27.6892 39.9484 26.411 39.4415C25.1327 38.9347 23.7278 38.8621 22.4057 39.2346C21.0836 39.6071 19.9151 40.4047 19.0744 41.5086L23.8894 42.4271C24.2431 42.4964 24.5555 42.7053 24.7587 43.0081C24.9619 43.3109 25.0393 43.6833 24.9742 44.044L24.4006 47.1551C24.3335 47.5155 24.1291 47.8342 23.832 48.0416C23.5349 48.249 23.1693 48.3282 22.815 48.2619L18 47.3413C18.2885 48.327 18.8032 49.2286 19.5017 49.9715C20.2001 50.7145 21.0621 51.2775 22.0165 51.6139C22.9709 51.9504 23.9902 52.0507 24.9901 51.9065C25.9901 51.7623 26.942 51.3777 27.7672 50.7847L49.5687 63.9273C49.4429 65.3225 49.7646 66.7216 50.4853 67.9149C51.2061 69.1083 52.2873 70.0316 53.5667 70.5465C54.8461 71.0614 56.255 71.1401 57.582 70.771C58.9091 70.4018 60.083 69.6045 60.9277 68.4987L56.1127 67.5781C55.7586 67.5092 55.4457 67.3006 55.2421 66.9977C55.0385 66.6948 54.9607 66.3222 55.0258 65.9612Z" fill="#407BFF"/>
    <path d="M49.5849 59.1045L31.873 48.4284C31.5511 48.2343 31.1356 48.3428 30.945 48.6707L30.2231 49.9128C30.0325 50.2407 30.1391 50.6639 30.461 50.858L48.1729 61.5341C48.4949 61.7281 48.9104 61.6196 49.101 61.2917L49.8228 60.0496C50.0134 59.7217 49.9069 59.2986 49.5849 59.1045Z" fill="#407BFF"/>
    <path opacity="0.2" d="M49.5849 59.1045L31.873 48.4284C31.5511 48.2343 31.1356 48.3428 30.945 48.6707L30.2231 49.9128C30.0325 50.2407 30.1391 50.6639 30.461 50.858L48.1729 61.5341C48.4949 61.7281 48.9104 61.6196 49.101 61.2917L49.8228 60.0496C50.0134 59.7217 49.9069 59.2986 49.5849 59.1045Z" fill="white"/>
    <path d="M50.563 20.2324C49.1895 22.3237 48.2662 24.6211 47.7738 26.9905L44 27.3456V34.6541L47.7742 35.0099C48.2655 37.3785 49.1895 39.6759 50.563 41.7679L48.1524 44.6794L53.3205 49.8474L56.232 47.4372C58.3237 48.8103 60.6208 49.7342 62.9902 50.2259L63.3457 54H70.6543L71.0098 50.2259C73.3791 49.7336 75.6763 48.8099 77.768 47.4368L80.6795 49.847L85.8476 44.679L83.4373 41.7676C84.8105 39.6759 85.7341 37.3789 86.2258 35.0095L89.9993 34.6541L90 27.3456L86.2262 26.9898C85.7341 24.6208 84.8101 22.3237 83.437 20.2321L85.8476 17.3206L80.6795 12.1527L77.768 14.5629C75.6763 13.1894 73.3788 12.2654 71.0098 11.7738L70.654 8H63.3454L62.9899 11.7741C60.6205 12.2661 58.3234 13.1894 56.232 14.5629L53.3205 12.1523L48.1524 17.3203L50.563 20.2317V20.2324ZM73.8082 24.5249C77.5678 28.2844 77.5682 34.3807 73.8082 38.1406C70.0479 41.9008 63.9515 41.9002 60.1918 38.1406C56.4318 34.3807 56.4318 28.2848 60.1918 24.5245C63.9518 20.7646 70.0475 20.7646 73.8078 24.5245L73.8082 24.5249Z" fill="#00308E"/>
</svg>
