<svg width="90" height="80" viewBox="0 0 90 80" fill="none" xmlns="http://www.w3.org/2000/svg">
    <path d="M80.5474 60.1913L76.0604 54.5226L16.0965 51.3341L6.34298 54.5226L2.41797 63.1491C2.77204 63.7806 3.3265 64.2826 3.99789 64.5796L5.23302 65.1171C5.70368 65.3268 6.21312 65.4406 6.73028 65.4517L79.3595 67.1382L80.5474 60.1913Z" fill="#00308E"/>
    <path opacity="0.2" d="M80.5474 60.1913L76.0604 54.5226L16.0965 51.3341L6.34298 54.5226L2.41797 63.1491C2.77204 63.7806 3.3265 64.2826 3.99789 64.5796L5.23302 65.1171C5.70368 65.3268 6.21312 65.4406 6.73028 65.4517L79.3595 67.1382L80.5474 60.1913Z" fill="white"/>
    <path d="M83.7851 56.2347L82.7342 53.1939C82.5631 52.6988 82.288 52.2442 81.9264 51.8591C81.5649 51.4741 81.1249 51.1672 80.6347 50.9582C77.5646 49.6547 70.4325 47.0568 62.7927 47.336C62.7927 47.336 52.8432 38.5341 42.4615 37.2929C33.4613 36.2177 16.3396 38.4049 11.9375 39.0048C11.8783 39.0123 11.8235 39.0391 11.7819 39.0809C11.7403 39.1227 11.7144 39.177 11.7083 39.235C11.7023 39.293 11.7166 39.3513 11.7487 39.4004C11.7809 39.4495 11.8291 39.4865 11.8856 39.5054L13.0192 39.9023C13.1077 39.934 13.185 39.9902 13.2416 40.0639C13.2983 40.1376 13.3319 40.2258 13.3384 40.3177C13.3449 40.4097 13.324 40.5015 13.2782 40.5821C13.2325 40.6628 13.1638 40.7287 13.0806 40.7721L3.81592 45.5318C3.26858 45.813 2.81032 46.2351 2.49066 46.7523C2.171 47.2695 2.0021 47.8623 2.0022 48.4665V61.5573C2.00242 62.1955 2.19102 62.82 2.54538 63.3561C2.89975 63.8921 3.40485 64.317 4.00013 64.5797L5.23289 65.1173C5.28013 65.1404 5.32972 65.1588 5.37695 65.1773C5.37695 65.0088 5.36278 64.8404 5.36278 64.6697C5.35741 63.466 5.60583 62.274 6.09256 61.1682C6.5793 60.0623 7.29391 59.0663 8.1919 58.242C9.08988 57.4178 10.152 56.783 11.312 56.3773C12.4721 55.9715 13.7052 55.8035 14.9347 55.8837C16.1641 55.9639 17.3634 56.2906 18.458 56.8434C19.5525 57.3961 20.5188 58.1632 21.2967 59.0968C22.0746 60.0303 22.6473 61.1104 22.9792 62.2696C23.3112 63.4289 23.3952 64.6425 23.2261 65.8348L59.2715 66.6723C58.9579 65.3684 58.9543 64.0116 59.2609 62.7061C59.5676 61.4006 60.1764 60.1811 61.0405 59.1412C61.9046 58.1014 63.0012 57.2687 64.2459 56.7073C65.4907 56.1458 66.8506 55.8704 68.2213 55.9023C69.5919 55.9342 70.9369 56.2724 72.1529 56.8911C73.3689 57.5098 74.4237 58.3924 75.2362 59.4713C76.0487 60.5502 76.5974 61.7966 76.8401 63.1149C77.0829 64.4331 77.0132 65.7882 76.6365 67.0761L80.1789 67.1568C80.5244 67.1651 80.869 67.1184 81.1991 67.0184L81.7352 66.8592C82.3913 66.6614 82.9652 66.2634 83.3728 65.7236C83.7804 65.1839 84.0002 64.5307 84 63.8599V57.4321C83.9952 57.0242 83.9226 56.6198 83.7851 56.2347Z" fill="#407BFF"/>
    <path d="M59.2596 66.6722C59.1441 66.1838 59.0707 65.6868 59.04 65.1864L54.7324 63.0223C54.4021 62.8565 54.0403 62.7591 53.6696 62.7362L30.9981 61.2827C30.587 61.257 30.1752 61.3225 29.7937 61.4742L23.2756 64.079C23.2874 64.2751 23.2945 64.4712 23.2945 64.6696C23.2949 65.0592 23.2688 65.4485 23.2166 65.8347L59.2596 66.6722Z" fill="#00308E"/>
    <path d="M3.99793 64.5796L5.23306 65.1172C5.28029 65.1403 5.32988 65.1587 5.37712 65.1772C5.37712 65.0088 5.36295 64.8404 5.36295 64.6696C5.36269 63.8776 5.47152 63.0892 5.68649 62.3255L2 61.2227V61.5573C2.00022 62.1954 2.18882 62.8199 2.54319 63.356C2.89755 63.8921 3.40265 64.3169 3.99793 64.5796Z" fill="#00308E"/>
    <path d="M76.9011 65.7402C76.8454 66.192 76.753 66.6386 76.6248 67.0761L80.1672 67.1568C80.5127 67.1651 80.8573 67.1184 81.1874 67.0184L81.7235 66.8592C82.1815 66.7215 82.602 66.4849 82.9539 66.167L76.9011 65.7402Z" fill="#00308E"/>
    <path d="M14.323 55.0788C11.7199 55.0812 9.22404 56.0924 7.38311 57.8904C5.54219 59.6885 4.50654 62.1265 4.50342 64.6696C4.50342 64.7135 4.50342 64.7573 4.50342 64.8035L5.2119 65.1172C5.25914 65.1403 5.30873 65.1588 5.35596 65.1772C5.35596 65.0088 5.34179 64.8404 5.34179 64.6696C5.33642 63.4659 5.58484 62.274 6.07157 61.1681C6.55831 60.0623 7.27293 59.0662 8.17091 58.242C9.06889 57.4177 10.131 56.783 11.291 56.3772C12.4511 55.9715 13.6843 55.8035 14.9137 55.8837C16.1431 55.9639 17.3424 56.2905 18.437 56.8433C19.5315 57.3961 20.4979 58.1632 21.2757 59.0967C22.0536 60.0303 22.6263 61.1103 22.9582 62.2696C23.2902 63.4288 23.3742 64.6424 23.2051 65.8348L24.0553 65.8555C24.2277 64.5063 24.1045 63.1367 23.6938 61.8375C23.283 60.5384 22.5941 59.3394 21.6728 58.3203C20.7516 57.3011 19.6189 56.485 18.3501 55.9261C17.0813 55.3673 15.7054 55.0784 14.3136 55.0788H14.323Z" fill="#00308E"/>
    <path d="M67.9954 55.0788C66.5339 55.0784 65.0908 55.397 63.7714 56.0111C62.4521 56.6252 61.2898 57.5194 60.3693 58.6285C59.4489 59.7375 58.7936 61.0333 58.4513 62.4214C58.1089 63.8094 58.0882 65.2546 58.3907 66.6515L59.2597 66.6723C58.9461 65.3683 58.9425 64.0116 59.2492 62.7061C59.5558 61.4006 60.1646 60.1811 61.0287 59.1412C61.8929 58.1013 62.9894 57.2687 64.2342 56.7072C65.479 56.1458 66.8389 55.8704 68.2095 55.9023C69.5802 55.9341 70.9251 56.2724 72.1411 56.8911C73.3572 57.5097 74.4119 58.3924 75.2244 59.4713C76.037 60.5501 76.5856 61.7965 76.8284 63.1148C77.0711 64.4331 77.0014 65.7882 76.6247 67.076L77.4962 67.0945C77.8756 65.6758 77.9171 64.191 77.6173 62.7542C77.3176 61.3175 76.6846 59.967 75.7671 58.8066C74.8495 57.6462 73.6719 56.7067 72.3246 56.0605C70.9773 55.4142 69.4963 55.0784 67.9954 55.0788Z" fill="#00308E"/>
    <path d="M42.2139 39.2584C36.9144 38.624 28.4905 39.1869 21.8237 39.8445C21.6796 39.8582 21.5424 39.9112 21.4277 39.9975C21.313 40.0837 21.2254 40.1997 21.1749 40.3323C21.1245 40.4648 21.1131 40.6085 21.1422 40.7471C21.1713 40.8856 21.2397 41.0133 21.3396 41.1157L24.9103 44.8072C25.3782 45.2891 26.0023 45.5981 26.6768 45.6816L54.3952 49.0408C54.7348 49.0829 55.0795 49.0657 55.413 48.9901L59.1774 48.1456C59.2811 48.1227 59.3758 48.0713 59.4507 47.9977C59.5256 47.924 59.5774 47.8311 59.6002 47.7297C59.623 47.6283 59.6158 47.5227 59.5794 47.4251C59.543 47.3276 59.4789 47.2422 59.3947 47.1789C56.0766 44.6757 49.1594 40.089 42.2139 39.2584Z" fill="#00308E"/>
    <path opacity="0.3" d="M78.6957 64.2105H78.4312L80.3771 57.4505H81.3194L78.6957 64.2105Z" fill="#1919D3"/>
    <path opacity="0.3" d="M83.986 63.8621V57.432C83.986 57.3003 83.9789 57.1686 83.9648 57.0375L81.6716 64.9996H81.9857L82.5549 63.5368L83.9128 64.5012C83.9587 64.2911 83.9832 64.077 83.986 63.8621Z" fill="#1919D3"/>
    <g opacity="0.3">
        <path d="M41.0471 50.309L37.7408 50.1753C37.6263 50.1706 37.5158 50.1329 37.4233 50.0668C37.3308 50.0007 37.2605 49.9093 37.2213 49.8041C37.2023 49.7522 37.1966 49.6964 37.2049 49.6418C37.2131 49.5871 37.235 49.5353 37.2686 49.4909C37.3022 49.4465 37.3465 49.4108 37.3975 49.3871C37.4486 49.3633 37.5049 49.3521 37.5614 49.3546L40.8676 49.4906C40.9819 49.4951 41.0922 49.5329 41.1844 49.599C41.2765 49.6651 41.3463 49.7566 41.3848 49.8618C41.4039 49.9135 41.4096 49.9689 41.4015 50.0233C41.3934 50.0776 41.3717 50.1292 41.3383 50.1734C41.3049 50.2176 41.2609 50.2531 41.2101 50.2768C41.1593 50.3004 41.1033 50.3115 41.0471 50.309Z" fill="#1919D3"/>
    </g>
    <path d="M16.3045 40.885L13.2958 40.149C13.3233 40.2034 13.3396 40.2626 13.3436 40.3231C13.3477 40.3836 13.3395 40.4443 13.3196 40.5017C13.2996 40.5592 13.2683 40.6122 13.2273 40.6578C13.1864 40.7033 13.1366 40.7406 13.0809 40.7674L3.81629 45.5317C3.71002 45.587 3.60847 45.647 3.50928 45.7116H5.41747C5.59055 45.7113 5.76283 45.6888 5.92994 45.6447L15.5346 43.0422C15.661 43.0073 15.7753 42.9395 15.8653 42.8461L16.6493 42.0132C16.7296 41.9251 16.7854 41.8184 16.8116 41.7032C16.8377 41.5881 16.8333 41.4683 16.7988 41.3553C16.7642 41.2422 16.7007 41.1397 16.6142 41.0574C16.5277 40.9751 16.4211 40.9158 16.3045 40.885Z" fill="#00308E"/>
    <path opacity="0.7" d="M68.6 50.0099L69.9036 49.5715C70.1185 49.498 70.3506 49.4868 70.5719 49.5392L81.3196 52.0771L81.5558 53C81.6265 53.2678 81.5866 53.552 81.4448 53.7913L81.4094 53.8513C81.2939 54.0467 81.1215 54.2041 80.9142 54.3035C80.7069 54.403 80.474 54.4399 80.2451 54.4097L78.1197 54.1213C77.9118 54.0944 77.7148 54.0148 77.5481 53.8905L75.0921 52.0679L68.6118 50.4829C68.5615 50.4665 68.5177 50.4354 68.4862 50.3938C68.4547 50.3522 68.4372 50.3021 68.4359 50.2504C68.4346 50.1987 68.4496 50.1479 68.479 50.1048C68.5084 50.0618 68.5506 50.0286 68.6 50.0099Z" fill="white"/>
    <path d="M69.5376 49.9638C69.4934 49.9822 69.4561 50.0133 69.4304 50.053C69.4048 50.0927 69.3922 50.1391 69.3943 50.1859C69.3963 50.2328 69.4129 50.278 69.4419 50.3154C69.4709 50.3528 69.5109 50.3806 69.5565 50.3953L75.3118 51.8003L77.4915 53.4154C77.6405 53.5243 77.8151 53.5949 77.9993 53.6207L79.8886 53.8745C80.0917 53.9016 80.2984 53.8691 80.4826 53.7812C80.6668 53.6933 80.82 53.5539 80.923 53.3808L80.956 53.3254C81.0799 53.116 81.1147 52.8674 81.0529 52.6332L80.8852 51.9895L70.6924 49.5832L69.5376 49.9638Z" fill="#407BFF"/>
    <path opacity="0.3" d="M69.5376 49.9638C69.4934 49.9822 69.4561 50.0133 69.4304 50.053C69.4048 50.0927 69.3922 50.1391 69.3943 50.1859C69.3963 50.2328 69.4129 50.278 69.4419 50.3154C69.4709 50.3528 69.5109 50.3806 69.5565 50.3953L75.3118 51.8003L77.4915 53.4154C77.6405 53.5243 77.8151 53.5949 77.9993 53.6207L79.8886 53.8745C80.0917 53.9016 80.2984 53.8691 80.4826 53.7812C80.6668 53.6933 80.82 53.5539 80.923 53.3808L80.956 53.3254C81.0799 53.116 81.1147 52.8674 81.0529 52.6332L80.8852 51.9895L70.6924 49.5832L69.5376 49.9638Z" fill="white"/>
    <path d="M80.8783 51.9733L76.3794 50.9097L78.2805 52.7093C78.4092 52.8349 78.5739 52.9194 78.7528 52.9515L80.4957 53.2515C80.6793 53.2827 80.8682 53.2474 81.0271 53.1522C81.0882 52.9798 81.0956 52.7935 81.0483 52.617L80.8783 51.9733Z" fill="#407BFF"/>
    <path opacity="0.6" d="M80.8783 51.9733L76.3794 50.9097L78.2805 52.7093C78.4092 52.8349 78.5739 52.9194 78.7528 52.9515L80.4957 53.2515C80.6793 53.2827 80.8682 53.2474 81.0271 53.1522C81.0882 52.9798 81.0956 52.7935 81.0483 52.617L80.8783 51.9733Z" fill="white"/>
    <path d="M47.773 38.5317L47.0645 38.887C47.0465 38.8968 47.0319 38.9116 47.0223 38.9295C47.0128 38.9473 47.0088 38.9675 47.0108 38.9876C47.0128 39.0077 47.0207 39.0267 47.0336 39.0424C47.0465 39.0582 47.0638 39.0699 47.0834 39.0762C52.782 40.8711 58.0626 44.7218 61.0996 47.232C61.2583 47.3629 61.4474 47.4537 61.6505 47.4964C61.8535 47.539 62.0642 47.5322 62.2639 47.4766L62.7858 47.3312C62.7858 47.3312 55.9938 41.3164 47.773 38.5317Z" fill="#00308E"/>
    <path opacity="0.2" d="M20.5813 50.7205L31.7258 59.084L54.9051 62.1456L61.9333 52.7393L31.6408 50.7205H20.5813Z" fill="white"/>
    <path d="M19.6089 69.8337C22.5288 66.9812 22.5288 62.3562 19.6089 59.5036C16.689 56.6511 11.9549 56.6511 9.03501 59.5036C6.1151 62.3562 6.1151 66.9812 9.035 69.8337C11.9549 72.6863 16.689 72.6863 19.6089 69.8337Z" fill="#00308E"/>
    <g opacity="0.6">
        <path d="M16.1154 70.3014C16.0809 70.1939 16.0893 70.0776 16.1388 69.9758C16.1882 69.874 16.2752 69.7942 16.3822 69.7523C17.3603 69.378 18.2099 68.7408 18.8326 67.9144C19.4553 67.088 19.8258 66.1062 19.9011 65.0826C19.9094 64.9702 19.9611 64.8651 20.0457 64.7884C20.1303 64.7118 20.2415 64.6693 20.3568 64.6696C20.4203 64.6694 20.4832 64.6821 20.5414 64.7069C20.5996 64.7316 20.6519 64.7679 20.6949 64.8135C20.738 64.859 20.7709 64.9128 20.7916 64.9715C20.8123 65.0301 20.8202 65.0923 20.815 65.1541C20.7268 66.3441 20.296 67.4854 19.5722 68.4464C18.8485 69.4074 17.8613 70.1488 16.7247 70.5852C16.6656 70.6063 16.6029 70.6157 16.5401 70.6128C16.4773 70.61 16.4157 70.5949 16.359 70.5684C16.3022 70.542 16.2514 70.5048 16.2096 70.4589C16.1678 70.4131 16.1357 70.3595 16.1154 70.3014Z" fill="#1919D3"/>
    </g>
    <g opacity="0.6">
        <path d="M19.6839 63.1145C19.3555 62.0561 18.7082 61.1191 17.8265 60.4256C16.9447 59.7321 15.8695 59.3143 14.741 59.2269C14.6264 59.2176 14.5196 59.1663 14.4421 59.0833C14.3646 59.0002 14.322 58.8917 14.323 58.7793C14.3232 58.7179 14.3363 58.6572 14.3615 58.6009C14.3867 58.5447 14.4235 58.4941 14.4695 58.4523C14.5156 58.4106 14.57 58.3785 14.6293 58.3582C14.6886 58.3378 14.7515 58.3296 14.8142 58.334C16.1262 58.4361 17.3763 58.9219 18.4016 59.7281C19.4269 60.5343 20.1799 61.6235 20.5624 62.8537C20.5783 62.9128 20.5821 62.9744 20.5735 63.0349C20.5648 63.0955 20.544 63.1537 20.5121 63.2063C20.4803 63.2589 20.4381 63.3048 20.3879 63.3413C20.3377 63.3778 20.2807 63.4042 20.22 63.419C20.108 63.44 19.9921 63.4207 19.8936 63.3647C19.7951 63.3087 19.7206 63.2199 19.6839 63.1145Z" fill="#1919D3"/>
    </g>
    <g opacity="0.6">
        <path d="M11.3047 69.7777C11.2717 69.8298 11.2285 69.8749 11.1775 69.9104C11.1265 69.9459 11.0687 69.9712 11.0076 69.9847C10.9465 69.9982 10.8833 69.9998 10.8216 69.9892C10.7599 69.9786 10.7009 69.9561 10.6482 69.9231C9.73676 69.3144 8.99865 68.4894 8.50321 67.5255C8.00776 66.5616 7.77124 65.4905 7.81587 64.4128C7.8605 63.3351 8.1848 62.2862 8.75832 61.3645C9.33184 60.4429 10.1358 59.6788 11.0945 59.144C11.1494 59.1128 11.2104 59.0931 11.2734 59.0862C11.3365 59.0792 11.4004 59.0852 11.461 59.1036C11.5217 59.122 11.5777 59.1526 11.6256 59.1933C11.6735 59.234 11.7122 59.284 11.7393 59.3401C11.7884 59.4419 11.7964 59.558 11.7618 59.6653C11.7273 59.7726 11.6526 59.8633 11.5527 59.9192C10.7281 60.3785 10.0365 61.0351 9.54313 61.8273C9.04973 62.6195 8.77066 63.5212 8.73216 64.4478C8.69367 65.3744 8.89702 66.2953 9.32308 67.1239C9.74915 67.9526 10.3839 68.6618 11.1678 69.1848C11.2626 69.2482 11.3294 69.3443 11.3548 69.4539C11.3802 69.5634 11.3623 69.6782 11.3047 69.7754V69.7777Z" fill="#1919D3"/>
    </g>
    <g opacity="0.6">
        <path d="M13.8296 71.0134C13.5807 70.9949 13.3331 70.9626 13.088 70.9166C13.026 70.9048 12.9672 70.8807 12.9152 70.8457C12.8633 70.8107 12.8193 70.7656 12.786 70.7132C12.7528 70.6608 12.7309 70.6023 12.722 70.5413C12.713 70.4803 12.717 70.4181 12.7338 70.3587C12.7634 70.2493 12.8346 70.1551 12.9328 70.0952C13.0311 70.0352 13.1491 70.014 13.2628 70.036C13.475 70.0762 13.6895 70.1039 13.9051 70.119C14.0192 70.1307 14.125 70.1825 14.2028 70.2648C14.2806 70.3471 14.325 70.4542 14.3279 70.5662C14.3261 70.6277 14.3116 70.6883 14.2855 70.7444C14.2593 70.8004 14.2219 70.8508 14.1754 70.8925C14.129 70.9341 14.0744 70.9663 14.015 70.9871C13.9556 71.0079 13.8926 71.0168 13.8296 71.0134Z" fill="#1919D3"/>
    </g>
    <path opacity="0.4" d="M17.5633 67.8353C19.3534 66.0864 19.3534 63.251 17.5633 61.5021C15.7732 59.7533 12.8708 59.7533 11.0807 61.5021C9.29054 63.251 9.29054 66.0864 11.0807 67.8353C12.8708 69.5841 15.7732 69.5841 17.5633 67.8353Z" fill="white"/>
    <g opacity="0.3">
        <path d="M14.3232 60.6413H14.3209C14.1187 60.6413 13.9548 60.8014 13.9548 60.9989V63.2945C13.9548 63.492 14.1187 63.6521 14.3209 63.6521H14.3232C14.5254 63.6521 14.6893 63.492 14.6893 63.2945V60.9989C14.6893 60.8014 14.5254 60.6413 14.3232 60.6413Z" fill="white"/>
    </g>
    <path d="M14.5403 61.4581C14.5403 61.3396 14.442 61.2435 14.3207 61.2435C14.1994 61.2435 14.1011 61.3396 14.1011 61.4581V62.8355C14.1011 62.954 14.1994 63.05 14.3207 63.05C14.442 63.05 14.5403 62.954 14.5403 62.8355V61.4581Z" fill="#00308E"/>
    <g opacity="0.3">
        <path d="M14.3232 65.6871H14.3209C14.1187 65.6871 13.9548 65.8472 13.9548 66.0447V68.3404C13.9548 68.5379 14.1187 68.698 14.3209 68.698H14.3232C14.5254 68.698 14.6893 68.5379 14.6893 68.3404V66.0447C14.6893 65.8472 14.5254 65.6871 14.3232 65.6871Z" fill="white"/>
    </g>
    <path d="M14.5403 66.5038C14.5403 66.3853 14.442 66.2892 14.3207 66.2892C14.1994 66.2892 14.1011 66.3853 14.1011 66.5038V67.8812C14.1011 67.9997 14.1994 68.0957 14.3207 68.0957C14.442 68.0957 14.5403 67.9997 14.5403 67.8812V66.5038Z" fill="#00308E"/>
    <g opacity="0.3">
        <path d="M12.9177 64.2912L10.8843 63.1376C10.8005 63.0898 10.7393 63.0116 10.7141 62.9201C10.6888 62.8285 10.7017 62.7309 10.7497 62.6485C10.7986 62.5659 10.8791 62.5057 10.9734 62.481C11.0677 62.4563 11.1682 62.4693 11.2527 62.5169L13.2861 63.6705C13.3279 63.694 13.3645 63.7252 13.3939 63.7625C13.4232 63.7998 13.4448 63.8424 13.4573 63.8878C13.4698 63.9332 13.473 63.9806 13.4667 64.0273C13.4605 64.0739 13.4448 64.1189 13.4207 64.1596C13.3967 64.2008 13.3646 64.2368 13.3263 64.2657C13.2879 64.2946 13.2441 64.3158 13.1973 64.328C13.1505 64.3403 13.1017 64.3433 13.0537 64.337C13.0057 64.3306 12.9595 64.3151 12.9177 64.2912Z" fill="white"/>
    </g>
    <path d="M12.5847 63.9382L11.3661 63.2461C11.3177 63.2152 11.2826 63.1682 11.2674 63.1137C11.2522 63.0593 11.2579 63.0013 11.2834 62.9508C11.3154 62.9039 11.3637 62.8701 11.4194 62.8556C11.4751 62.8412 11.5342 62.8471 11.5857 62.8723L12.8043 63.5645C12.8295 63.5784 12.8516 63.597 12.8693 63.6193C12.8871 63.6415 12.9002 63.667 12.9079 63.6942C12.9156 63.7214 12.9177 63.7499 12.9141 63.7779C12.9105 63.8059 12.9013 63.8329 12.887 63.8575C12.8578 63.9073 12.8096 63.9437 12.7529 63.9589C12.6962 63.974 12.6358 63.9666 12.5847 63.9382Z" fill="#00308E"/>
    <g opacity="0.3">
        <path d="M17.3932 66.8061L15.3575 65.6525C15.2733 65.6043 15.2122 65.5256 15.1874 65.4335C15.1626 65.3413 15.1762 65.2434 15.2252 65.161C15.2494 65.1204 15.2815 65.0849 15.3198 65.0564C15.358 65.0279 15.4016 65.0071 15.4481 64.9951C15.4946 64.9831 15.5431 64.9802 15.5907 64.9865C15.6384 64.9928 15.6843 65.0082 15.7259 65.0318L17.7592 66.1854C17.801 66.2089 17.8376 66.2401 17.867 66.2774C17.8964 66.3147 17.9179 66.3573 17.9304 66.4027C17.9429 66.4481 17.9461 66.4955 17.9399 66.5422C17.9336 66.5888 17.9179 66.6338 17.8938 66.6745C17.8699 66.7154 17.8379 66.7511 17.7997 66.7798C17.7615 66.8085 17.718 66.8296 17.6714 66.8418C17.6249 66.854 17.5764 66.8572 17.5287 66.851C17.4809 66.8449 17.4349 66.8296 17.3932 66.8061Z" fill="white"/>
    </g>
    <path d="M17.0577 66.4621L15.8391 65.77C15.8139 65.7561 15.7918 65.7375 15.7741 65.7151C15.7564 65.6928 15.7434 65.6673 15.7359 65.64C15.7284 65.6127 15.7266 65.5842 15.7305 65.5562C15.7345 65.5282 15.7441 65.5013 15.7588 65.477C15.773 65.4524 15.7921 65.4308 15.8149 65.4135C15.8378 65.3961 15.864 65.3835 15.8919 65.3762C15.9198 65.3689 15.949 65.3671 15.9776 65.3709C16.0063 65.3748 16.0338 65.3841 16.0587 65.3985L17.2797 66.0907C17.3303 66.1196 17.3671 66.1669 17.3821 66.2222C17.3972 66.2775 17.3892 66.3364 17.36 66.386C17.3277 66.4324 17.2792 66.4658 17.2236 66.4798C17.1679 66.4938 17.1089 66.4875 17.0577 66.4621Z" fill="#00308E"/>
    <g opacity="0.3">
        <path d="M10.7497 66.6838C10.7017 66.6014 10.6888 66.5037 10.7141 66.4122C10.7393 66.3206 10.8005 66.2424 10.8843 66.1947L12.9177 65.0411C13.002 64.9932 13.1022 64.9799 13.1965 65.0041C13.2908 65.0284 13.3714 65.0881 13.4207 65.1703C13.4695 65.2529 13.4827 65.3511 13.4575 65.4432C13.4323 65.5353 13.3706 65.6139 13.2861 65.6617L11.2527 66.8153C11.1682 66.863 11.0677 66.8759 10.9734 66.8512C10.8791 66.8266 10.7986 66.7663 10.7497 66.6838Z" fill="white"/>
    </g>
    <path d="M11.2834 66.3838C11.2579 66.3332 11.2522 66.2752 11.2674 66.2208C11.2826 66.1664 11.3177 66.1193 11.3661 66.0885L12.5847 65.3963C12.6098 65.3819 12.6375 65.3725 12.6663 65.3686C12.6952 65.3647 12.7245 65.3665 12.7526 65.3738C12.7807 65.3811 12.8071 65.3938 12.8302 65.4111C12.8532 65.4285 12.8725 65.4501 12.887 65.4748C12.9013 65.4993 12.9105 65.5264 12.9141 65.5544C12.9177 65.5824 12.9156 65.6108 12.9079 65.6381C12.9002 65.6653 12.8871 65.6907 12.8693 65.713C12.8516 65.7353 12.8295 65.7539 12.8043 65.7678L11.5857 66.4599C11.5345 66.4854 11.4755 66.4916 11.4199 66.4776C11.3642 66.4636 11.3157 66.4303 11.2834 66.3838Z" fill="#00308E"/>
    <g opacity="0.3">
        <path d="M15.225 64.1597C15.2008 64.1191 15.1851 64.0743 15.1786 64.0277C15.1722 63.9812 15.1752 63.9338 15.1874 63.8884C15.1997 63.843 15.221 63.8004 15.2502 63.763C15.2793 63.7256 15.3157 63.6942 15.3573 63.6706L17.393 62.517C17.4347 62.4935 17.4807 62.4782 17.5285 62.4721C17.5762 62.4659 17.6248 62.4691 17.6713 62.4813C17.7178 62.4935 17.7614 62.5146 17.7995 62.5433C17.8377 62.572 17.8697 62.6077 17.8937 62.6485C17.9178 62.6893 17.9334 62.7343 17.9397 62.7809C17.946 62.8276 17.9428 62.875 17.9303 62.9204C17.9178 62.9658 17.8962 63.0084 17.8668 63.0457C17.8375 63.083 17.8008 63.1142 17.7591 63.1377L15.7257 64.2912C15.684 64.3148 15.638 64.3301 15.5902 64.3362C15.5425 64.3424 15.4939 64.3392 15.4474 64.327C15.4009 64.3148 15.3573 64.2937 15.3192 64.265C15.281 64.2363 15.249 64.2005 15.225 64.1597Z" fill="white"/>
    </g>
    <path d="M15.7588 63.8597C15.7441 63.8354 15.7345 63.8085 15.7305 63.7805C15.7266 63.7525 15.7284 63.724 15.7359 63.6967C15.7434 63.6694 15.7564 63.6439 15.7741 63.6215C15.7918 63.5992 15.8139 63.5806 15.8391 63.5667L17.0577 62.8745C17.1092 62.8494 17.1684 62.8434 17.224 62.8579C17.2797 62.8723 17.3281 62.9061 17.36 62.953C17.3892 63.0026 17.3972 63.0615 17.3821 63.1168C17.3671 63.1721 17.3303 63.2194 17.2797 63.2483L16.0587 63.9405C16.0336 63.9544 16.0059 63.9635 15.9773 63.967C15.9486 63.9705 15.9195 63.9684 15.8916 63.9609C15.8637 63.9534 15.8377 63.9406 15.8149 63.9232C15.7921 63.9059 15.773 63.8843 15.7588 63.8597Z" fill="#00308E"/>
    <path d="M14.9371 64.6696C14.9371 64.7888 14.9009 64.9053 14.8331 65.0044C14.7652 65.1035 14.6688 65.1806 14.5561 65.2262C14.4433 65.2717 14.3192 65.2835 14.1996 65.26C14.08 65.2366 13.9702 65.179 13.884 65.0946C13.7979 65.0101 13.7394 64.9026 13.7159 64.7857C13.6924 64.6687 13.7049 64.5476 13.7519 64.4376C13.799 64.3276 13.8783 64.2337 13.98 64.1678C14.0817 64.1019 14.2011 64.067 14.3231 64.0674C14.4039 64.0674 14.484 64.083 14.5586 64.1133C14.6333 64.1436 14.7011 64.188 14.7581 64.2439C14.8152 64.2999 14.8603 64.3663 14.891 64.4393C14.9218 64.5124 14.9374 64.5906 14.9371 64.6696Z" fill="#00308E"/>
    <path d="M73.2827 69.835C76.2027 66.9824 76.2027 62.3575 73.2827 59.5049C70.3628 56.6523 65.6287 56.6523 62.7088 59.5049C59.7889 62.3575 59.7889 66.9824 62.7088 69.835C65.6287 72.6876 70.3628 72.6876 73.2827 69.835Z" fill="#00308E"/>
    <g opacity="0.6">
        <path d="M69.7904 70.3014C69.756 70.1939 69.7643 70.0776 69.8138 69.9758C69.8633 69.874 69.9502 69.7942 70.0573 69.7523C71.0353 69.378 71.8849 68.7408 72.5076 67.9144C73.1304 67.088 73.5008 66.1062 73.5761 65.0826C73.5845 64.9702 73.6362 64.8651 73.7208 64.7884C73.8053 64.7118 73.9165 64.6693 74.0319 64.6696C74.0948 64.6714 74.1566 64.6854 74.2139 64.7108C74.2711 64.7363 74.3226 64.7726 74.3653 64.8177C74.4079 64.8629 74.441 64.9159 74.4624 64.9736C74.4838 65.0314 74.4932 65.0928 74.4901 65.1541C74.4016 66.344 73.9706 67.4852 73.2469 68.4462C72.5232 69.4071 71.5362 70.1486 70.3997 70.5852C70.3407 70.6063 70.2779 70.6157 70.2151 70.6128C70.1523 70.61 70.0908 70.5949 70.034 70.5684C69.9773 70.542 69.9265 70.5048 69.8847 70.4589C69.8428 70.4131 69.8108 70.3595 69.7904 70.3014Z" fill="#1919D3"/>
    </g>
    <g opacity="0.6">
        <path d="M73.3586 63.1144C73.03 62.0563 72.3826 61.1194 71.5009 60.4259C70.6192 59.7325 69.5441 59.3146 68.4157 59.2269C68.3009 59.2176 68.1938 59.1664 68.1159 59.0834C68.038 59.0004 67.995 58.8919 67.9954 58.7793C67.9955 58.7177 68.0087 58.6567 68.034 58.6003C68.0594 58.5439 68.0964 58.4932 68.1427 58.4514C68.189 58.4096 68.2437 58.3776 68.3033 58.3574C68.3629 58.3372 68.4261 58.3292 68.4889 58.334C69.8009 58.4361 71.051 58.9219 72.0763 59.7281C73.1016 60.5342 73.8546 61.6234 74.2371 62.8537C74.2531 62.9128 74.2568 62.9744 74.2482 63.0349C74.2396 63.0955 74.2187 63.1537 74.1869 63.2063C74.155 63.2589 74.1128 63.3048 74.0626 63.3413C74.0125 63.3778 73.9554 63.4042 73.8947 63.419C73.7825 63.4431 73.6652 63.4252 73.5659 63.3688C73.4666 63.3124 73.3926 63.2216 73.3586 63.1144Z" fill="#1919D3"/>
    </g>
    <g opacity="0.6">
        <path d="M64.982 69.7776C64.949 69.8297 64.9057 69.8748 64.8547 69.9103C64.8037 69.9458 64.746 69.9711 64.6849 69.9846C64.6238 69.9981 64.5605 69.9997 64.4988 69.9891C64.4371 69.9785 64.3782 69.956 64.3254 69.923C63.414 69.3143 62.6759 68.4893 62.1804 67.5254C61.685 66.5615 61.4485 65.4904 61.4931 64.4127C61.5377 63.335 61.862 62.2861 62.4356 61.3644C63.0091 60.4428 63.813 59.6787 64.7718 59.1439C64.8265 59.1128 64.8872 59.0931 64.9502 59.0862C65.0131 59.0792 65.0768 59.0852 65.1372 59.1036C65.1977 59.1221 65.2535 59.1526 65.3012 59.1933C65.3489 59.234 65.3873 59.284 65.4141 59.34C65.464 59.4414 65.4727 59.5575 65.4385 59.6649C65.4044 59.7724 65.3298 59.8632 65.2299 59.9191C64.4048 60.3779 63.7127 61.0344 63.2189 61.8266C62.7251 62.6189 62.4458 63.5208 62.4073 64.4476C62.3688 65.3744 62.5724 66.2955 62.9988 67.1243C63.4253 67.953 64.0606 68.6621 64.845 69.1847C64.9399 69.2481 65.0067 69.3442 65.0321 69.4538C65.0575 69.5633 65.0396 69.6782 64.982 69.7753V69.7776Z" fill="#1919D3"/>
    </g>
    <g opacity="0.6">
        <path d="M67.5041 71.0135C67.2552 70.9951 67.0076 70.9628 66.7626 70.9167C66.7006 70.9049 66.6418 70.8808 66.5898 70.8458C66.5378 70.8108 66.4938 70.7657 66.4606 70.7133C66.4273 70.6609 66.4055 70.6024 66.3965 70.5414C66.3875 70.4804 66.3915 70.4182 66.4083 70.3588C66.4379 70.2504 66.5084 70.1569 66.6056 70.097C66.7028 70.0372 66.8196 70.0154 66.9326 70.0361C67.1448 70.0763 67.3593 70.104 67.575 70.119C67.6898 70.1283 67.7969 70.1795 67.8748 70.2624C67.9527 70.3453 67.9957 70.4538 67.9953 70.5663C67.9935 70.6272 67.9793 70.6872 67.9536 70.7428C67.9278 70.7984 67.8911 70.8484 67.8454 70.89C67.7997 70.9316 67.746 70.9639 67.6874 70.9851C67.6288 71.0063 67.5665 71.016 67.5041 71.0135Z" fill="#1919D3"/>
    </g>
    <path opacity="0.4" d="M71.2371 67.8365C73.0272 66.0877 73.0272 63.2522 71.2371 61.5034C69.447 59.7545 66.5446 59.7545 64.7545 61.5034C62.9644 63.2522 62.9644 66.0877 64.7545 67.8365C66.5446 69.5854 69.447 69.5854 71.2371 67.8365Z" fill="white"/>
    <g opacity="0.3">
        <path d="M67.9978 60.6413H67.9954C67.7933 60.6413 67.6294 60.8014 67.6294 60.9989V63.2945C67.6294 63.492 67.7933 63.6521 67.9954 63.6521H67.9978C68.2 63.6521 68.3639 63.492 68.3639 63.2945V60.9989C68.3639 60.8014 68.2 60.6413 67.9978 60.6413Z" fill="white"/>
    </g>
    <path d="M68.2149 61.4581C68.2149 61.3396 68.1166 61.2435 67.9953 61.2435C67.874 61.2435 67.7756 61.3396 67.7756 61.4581V62.8355C67.7756 62.954 67.874 63.05 67.9953 63.05C68.1166 63.05 68.2149 62.954 68.2149 62.8355V61.4581Z" fill="#00308E"/>
    <g opacity="0.3">
        <path d="M67.9978 65.6871H67.9954C67.7933 65.6871 67.6294 65.8472 67.6294 66.0447V68.3404C67.6294 68.5379 67.7933 68.698 67.9954 68.698H67.9978C68.2 68.698 68.3639 68.5379 68.3639 68.3404V66.0447C68.3639 65.8472 68.2 65.6871 67.9978 65.6871Z" fill="white"/>
    </g>
    <path d="M68.2149 66.5038C68.2149 66.3853 68.1166 66.2892 67.9953 66.2892C67.874 66.2892 67.7756 66.3853 67.7756 66.5038V67.8812C67.7756 67.9997 67.874 68.0957 67.9953 68.0957C68.1166 68.0957 68.2149 67.9997 68.2149 67.8812V66.5038Z" fill="#00308E"/>
    <g opacity="0.3">
        <path d="M66.5926 64.2912L64.5593 63.1377C64.5175 63.1142 64.4809 63.083 64.4515 63.0457C64.4221 63.0084 64.4005 62.9658 64.388 62.9204C64.3755 62.875 64.3723 62.8276 64.3786 62.7809C64.3849 62.7343 64.4005 62.6893 64.4246 62.6485C64.4486 62.6077 64.4806 62.572 64.5188 62.5433C64.5569 62.5146 64.6005 62.4935 64.647 62.4813C64.6935 62.4691 64.7421 62.4659 64.7898 62.4721C64.8376 62.4782 64.8836 62.4935 64.9253 62.517L66.961 63.6706C67.0026 63.6942 67.039 63.7256 67.0681 63.763C67.0973 63.8004 67.1186 63.843 67.1309 63.8884C67.1432 63.9338 67.1462 63.9812 67.1397 64.0277C67.1333 64.0743 67.1175 64.1191 67.0933 64.1597C67.0695 64.2008 67.0376 64.2368 66.9995 64.2656C66.9614 64.2945 66.9177 64.3157 66.8711 64.3279C66.8245 64.3402 66.7759 64.3432 66.7281 64.3369C66.6803 64.3306 66.6342 64.3151 66.5926 64.2912Z" fill="white"/>
    </g>
    <path d="M66.2596 63.9382L65.0386 63.2461C64.9907 63.2149 64.9561 63.1677 64.9413 63.1133C64.9265 63.0589 64.9325 63.0011 64.9583 62.9508C64.9903 62.9039 65.0386 62.8701 65.0943 62.8556C65.15 62.8412 65.2091 62.8471 65.2606 62.8723L66.4792 63.5645C66.5044 63.5783 66.5265 63.597 66.5442 63.6193C66.5619 63.6416 66.5749 63.6672 66.5824 63.6945C66.5899 63.7218 66.5917 63.7503 66.5878 63.7782C66.5839 63.8062 66.5742 63.8332 66.5595 63.8575C66.5453 63.8821 66.5262 63.9036 66.5034 63.921C66.4806 63.9384 66.4546 63.9512 66.4267 63.9587C66.3988 63.9662 66.3697 63.9682 66.3411 63.9647C66.3124 63.9612 66.2847 63.9522 66.2596 63.9382Z" fill="#00308E"/>
    <g opacity="0.3">
        <path d="M71.0654 66.806L69.0321 65.6524C68.9476 65.6046 68.8859 65.526 68.8607 65.4339C68.8354 65.3418 68.8487 65.2436 68.8975 65.161C68.9467 65.0788 69.0274 65.0191 69.1217 64.9948C69.2159 64.9706 69.3162 64.9839 69.4005 65.0318L71.4338 66.1854C71.4756 66.2088 71.5122 66.24 71.5416 66.2773C71.571 66.3146 71.5926 66.3572 71.6051 66.4026C71.6176 66.4481 71.6208 66.4955 71.6145 66.5421C71.6082 66.5888 71.5926 66.6337 71.5685 66.6745C71.5196 66.757 71.4391 66.8173 71.3448 66.8419C71.2505 66.8666 71.15 66.8537 71.0654 66.806Z" fill="white"/>
    </g>
    <path d="M70.7324 66.4623L69.5138 65.7701C69.4887 65.7562 69.4666 65.7376 69.4488 65.7154C69.431 65.6931 69.4179 65.6676 69.4102 65.6404C69.4026 65.6132 69.4005 65.5847 69.404 65.5567C69.4076 65.5287 69.4169 65.5017 69.4312 65.4771C69.4456 65.4524 69.4649 65.4308 69.488 65.4135C69.511 65.3961 69.5374 65.3834 69.5655 65.3761C69.5936 65.3688 69.623 65.3671 69.6518 65.3709C69.6806 65.3748 69.7084 65.3842 69.7335 65.3987L70.9521 66.0908C71.0004 66.1217 71.0355 66.1687 71.0507 66.2232C71.066 66.2776 71.0603 66.3356 71.0347 66.3861C71.0024 66.4326 70.9539 66.466 70.8983 66.48C70.8426 66.494 70.7837 66.4877 70.7324 66.4623Z" fill="#00308E"/>
    <g opacity="0.3">
        <path d="M64.4246 66.6838C64.4005 66.6431 64.3849 66.5981 64.3786 66.5514C64.3723 66.5048 64.3755 66.4574 64.388 66.4119C64.4005 66.3665 64.4221 66.3239 64.4515 66.2866C64.4809 66.2494 64.5175 66.2181 64.5593 66.1947L66.5926 65.0411C66.6342 65.0175 66.6801 65.002 66.7277 64.9957C66.7754 64.9894 66.8238 64.9924 66.8703 65.0044C66.9168 65.0164 66.9605 65.0372 66.9987 65.0657C67.037 65.0941 67.0691 65.1297 67.0933 65.1703C67.1423 65.2526 67.1559 65.3506 67.1311 65.4427C67.1063 65.5348 67.0451 65.6136 66.961 65.6617L64.9253 66.8153C64.8836 66.8389 64.8376 66.8541 64.7898 66.8603C64.7421 66.8664 64.6935 66.8633 64.647 66.8511C64.6005 66.8388 64.5569 66.8178 64.5188 66.7891C64.4806 66.7604 64.4486 66.7246 64.4246 66.6838Z" fill="white"/>
    </g>
    <path d="M64.9583 66.3839C64.9325 66.3335 64.9265 66.2757 64.9413 66.2213C64.9561 66.167 64.9907 66.1197 65.0386 66.0885L66.2596 65.3964C66.2845 65.382 66.312 65.3726 66.3407 65.3688C66.3693 65.3649 66.3985 65.3667 66.4264 65.374C66.4544 65.3813 66.4805 65.394 66.5034 65.4113C66.5262 65.4286 66.5453 65.4502 66.5595 65.4748C66.5742 65.4991 66.5839 65.5261 66.5878 65.5541C66.5917 65.5821 66.5899 65.6105 66.5824 65.6378C66.5749 65.6651 66.5619 65.6907 66.5442 65.713C66.5265 65.7353 66.5044 65.754 66.4792 65.7678L65.2606 66.46C65.2094 66.4854 65.1504 66.4917 65.0948 66.4777C65.0391 66.4637 64.9906 66.4303 64.9583 66.3839Z" fill="#00308E"/>
    <g opacity="0.3">
        <path d="M68.8975 64.1596C68.8734 64.1189 68.8578 64.0739 68.8515 64.0273C68.8452 63.9806 68.8484 63.9332 68.8609 63.8878C68.8734 63.8424 68.895 63.7998 68.9244 63.7625C68.9538 63.7252 68.9904 63.694 69.0322 63.6705L71.0655 62.5169C71.1501 62.4693 71.2506 62.4563 71.3449 62.481C71.4392 62.5057 71.5196 62.5659 71.5685 62.6485C71.5926 62.6892 71.6083 62.7342 71.6146 62.7808C71.6208 62.8275 71.6176 62.8749 71.6051 62.9203C71.5926 62.9657 71.5711 63.0083 71.5417 63.0456C71.5123 63.0829 71.4757 63.1141 71.4339 63.1376L69.4006 64.2912C69.3588 64.3151 69.3125 64.3306 69.2645 64.337C69.2165 64.3433 69.1677 64.3403 69.1209 64.328C69.0742 64.3158 69.0303 64.2946 68.992 64.2657C68.9536 64.2368 68.9215 64.2008 68.8975 64.1596Z" fill="white"/>
    </g>
    <path d="M69.4312 63.8597C69.4169 63.8352 69.4076 63.8081 69.404 63.7801C69.4005 63.7521 69.4026 63.7237 69.4102 63.6964C69.4179 63.6692 69.431 63.6437 69.4488 63.6215C69.4666 63.5992 69.4887 63.5806 69.5138 63.5667L70.7324 62.8745C70.7839 62.8494 70.8431 62.8434 70.8988 62.8579C70.9544 62.8723 71.0028 62.9061 71.0347 62.953C71.0603 63.0036 71.066 63.0616 71.0507 63.116C71.0355 63.1704 71.0004 63.2175 70.9521 63.2483L69.7335 63.9405C69.6824 63.9688 69.6219 63.9762 69.5652 63.9611C69.5086 63.946 69.4604 63.9095 69.4312 63.8597Z" fill="#00308E"/>
    <path d="M68.6122 64.6696C68.6122 64.7887 68.576 64.9051 68.5083 65.0041C68.4406 65.1032 68.3443 65.1804 68.2317 65.2259C68.119 65.2715 67.9951 65.2834 67.8755 65.2602C67.756 65.237 67.6461 65.1796 67.5599 65.0954C67.4737 65.0112 67.415 64.9039 67.3912 64.7871C67.3675 64.6703 67.3797 64.5492 67.4263 64.4392C67.473 64.3291 67.552 64.2351 67.6533 64.1689C67.7547 64.1027 67.8739 64.0674 67.9958 64.0674C68.1593 64.0674 68.316 64.1309 68.4316 64.2438C68.5472 64.3567 68.6122 64.5099 68.6122 64.6696Z" fill="#00308E"/>
    <path opacity="0.3" d="M3.3038 50.702L8.75914 49.087C8.83863 49.0633 8.91032 49.0195 8.96696 48.9601L10.5988 47.2413C10.6573 47.1782 10.6967 47.1005 10.7127 47.0169C10.7288 46.9332 10.7209 46.8469 10.6898 46.7674C10.6588 46.6879 10.6058 46.6183 10.5369 46.5663C10.4679 46.5144 10.3855 46.4821 10.2989 46.473L4.60032 45.947C4.4931 45.9387 4.38621 45.9665 4.29732 46.0256C4.20843 46.0848 4.14287 46.1718 4.11147 46.2723L2.7252 50.1206C2.69994 50.1999 2.69705 50.2844 2.71682 50.3651C2.73659 50.4459 2.77829 50.5199 2.83753 50.5794C2.89677 50.6389 2.97135 50.6818 3.05341 50.7033C3.13547 50.7249 3.22197 50.7245 3.3038 50.702Z" fill="#1919D3"/>
    <path opacity="0.3" d="M4.11154 46.2724L2.72526 50.1208C2.69781 50.2073 2.69705 50.2999 2.72309 50.3869C2.74913 50.4738 2.80081 50.5514 2.87169 50.6099L4.60511 49.1956C4.71164 49.1064 4.79296 48.992 4.84128 48.8634L5.40098 47.4467C5.47707 47.2576 5.47781 47.0475 5.40304 46.8578C5.32828 46.6682 5.18345 46.5128 4.99714 46.4224L4.25559 46.0671C4.18975 46.1218 4.14003 46.1927 4.11154 46.2724Z" fill="#1919D3"/>
    <path d="M59.3944 47.1767C57.1211 45.4597 54.7073 43.928 52.1772 42.597L53.3864 48.9163L54.3948 49.0386C54.7345 49.0807 55.0791 49.0635 55.4127 48.9879L59.1771 48.1434C59.2807 48.1205 59.3755 48.0691 59.4504 47.9955C59.5252 47.9218 59.5771 47.8289 59.5999 47.7275C59.6227 47.6261 59.6154 47.5205 59.579 47.4229C59.5426 47.3254 59.4786 47.24 59.3944 47.1767Z" fill="#1919D3"/>
    <path d="M33.2253 39.0416L34.4369 46.616L37.5873 46.999L35.3579 38.9908C34.6573 39.0001 33.9464 39.017 33.2253 39.0416Z" fill="#1919D3"/>
    <path d="M21.339 41.1158L24.9098 44.8073L24.9547 44.8511L24.5981 39.5815C23.6534 39.6646 22.7088 39.7499 21.8208 39.8399C21.676 39.8534 21.538 39.9065 21.4228 39.9932C21.3075 40.0798 21.2196 40.1966 21.1693 40.3299C21.119 40.4632 21.1082 40.6077 21.1382 40.7467C21.1682 40.8858 21.2379 41.0137 21.339 41.1158Z" fill="#1919D3"/>
    <path d="M53.4619 47.7718L51.5537 47.7234L51.9764 44.761L53.7878 45.1532C54.0896 45.2183 54.3596 45.3821 54.5533 45.6174C54.747 45.8527 54.8526 46.1456 54.8529 46.4475C54.8529 46.6244 54.8168 46.7995 54.7464 46.9624C54.6761 47.1254 54.5731 47.273 54.4434 47.3964C54.3138 47.5198 54.1601 47.6167 53.9915 47.6811C53.823 47.7456 53.6429 47.7765 53.4619 47.7718Z" fill="#407BFF"/>
    <path opacity="0.3" d="M52.4936 44.874L51.9764 44.761L51.5537 47.7234L52.0827 47.7372L52.4936 44.874Z" fill="#1919D3"/>
    <path opacity="0.2" d="M2 60.706L2.80531 59.9215C3.02914 59.7045 3.20693 59.4465 3.3285 59.1622C3.45008 58.878 3.51305 58.5731 3.5138 58.265V54.9357C3.51365 54.603 3.4409 54.274 3.30041 53.9709C3.15992 53.6677 2.95491 53.3973 2.69904 53.1777L2.00708 52.5847L2 60.706Z" fill="white"/>
    <path d="M55.4216 15.105C54.287 16.8326 53.5242 18.7305 53.1175 20.6878L50 20.9812V27.0186L53.1178 27.3125C53.5237 29.2692 54.287 31.1671 55.4216 32.8953L53.4303 35.3004L57.6995 39.5696L60.1047 37.5785C61.8326 38.7128 63.7303 39.4761 65.6876 39.8823L65.9812 43H72.0188L72.3124 39.8823C74.2697 39.4756 76.1674 38.7126 77.8953 37.5782L80.3005 39.5693L84.5697 35.3001L82.5787 32.895C83.713 31.1671 84.476 29.2695 84.8822 27.3122L87.9995 27.0186L88 20.9812L84.8825 20.6872C84.476 18.7302 83.7127 16.8326 82.5784 15.1047L84.5697 12.6996L80.3005 8.43045L77.8953 10.4215C76.1674 9.2869 74.2695 8.52361 72.3124 8.11745L72.0185 5H65.981L65.6873 8.11772C63.73 8.52416 61.8323 9.2869 60.1047 10.4215L57.6995 8.43018L53.4303 12.6994L55.4216 15.1045V15.105ZM74.6241 18.651C77.7299 21.7567 77.7302 26.7927 74.6241 29.8987C71.5178 33.005 66.4817 33.0045 63.3759 29.8987C60.2698 26.7927 60.2698 21.757 63.3759 18.6507C66.4819 15.5447 71.5175 15.5447 74.6239 18.6507L74.6241 18.651Z" fill="#1919D3"/>
    <path d="M35.8548 21.457C35.4666 22.0481 35.2057 22.6973 35.0665 23.3669L34 23.4673V25.5327L35.0666 25.6333C35.2055 26.3027 35.4666 26.952 35.8548 27.5432L35.1735 28.366L36.6341 29.8265L37.4569 29.1453C38.048 29.5334 38.6972 29.7945 39.3668 29.9335L39.4673 31.0001H41.5327L41.6332 29.9335C42.3028 29.7943 42.952 29.5333 43.5431 29.1452L44.3659 29.8264L45.8265 28.3659L45.1453 27.5431C45.5334 26.952 45.7944 26.3028 45.9334 25.6332L46.9998 25.5327L47 23.4673L45.9335 23.3667C45.7944 22.6972 45.5333 22.0481 45.1452 21.4569L45.8265 20.6342L44.3659 19.1736L43.5431 19.8548C42.952 19.4666 42.3027 19.2055 41.6332 19.0666L41.5326 18.0001H39.4672L39.3667 19.0667C38.6971 19.2057 38.0479 19.4666 37.4569 19.8548L36.6341 19.1735L35.1735 20.6341L35.8548 21.4569V21.457ZM42.4241 22.6701C43.4866 23.7326 43.4867 25.4555 42.4241 26.5181C41.3614 27.5807 39.6385 27.5805 38.576 26.5181C37.5133 25.4555 37.5133 23.7327 38.576 22.67C39.6386 21.6075 41.3613 21.6075 42.424 22.67L42.4241 22.6701Z" fill="#407BFF"/>
</svg>
