<svg width="24" height="24" viewBox="0 0 24 24" fill="none" xmlns="http://www.w3.org/2000/svg">
<rect x="0.5" y="0.5" width="23" height="23" stroke="#CCE5F7"/>
<path d="M19 7.30181C18.4849 7.52308 17.9318 7.67242 17.3502 7.73885C17.9432 7.39531 18.3987 6.85123 18.6136 6.20308C18.0583 6.52081 17.4439 6.75265 16.7896 6.87662C16.2654 6.33719 15.5188 6 14.6922 6C13.1058 6 11.8206 7.243 11.8206 8.77665C11.8206 8.99412 11.8455 9.2065 11.8945 9.40958C9.50738 9.29365 7.3911 8.18815 5.97412 6.50812C5.72731 6.9185 5.58552 7.39531 5.58552 7.90427C5.58552 8.86804 6.09271 9.71758 6.8629 10.216C6.39247 10.2012 5.94961 10.0768 5.56233 9.86862C5.56189 9.88004 5.56189 9.89231 5.56189 9.90331C5.56189 11.2491 6.55176 12.3715 7.8659 12.6267C7.62522 12.6897 7.37141 12.724 7.10928 12.724C6.92373 12.724 6.74431 12.7066 6.56927 12.6745C6.93423 13.777 7.99544 14.58 9.25181 14.6028C8.26938 15.3475 7.03095 15.7921 5.6853 15.7921C5.45336 15.7921 5.22449 15.779 5 15.7532C6.27082 16.5401 7.78057 17 9.40279 17C14.6856 17 17.5751 12.7688 17.5751 9.09904C17.5751 8.97888 17.5716 8.85873 17.5664 8.73942C18.1278 8.34808 18.6145 7.85942 19 7.30181Z" fill="#CCE5F7"/>
</svg>
