<svg width="24" height="24" viewBox="0 0 24 24" fill="none" xmlns="http://www.w3.org/2000/svg">
<rect x="0.5" y="0.5" width="23" height="23" stroke="#CCE5F7"/>
<path d="M16.0689 11.9575H8.58218C7.39216 11.9575 6.42749 12.9231 6.42749 14.1129V15.8448C6.42749 17.0346 7.39216 18 8.58218 18H16.0689C17.2586 18 18.2235 17.0346 18.2235 15.8448V14.1129C18.2235 12.9231 17.2586 11.9575 16.0689 11.9575ZM10.1551 13.3058H9.45906V16.7643H8.7866V13.3058H8.09106V12.7175H10.1551V13.3058ZM12.1212 16.7643H11.5248V16.4372C11.4139 16.5581 11.2996 16.6505 11.1804 16.7128C11.0611 16.7777 10.9459 16.808 10.8338 16.808C10.6953 16.808 10.5923 16.764 10.5218 16.6745C10.4526 16.5853 10.4172 16.453 10.4172 16.2743V13.7786H11.0137V16.069C11.0137 16.1397 11.0269 16.1904 11.0507 16.2219C11.0765 16.2544 11.1173 16.2693 11.1734 16.2693C11.2167 16.2693 11.2725 16.2486 11.3396 16.2068C11.4071 16.1644 11.4687 16.1115 11.5248 16.0461V13.7784H12.1212V16.7643ZM14.2867 16.1478C14.2867 16.3588 14.2398 16.5209 14.1463 16.6339C14.0532 16.7469 13.9171 16.8025 13.7408 16.8025C13.6234 16.8025 13.519 16.7813 13.4284 16.7376C13.3372 16.6943 13.2513 16.6276 13.1732 16.5353V16.764H12.5695V12.7175H13.1732V14.0208C13.254 13.9306 13.3394 13.8606 13.4286 13.8137C13.5197 13.7659 13.6114 13.7428 13.7042 13.7428C13.893 13.7428 14.0368 13.8058 14.1364 13.933C14.2365 14.0603 14.2862 14.2466 14.2862 14.491V16.1478H14.2867ZM16.3558 15.3433H15.2143V15.9059C15.2143 16.0627 15.2336 16.1719 15.2725 16.2327C15.3125 16.2938 15.3796 16.3236 15.4751 16.3236C15.5741 16.3236 15.6427 16.2979 15.6826 16.2464C15.7211 16.1945 15.7418 16.0815 15.7418 15.9059V15.77H16.3558V15.9232C16.3558 16.2291 16.2815 16.4598 16.1307 16.6154C15.9823 16.7695 15.7586 16.846 15.4613 16.846C15.1937 16.846 14.9827 16.7645 14.8295 16.6005C14.6768 16.4374 14.5989 16.2111 14.5989 15.9234V14.5824C14.5989 14.3243 14.684 14.112 14.8531 13.9491C15.0217 13.7863 15.2389 13.705 15.5061 13.705C15.7795 13.705 15.9895 13.7803 16.136 13.9313C16.2824 14.0826 16.3558 14.2991 16.3558 14.5822V15.3433Z" fill="#CCE5F7"/>
<path d="M15.4808 14.2268C15.3856 14.2268 15.3178 14.2535 15.2764 14.3093C15.2341 14.3617 15.2144 14.4514 15.2144 14.5767V14.8786H15.7418V14.5767C15.7418 14.4514 15.7206 14.3615 15.6788 14.3093C15.6386 14.2537 15.5715 14.2268 15.4808 14.2268Z" fill="#CCE5F7"/>
<path d="M13.423 14.2168C13.3807 14.2168 13.3378 14.2262 13.2967 14.2457C13.2549 14.2647 13.214 14.2962 13.1736 14.337V16.1969C13.2214 16.245 13.2688 16.282 13.315 16.3032C13.3609 16.3236 13.4086 16.3352 13.4593 16.3352C13.5327 16.3352 13.5861 16.314 13.6204 16.2712C13.6544 16.2289 13.6717 16.1613 13.6717 16.0658V14.5239C13.6717 14.4224 13.6515 14.3464 13.6091 14.2942C13.5654 14.2428 13.5033 14.2168 13.423 14.2168Z" fill="#CCE5F7"/>
<path d="M9.56231 10.9204H10.3185V9.07091L11.1989 6.46191H10.4303L9.96227 8.24406H9.91465L9.4233 6.46191H8.66162L9.56231 9.15413V10.9204Z" fill="#CCE5F7"/>
<path d="M12.2234 11.0032C12.5288 11.0032 12.7684 10.9231 12.943 10.7629C13.1164 10.602 13.2032 10.3825 13.2032 10.1011V8.40213C13.2032 8.15177 13.1144 7.94565 12.9377 7.78668C12.7597 7.62819 12.5317 7.54834 12.2537 7.54834C11.9482 7.54834 11.7051 7.62386 11.5242 7.77466C11.3438 7.92545 11.2532 8.12772 11.2532 8.38337V10.0881C11.2532 10.3678 11.3414 10.589 11.5177 10.755C11.694 10.9202 11.9297 11.0032 12.2234 11.0032ZM11.9449 8.35836C11.9449 8.28693 11.9706 8.22921 12.0209 8.18399C12.0731 8.13974 12.1392 8.11834 12.2214 8.11834C12.3102 8.11834 12.3821 8.13974 12.4369 8.18399C12.4915 8.22921 12.5187 8.28693 12.5187 8.35836V10.1504C12.5187 10.2381 12.492 10.3079 12.4379 10.3582C12.3843 10.4087 12.3121 10.4334 12.2214 10.4334C12.1327 10.4334 12.0642 10.4094 12.0161 10.3589C11.9687 10.3096 11.9446 10.2403 11.9446 10.1501L11.9449 8.35836Z" fill="#CCE5F7"/>
<path d="M14.2178 10.9686C14.344 10.9686 14.4737 10.9325 14.6071 10.8633C14.7421 10.793 14.8712 10.6903 14.9941 10.5564V10.9207H15.6658V7.63184H14.9941V10.1283C14.9316 10.1997 14.8621 10.2584 14.7875 10.3051C14.7115 10.3512 14.649 10.3743 14.5997 10.3743C14.5367 10.3743 14.4903 10.357 14.4631 10.3212C14.4354 10.2868 14.4198 10.2305 14.4198 10.1533V7.63184H13.749V10.3806C13.749 10.5766 13.7885 10.723 13.8664 10.8202C13.9458 10.9188 14.0617 10.9686 14.2178 10.9686Z" fill="#CCE5F7"/>
</svg>
